<?xml version="1.0" standalone="no"?>
<!DOCTYPE svg PUBLIC "-//W3C//DTD SVG 1.1//EN" "http://www.w3.org/Graphics/SVG/1.1/DTD/svg11.dtd" >
<svg xmlns="http://www.w3.org/2000/svg" xmlns:xlink="http://www.w3.org/1999/xlink" version="1.1">
<metadata>
Created by FontForge 20170731 at Mon Nov 23 15:49:06 2015
 By Aleksey,,,
(C) 2015 Frere-Jones Type LLC
</metadata>
<defs>
<font id="Mallory-Book" horiz-adv-x="0" >
  <font-face 
    font-family="Mallory Book"
    font-weight="400"
    font-stretch="normal"
    units-per-em="1000"
    panose-1="2 1 5 1 3 5 1 2 3 4"
    ascent="800"
    descent="-200"
    x-height="500"
    cap-height="700"
    bbox="-223 -259 1419 1070"
    underline-thickness="50"
    underline-position="-200"
    unicode-range="U+0020-FB02"
  />
<missing-glyph horiz-adv-x="700" 
d="M100 -240v1200h500v-1200h-500zM192 910l158 -481l157 481h-315zM321 360l-171 514v-1028zM378 360l172 -514v1028zM350 291l-158 -481h315z" />
    <glyph glyph-name="fi" unicode="fi" horiz-adv-x="670" 
d="M597 679q0 -26 -18 -44t-44 -18t-44 18t-18 44t18 44t44 18t44 -18t18 -44zM490 0v500h90v-500h-90zM384 423h-165v-423h-90v423h-89v77h89v79q0 83 45 130.5t123 47.5q46 0 85 -18l15 -92l-2 -2q-50 29 -92 29q-39 0 -61.5 -24.5t-22.5 -67.5v-82h165v-77z" />
    <glyph glyph-name="fl" unicode="fl" horiz-adv-x="670" 
d="M490 0v726l90 33v-759h-90zM384 423h-165v-423h-90v423h-89v77h89v79q0 83 45 130.5t123 47.5q46 0 85 -18l15 -92l-2 -2q-50 29 -92 29q-39 0 -61.5 -24.5t-22.5 -67.5v-82h165v-77z" />
    <glyph glyph-name="f_f" unicode="ff" horiz-adv-x="801" 
d="M784 423h-165v-423h-90v423h-89v77h89v79q0 83 45 130.5t123 47.5q46 0 85 -18l15 -92l-2 -2q-50 29 -92 29q-39 0 -61.5 -24.5t-22.5 -67.5v-82h165v-77zM384 423h-165v-423h-90v423h-89v77h89v79q0 83 45 130.5t123 47.5q46 0 85 -18l15 -92l-2 -2q-50 29 -92 29
q-39 0 -61.5 -24.5t-22.5 -67.5v-82h165v-77z" />
    <glyph glyph-name="f_f_i" unicode="ffi" horiz-adv-x="1071" 
d="M998 679q0 -26 -18 -44t-44 -18t-44 18t-18 44t18 44t44 18t44 -18t18 -44zM891 0v500h90v-500h-90zM784 423h-165v-423h-90v423h-89v77h89v79q0 83 45 130.5t123 47.5q46 0 85 -18l15 -92l-2 -2q-50 29 -92 29q-39 0 -61.5 -24.5t-22.5 -67.5v-82h165v-77zM384 423h-165
v-423h-90v423h-89v77h89v79q0 83 45 130.5t123 47.5q46 0 85 -18l15 -92l-2 -2q-50 29 -92 29q-39 0 -61.5 -24.5t-22.5 -67.5v-82h165v-77z" />
    <glyph glyph-name="f_f_l" unicode="ffl" horiz-adv-x="1071" 
d="M891 0v726l90 33v-759h-90zM784 423h-165v-423h-90v423h-89v77h89v79q0 83 45 130.5t123 47.5q46 0 85 -18l15 -92l-2 -2q-50 29 -92 29q-39 0 -61.5 -24.5t-22.5 -67.5v-82h165v-77zM384 423h-165v-423h-90v423h-89v77h89v79q0 83 45 130.5t123 47.5q46 0 85 -18l15 -92
l-2 -2q-50 29 -92 29q-39 0 -61.5 -24.5t-22.5 -67.5v-82h165v-77z" />
    <glyph glyph-name=".notdef" horiz-adv-x="700" 
d="M100 -240v1200h500v-1200h-500zM192 910l158 -481l157 481h-315zM321 360l-171 514v-1028zM378 360l172 -514v1028zM350 291l-158 -481h315z" />
    <glyph glyph-name="uni0000" 
 />
    <glyph glyph-name="uni0000" 
 />
    <glyph glyph-name="nonmarkingreturn" horiz-adv-x="333" 
 />
    <glyph glyph-name="space" unicode=" " horiz-adv-x="216" 
 />
    <glyph glyph-name="exclam" unicode="!" horiz-adv-x="259" 
d="M179 589l-30 -365h-39l-29 365v111h98v-111zM62 59q0 28 20 48t48 20t47.5 -20t19.5 -48t-19.5 -48t-47.5 -20t-48 20t-20 48z" />
    <glyph glyph-name="quotedbl" unicode="&#x22;" horiz-adv-x="444" 
d="M318 700h111l-157 -292l-37 14zM124 700h112l-158 -292l-36 14z" />
    <glyph glyph-name="numbersign" unicode="#" horiz-adv-x="670" 
d="M413 260l43 180h-189l-43 -180h189zM352 -2l42 179h-189l-42 -179h-62l42 179h-113v83h132l43 180h-125v83h144l42 179h62l-42 -179h189l42 179h62l-42 -179h103v-83h-122l-43 -180h115v-83h-134l-42 -179h-62z" />
    <glyph glyph-name="dollar" unicode="$" horiz-adv-x="586" 
d="M150 520q0 -45 28.5 -70t95.5 -46l21 216h-9q-61 0 -98.5 -27.5t-37.5 -72.5zM444 189q0 44 -28.5 70t-93.5 45l-22 -224q67 2 105.5 31t38.5 78zM278 -163h-61l16 164q-93 13 -167 67l-21 110l2 1q103 -77 196 -94l23 235q-99 24 -150.5 66t-51.5 129q0 85 65.5 136
t167.5 51h4l12 121h61l-12 -126q73 -11 133 -47v-104h-2q-70 49 -141 66l-22 -224q100 -26 150 -67.5t50 -127.5q0 -88 -65 -140t-171 -55z" />
    <glyph glyph-name="percent" unicode="%" horiz-adv-x="928" 
d="M216 311q-75 0 -123 56t-48 145t49 145.5t124 56.5t123 -56t48 -144q0 -90 -48.5 -146.5t-124.5 -56.5zM187 -2l251 369l221 335h82l-251 -369l-221 -335h-82zM122 513q0 -59 26 -96.5t70 -37.5q42 0 68 37t26 96q0 60 -26 97t-70 37q-42 0 -68 -37t-26 -96zM712 389
q75 0 123 -56t48 -145t-49 -145.5t-124 -56.5t-123 56t-48 144q0 90 48.5 146.5t124.5 56.5zM806 187q0 60 -26 97t-70 37q-42 0 -68 -37t-26 -96t26 -96.5t70 -37.5q42 0 68 37t26 96z" />
    <glyph glyph-name="ampersand" unicode="&#x26;" horiz-adv-x="701" 
d="M237 539q0 -57 53 -136q126 74 126 146q0 40 -24 65.5t-59 25.5q-44 0 -70 -28.5t-26 -72.5zM240 74q77 0 158 78q-94 96 -141 157q-65 -36 -93 -68t-28 -67q0 -41 29 -70.5t75 -29.5zM560 0q-34 31 -105 97q-105 -104 -221 -104q-85 0 -137 50t-52 126q0 62 40 110.5
t128 91.5q-65 99 -65 167q0 76 52.5 126t137.5 50q72 0 119.5 -45.5t47.5 -114.5q0 -118 -172 -209q50 -63 120 -133q53 62 116 153h97l-1 -3q-99 -142 -155 -206q79 -74 169 -153v-3h-119z" />
    <glyph glyph-name="quotesingle" unicode="'" horiz-adv-x="250" 
d="M124 700h112l-158 -292l-36 14z" />
    <glyph glyph-name="parenleft" unicode="(" horiz-adv-x="409" 
d="M162 305q0 -236 223 -415l-26 -30q-135 91 -209.5 197t-74.5 248t74.5 248t209.5 197l26 -30q-223 -179 -223 -415z" />
    <glyph glyph-name="parenright" unicode=")" horiz-adv-x="409" 
d="M247 305q0 236 -223 415l26 30q135 -91 209.5 -197t74.5 -248t-74.5 -248t-209.5 -197l-26 30q223 179 223 415z" />
    <glyph glyph-name="asterisk" unicode="*" horiz-adv-x="519" 
d="M209 705h101l-42 -171h-17zM444 608l31 -96l-175 -14l-6 17zM219 498l-175 14l32 96l150 -93zM424 354l-82 -59l-66 162l13 11zM244 457l-66 -162l-83 59l135 114z" />
    <glyph glyph-name="plus" unicode="+" horiz-adv-x="600" 
d="M550 310h-208v-211h-84v211h-208v80h208v210h84v-210h208v-80z" />
    <glyph glyph-name="comma" unicode="," horiz-adv-x="205" 
d="M15 -167l-27 23q46 61 62 104.5t16 117.5v31h93q0 -68 -18.5 -118.5t-45.5 -81t-80 -76.5z" />
    <glyph glyph-name="hyphen" unicode="-" horiz-adv-x="389" 
d="M64 317h261v-85h-261v85z" />
    <glyph glyph-name="period" unicode="." horiz-adv-x="205" 
d="M35 59q0 28 20 48t48 20t47.5 -20t19.5 -48t-19.5 -48t-47.5 -20t-48 20t-20 48z" />
    <glyph glyph-name="slash" unicode="/" horiz-adv-x="455" 
d="M-6 -130l352 870h78l-352 -870h-78z" />
    <glyph glyph-name="zero" unicode="0" horiz-adv-x="674" 
d="M336 -14q-126 0 -200 103t-74 260q0 156 75.5 260.5t200.5 104.5t199.5 -103.5t74.5 -259.5q0 -158 -75.5 -261.5t-200.5 -103.5zM155 351q0 -122 50.5 -201t132.5 -79q80 0 130.5 78t50.5 200t-51 201t-132 79t-131 -78.5t-50 -199.5z" />
    <glyph glyph-name="one" unicode="1" horiz-adv-x="434" 
d="M319 0h-93v565l-182 -116v100l258 164l17 -5v-708z" />
    <glyph glyph-name="two" unicode="2" horiz-adv-x="577" 
d="M57 0l-8 18l246 299q56 68 77.5 108.5t21.5 85.5q0 47 -31.5 80.5t-82.5 33.5q-104 0 -201 -140h-2l-15 105q92 120 224 120q89 0 144.5 -52t55.5 -139q0 -60 -25.5 -111t-88.5 -125l-169 -200h330l-47 -83h-429z" />
    <glyph glyph-name="three" unicode="3" horiz-adv-x="548" 
d="M261 -11q-62 0 -103 14t-90 44l-17 109l2 1q58 -43 104.5 -63t100.5 -20q58 0 98.5 31.5t40.5 82.5q0 59 -54.5 95t-175.5 53v36q120 38 167 74t47 85q0 43 -30.5 69t-80.5 26q-83 0 -194 -83h-2v103q51 32 96 48.5t106 16.5q94 0 147 -47t53 -123q0 -110 -136 -174
q76 -22 114.5 -70.5t38.5 -109.5q0 -87 -68.5 -142.5t-163.5 -55.5z" />
    <glyph glyph-name="four" unicode="4" horiz-adv-x="623" 
d="M387 239v349l-236 -349h236zM587 163h-114v-163h-88v163h-357l-4 22l355 520h94v-466h114v-76z" />
    <glyph glyph-name="five" unicode="5" horiz-adv-x="578" 
d="M268 -12q-104 0 -189 44l-15 101q109 -62 200 -62q71 0 116.5 42t45.5 105q0 64 -42 100.5t-116 36.5q-82 0 -165 -36l-15 7l26 374h375v-85h-294l-14 -192q54 17 107 17q105 0 169.5 -59t64.5 -159q0 -99 -69.5 -166.5t-184.5 -67.5z" />
    <glyph glyph-name="six" unicode="6" horiz-adv-x="599" 
d="M298 -14q-111 0 -175.5 67.5t-64.5 181.5q0 72 32 142t109 176l107 147h109l-132 -178q-42 -58 -66 -97q61 22 122 22q86 0 148.5 -60t62.5 -159q0 -101 -71.5 -171.5t-180.5 -70.5zM300 68q69 0 113 44t44 111q0 73 -44.5 109.5t-120.5 36.5q-52 0 -113 -14
q-28 -60 -28 -118q0 -77 41 -123t108 -46z" />
    <glyph glyph-name="seven" unicode="7" horiz-adv-x="576" 
d="M217 0h-101l307 617h-355l-18 83h490l9 -14z" />
    <glyph glyph-name="eight" unicode="8" horiz-adv-x="612" 
d="M305 -12q-107 0 -176.5 56t-69.5 141q0 57 33 101.5t88 69.5q-101 55 -101 162q0 82 64 138t164 56q99 0 162.5 -56t63.5 -138q0 -51 -27 -93.5t-74 -67.5q55 -25 88 -70t33 -102q0 -85 -70.5 -141t-177.5 -56zM171 515q0 -51 39 -86t97 -35q57 0 95.5 35t38.5 86
q0 49 -37.5 82.5t-98.5 33.5t-97.5 -33t-36.5 -83zM150 193q0 -55 45 -89.5t112 -34.5t111 34.5t44 89.5q0 53 -47.5 88t-109.5 35t-108.5 -35t-46.5 -88z" />
    <glyph glyph-name="nine" unicode="9" horiz-adv-x="599" 
d="M293 0h-109l131 178q32 43 61 87q-56 -20 -116 -20q-88 0 -149.5 61t-61.5 162q0 102 71 174t181 72t175 -68t65 -181q0 -72 -32 -142t-109 -176zM308 323q50 0 108 14q32 65 32 126q0 76 -41 122.5t-108 46.5q-69 0 -113 -45.5t-44 -113.5q0 -150 166 -150z" />
    <glyph glyph-name="colon" unicode=":" horiz-adv-x="224" 
d="M45 441q0 28 19.5 48t47.5 20t48 -20t20 -48t-20 -48t-48 -20t-47.5 20t-19.5 48zM45 59q0 28 19.5 48t47.5 20t48 -20t20 -48t-20 -48t-48 -20t-47.5 20t-19.5 48z" />
    <glyph glyph-name="semicolon" unicode=";" horiz-adv-x="224" 
d="M47 441q0 28 20 48t48 20t48 -20t20 -48t-20 -48t-48 -20t-48 20t-20 48zM20 -167l-27 23q46 61 62 104.5t16 117.5v31h93q0 -68 -18.5 -118.5t-45.5 -81t-80 -76.5z" />
    <glyph glyph-name="less" unicode="&#x3c;" horiz-adv-x="600" 
d="M537 97l-484 241v25l484 240v-88l-340 -164l340 -164v-90z" />
    <glyph glyph-name="equal" unicode="=" horiz-adv-x="600" 
d="M540 410h-480v80h480v-80zM540 210h-480v80h480v-80z" />
    <glyph glyph-name="greater" unicode="&#x3e;" horiz-adv-x="600" 
d="M63 97v88l340 165l-340 163v90l484 -240v-25z" />
    <glyph glyph-name="question" unicode="?" horiz-adv-x="483" 
d="M44 623q92 87 206 87q82 0 133 -44.5t51 -121.5q0 -60 -30.5 -95.5t-93.5 -69.5q-52 -29 -69 -44.5t-17 -34.5q0 -27 27 -75h-55q-30 36 -41 57t-11 46q0 33 23.5 55.5t81.5 53.5q54 30 75 52.5t21 55.5q0 36 -28 58.5t-72 22.5q-51 0 -97 -25.5t-102 -81.5l-2 1v103z
M148 59q0 28 20 48t48 20t47.5 -20t19.5 -48t-19.5 -48t-47.5 -20t-48 20t-20 48z" />
    <glyph glyph-name="at" unicode="@" horiz-adv-x="1024" 
d="M470 -185q-197 0 -311 103.5t-114 284.5q0 103 41.5 201t111.5 173.5t171.5 121.5t213.5 46q179 0 287.5 -103t108.5 -269q0 -134 -67 -225t-179 -91q-51 0 -87.5 23t-43.5 61q-100 -83 -185 -83q-63 0 -101 40t-38 111q0 114 89.5 206t216.5 92q56 0 108 -27l41 18h23
l-73 -301q-5 -23 -5 -36q0 -31 20.5 -49t55.5 -18q82 0 136.5 81.5t54.5 196.5q0 156 -98.5 249t-265.5 93q-136 0 -252.5 -72.5t-182.5 -189.5t-66 -247q0 -170 103.5 -264.5t288.5 -94.5q156 0 289 53v-34q-138 -50 -291 -50zM447 131q62 0 158 69l54 218q-37 17 -80 17
q-92 0 -156.5 -67t-64.5 -149q0 -88 89 -88z" />
    <glyph glyph-name="A" unicode="A" horiz-adv-x="789" 
d="M539 265l-143 329l-148 -329h291zM654 0l-78 180h-366l-81 -180h-100l326 704h89l314 -704h-104z" />
    <glyph glyph-name="B" unicode="B" horiz-adv-x="617" 
d="M309 0h-209v700h211q103 0 162 -48.5t59 -134.5q0 -102 -106 -153q65 -19 101 -61.5t36 -104.5q0 -91 -70.5 -144.5t-183.5 -53.5zM193 617v-219h102q64 0 102.5 31.5t38.5 81.5q0 49 -35.5 77.5t-95.5 28.5h-112zM193 83h121q71 0 112 32.5t41 84.5q0 55 -41.5 85.5
t-116.5 30.5h-116v-233z" />
    <glyph glyph-name="C" unicode="C" horiz-adv-x="721" 
d="M404 -12q-146 0 -247.5 100.5t-101.5 261.5q0 154 107 258t256 104q136 0 234 -87v-117h-2q-114 114 -237 114q-105 0 -182 -78.5t-77 -190.5q0 -121 76.5 -198t179.5 -77q134 0 253 114l2 -2l-14 -112q-113 -90 -247 -90z" />
    <glyph glyph-name="D" unicode="D" horiz-adv-x="783" 
d="M329 612h-132v-524h136q128 0 211.5 71t83.5 191q0 124 -82 193t-217 69zM100 0v700h231q181 0 288.5 -93.5t107.5 -254.5q0 -159 -111.5 -255.5t-284.5 -96.5h-231z" />
    <glyph glyph-name="E" unicode="E" horiz-adv-x="584" 
d="M100 0v700h394l29 -87h-326v-214h273v-86h-273v-226h329l-29 -87h-397z" />
    <glyph glyph-name="F" unicode="F" horiz-adv-x="542" 
d="M449 300h-252v-300h-97v700h412l-30 -87h-285v-226h252v-87z" />
    <glyph glyph-name="G" unicode="G" horiz-adv-x="795" 
d="M702 77q-131 -87 -287 -87q-159 0 -259.5 98t-100.5 260q0 158 109 260t275 102q132 0 245 -60v-108q-128 77 -248 77q-119 0 -200.5 -77t-81.5 -192q0 -123 75.5 -196.5t190.5 -73.5q105 0 187 46v150h-201v88h296v-287z" />
    <glyph glyph-name="H" unicode="H" horiz-adv-x="816" 
d="M619 0v313h-422v-313h-97v700h97v-298h422v298h96v-700h-96z" />
    <glyph glyph-name="I" unicode="I" horiz-adv-x="307" 
d="M105 0v700h97v-700h-97z" />
    <glyph glyph-name="J" unicode="J" horiz-adv-x="459" 
d="M267 197v503h97v-515q0 -94 -51.5 -144.5t-136.5 -50.5q-69 0 -122 35l-23 109l2 1q67 -55 128 -55q49 0 77.5 30t28.5 87z" />
    <glyph glyph-name="K" unicode="K" horiz-adv-x="690" 
d="M552 0l-332 316h-23v-316h-97v700h97v-301h24l329 301h125v-3l-377 -337l381 -357v-3h-127z" />
    <glyph glyph-name="L" unicode="L" horiz-adv-x="537" 
d="M100 0v700h97v-613h301v-87h-398z" />
    <glyph glyph-name="M" unicode="M" horiz-adv-x="1029" 
d="M505 -11l-314 614v-603h-91v700h143l270 -538l269 538h146v-700h-94v608l-314 -619h-15z" />
    <glyph glyph-name="N" unicode="N" horiz-adv-x="823" 
d="M689 -5l-497 566v-561h-92v700h89l442 -503v503h91v-705h-33z" />
    <glyph glyph-name="O" unicode="O" horiz-adv-x="841" 
d="M55 349q0 154 106 259.5t261 105.5q154 0 259 -105.5t105 -257.5q0 -154 -106 -259.5t-260 -105.5q-155 0 -260 105.5t-105 257.5zM154 351q0 -116 77 -195.5t189 -79.5q109 0 188 79t79 194t-79 195t-190 80q-109 0 -186.5 -79t-77.5 -194z" />
    <glyph glyph-name="P" unicode="P" horiz-adv-x="592" 
d="M196 614v-275h96q72 0 116 38t44 104q0 61 -42 97t-113 36h-101zM292 252h-95v-252h-97v700h200q111 0 180.5 -56.5t69.5 -161.5q0 -107 -72.5 -168.5t-185.5 -61.5z" />
    <glyph glyph-name="Q" unicode="Q" horiz-adv-x="841" 
d="M658 -150q-71 0 -129.5 29t-124.5 107q-150 7 -249.5 111t-99.5 252q0 154 106 259.5t261 105.5q154 0 259 -105.5t105 -257.5q0 -125 -72.5 -221t-187.5 -129q63 -63 141 -63q48 0 92 17l2 -2l-32 -93q-35 -10 -71 -10zM418 624q-109 0 -186.5 -79t-77.5 -194
q0 -116 77 -195.5t189 -79.5q109 0 188 79t79 194t-79 195t-190 80z" />
    <glyph glyph-name="R" unicode="R" horiz-adv-x="635" 
d="M195 614v-249h101q63 0 104 35.5t41 92.5q0 55 -39.5 88t-100.5 33h-106zM519 0l-246 280h-76v-280h-97v700h204q103 0 169 -54.5t66 -152.5q0 -72 -44.5 -124.5t-118.5 -72.5l264 -296h-121z" />
    <glyph glyph-name="S" unicode="S" horiz-adv-x="554" 
d="M68 522q0 86 59 138t154 52q100 0 184 -53v-108h-2q-96 71 -186 71q-53 0 -84.5 -24.5t-31.5 -66.5q0 -41 31 -68.5t120 -67.5q94 -42 138 -89.5t44 -118.5q0 -89 -63.5 -144t-163.5 -55q-113 0 -205 69l-23 130l2 1q52 -49 113.5 -79.5t117.5 -30.5q57 0 92.5 27
t35.5 74q0 42 -33.5 70.5t-117.5 66.5q-92 41 -136.5 86t-44.5 120z" />
    <glyph glyph-name="T" unicode="T" horiz-adv-x="715" 
d="M680 613h-275v-613h-96v613h-274v87h645v-87z" />
    <glyph glyph-name="U" unicode="U" horiz-adv-x="789" 
d="M91 306v394h97v-396q0 -109 55.5 -168t152.5 -59q96 0 152 59t56 171v393h93v-394q0 -148 -80 -233t-223 -85q-142 0 -222.5 85t-80.5 233z" />
    <glyph glyph-name="V" unicode="V" horiz-adv-x="771" 
d="M370 -16l-339 716h108l246 -542l253 542h104l-350 -716h-22z" />
    <glyph glyph-name="W" unicode="W" horiz-adv-x="1176" 
d="M278 -4l-241 704h105l188 -578l252 586h17l244 -586l196 578h102l-252 -704h-94l-208 509l-216 -509h-93z" />
    <glyph glyph-name="X" unicode="X" horiz-adv-x="739" 
d="M590 0l-223 289l-220 -289h-112l276 355l-268 345h114l214 -277l214 277h111l-269 -345l277 -355h-114z" />
    <glyph glyph-name="Y" unicode="Y" horiz-adv-x="668" 
d="M382 0h-96v313l-273 387h115l208 -302l208 302h111l-273 -387v-313z" />
    <glyph glyph-name="Z" unicode="Z" horiz-adv-x="698" 
d="M613 0h-567l-7 14l448 599h-416v87h574l7 -14l-449 -599h457z" />
    <glyph glyph-name="bracketleft" unicode="[" horiz-adv-x="410" 
d="M107 -130v870h256l13 -56h-185v-758h185l-13 -56h-256z" />
    <glyph glyph-name="backslash" unicode="\" horiz-adv-x="455" 
d="M461 -130h-78l-351 870h78z" />
    <glyph glyph-name="bracketright" unicode="]" horiz-adv-x="410" 
d="M303 740v-870h-256l-13 56h185v758h-185l13 56h256z" />
    <glyph glyph-name="asciicircum" unicode="^" horiz-adv-x="600" 
d="M460 335l-161 264l-161 -264h-90l241 390h22l241 -390h-92z" />
    <glyph glyph-name="underscore" unicode="_" horiz-adv-x="600" 
d="M-2 -78h604v-62h-604v62z" />
    <glyph glyph-name="grave" unicode="`" horiz-adv-x="500" 
d="M273 603h-43l-163 167v2h122z" />
    <glyph glyph-name="a" unicode="a" horiz-adv-x="567" 
d="M402 -8v89q-109 -89 -202 -89q-65 0 -106.5 36t-41.5 98q0 35 14.5 63t50.5 53t108 39.5t177 15.5v2q0 127 -115 127q-84 0 -178 -72l-3 1l20 101q80 53 175 53q91 0 141 -52t50 -153v-292zM218 69q69 0 184 70v100q-81 -5 -136 -16.5t-80 -28t-34 -31.5t-9 -33
q0 -28 20 -44.5t55 -16.5z" />
    <glyph glyph-name="b" unicode="b" horiz-adv-x="616" 
d="M296 -8q-66 0 -135 29l-65 -21h-11v726l90 33v-332q83 83 176 83t156.5 -70t63.5 -176q0 -122 -81 -197t-194 -75zM294 72q79 0 132 52.5t53 133.5q0 77 -44 124t-111 47q-73 0 -149 -63v-270q59 -24 119 -24z" />
    <glyph glyph-name="c" unicode="c" horiz-adv-x="539" 
d="M473 45q-84 -57 -174 -57q-112 0 -183.5 72.5t-71.5 188.5q0 111 75 187t191 76q97 0 168 -60v-110h-3q-83 87 -167 87q-74 0 -122.5 -52.5t-48.5 -126.5q0 -78 46.5 -128.5t119.5 -50.5q92 0 183 78l3 -2z" />
    <glyph glyph-name="d" unicode="d" horiz-adv-x="620" 
d="M296 71q73 0 149 63v252q-67 42 -134 42q-75 0 -124.5 -51t-49.5 -130t46.5 -127.5t112.5 -48.5zM445 0v72q-81 -82 -173 -82q-95 0 -161.5 71t-66.5 179q0 120 76 194t176 74q77 0 149 -52v270l91 33v-759h-91z" />
    <glyph glyph-name="e" unicode="e" horiz-adv-x="559" 
d="M284 435q-62 0 -103 -43.5t-47 -109.5h290q-6 70 -42.5 111.5t-97.5 41.5zM467 33q-80 -44 -165 -44q-120 0 -189.5 71.5t-69.5 189.5q0 107 69 185.5t175 78.5q110 0 169 -75.5t59 -183.5q0 -25 -3 -40h-376q10 -69 57 -106.5t119 -37.5q89 0 184 61l3 -2z" />
    <glyph glyph-name="f" unicode="f" horiz-adv-x="400" 
d="M384 423h-165v-423h-90v423h-89v77h89v79q0 83 45 130.5t123 47.5q46 0 85 -18l15 -92l-2 -2q-50 29 -92 29q-39 0 -61.5 -24.5t-22.5 -67.5v-82h165v-77z" />
    <glyph glyph-name="g" unicode="g" horiz-adv-x="620" 
d="M292 89q72 0 153 66v248q-64 28 -124 28q-79 0 -131.5 -50.5t-52.5 -128.5q0 -74 43.5 -118.5t111.5 -44.5zM277 -196q-101 0 -196 46l-19 99l3 2q115 -64 216 -64q72 0 118 42.5t46 118.5v45q-86 -83 -180 -83q-96 0 -158.5 67t-62.5 170q0 117 81 189t194 72
q65 0 138 -30l67 22h12v-452q0 -114 -69.5 -179t-189.5 -65z" />
    <glyph glyph-name="h" unicode="h" horiz-adv-x="604" 
d="M328 429q-39 0 -73.5 -20t-79.5 -70v-339h-90v726l90 33v-353q42 54 84 79t94 25q78 0 127 -52t49 -143v-315h-90v306q0 58 -29.5 90.5t-81.5 32.5z" />
    <glyph glyph-name="i" unicode="i" horiz-adv-x="270" 
d="M197 679q0 -26 -18 -44t-44 -18t-44 18t-18 44t18 44t44 18t44 -18t18 -44zM90 0v500h90v-500h-90z" />
    <glyph glyph-name="j" unicode="j" horiz-adv-x="270" 
d="M197 679q0 -26 -18 -44t-44 -18t-44 18t-18 44t18 44t44 18t44 -18t18 -44zM181 500v-527q0 -83 -41.5 -125t-111.5 -42q-26 0 -49 7l-13 78q25 -7 46 -7q78 0 78 88v528h91z" />
    <glyph glyph-name="k" unicode="k" horiz-adv-x="551" 
d="M424 0l-220 220h-29v-220h-90v726l90 33v-471h28l209 212h113v-3l-244 -240l261 -254v-3h-118z" />
    <glyph glyph-name="l" unicode="l" horiz-adv-x="270" 
d="M90 0v726l90 33v-759h-90z" />
    <glyph glyph-name="m" unicode="m" horiz-adv-x="921" 
d="M315 429q-35 0 -66.5 -19.5t-73.5 -66.5v-343h-90v488l90 20v-98q76 100 167 100q54 0 95 -29t60 -82q43 58 85 84.5t95 26.5q75 0 122 -52t47 -143v-315h-91v306q0 58 -28 90.5t-77 32.5q-35 0 -67 -19.5t-74 -67.5q1 -8 1 -27v-315h-90v306q0 58 -28 90.5t-77 32.5z
" />
    <glyph glyph-name="n" unicode="n" horiz-adv-x="604" 
d="M328 429q-39 0 -73.5 -20t-79.5 -70v-339h-90v488l90 20v-102q42 54 84 79t94 25q78 0 127 -52t49 -143v-315h-90v306q0 58 -29.5 90.5t-81.5 32.5z" />
    <glyph glyph-name="o" unicode="o" horiz-adv-x="614" 
d="M43 249q0 106 74.5 185.5t190.5 79.5q120 0 191.5 -78t71.5 -184q0 -107 -74 -186.5t-191 -79.5q-119 0 -191 78.5t-72 184.5zM308 433q-76 0 -124 -53.5t-48 -130.5q0 -78 48.5 -130t121.5 -52q76 0 124.5 54t48.5 131t-48.5 129t-122.5 52z" />
    <glyph glyph-name="p" unicode="p" horiz-adv-x="620" 
d="M310 72q74 0 123.5 51t49.5 130q0 80 -46.5 128t-112.5 48q-73 0 -149 -63v-251q66 -43 135 -43zM325 -8q-78 0 -150 53v-236h-90v680l90 19v-81q80 83 173 83q95 0 161.5 -71t66.5 -179q0 -120 -76 -194t-175 -74z" />
    <glyph glyph-name="q" unicode="q" horiz-adv-x="616" 
d="M531 -191h-90v264q-83 -83 -176 -83t-157 70t-64 176q0 122 81 197t195 75q66 0 135 -29l65 21h11v-691zM292 71q73 0 149 63v270q-60 24 -120 24q-79 0 -131.5 -53t-52.5 -133q0 -77 44 -124t111 -47z" />
    <glyph glyph-name="r" unicode="r" horiz-adv-x="415" 
d="M175 0h-90v488l90 20v-127q56 70 92.5 98.5t81.5 28.5q15 0 32 -4l7 -95q-13 3 -27 3q-47 0 -90.5 -23t-95.5 -69v-320z" />
    <glyph glyph-name="s" unicode="s" horiz-adv-x="504" 
d="M457 138q0 -66 -57 -107.5t-144 -41.5q-104 0 -196 61l-19 108l3 2q111 -90 222 -90q45 0 74.5 17.5t29.5 45.5q0 31 -27.5 47.5t-108.5 35.5q-87 21 -130 53t-43 93q0 65 54 107t141 42q86 0 164 -46v-94l-3 -2q-94 61 -171 61q-45 0 -71.5 -16t-26.5 -42
q0 -29 28 -45.5t105 -34.5q91 -21 133.5 -54.5t42.5 -99.5z" />
    <glyph glyph-name="t" unicode="t" horiz-adv-x="447" 
d="M386 24q-47 -35 -114 -35q-68 0 -110.5 42.5t-42.5 124.5v267h-85v77h85v112l89 33v-145h196v-77h-196v-263q0 -90 83 -90q56 0 112 51l3 -2z" />
    <glyph glyph-name="u" unicode="u" horiz-adv-x="604" 
d="M429 0v94q-42 -54 -84 -79t-94 -25q-78 0 -127 52t-49 143v315h91v-306q0 -58 29.5 -90.5t81.5 -32.5q38 0 72.5 20t79.5 70v339h91v-500h-91z" />
    <glyph glyph-name="v" unicode="v" horiz-adv-x="569" 
d="M267 -14l-246 514h99l160 -353l172 353h98l-264 -514h-19z" />
    <glyph glyph-name="w" unicode="w" horiz-adv-x="879" 
d="M208 -7l-182 507h97l129 -387l182 393h17l169 -393l142 387h92l-196 -507h-75l-145 332l-154 -332h-76z" />
    <glyph glyph-name="x" unicode="x" horiz-adv-x="558" 
d="M423 0l-145 194l-147 -194h-103l199 256l-188 244h107l134 -179l135 179h103l-187 -242l198 -258h-106z" />
    <glyph glyph-name="y" unicode="y" horiz-adv-x="548" 
d="M122 -194q-45 0 -85 19l-18 91l3 2q43 -27 85 -27q69 0 106 86l22 51l-212 472h100l158 -369l148 369h98l-231 -554q-59 -140 -174 -140z" />
    <glyph glyph-name="z" unicode="z" horiz-adv-x="535" 
d="M470 0h-438l-5 15l314 407h-279v78h428l4 -14l-314 -408h318z" />
    <glyph glyph-name="braceleft" unicode="{" horiz-adv-x="492" 
d="M445 -130h-110q-85 0 -136 39.5t-51 107.5q0 40 30 102t30 85q0 31 -23 46.5t-75 23.5l-74 11v40l74 11q52 8 75 23.5t23 46.5q0 23 -30 85t-30 102q0 68 51 107.5t136 39.5h110l13 -56h-104q-113 0 -113 -85q0 -27 28 -90.5t28 -97.5q0 -41 -24.5 -65t-72.5 -41
q48 -17 72.5 -41t24.5 -65q0 -34 -28 -97.5t-28 -90.5q0 -42 29.5 -63.5t83.5 -21.5h104z" />
    <glyph glyph-name="bar" unicode="|" horiz-adv-x="378" 
d="M228 -130h-78v870h78v-870z" />
    <glyph glyph-name="braceright" unicode="}" horiz-adv-x="492" 
d="M157 -130h-110l-13 56h104q113 0 113 85q0 27 -28 90.5t-28 97.5q0 41 24.5 65t72.5 41q-48 17 -72.5 41t-24.5 65q0 34 28 97.5t28 90.5q0 42 -29.5 63.5t-83.5 21.5h-104l13 56h110q85 0 136 -39.5t51 -107.5q0 -40 -30 -102t-30 -85q0 -31 23 -46.5t75 -23.5l74 -11
v-40l-74 -11q-52 -8 -75 -23.5t-23 -46.5q0 -23 30 -85t30 -102q0 -68 -51 -107.5t-136 -39.5z" />
    <glyph glyph-name="asciitilde" unicode="~" horiz-adv-x="600" 
d="M193 448q31 0 114.5 -52.5t101.5 -52.5t34.5 20t48.5 82l53 -27q-43 -95 -73 -130.5t-65 -35.5q-31 0 -114.5 53t-101.5 53t-34.5 -20t-48.5 -83l-53 27q42 96 72 131t66 35z" />
    <glyph glyph-name="uni00A0" unicode="&#xa0;" horiz-adv-x="216" 
 />
    <glyph glyph-name="exclamdown" unicode="&#xa1;" horiz-adv-x="259" 
d="M197 641q0 -28 -19.5 -48t-47.5 -20t-48 20t-20 48t20 48t48 20t47.5 -20t19.5 -48zM81 111l29 365h39l30 -365v-111h-98v111z" />
    <glyph glyph-name="cent" unicode="&#xa2;" horiz-adv-x="545" 
d="M134 350q0 -62 32.5 -107t87.5 -60l33 339q-69 -7 -111 -56t-42 -116zM475 150q-81 -53 -169 -53l-10 -102h-62l10 107q-89 17 -142.5 83.5t-53.5 163.5q0 101 69 173t176 79l11 104h61l-10 -106q70 -9 126 -53v-105h-2q-69 66 -134 79l-33 -344q92 4 177 74l2 -1z" />
    <glyph glyph-name="sterling" unicode="&#xa3;" horiz-adv-x="579" 
d="M528 83l-19 -83h-449l-4 18q101 98 132.5 138t31.5 75q0 33 -21 72h-151v67h111q-52 84 -52 151q0 83 59.5 137t161.5 54q90 0 179 -51l14 -105h-3q-102 73 -192 73q-59 0 -93.5 -30t-34.5 -77q0 -31 13 -62.5t49 -89.5h205v-67h-169q13 -36 13 -68q0 -37 -19.5 -70
t-65.5 -82h304z" />
    <glyph glyph-name="yen" unicode="&#xa5;" horiz-adv-x="625" 
d="M552 161h-195v-161h-89v161h-196v57h196v83h-196v57h167l-215 342h106l184 -303l185 303h102l-216 -342h167v-57h-195v-83h195v-57z" />
    <glyph glyph-name="section" unicode="&#xa7;" horiz-adv-x="629" 
d="M323 146q47 -16 59 -21q117 48 117 116q0 43 -41 70t-152 61q-33 10 -60 21q-116 -47 -116 -115q0 -44 41 -71t152 -61zM309 -193q-112 0 -207 55l-19 107l2 2q123 -82 227 -82q50 0 79.5 22t29.5 56t-27 55.5t-101 46.5q-143 44 -198.5 87.5t-55.5 113.5q0 52 36.5 93
t107.5 64q-66 47 -66 126q0 72 56.5 115.5t147.5 43.5q112 0 194 -44v-97h-2q-109 59 -195 59q-51 0 -80.5 -22t-29.5 -57t27 -56t102 -45q143 -45 198 -88t55 -113q0 -52 -36.5 -93.5t-108.5 -64.5q67 -47 67 -126q0 -71 -56.5 -114.5t-146.5 -43.5z" />
    <glyph glyph-name="dieresis" unicode="&#xa8;" horiz-adv-x="500" 
d="M291 664q0 26 18 44t44 18t44 -18t18 -44t-18 -44t-44 -18t-44 18t-18 44zM85 664q0 26 18 44t44 18t44 -18t18 -44t-18 -44t-44 -18t-44 18t-18 44z" />
    <glyph glyph-name="copyright" unicode="&#xa9;" horiz-adv-x="890" 
d="M42 349q0 166 118.5 281.5t285.5 115.5q168 0 285 -115t117 -280q0 -166 -118.5 -281.5t-285.5 -115.5q-168 0 -285 115t-117 280zM74 351q0 -153 109 -259.5t263 -106.5q155 0 262.5 106t107.5 258q0 153 -109 259.5t-263 106.5q-155 0 -262.5 -106t-107.5 -258z
M629 243l2 -1l-12 -71q-73 -54 -165 -54q-101 0 -171.5 64.5t-70.5 168.5q0 101 72.5 167.5t177.5 66.5q93 0 163 -59v-74h-2q-80 73 -162 73q-75 0 -128.5 -50t-53.5 -123q0 -78 53 -126t125 -48q90 0 172 66z" />
    <glyph glyph-name="ordfeminine" unicode="&#xaa;" horiz-adv-x="496" 
d="M197 399q52 0 136 51v66q-189 -11 -189 -74q0 -43 53 -43zM335 347v63q-79 -68 -152 -68q-48 0 -78.5 26.5t-30.5 68.5q0 117 259 122q-1 86 -83 86q-64 0 -134 -51l-3 1l15 73q60 38 133 38q68 0 105 -36.5t37 -107.5v-213zM70 251h349v-56h-349v56z" />
    <glyph glyph-name="guillemotleft" unicode="&#xab;" horiz-adv-x="625" 
d="M564 489l-157 -238l157 -240l-33 -18l-231 249v16l231 249zM312 489l-157 -238l157 -240l-34 -18l-231 249v16l231 249z" />
    <glyph glyph-name="registered" unicode="&#xae;" horiz-adv-x="547" 
d="M273 285q-93 0 -157.5 63t-64.5 154q0 92 65 155t158 63q92 0 156.5 -63t64.5 -154q0 -92 -65 -155t-157 -63zM273 696q-83 0 -139.5 -56t-56.5 -138q0 -83 56.5 -138.5t140.5 -55.5q82 0 139 56.5t57 137.5q0 84 -56.5 139t-140.5 55zM233 598v-88h33q26 0 40 12t14 32
t-14 32t-39 12h-34zM344 383l-87 92h-24v-92h-42v250h81q40 0 65 -20.5t25 -56.5q0 -27 -16 -46t-43 -27l93 -100h-52z" />
    <glyph glyph-name="macron" unicode="&#xaf;" horiz-adv-x="500" 
d="M82 696h336v-68h-336v68z" />
    <glyph glyph-name="degree" unicode="&#xb0;" horiz-adv-x="526" 
d="M264 714q90 0 150 -62.5t60 -150.5q0 -90 -60.5 -152.5t-151.5 -62.5q-90 0 -150 62.5t-60 150.5q0 90 60.5 152.5t151.5 62.5zM264 353q56 0 95 43t39 103q0 61 -39 104.5t-97 43.5q-56 0 -94.5 -43t-38.5 -103q0 -61 38.5 -104.5t96.5 -43.5z" />
    <glyph glyph-name="plusminus" unicode="&#xb1;" horiz-adv-x="600" 
d="M548 410h-206v-211h-84v211h-206v80h206v210h84v-210h206v-80zM548 0h-496v77h496v-77z" />
    <glyph glyph-name="acute" unicode="&#xb4;" horiz-adv-x="500" 
d="M227 603l84 169h122v-2l-163 -167h-43z" />
    <glyph glyph-name="uni00B5" unicode="&#xb5;" horiz-adv-x="614" 
d="M170 -151v-40h-85v691h90v-306q0 -58 29.5 -90.5t81.5 -32.5q39 0 73.5 20.5t79.5 70.5v338h90v-500h-71l-14 102q-78 -106 -163 -106q-77 0 -122 60z" />
    <glyph glyph-name="paragraph" unicode="&#xb6;" horiz-adv-x="670" 
d="M420 0h-60v236h-39q-119 0 -198 59.5t-79 169.5q0 109 83.5 172t203.5 63h245v-700h-60v618h-96v-618zM324 292h36v326h-33q-84 0 -137 -42t-53 -123q0 -74 52.5 -117.5t134.5 -43.5z" />
    <glyph glyph-name="periodcentered" unicode="&#xb7;" horiz-adv-x="220" 
d="M42 274q0 28 20 48t48 20t47.5 -20t19.5 -48t-19.5 -47.5t-47.5 -19.5t-48 19.5t-20 47.5z" />
    <glyph glyph-name="cedilla" unicode="&#xb8;" horiz-adv-x="500" 
d="M226 -195q-32 0 -62 8l-26 47l3 3q42 -14 75 -14q58 0 58 31q0 28 -50 28q-16 0 -46 -4l-4 4l57 97h56l-35 -55q91 -3 91 -66q0 -35 -31.5 -57t-85.5 -22z" />
    <glyph glyph-name="ordmasculine" unicode="&#xba;" horiz-adv-x="499" 
d="M251 711q87 0 139 -55t52 -130t-54 -131t-139 -56q-87 0 -139.5 55.5t-52.5 130.5t54 130.5t140 55.5zM250 647q-53 0 -86.5 -35.5t-33.5 -86.5t33.5 -86.5t85.5 -35.5q53 0 86.5 36t33.5 87t-33.5 86t-85.5 35zM73 251h353v-56h-353v56z" />
    <glyph glyph-name="guillemotright" unicode="&#xbb;" horiz-adv-x="625" 
d="M60 11l157 238l-157 240l34 18l231 -249v-16l-231 -249zM313 11l157 238l-157 240l34 18l231 -249v-16l-231 -249z" />
    <glyph glyph-name="onequarter" unicode="&#xbc;" horiz-adv-x="806" 
d="M219 287h-71v311l-117 -70v75l178 105l10 -3v-418zM115 -2l252 366l222 338h74l-252 -366l-222 -338h-74zM644 146v204l-130 -204h130zM780 91h-69v-91h-67v91h-215l-3 17l200 308h85v-270h69v-55z" />
    <glyph glyph-name="onehalf" unicode="&#xbd;" horiz-adv-x="842" 
d="M219 287h-71v311l-117 -70v75l178 105l10 -3v-418zM115 -2l252 366l222 338h74l-252 -366l-222 -338h-74zM524 0l-8 24l147 170q31 36 43.5 58t12.5 44q0 25 -16.5 42t-45.5 17q-58 0 -123 -80h-2l-9 75q59 69 139 69q58 0 93.5 -31.5t35.5 -83.5q0 -36 -15.5 -66
t-54.5 -72l-92 -104h189l-29 -62h-265z" />
    <glyph glyph-name="threequarters" unicode="&#xbe;" horiz-adv-x="847" 
d="M156 -2l252 366l222 338h74l-252 -366l-222 -338h-74zM165 281q-64 0 -123 33l-10 74l2 1q70 -47 127 -47q34 0 56 16t22 42q0 30 -31 48.5t-108 31.5v30q78 25 104 43.5t26 44.5q0 22 -17 34.5t-47 12.5q-50 0 -119 -50h-2v72q63 39 128 39q60 0 95 -28t35 -74
q0 -63 -85 -102q46 -13 70 -40.5t24 -63.5q0 -52 -43.5 -84.5t-103.5 -32.5zM685 146v204l-130 -204h130zM821 91h-69v-91h-67v91h-215l-3 17l200 308h85v-270h69v-55z" />
    <glyph glyph-name="questiondown" unicode="&#xbf;" horiz-adv-x="483" 
d="M328 641q0 -25 -18 -43t-43 -18t-43 18t-18 43t18 43t43 18t43 -18t18 -43zM438 77q-92 -87 -205 -87q-82 0 -133 44.5t-51 121.5q0 60 30.5 95.5t93.5 69.5q52 29 69 44.5t17 34.5q0 27 -27 75h55q30 -36 41 -57t11 -46q0 -33 -23.5 -55.5t-81.5 -53.5
q-54 -30 -75 -52.5t-21 -55.5q0 -36 27.5 -58.5t71.5 -22.5q51 0 97 25.5t102 81.5l2 -1v-103z" />
    <glyph glyph-name="Agrave" unicode="&#xc0;" horiz-adv-x="789" 
d="M425 772h-49l-166 139v2h133zM539 265l-143 329l-148 -329h291zM654 0l-78 180h-366l-81 -180h-100l326 704h89l314 -704h-104z" />
    <glyph glyph-name="Aacute" unicode="&#xc1;" horiz-adv-x="789" 
d="M369 772l82 141h133v-2l-166 -139h-49zM539 265l-143 329l-148 -329h291zM654 0l-78 180h-366l-81 -180h-100l326 704h89l314 -704h-104z" />
    <glyph glyph-name="Acircumflex" unicode="&#xc2;" horiz-adv-x="789" 
d="M516 772l-118 75l-118 -75h-53v1l126 140h88l126 -140v-1h-51zM539 265l-143 329l-148 -329h291zM654 0l-78 180h-366l-81 -180h-100l326 704h89l314 -704h-104z" />
    <glyph glyph-name="Atilde" unicode="&#xc3;" horiz-adv-x="789" 
d="M475 843q14 0 26 11t47 54l39 -28q-41 -64 -65 -86.5t-53 -22.5q-24 0 -79.5 31t-70.5 31q-14 0 -26 -11t-47 -54l-39 28q41 64 65 86.5t53 22.5q24 0 79.5 -31t70.5 -31zM539 265l-143 329l-148 -329h291zM654 0l-78 180h-366l-81 -180h-100l326 704h89l314 -704h-104z
" />
    <glyph glyph-name="Adieresis" unicode="&#xc4;" horiz-adv-x="789" 
d="M564 833q0 -26 -18 -44.5t-45 -18.5q-26 0 -44.5 18.5t-18.5 44.5t18.5 44.5t44.5 18.5q27 0 45 -18.5t18 -44.5zM356 833q0 -26 -18.5 -44.5t-44.5 -18.5q-27 0 -45 18.5t-18 44.5t18 44.5t45 18.5q26 0 44.5 -18.5t18.5 -44.5zM539 265l-143 329l-148 -329h291zM654 0
l-78 180h-366l-81 -180h-100l326 704h89l314 -704h-104z" />
    <glyph glyph-name="Aring" unicode="&#xc5;" horiz-adv-x="789" 
d="M399 835q-33 0 -56.5 -24t-23.5 -57q0 -34 23 -58t57 -24t57 24t23 58q0 33 -23.5 57t-56.5 24zM539 265l-143 328l-148 -328h291zM654 0l-78 180h-366l-81 -180h-100l301 651q-55 38 -55 103q0 50 36 86.5t88 36.5t88 -36.5t36 -86.5q0 -65 -55 -103l290 -651h-104z" />
    <glyph glyph-name="AE" unicode="&#xc6;" horiz-adv-x="994" 
d="M511 265v346l-228 -346h228zM511 0v180h-284l-118 -180h-101l462 700h435l29 -87h-327v-214h273v-86h-273v-226h330l-29 -87h-397z" />
    <glyph glyph-name="Ccedilla" unicode="&#xc7;" horiz-adv-x="721" 
d="M379 -200q-32 0 -62 8l-26 47l3 3q42 -14 75 -14q58 0 58 31q0 28 -50 28q-16 0 -46 -4l-4 4l50 86q-137 9 -229.5 108t-92.5 253t107 258t256 104q136 0 234 -87v-117h-2q-114 114 -237 114q-105 0 -182 -78.5t-77 -190.5q0 -121 76.5 -198t179.5 -77q134 0 253 114
l2 -2l-14 -112q-101 -80 -218 -89l-28 -44q91 -3 91 -66q0 -35 -31.5 -57t-85.5 -22z" />
    <glyph glyph-name="Egrave" unicode="&#xc8;" horiz-adv-x="584" 
d="M336 772h-49l-166 139v2h133zM100 0v700h394l29 -87h-326v-214h273v-86h-273v-226h329l-29 -87h-397z" />
    <glyph glyph-name="Eacute" unicode="&#xc9;" horiz-adv-x="584" 
d="M280 772l82 141h133v-2l-166 -139h-49zM100 0v700h394l29 -87h-326v-214h273v-86h-273v-226h329l-29 -87h-397z" />
    <glyph glyph-name="Ecircumflex" unicode="&#xca;" horiz-adv-x="584" 
d="M427 772l-118 75l-118 -75h-53v1l126 140h88l126 -140v-1h-51zM100 0v700h394l29 -87h-326v-214h273v-86h-273v-226h329l-29 -87h-397z" />
    <glyph glyph-name="Edieresis" unicode="&#xcb;" horiz-adv-x="584" 
d="M475 833q0 -26 -18 -44.5t-45 -18.5q-26 0 -44.5 18.5t-18.5 44.5t18.5 44.5t44.5 18.5q27 0 45 -18.5t18 -44.5zM267 833q0 -26 -18.5 -44.5t-44.5 -18.5q-27 0 -45 18.5t-18 44.5t18 44.5t45 18.5q26 0 44.5 -18.5t18.5 -44.5zM100 0v700h394l29 -87h-326v-214h273v-86
h-273v-226h329l-29 -87h-397z" />
    <glyph glyph-name="Igrave" unicode="&#xcc;" horiz-adv-x="307" 
d="M182 772h-49l-166 139v2h133zM105 0v700h97v-700h-97z" />
    <glyph glyph-name="Iacute" unicode="&#xcd;" horiz-adv-x="307" 
d="M126 772l82 141h133v-2l-166 -139h-49zM105 0v700h97v-700h-97z" />
    <glyph glyph-name="Icircumflex" unicode="&#xce;" horiz-adv-x="307" 
d="M273 772l-118 75l-118 -75h-53v1l126 140h88l126 -140v-1h-51zM105 0v700h97v-700h-97z" />
    <glyph glyph-name="Idieresis" unicode="&#xcf;" horiz-adv-x="307" 
d="M321 833q0 -26 -18 -44.5t-45 -18.5q-26 0 -44.5 18.5t-18.5 44.5t18.5 44.5t44.5 18.5q27 0 45 -18.5t18 -44.5zM113 833q0 -26 -18.5 -44.5t-44.5 -18.5q-27 0 -45 18.5t-18 44.5t18 44.5t45 18.5q26 0 44.5 -18.5t18.5 -44.5zM105 0v700h97v-700h-97z" />
    <glyph glyph-name="Eth" unicode="&#xd0;" horiz-adv-x="803" 
d="M406 323h-191v-235h138q128 0 211.5 71t83.5 191q0 124 -82 193t-217 69h-134v-220h191v-69zM120 0v323h-96v69h96v308h231q181 0 288.5 -93.5t107.5 -254.5q0 -159 -111.5 -255.5t-284.5 -96.5h-231z" />
    <glyph glyph-name="Ntilde" unicode="&#xd1;" horiz-adv-x="823" 
d="M489 843q14 0 26 11t47 54l39 -28q-41 -64 -65 -86.5t-53 -22.5q-24 0 -79.5 31t-70.5 31q-14 0 -26 -11t-47 -54l-39 28q41 64 65 86.5t53 22.5q24 0 79.5 -31t70.5 -31zM689 -5l-497 566v-561h-92v700h89l442 -503v503h91v-705h-33z" />
    <glyph glyph-name="Ograve" unicode="&#xd2;" horiz-adv-x="841" 
d="M449 777h-49l-166 139v2h133zM55 349q0 154 106 259.5t261 105.5q154 0 259 -105.5t105 -257.5q0 -154 -106 -259.5t-260 -105.5q-155 0 -260 105.5t-105 257.5zM154 351q0 -116 77 -195.5t189 -79.5q109 0 188 79t79 194t-79 195t-190 80q-109 0 -186.5 -79t-77.5 -194z
" />
    <glyph glyph-name="Oacute" unicode="&#xd3;" horiz-adv-x="841" 
d="M393 777l82 141h133v-2l-166 -139h-49zM55 349q0 154 106 259.5t261 105.5q154 0 259 -105.5t105 -257.5q0 -154 -106 -259.5t-260 -105.5q-155 0 -260 105.5t-105 257.5zM154 351q0 -116 77 -195.5t189 -79.5q109 0 188 79t79 194t-79 195t-190 80q-109 0 -186.5 -79
t-77.5 -194z" />
    <glyph glyph-name="Ocircumflex" unicode="&#xd4;" horiz-adv-x="841" 
d="M540 777l-118 75l-118 -75h-53v1l126 140h88l126 -140v-1h-51zM55 349q0 154 106 259.5t261 105.5q154 0 259 -105.5t105 -257.5q0 -154 -106 -259.5t-260 -105.5q-155 0 -260 105.5t-105 257.5zM154 351q0 -116 77 -195.5t189 -79.5q109 0 188 79t79 194t-79 195
t-190 80q-109 0 -186.5 -79t-77.5 -194z" />
    <glyph glyph-name="Otilde" unicode="&#xd5;" horiz-adv-x="841" 
d="M499 848q14 0 26 11t47 54l39 -28q-41 -64 -65 -86.5t-53 -22.5q-24 0 -79.5 31t-70.5 31q-14 0 -26 -11t-47 -54l-39 28q41 64 65 86.5t53 22.5q24 0 79.5 -31t70.5 -31zM55 349q0 154 106 259.5t261 105.5q154 0 259 -105.5t105 -257.5q0 -154 -106 -259.5t-260 -105.5
q-155 0 -260 105.5t-105 257.5zM154 351q0 -116 77 -195.5t189 -79.5q109 0 188 79t79 194t-79 195t-190 80q-109 0 -186.5 -79t-77.5 -194z" />
    <glyph glyph-name="Odieresis" unicode="&#xd6;" horiz-adv-x="841" 
d="M588 838q0 -26 -18 -44.5t-45 -18.5q-26 0 -44.5 18.5t-18.5 44.5t18.5 44.5t44.5 18.5q27 0 45 -18.5t18 -44.5zM380 838q0 -26 -18.5 -44.5t-44.5 -18.5q-27 0 -45 18.5t-18 44.5t18 44.5t45 18.5q26 0 44.5 -18.5t18.5 -44.5zM55 349q0 154 106 259.5t261 105.5
q154 0 259 -105.5t105 -257.5q0 -154 -106 -259.5t-260 -105.5q-155 0 -260 105.5t-105 257.5zM154 351q0 -116 77 -195.5t189 -79.5q109 0 188 79t79 194t-79 195t-190 80q-109 0 -186.5 -79t-77.5 -194z" />
    <glyph glyph-name="multiply" unicode="&#xd7;" horiz-adv-x="600" 
d="M471 122l-171 173l-171 -173l-59 58l174 171l-174 171l59 59l171 -174l171 174l59 -59l-174 -171l174 -171z" />
    <glyph glyph-name="Oslash" unicode="&#xd8;" horiz-adv-x="841" 
d="M150 346q0 -107 65 -183l356 422q-65 43 -148 43q-114 0 -193.5 -81t-79.5 -201zM418 72q114 0 193.5 81t79.5 201q0 108 -65 183l-357 -422q67 -43 149 -43zM420 -14q-115 0 -208 63l-78 -92h-97l119 140q-101 104 -101 252q0 154 106 259.5t261 105.5q114 0 207 -63
l79 92h96l-120 -139q102 -105 102 -253q0 -154 -106 -259.5t-260 -105.5z" />
    <glyph glyph-name="Ugrave" unicode="&#xd9;" horiz-adv-x="789" 
d="M423 772h-49l-166 139v2h133zM91 306v394h97v-396q0 -109 55.5 -168t152.5 -59q96 0 152 59t56 171v393h93v-394q0 -148 -80 -233t-223 -85q-142 0 -222.5 85t-80.5 233z" />
    <glyph glyph-name="Uacute" unicode="&#xda;" horiz-adv-x="789" 
d="M367 772l82 141h133v-2l-166 -139h-49zM91 306v394h97v-396q0 -109 55.5 -168t152.5 -59q96 0 152 59t56 171v393h93v-394q0 -148 -80 -233t-223 -85q-142 0 -222.5 85t-80.5 233z" />
    <glyph glyph-name="Ucircumflex" unicode="&#xdb;" horiz-adv-x="789" 
d="M514 772l-118 75l-118 -75h-53v1l126 140h88l126 -140v-1h-51zM91 306v394h97v-396q0 -109 55.5 -168t152.5 -59q96 0 152 59t56 171v393h93v-394q0 -148 -80 -233t-223 -85q-142 0 -222.5 85t-80.5 233z" />
    <glyph glyph-name="Udieresis" unicode="&#xdc;" horiz-adv-x="789" 
d="M562 833q0 -26 -18 -44.5t-45 -18.5q-26 0 -44.5 18.5t-18.5 44.5t18.5 44.5t44.5 18.5q27 0 45 -18.5t18 -44.5zM354 833q0 -26 -18.5 -44.5t-44.5 -18.5q-27 0 -45 18.5t-18 44.5t18 44.5t45 18.5q26 0 44.5 -18.5t18.5 -44.5zM91 306v394h97v-396q0 -109 55.5 -168
t152.5 -59q96 0 152 59t56 171v393h93v-394q0 -148 -80 -233t-223 -85q-142 0 -222.5 85t-80.5 233z" />
    <glyph glyph-name="Yacute" unicode="&#xdd;" horiz-adv-x="668" 
d="M306 772l82 141h133v-2l-166 -139h-49zM382 0h-96v313l-273 387h115l208 -302l208 302h111l-273 -387v-313z" />
    <glyph glyph-name="Thorn" unicode="&#xde;" horiz-adv-x="608" 
d="M313 486h-117v-261h109q71 0 114.5 35t43.5 98q0 58 -40.5 93t-109.5 35zM304 139h-107v-139h-97v700h97v-128h121q109 0 176 -56t67 -156q0 -102 -73 -161.5t-184 -59.5z" />
    <glyph glyph-name="germandbls" unicode="&#xdf;" horiz-adv-x="666" 
d="M423 -9q-63 0 -117 23l-16 97l3 2q73 -42 130 -42q46 0 75.5 29t29.5 73q0 118 -216 169l-10 30q77 52 110.5 92.5t33.5 97.5q0 50 -31 81t-79 31q-56 0 -86.5 -37.5t-30.5 -95.5v-541h-90v423h-89v77h89v38q0 99 55.5 159t154.5 60q90 0 144.5 -53.5t54.5 -131.5
q0 -58 -25 -101t-76 -85q93 -34 137.5 -82.5t44.5 -129.5q0 -82 -55 -132.5t-141 -50.5z" />
    <glyph glyph-name="agrave" unicode="&#xe0;" horiz-adv-x="567" 
d="M318 603h-43l-163 167v2h122zM402 -8v89q-109 -89 -202 -89q-65 0 -106.5 36t-41.5 98q0 35 14.5 63t50.5 53t108 39.5t177 15.5v2q0 127 -115 127q-84 0 -178 -72l-3 1l20 101q80 53 175 53q91 0 141 -52t50 -153v-292zM218 69q69 0 184 70v100q-81 -5 -136 -16.5
t-80 -28t-34 -31.5t-9 -33q0 -28 20 -44.5t55 -16.5z" />
    <glyph glyph-name="aacute" unicode="&#xe1;" horiz-adv-x="567" 
d="M272 603l84 169h122v-2l-163 -167h-43zM402 -8v89q-109 -89 -202 -89q-65 0 -106.5 36t-41.5 98q0 35 14.5 63t50.5 53t108 39.5t177 15.5v2q0 127 -115 127q-84 0 -178 -72l-3 1l20 101q80 53 175 53q91 0 141 -52t50 -153v-292zM218 69q69 0 184 70v100
q-81 -5 -136 -16.5t-80 -28t-34 -31.5t-9 -33q0 -28 20 -44.5t55 -16.5z" />
    <glyph glyph-name="acircumflex" unicode="&#xe2;" horiz-adv-x="567" 
d="M422 603l-126 96l-126 -96h-44v2l128 167h82l128 -167v-2h-42zM402 -8v89q-109 -89 -202 -89q-65 0 -106.5 36t-41.5 98q0 35 14.5 63t50.5 53t108 39.5t177 15.5v2q0 127 -115 127q-84 0 -178 -72l-3 1l20 101q80 53 175 53q91 0 141 -52t50 -153v-292zM218 69
q69 0 184 70v100q-81 -5 -136 -16.5t-80 -28t-34 -31.5t-9 -33q0 -28 20 -44.5t55 -16.5z" />
    <glyph glyph-name="atilde" unicode="&#xe3;" horiz-adv-x="567" 
d="M373 680q13 0 24.5 12.5t46.5 62.5l45 -28q-43 -74 -67 -99.5t-55 -25.5q-24 0 -80 36t-70 36q-13 0 -24 -12.5t-47 -62.5l-45 27q43 75 67 100.5t55 25.5q24 0 80 -36t70 -36zM402 -8v89q-109 -89 -202 -89q-65 0 -106.5 36t-41.5 98q0 35 14.5 63t50.5 53t108 39.5
t177 15.5v2q0 127 -115 127q-84 0 -178 -72l-3 1l20 101q80 53 175 53q91 0 141 -52t50 -153v-292zM218 69q69 0 184 70v100q-81 -5 -136 -16.5t-80 -28t-34 -31.5t-9 -33q0 -28 20 -44.5t55 -16.5z" />
    <glyph glyph-name="adieresis" unicode="&#xe4;" horiz-adv-x="567" 
d="M336 664q0 26 18 44t44 18t44 -18t18 -44t-18 -44t-44 -18t-44 18t-18 44zM130 664q0 26 18 44t44 18t44 -18t18 -44t-18 -44t-44 -18t-44 18t-18 44zM402 -8v89q-109 -89 -202 -89q-65 0 -106.5 36t-41.5 98q0 35 14.5 63t50.5 53t108 39.5t177 15.5v2q0 127 -115 127
q-84 0 -178 -72l-3 1l20 101q80 53 175 53q91 0 141 -52t50 -153v-292zM218 69q69 0 184 70v100q-81 -5 -136 -16.5t-80 -28t-34 -31.5t-9 -33q0 -28 20 -44.5t55 -16.5z" />
    <glyph glyph-name="aring" unicode="&#xe5;" horiz-adv-x="567" 
d="M171 724q0 51 36 87.5t88 36.5t88 -36.5t36 -87.5t-36 -87.5t-88 -36.5t-88 36.5t-36 87.5zM215 724q0 -34 23.5 -58t56.5 -24t56.5 24t23.5 58t-23.5 58t-56.5 24t-56.5 -24t-23.5 -58zM402 -8v89q-109 -89 -202 -89q-65 0 -106.5 36t-41.5 98q0 35 14.5 63t50.5 53
t108 39.5t177 15.5v2q0 127 -115 127q-84 0 -178 -72l-3 1l20 101q80 53 175 53q91 0 141 -52t50 -153v-292zM218 69q69 0 184 70v100q-81 -5 -136 -16.5t-80 -28t-34 -31.5t-9 -33q0 -28 20 -44.5t55 -16.5z" />
    <glyph glyph-name="ae" unicode="&#xe6;" horiz-adv-x="913" 
d="M638 435q-61 0 -102 -43.5t-47 -109.5h289q-6 70 -42.5 111.5t-97.5 41.5zM218 69q76 0 198 82q-14 41 -15 88q-81 -5 -135.5 -16.5t-79.5 -28t-34 -31.5t-9 -33q0 -29 21 -45t54 -16zM821 33q-80 -44 -165 -44q-143 0 -212 104q-128 -101 -235 -101q-69 0 -113 35.5
t-44 98.5q0 35 14.5 62.5t50.5 53t108 40t176 15.5v4q0 125 -114 125q-84 0 -178 -72l-3 1l20 101q80 53 175 53q115 0 162 -81q69 86 179 86q109 0 168 -75.5t59 -183.5q0 -25 -3 -40h-375q10 -69 57 -106.5t118 -37.5q89 0 184 61l2 -2z" />
    <glyph glyph-name="ccedilla" unicode="&#xe7;" horiz-adv-x="539" 
d="M267 -199q-32 0 -62 8l-26 47l3 3q42 -14 75 -14q58 0 58 31q0 28 -50 28q-16 0 -46 -4l-4 4l50 86q-99 11 -160 82t-61 177q0 111 75 187t191 76q97 0 168 -60v-110h-3q-83 87 -167 87q-74 0 -122.5 -52.5t-48.5 -126.5q0 -78 46.5 -128.5t119.5 -50.5q92 0 183 78l3 -2
l-16 -102q-76 -51 -153 -56l-27 -43q91 -3 91 -66q0 -35 -31.5 -57t-85.5 -22z" />
    <glyph glyph-name="egrave" unicode="&#xe8;" horiz-adv-x="559" 
d="M312 607h-43l-163 167v2h122zM284 435q-62 0 -103 -43.5t-47 -109.5h290q-6 70 -42.5 111.5t-97.5 41.5zM467 33q-80 -44 -165 -44q-120 0 -189.5 71.5t-69.5 189.5q0 107 69 185.5t175 78.5q110 0 169 -75.5t59 -183.5q0 -25 -3 -40h-376q10 -69 57 -106.5t119 -37.5
q89 0 184 61l3 -2z" />
    <glyph glyph-name="eacute" unicode="&#xe9;" horiz-adv-x="559" 
d="M266 607l84 169h122v-2l-163 -167h-43zM284 435q-62 0 -103 -43.5t-47 -109.5h290q-6 70 -42.5 111.5t-97.5 41.5zM467 33q-80 -44 -165 -44q-120 0 -189.5 71.5t-69.5 189.5q0 107 69 185.5t175 78.5q110 0 169 -75.5t59 -183.5q0 -25 -3 -40h-376q10 -69 57 -106.5
t119 -37.5q89 0 184 61l3 -2z" />
    <glyph glyph-name="ecircumflex" unicode="&#xea;" horiz-adv-x="559" 
d="M416 607l-126 96l-126 -96h-44v2l128 167h82l128 -167v-2h-42zM284 435q-62 0 -103 -43.5t-47 -109.5h290q-6 70 -42.5 111.5t-97.5 41.5zM467 33q-80 -44 -165 -44q-120 0 -189.5 71.5t-69.5 189.5q0 107 69 185.5t175 78.5q110 0 169 -75.5t59 -183.5q0 -25 -3 -40
h-376q10 -69 57 -106.5t119 -37.5q89 0 184 61l3 -2z" />
    <glyph glyph-name="edieresis" unicode="&#xeb;" horiz-adv-x="559" 
d="M330 668q0 26 18 44t44 18t44 -18t18 -44t-18 -44t-44 -18t-44 18t-18 44zM124 668q0 26 18 44t44 18t44 -18t18 -44t-18 -44t-44 -18t-44 18t-18 44zM284 435q-62 0 -103 -43.5t-47 -109.5h290q-6 70 -42.5 111.5t-97.5 41.5zM467 33q-80 -44 -165 -44
q-120 0 -189.5 71.5t-69.5 189.5q0 107 69 185.5t175 78.5q110 0 169 -75.5t59 -183.5q0 -25 -3 -40h-376q10 -69 57 -106.5t119 -37.5q89 0 184 61l3 -2z" />
    <glyph glyph-name="igrave" unicode="&#xec;" horiz-adv-x="270" 
d="M158 603h-43l-163 167v2h122zM90 0v500h90v-500h-90z" />
    <glyph glyph-name="iacute" unicode="&#xed;" horiz-adv-x="270" 
d="M112 603l84 169h122v-2l-163 -167h-43zM90 0v500h90v-500h-90z" />
    <glyph glyph-name="icircumflex" unicode="&#xee;" horiz-adv-x="270" 
d="M262 603l-126 96l-126 -96h-44v2l128 167h82l128 -167v-2h-42zM90 0v500h90v-500h-90z" />
    <glyph glyph-name="idieresis" unicode="&#xef;" horiz-adv-x="270" 
d="M176 664q0 26 18 44t44 18t44 -18t18 -44t-18 -44t-44 -18t-44 18t-18 44zM-30 664q0 26 18 44t44 18t44 -18t18 -44t-18 -44t-44 -18t-44 18t-18 44zM90 0v500h90v-500h-90z" />
    <glyph glyph-name="eth" unicode="&#xf0;" horiz-adv-x="601" 
d="M293 -14q-113 0 -181.5 71.5t-68.5 166.5q0 96 67 167.5t168 71.5q106 0 177 -78q-34 100 -167 212l-74 -70l-44 40l72 67q-11 8 -24.5 18.5t-31.5 23.5t-29 21l49 62q57 -39 96 -70l75 70l43 -40l-74 -68q115 -101 159 -193.5t44 -191.5q0 -134 -78 -212
q-70 -68 -178 -68zM298 385q-73 0 -117.5 -45.5t-44.5 -114.5q0 -67 44.5 -112.5t112.5 -45.5q72 0 118.5 47t46.5 115t-44 112t-116 44z" />
    <glyph glyph-name="ntilde" unicode="&#xf1;" horiz-adv-x="604" 
d="M385 680q13 0 24.5 12.5t46.5 62.5l45 -28q-43 -74 -67 -99.5t-55 -25.5q-24 0 -80 36t-70 36q-13 0 -24 -12.5t-47 -62.5l-45 27q43 75 67 100.5t55 25.5q24 0 80 -36t70 -36zM328 429q-39 0 -73.5 -20t-79.5 -70v-339h-90v488l90 20v-102q42 54 84 79t94 25
q78 0 127 -52t49 -143v-315h-90v306q0 58 -29.5 90.5t-81.5 32.5z" />
    <glyph glyph-name="ograve" unicode="&#xf2;" horiz-adv-x="614" 
d="M330 607h-43l-163 167v2h122zM43 249q0 106 74.5 185.5t190.5 79.5q120 0 191.5 -78t71.5 -184q0 -107 -74 -186.5t-191 -79.5q-119 0 -191 78.5t-72 184.5zM308 433q-76 0 -124 -53.5t-48 -130.5q0 -78 48.5 -130t121.5 -52q76 0 124.5 54t48.5 131t-48.5 129t-122.5 52
z" />
    <glyph glyph-name="oacute" unicode="&#xf3;" horiz-adv-x="614" 
d="M284 607l84 169h122v-2l-163 -167h-43zM43 249q0 106 74.5 185.5t190.5 79.5q120 0 191.5 -78t71.5 -184q0 -107 -74 -186.5t-191 -79.5q-119 0 -191 78.5t-72 184.5zM308 433q-76 0 -124 -53.5t-48 -130.5q0 -78 48.5 -130t121.5 -52q76 0 124.5 54t48.5 131t-48.5 129
t-122.5 52z" />
    <glyph glyph-name="ocircumflex" unicode="&#xf4;" horiz-adv-x="614" 
d="M434 607l-126 96l-126 -96h-44v2l128 167h82l128 -167v-2h-42zM43 249q0 106 74.5 185.5t190.5 79.5q120 0 191.5 -78t71.5 -184q0 -107 -74 -186.5t-191 -79.5q-119 0 -191 78.5t-72 184.5zM308 433q-76 0 -124 -53.5t-48 -130.5q0 -78 48.5 -130t121.5 -52
q76 0 124.5 54t48.5 131t-48.5 129t-122.5 52z" />
    <glyph glyph-name="otilde" unicode="&#xf5;" horiz-adv-x="614" 
d="M385 684q13 0 24.5 12.5t46.5 62.5l45 -28q-43 -74 -67 -99.5t-55 -25.5q-24 0 -80 36t-70 36q-13 0 -24 -12.5t-47 -62.5l-45 27q43 75 67 100.5t55 25.5q24 0 80 -36t70 -36zM43 249q0 106 74.5 185.5t190.5 79.5q120 0 191.5 -78t71.5 -184q0 -107 -74 -186.5
t-191 -79.5q-119 0 -191 78.5t-72 184.5zM308 433q-76 0 -124 -53.5t-48 -130.5q0 -78 48.5 -130t121.5 -52q76 0 124.5 54t48.5 131t-48.5 129t-122.5 52z" />
    <glyph glyph-name="odieresis" unicode="&#xf6;" horiz-adv-x="614" 
d="M348 668q0 26 18 44t44 18t44 -18t18 -44t-18 -44t-44 -18t-44 18t-18 44zM142 668q0 26 18 44t44 18t44 -18t18 -44t-18 -44t-44 -18t-44 18t-18 44zM43 249q0 106 74.5 185.5t190.5 79.5q120 0 191.5 -78t71.5 -184q0 -107 -74 -186.5t-191 -79.5q-119 0 -191 78.5
t-72 184.5zM308 433q-76 0 -124 -53.5t-48 -130.5q0 -78 48.5 -130t121.5 -52q76 0 124.5 54t48.5 131t-48.5 129t-122.5 52z" />
    <glyph glyph-name="divide" unicode="&#xf7;" horiz-adv-x="600" 
d="M232 554q0 28 20 48t48 20t48 -20t20 -48t-20 -48t-48 -20t-48 20t-20 48zM550 310h-500v80h500v-80zM232 146q0 27 20 47t48 20t48 -20t20 -47q0 -28 -20 -48t-48 -20t-48 20t-20 48z" />
    <glyph glyph-name="oslash" unicode="&#xf8;" horiz-adv-x="614" 
d="M132 245q0 -66 37 -116l226 286q-38 22 -82 22q-82 0 -131.5 -54.5t-49.5 -137.5zM302 63q81 0 130.5 55t49.5 138q0 67 -37 115l-225 -287q39 -21 82 -21zM306 -14q-76 0 -137 37l-53 -67h-89l89 109q-73 78 -73 184t74.5 185.5t190.5 79.5q75 0 137 -36l53 66h89
l-88 -109q72 -77 72 -183q0 -107 -74 -186.5t-191 -79.5z" />
    <glyph glyph-name="ugrave" unicode="&#xf9;" horiz-adv-x="604" 
d="M321 603h-43l-163 167v2h122zM429 0v94q-42 -54 -84 -79t-94 -25q-78 0 -127 52t-49 143v315h91v-306q0 -58 29.5 -90.5t81.5 -32.5q38 0 72.5 20t79.5 70v339h91v-500h-91z" />
    <glyph glyph-name="uacute" unicode="&#xfa;" horiz-adv-x="604" 
d="M275 603l84 169h122v-2l-163 -167h-43zM429 0v94q-42 -54 -84 -79t-94 -25q-78 0 -127 52t-49 143v315h91v-306q0 -58 29.5 -90.5t81.5 -32.5q38 0 72.5 20t79.5 70v339h91v-500h-91z" />
    <glyph glyph-name="ucircumflex" unicode="&#xfb;" horiz-adv-x="604" 
d="M425 603l-126 96l-126 -96h-44v2l128 167h82l128 -167v-2h-42zM429 0v94q-42 -54 -84 -79t-94 -25q-78 0 -127 52t-49 143v315h91v-306q0 -58 29.5 -90.5t81.5 -32.5q38 0 72.5 20t79.5 70v339h91v-500h-91z" />
    <glyph glyph-name="udieresis" unicode="&#xfc;" horiz-adv-x="604" 
d="M339 664q0 26 18 44t44 18t44 -18t18 -44t-18 -44t-44 -18t-44 18t-18 44zM133 664q0 26 18 44t44 18t44 -18t18 -44t-18 -44t-44 -18t-44 18t-18 44zM429 0v94q-42 -54 -84 -79t-94 -25q-78 0 -127 52t-49 143v315h91v-306q0 -58 29.5 -90.5t81.5 -32.5q38 0 72.5 20
t79.5 70v339h91v-500h-91z" />
    <glyph glyph-name="yacute" unicode="&#xfd;" horiz-adv-x="548" 
d="M251 603l84 169h122v-2l-163 -167h-43zM122 -194q-45 0 -85 19l-18 91l3 2q43 -27 85 -27q69 0 106 86l22 51l-212 472h100l158 -369l148 369h98l-231 -554q-59 -140 -174 -140z" />
    <glyph glyph-name="thorn" unicode="&#xfe;" horiz-adv-x="621" 
d="M310 72q75 0 124.5 51t49.5 130q0 80 -46.5 128t-112.5 48q-73 0 -149 -63v-252q67 -42 134 -42zM325 -8q-77 0 -149 52v-236l-91 1v917l91 33v-331q81 82 173 82q95 0 161 -71t66 -179q0 -120 -76 -194t-175 -74z" />
    <glyph glyph-name="ydieresis" unicode="&#xff;" horiz-adv-x="548" 
d="M315 664q0 26 18 44t44 18t44 -18t18 -44t-18 -44t-44 -18t-44 18t-18 44zM109 664q0 26 18 44t44 18t44 -18t18 -44t-18 -44t-44 -18t-44 18t-18 44zM122 -194q-45 0 -85 19l-18 91l3 2q43 -27 85 -27q69 0 106 86l22 51l-212 472h100l158 -369l148 369h98l-231 -554
q-59 -140 -174 -140z" />
    <glyph glyph-name="Amacron" unicode="&#x100;" horiz-adv-x="789" 
d="M219 864h356v-68h-356v68zM539 265l-143 329l-148 -329h291zM654 0l-78 180h-366l-81 -180h-100l326 704h89l314 -704h-104z" />
    <glyph glyph-name="amacron" unicode="&#x101;" horiz-adv-x="567" 
d="M127 696h336v-68h-336v68zM402 -8v89q-109 -89 -202 -89q-65 0 -106.5 36t-41.5 98q0 35 14.5 63t50.5 53t108 39.5t177 15.5v2q0 127 -115 127q-84 0 -178 -72l-3 1l20 101q80 53 175 53q91 0 141 -52t50 -153v-292zM218 69q69 0 184 70v100q-81 -5 -136 -16.5t-80 -28
t-34 -31.5t-9 -33q0 -28 20 -44.5t55 -16.5z" />
    <glyph glyph-name="Abreve" unicode="&#x102;" horiz-adv-x="789" 
d="M397 772q-111 0 -180 120l38 28q36 -38 68.5 -56t73.5 -18t73.5 18t68.5 56l38 -28q-69 -120 -180 -120zM539 265l-143 329l-148 -329h291zM654 0l-78 180h-366l-81 -180h-100l326 704h89l314 -704h-104z" />
    <glyph glyph-name="abreve" unicode="&#x103;" horiz-adv-x="567" 
d="M295 597q-104 0 -171 138l45 25q32 -43 61 -64t65 -21t65 21t61 64l45 -25q-67 -138 -171 -138zM402 -8v89q-109 -89 -202 -89q-65 0 -106.5 36t-41.5 98q0 35 14.5 63t50.5 53t108 39.5t177 15.5v2q0 127 -115 127q-84 0 -178 -72l-3 1l20 101q80 53 175 53
q91 0 141 -52t50 -153v-292zM218 69q69 0 184 70v100q-81 -5 -136 -16.5t-80 -28t-34 -31.5t-9 -33q0 -28 20 -44.5t55 -16.5z" />
    <glyph glyph-name="Aogonek" unicode="&#x104;" horiz-adv-x="789" 
d="M539 265l-143 329l-148 -329h291zM754 -186q-34 -8 -65 -8q-46 0 -75 19t-29 56q0 31 42 83l29 36h-2l-78 180h-366l-81 -180h-100l326 704h89l314 -704h-47l-32 -57q-16 -28 -16 -47q0 -40 81 -40h23z" />
    <glyph glyph-name="aogonek" unicode="&#x105;" horiz-adv-x="567" 
d="M434 -194q-46 0 -75 19t-29 56q0 31 42 83l30 37v80q-109 -89 -202 -89q-65 0 -106.5 36t-41.5 98q0 35 14.5 63t50.5 53t108 39.5t177 15.5v2q0 127 -115 127q-84 0 -178 -72l-3 1l20 101q80 53 175 53q91 0 141 -52t50 -153v-292l-33 -7l-35 -62q-16 -28 -16 -47
q0 -40 81 -40h23l-13 -42q-34 -8 -65 -8zM218 69q69 0 184 70v100q-81 -5 -136 -16.5t-80 -28t-34 -31.5t-9 -33q0 -28 20 -44.5t55 -16.5z" />
    <glyph glyph-name="Cacute" unicode="&#x106;" horiz-adv-x="721" 
d="M377 777l82 141h133v-2l-166 -139h-49zM404 -12q-146 0 -247.5 100.5t-101.5 261.5q0 154 107 258t256 104q136 0 234 -87v-117h-2q-114 114 -237 114q-105 0 -182 -78.5t-77 -190.5q0 -121 76.5 -198t179.5 -77q134 0 253 114l2 -2l-14 -112q-113 -90 -247 -90z" />
    <glyph glyph-name="cacute" unicode="&#x107;" horiz-adv-x="539" 
d="M269 607l84 169h122v-2l-163 -167h-43zM473 45q-84 -57 -174 -57q-112 0 -183.5 72.5t-71.5 188.5q0 111 75 187t191 76q97 0 168 -60v-110h-3q-83 87 -167 87q-74 0 -122.5 -52.5t-48.5 -126.5q0 -78 46.5 -128.5t119.5 -50.5q92 0 183 78l3 -2z" />
    <glyph glyph-name="Ccircumflex" unicode="&#x108;" horiz-adv-x="721" 
d="M524 777l-118 75l-118 -75h-53v1l126 140h88l126 -140v-1h-51zM404 -12q-146 0 -247.5 100.5t-101.5 261.5q0 154 107 258t256 104q136 0 234 -87v-117h-2q-114 114 -237 114q-105 0 -182 -78.5t-77 -190.5q0 -121 76.5 -198t179.5 -77q134 0 253 114l2 -2l-14 -112
q-113 -90 -247 -90z" />
    <glyph glyph-name="ccircumflex" unicode="&#x109;" horiz-adv-x="539" 
d="M419 607l-126 96l-126 -96h-44v2l128 167h82l128 -167v-2h-42zM473 45q-84 -57 -174 -57q-112 0 -183.5 72.5t-71.5 188.5q0 111 75 187t191 76q97 0 168 -60v-110h-3q-83 87 -167 87q-74 0 -122.5 -52.5t-48.5 -126.5q0 -78 46.5 -128.5t119.5 -50.5q92 0 183 78l3 -2z
" />
    <glyph glyph-name="Cdotaccent" unicode="&#x10a;" horiz-adv-x="721" 
d="M468 838q0 -26 -18 -44.5t-45 -18.5t-45 18.5t-18 44.5t18 44.5t45 18.5t45 -18.5t18 -44.5zM404 -12q-146 0 -247.5 100.5t-101.5 261.5q0 154 107 258t256 104q136 0 234 -87v-117h-2q-114 114 -237 114q-105 0 -182 -78.5t-77 -190.5q0 -121 76.5 -198t179.5 -77
q134 0 253 114l2 -2l-14 -112q-113 -90 -247 -90z" />
    <glyph glyph-name="cdotaccent" unicode="&#x10b;" horiz-adv-x="539" 
d="M230 668q0 26 18 44t44 18t44 -18t18 -44t-18 -44t-44 -18t-44 18t-18 44zM473 45q-84 -57 -174 -57q-112 0 -183.5 72.5t-71.5 188.5q0 111 75 187t191 76q97 0 168 -60v-110h-3q-83 87 -167 87q-74 0 -122.5 -52.5t-48.5 -126.5q0 -78 46.5 -128.5t119.5 -50.5
q92 0 183 78l3 -2z" />
    <glyph glyph-name="Ccaron" unicode="&#x10c;" horiz-adv-x="721" 
d="M449 774h-88l-126 139v2h51l118 -75l118 75h53v-2zM404 -12q-146 0 -247.5 100.5t-101.5 261.5q0 154 107 258t256 104q136 0 234 -87v-117h-2q-114 114 -237 114q-105 0 -182 -78.5t-77 -190.5q0 -121 76.5 -198t179.5 -77q134 0 253 114l2 -2l-14 -112
q-113 -90 -247 -90z" />
    <glyph glyph-name="ccaron" unicode="&#x10d;" horiz-adv-x="539" 
d="M333 607h-82l-128 167v2h42l126 -97l126 97h44v-2zM473 45q-84 -57 -174 -57q-112 0 -183.5 72.5t-71.5 188.5q0 111 75 187t191 76q97 0 168 -60v-110h-3q-83 87 -167 87q-74 0 -122.5 -52.5t-48.5 -126.5q0 -78 46.5 -128.5t119.5 -50.5q92 0 183 78l3 -2z" />
    <glyph glyph-name="Dcaron" unicode="&#x10e;" horiz-adv-x="783" 
d="M426 769h-88l-126 139v2h51l118 -75l118 75h53v-2zM329 612h-132v-524h136q128 0 211.5 71t83.5 191q0 124 -82 193t-217 69zM100 0v700h231q181 0 288.5 -93.5t107.5 -254.5q0 -159 -111.5 -255.5t-284.5 -96.5h-231z" />
    <glyph glyph-name="dcaron" unicode="&#x10f;" horiz-adv-x="620" 
d="M592 549q26 52 26 100q0 51 -26 101h86q10 -33 10 -63q0 -70 -53 -138h-43zM296 71q73 0 149 63v252q-67 42 -134 42q-75 0 -124.5 -51t-49.5 -130t46.5 -127.5t112.5 -48.5zM445 0v72q-81 -82 -173 -82q-95 0 -161.5 71t-66.5 179q0 120 76 194t176 74q77 0 149 -52v270
l91 33v-759h-91z" />
    <glyph glyph-name="Dcroat" unicode="&#x110;" horiz-adv-x="803" 
d="M406 323h-191v-235h138q128 0 211.5 71t83.5 191q0 124 -82 193t-217 69h-134v-220h191v-69zM120 0v323h-96v69h96v308h231q181 0 288.5 -93.5t107.5 -254.5q0 -159 -111.5 -255.5t-284.5 -96.5h-231z" />
    <glyph glyph-name="dcroat" unicode="&#x111;" horiz-adv-x="629" 
d="M296 71q74 0 149 62v248q-67 42 -134 42q-75 0 -124.5 -50.5t-49.5 -128.5q0 -77 46.5 -125t112.5 -48zM445 0v71q-81 -81 -173 -81q-95 0 -161.5 70.5t-66.5 177.5q0 118 76.5 191.5t175.5 73.5q78 0 149 -51v135h-148v60h148v79l91 33v-112h80v-60h-80v-587h-91z" />
    <glyph glyph-name="Emacron" unicode="&#x112;" horiz-adv-x="584" 
d="M130 864h356v-68h-356v68zM100 0v700h394l29 -87h-326v-214h273v-86h-273v-226h329l-29 -87h-397z" />
    <glyph glyph-name="emacron" unicode="&#x113;" horiz-adv-x="559" 
d="M121 700h336v-68h-336v68zM284 435q-62 0 -103 -43.5t-47 -109.5h290q-6 70 -42.5 111.5t-97.5 41.5zM467 33q-80 -44 -165 -44q-120 0 -189.5 71.5t-69.5 189.5q0 107 69 185.5t175 78.5q110 0 169 -75.5t59 -183.5q0 -25 -3 -40h-376q10 -69 57 -106.5t119 -37.5
q89 0 184 61l3 -2z" />
    <glyph glyph-name="Ebreve" unicode="&#x114;" horiz-adv-x="584" 
d="M308 772q-111 0 -180 120l38 28q36 -38 68.5 -56t73.5 -18t73.5 18t68.5 56l38 -28q-69 -120 -180 -120zM100 0v700h394l29 -87h-326v-214h273v-86h-273v-226h329l-29 -87h-397z" />
    <glyph glyph-name="ebreve" unicode="&#x115;" horiz-adv-x="559" 
d="M289 601q-104 0 -171 138l45 25q32 -43 61 -64t65 -21t65 21t61 64l45 -25q-67 -138 -171 -138zM284 435q-62 0 -103 -43.5t-47 -109.5h290q-6 70 -42.5 111.5t-97.5 41.5zM467 33q-80 -44 -165 -44q-120 0 -189.5 71.5t-69.5 189.5q0 107 69 185.5t175 78.5
q110 0 169 -75.5t59 -183.5q0 -25 -3 -40h-376q10 -69 57 -106.5t119 -37.5q89 0 184 61l3 -2z" />
    <glyph glyph-name="Edotaccent" unicode="&#x116;" horiz-adv-x="584" 
d="M371 833q0 -26 -18 -44.5t-45 -18.5t-45 18.5t-18 44.5t18 44.5t45 18.5t45 -18.5t18 -44.5zM100 0v700h394l29 -87h-326v-214h273v-86h-273v-226h329l-29 -87h-397z" />
    <glyph glyph-name="edotaccent" unicode="&#x117;" horiz-adv-x="559" 
d="M227 668q0 26 18 44t44 18t44 -18t18 -44t-18 -44t-44 -18t-44 18t-18 44zM284 435q-62 0 -103 -43.5t-47 -109.5h290q-6 70 -42.5 111.5t-97.5 41.5zM467 33q-80 -44 -165 -44q-120 0 -189.5 71.5t-69.5 189.5q0 107 69 185.5t175 78.5q110 0 169 -75.5t59 -183.5
q0 -25 -3 -40h-376q10 -69 57 -106.5t119 -37.5q89 0 184 61l3 -2z" />
    <glyph glyph-name="Eogonek" unicode="&#x118;" horiz-adv-x="584" 
d="M507 -186q-34 -8 -65 -8q-46 0 -75 19t-29 56q0 31 42 83l29 36h-309v700h394l29 -87h-326v-214h273v-86h-273v-226h329l-29 -87h-33l-32 -57q-16 -28 -16 -47q0 -40 81 -40h23z" />
    <glyph glyph-name="eogonek" unicode="&#x119;" horiz-adv-x="559" 
d="M284 435q-62 0 -103 -43.5t-47 -109.5h290q-6 70 -42.5 111.5t-97.5 41.5zM442 -186q-34 -8 -65 -8q-46 0 -74.5 18.5t-28.5 55.5q0 35 50 79l41 35q-32 -5 -63 -5q-120 0 -189.5 71.5t-69.5 189.5q0 107 69 185.5t175 78.5q110 0 169 -75.5t59 -183.5q0 -25 -3 -40h-376
q10 -69 57 -106.5t119 -37.5q89 0 184 61l3 -2l-32 -97l-84 -83q-31 -34 -31 -54q0 -40 80 -40h23z" />
    <glyph glyph-name="Ecaron" unicode="&#x11a;" horiz-adv-x="584" 
d="M352 769h-88l-126 139v2h51l118 -75l118 75h53v-2zM100 0v700h394l29 -87h-326v-214h273v-86h-273v-226h329l-29 -87h-397z" />
    <glyph glyph-name="ecaron" unicode="&#x11b;" horiz-adv-x="559" 
d="M330 607h-82l-128 167v2h42l126 -97l126 97h44v-2zM284 435q-62 0 -103 -43.5t-47 -109.5h290q-6 70 -42.5 111.5t-97.5 41.5zM467 33q-80 -44 -165 -44q-120 0 -189.5 71.5t-69.5 189.5q0 107 69 185.5t175 78.5q110 0 169 -75.5t59 -183.5q0 -25 -3 -40h-376
q10 -69 57 -106.5t119 -37.5q89 0 184 61l3 -2z" />
    <glyph glyph-name="Gcircumflex" unicode="&#x11c;" horiz-adv-x="795" 
d="M537 777l-118 75l-118 -75h-53v1l126 140h88l126 -140v-1h-51zM702 77q-131 -87 -287 -87q-159 0 -259.5 98t-100.5 260q0 158 109 260t275 102q132 0 245 -60v-108q-128 77 -248 77q-119 0 -200.5 -77t-81.5 -192q0 -123 75.5 -196.5t190.5 -73.5q105 0 187 46v150h-201
v88h296v-287z" />
    <glyph glyph-name="gcircumflex" unicode="&#x11d;" horiz-adv-x="620" 
d="M441 603l-126 96l-126 -96h-44v2l128 167h82l128 -167v-2h-42zM292 89q72 0 153 66v248q-64 28 -124 28q-79 0 -131.5 -50.5t-52.5 -128.5q0 -74 43.5 -118.5t111.5 -44.5zM277 -196q-101 0 -196 46l-19 99l3 2q115 -64 216 -64q72 0 118 42.5t46 118.5v45
q-86 -83 -180 -83q-96 0 -158.5 67t-62.5 170q0 117 81 189t194 72q65 0 138 -30l67 22h12v-452q0 -114 -69.5 -179t-189.5 -65z" />
    <glyph glyph-name="Gbreve" unicode="&#x11e;" horiz-adv-x="795" 
d="M418 777q-111 0 -180 120l38 28q36 -38 68.5 -56t73.5 -18t73.5 18t68.5 56l38 -28q-69 -120 -180 -120zM702 77q-131 -87 -287 -87q-159 0 -259.5 98t-100.5 260q0 158 109 260t275 102q132 0 245 -60v-108q-128 77 -248 77q-119 0 -200.5 -77t-81.5 -192
q0 -123 75.5 -196.5t190.5 -73.5q105 0 187 46v150h-201v88h296v-287z" />
    <glyph glyph-name="gbreve" unicode="&#x11f;" horiz-adv-x="620" 
d="M314 597q-104 0 -171 138l45 25q32 -43 61 -64t65 -21t65 21t61 64l45 -25q-67 -138 -171 -138zM292 89q72 0 153 66v248q-64 28 -124 28q-79 0 -131.5 -50.5t-52.5 -128.5q0 -74 43.5 -118.5t111.5 -44.5zM277 -196q-101 0 -196 46l-19 99l3 2q115 -64 216 -64
q72 0 118 42.5t46 118.5v45q-86 -83 -180 -83q-96 0 -158.5 67t-62.5 170q0 117 81 189t194 72q65 0 138 -30l67 22h12v-452q0 -114 -69.5 -179t-189.5 -65z" />
    <glyph glyph-name="Gdotaccent" unicode="&#x120;" horiz-adv-x="795" 
d="M481 838q0 -26 -18 -44.5t-45 -18.5t-45 18.5t-18 44.5t18 44.5t45 18.5t45 -18.5t18 -44.5zM702 77q-131 -87 -287 -87q-159 0 -259.5 98t-100.5 260q0 158 109 260t275 102q132 0 245 -60v-108q-128 77 -248 77q-119 0 -200.5 -77t-81.5 -192q0 -123 75.5 -196.5
t190.5 -73.5q105 0 187 46v150h-201v88h296v-287z" />
    <glyph glyph-name="gdotaccent" unicode="&#x121;" horiz-adv-x="620" 
d="M252 664q0 26 18 44t44 18t44 -18t18 -44t-18 -44t-44 -18t-44 18t-18 44zM292 89q72 0 153 66v248q-64 28 -124 28q-79 0 -131.5 -50.5t-52.5 -128.5q0 -74 43.5 -118.5t111.5 -44.5zM277 -196q-101 0 -196 46l-19 99l3 2q115 -64 216 -64q72 0 118 42.5t46 118.5v45
q-86 -83 -180 -83q-96 0 -158.5 67t-62.5 170q0 117 81 189t194 72q65 0 138 -30l67 22h12v-452q0 -114 -69.5 -179t-189.5 -65z" />
    <glyph glyph-name="uni0122" unicode="&#x122;" horiz-adv-x="795" 
d="M702 77q-131 -87 -287 -87q-159 0 -259.5 98t-100.5 260q0 158 109 260t275 102q132 0 245 -60v-108q-128 77 -248 77q-119 0 -200.5 -77t-81.5 -192q0 -123 75.5 -196.5t190.5 -73.5q105 0 187 46v150h-201v88h296v-287zM388 -259l-50 19v2q68 41 68 66q0 12 -13.5 23
t-56.5 31v3l95 28q67 -27 67 -68q0 -50 -110 -104z" />
    <glyph glyph-name="uni0123" unicode="&#x123;" horiz-adv-x="620" 
d="M341 785l50 -20v-2q-68 -43 -68 -72q0 -15 13 -26.5t57 -34.5v-3l-95 -29q-35 16 -51 33t-16 41q0 32 29.5 58.5t80.5 54.5zM292 89q72 0 153 66v248q-64 28 -124 28q-79 0 -131.5 -50.5t-52.5 -128.5q0 -74 43.5 -118.5t111.5 -44.5zM277 -196q-101 0 -196 46l-19 99
l3 2q115 -64 216 -64q72 0 118 42.5t46 118.5v45q-86 -83 -180 -83q-96 0 -158.5 67t-62.5 170q0 117 81 189t194 72q65 0 138 -30l67 22h12v-452q0 -114 -69.5 -179t-189.5 -65z" />
    <glyph glyph-name="Hcircumflex" unicode="&#x124;" horiz-adv-x="816" 
d="M527 772l-118 75l-118 -75h-53v1l126 140h88l126 -140v-1h-51zM619 0v313h-422v-313h-97v700h97v-298h422v298h96v-700h-96z" />
    <glyph glyph-name="hcircumflex" unicode="&#x125;" horiz-adv-x="604" 
d="M258 794l-126 96l-126 -96h-44v2l128 167h82l128 -167v-2h-42zM328 429q-39 0 -73.5 -20t-79.5 -70v-339h-90v726l90 33v-353q42 54 84 79t94 25q78 0 127 -52t49 -143v-315h-90v306q0 58 -29.5 90.5t-81.5 32.5z" />
    <glyph glyph-name="Hbar" unicode="&#x126;" horiz-adv-x="856" 
d="M641 367v152h-426v-152h426zM641 0v278h-426v-278h-95v518h-96v69h96v113h95v-113h426v113h94v-113h97v-69h-97v-518h-94z" />
    <glyph glyph-name="hbar" unicode="&#x127;" horiz-adv-x="613" 
d="M337 429q-39 0 -73.5 -20t-79.5 -70v-339h-90v587h-81v60h81v79l90 33v-112h148v-60h-148v-181q42 54 84 79t94 25q78 0 127 -52t49 -143v-315h-90v306q0 58 -29.5 90.5t-81.5 32.5z" />
    <glyph glyph-name="Itilde" unicode="&#x128;" horiz-adv-x="307" 
d="M232 843q14 0 26 11t47 54l39 -28q-41 -64 -65 -86.5t-53 -22.5q-24 0 -79.5 31t-70.5 31q-14 0 -26 -11t-47 -54l-39 28q41 64 65 86.5t53 22.5q24 0 79.5 -31t70.5 -31zM105 0v700h97v-700h-97z" />
    <glyph glyph-name="itilde" unicode="&#x129;" horiz-adv-x="270" 
d="M213 680q13 0 24.5 12.5t46.5 62.5l45 -28q-43 -74 -67 -99.5t-55 -25.5q-24 0 -80 36t-70 36q-13 0 -24 -12.5t-47 -62.5l-45 27q43 75 67 100.5t55 25.5q24 0 80 -36t70 -36zM90 0v500h90v-500h-90z" />
    <glyph glyph-name="Imacron" unicode="&#x12a;" horiz-adv-x="307" 
d="M16 864h276v-68h-276v68zM105 0v700h97v-700h-97z" />
    <glyph glyph-name="imacron" unicode="&#x12b;" horiz-adv-x="270" 
d="M-3 696h276v-68h-276v68zM90 0v500h90v-500h-90z" />
    <glyph glyph-name="Ibreve" unicode="&#x12c;" horiz-adv-x="307" 
d="M154 772q-111 0 -180 120l38 28q36 -38 68.5 -56t73.5 -18t73.5 18t68.5 56l38 -28q-69 -120 -180 -120zM105 0v700h97v-700h-97z" />
    <glyph glyph-name="ibreve" unicode="&#x12d;" horiz-adv-x="270" 
d="M135 597q-104 0 -171 138l45 25q32 -43 61 -64t65 -21t65 21t61 64l45 -25q-67 -138 -171 -138zM90 0v500h90v-500h-90z" />
    <glyph glyph-name="Iogonek" unicode="&#x12e;" horiz-adv-x="307" 
d="M227 -186q-34 -8 -65 -8q-46 0 -75 19t-29 56q0 31 42 83l29 36h-24v700h97v-700h-18l-32 -57q-16 -28 -16 -47q0 -40 81 -40h23z" />
    <glyph glyph-name="iogonek" unicode="&#x12f;" horiz-adv-x="270" 
d="M197 679q0 -26 -18 -44t-44 -18t-44 18t-18 44t18 44t44 18t44 -18t18 -44zM208 -186q-34 -8 -65 -8q-46 0 -75 19t-29 56q0 31 42 83l29 36h-20v500h90v-500h-15l-32 -57q-16 -28 -16 -47q0 -40 81 -40h23z" />
    <glyph glyph-name="Idotaccent" unicode="&#x130;" horiz-adv-x="307" 
d="M217 833q0 -26 -18 -44.5t-45 -18.5t-45 18.5t-18 44.5t18 44.5t45 18.5t45 -18.5t18 -44.5zM105 0v700h97v-700h-97z" />
    <glyph glyph-name="dotlessi" unicode="&#x131;" horiz-adv-x="270" 
d="M90 0v500h90v-500h-90z" />
    <glyph glyph-name="Jcircumflex" unicode="&#x134;" horiz-adv-x="459" 
d="M436 772l-118 75l-118 -75h-53v1l126 140h88l126 -140v-1h-51zM267 197v503h97v-515q0 -94 -51.5 -144.5t-136.5 -50.5q-69 0 -122 35l-23 109l2 1q67 -55 128 -55q49 0 77.5 30t28.5 87z" />
    <glyph glyph-name="jcircumflex" unicode="&#x135;" horiz-adv-x="270" 
d="M262 603l-126 96l-126 -96h-44v2l128 167h82l128 -167v-2h-42zM181 500v-527q0 -82 -41 -124.5t-110 -42.5q-30 0 -52 8l-13 78q24 -8 49 -8q76 0 76 87v529h91z" />
    <glyph glyph-name="uni0136" unicode="&#x136;" horiz-adv-x="690" 
d="M552 0l-332 316h-23v-316h-97v700h97v-301h24l329 301h125v-3l-377 -337l381 -357v-3h-127zM345 -254l-50 19v2q68 41 68 66q0 13 -13.5 23.5t-56.5 30.5v3l95 28q67 -27 67 -68q0 -50 -110 -104z" />
    <glyph glyph-name="uni0137" unicode="&#x137;" horiz-adv-x="549" 
d="M424 0l-220 220h-29v-220h-90v726l90 33v-471h28l209 212h113v-3l-244 -240l261 -254v-3h-118zM274 -254l-50 19v2q68 41 68 66q0 13 -13.5 23.5t-56.5 30.5v3l95 28q67 -27 67 -68q0 -50 -110 -104z" />
    <glyph glyph-name="Lacute" unicode="&#x139;" horiz-adv-x="537" 
d="M126 772l82 141h133v-2l-166 -139h-49zM100 0v700h97v-613h301v-87h-398z" />
    <glyph glyph-name="lacute" unicode="&#x13a;" horiz-adv-x="270" 
d="M112 823l84 169h122v-2l-163 -167h-43zM90 0v726l90 33v-759h-90z" />
    <glyph glyph-name="uni013B" unicode="&#x13b;" horiz-adv-x="537" 
d="M100 0v700h97v-613h301v-87h-398zM272 -254l-50 19v2q68 41 68 66q0 13 -13.5 23.5t-56.5 30.5v3l95 28q67 -27 67 -68q0 -50 -110 -104z" />
    <glyph glyph-name="uni013C" unicode="&#x13c;" horiz-adv-x="270" 
d="M90 0v726l90 33v-759h-90zM108 -254l-50 19v2q68 41 68 66q0 13 -13 23.5t-57 30.5v3l95 28q67 -27 67 -68q0 -50 -110 -104z" />
    <glyph glyph-name="Lcaron" unicode="&#x13d;" horiz-adv-x="537" 
d="M267 548q26 52 26 100q0 51 -26 101h86q10 -33 10 -63q0 -70 -53 -138h-43zM100 0v700h97v-613h301v-87h-398z" />
    <glyph glyph-name="lcaron" unicode="&#x13e;" horiz-adv-x="270" 
d="M90 0v726l90 33v-759h-90zM237 549q26 52 26 100q0 51 -26 101h86q10 -33 10 -63q0 -70 -53 -138h-43z" />
    <glyph glyph-name="Lslash" unicode="&#x141;" horiz-adv-x="557" 
d="M518 0h-398v254l-94 -68h-2v85l96 69v360h97v-300l164 116h2v-85l-166 -117v-227h301v-87z" />
    <glyph glyph-name="lslash" unicode="&#x142;" horiz-adv-x="315" 
d="M203 0h-91v310l-94 -69h-2v79l96 70v336l91 33v-311l93 69h2v-79l-95 -70v-368z" />
    <glyph glyph-name="Nacute" unicode="&#x143;" horiz-adv-x="823" 
d="M383 772l82 141h133v-2l-166 -139h-49zM689 -5l-497 566v-561h-92v700h89l442 -503v503h91v-705h-33z" />
    <glyph glyph-name="nacute" unicode="&#x144;" horiz-adv-x="604" 
d="M284 603l84 169h122v-2l-163 -167h-43zM328 429q-39 0 -73.5 -20t-79.5 -70v-339h-90v488l90 20v-102q42 54 84 79t94 25q78 0 127 -52t49 -143v-315h-90v306q0 58 -29.5 90.5t-81.5 32.5z" />
    <glyph glyph-name="uni0145" unicode="&#x145;" horiz-adv-x="823" 
d="M689 -5l-497 566v-561h-92v700h89l442 -503v503h91v-705h-33zM394 -254l-50 19v2q68 41 68 66q0 13 -13 23.5t-57 30.5v3l95 28q67 -27 67 -68q0 -50 -110 -104z" />
    <glyph glyph-name="uni0146" unicode="&#x146;" horiz-adv-x="604" 
d="M328 429q-39 0 -73.5 -20t-79.5 -70v-339h-90v488l90 20v-102q42 54 84 79t94 25q78 0 127 -52t49 -143v-315h-90v306q0 58 -29.5 90.5t-81.5 32.5zM280 -254l-50 19v2q68 41 68 66q0 13 -13.5 23.5t-56.5 30.5v3l95 28q67 -27 67 -68q0 -50 -110 -104z" />
    <glyph glyph-name="Ncaron" unicode="&#x147;" horiz-adv-x="823" 
d="M455 769h-88l-126 139v2h51l118 -75l118 75h53v-2zM689 -5l-497 566v-561h-92v700h89l442 -503v503h91v-705h-33z" />
    <glyph glyph-name="ncaron" unicode="&#x148;" horiz-adv-x="604" 
d="M348 603h-82l-128 167v2h42l126 -97l126 97h44v-2zM328 429q-39 0 -73.5 -20t-79.5 -70v-339h-90v488l90 20v-102q42 54 84 79t94 25q78 0 127 -52t49 -143v-315h-90v306q0 58 -29.5 90.5t-81.5 32.5z" />
    <glyph glyph-name="Eng" unicode="&#x14a;" horiz-adv-x="823" 
d="M511 -194q-37 0 -68 9l-16 86l1 1q31 -11 71 -11q59 0 95.5 34.5t36.5 100.5v2l-439 531v-559h-92v700h89l442 -533v533h91v-671q0 -108 -57.5 -165.5t-153.5 -57.5z" />
    <glyph glyph-name="eng" unicode="&#x14b;" horiz-adv-x="604" 
d="M364 -194q-34 0 -58 11l-13 78q27 -11 57 -11q41 0 65 23.5t24 68.5v330q0 58 -29.5 90.5t-81.5 32.5q-39 0 -73.5 -20t-79.5 -70v-339h-90v488l90 20v-102q42 54 84 79t94 25q78 0 127 -52t49 -143v-337q0 -85 -44.5 -128.5t-120.5 -43.5z" />
    <glyph glyph-name="Omacron" unicode="&#x14c;" horiz-adv-x="841" 
d="M243 869h356v-68h-356v68zM55 349q0 154 106 259.5t261 105.5q154 0 259 -105.5t105 -257.5q0 -154 -106 -259.5t-260 -105.5q-155 0 -260 105.5t-105 257.5zM154 351q0 -116 77 -195.5t189 -79.5q109 0 188 79t79 194t-79 195t-190 80q-109 0 -186.5 -79t-77.5 -194z
" />
    <glyph glyph-name="omacron" unicode="&#x14d;" horiz-adv-x="614" 
d="M139 700h336v-68h-336v68zM43 249q0 106 74.5 185.5t190.5 79.5q120 0 191.5 -78t71.5 -184q0 -107 -74 -186.5t-191 -79.5q-119 0 -191 78.5t-72 184.5zM308 433q-76 0 -124 -53.5t-48 -130.5q0 -78 48.5 -130t121.5 -52q76 0 124.5 54t48.5 131t-48.5 129t-122.5 52z
" />
    <glyph glyph-name="Obreve" unicode="&#x14e;" horiz-adv-x="841" 
d="M421 777q-111 0 -180 120l38 28q36 -38 68.5 -56t73.5 -18t73.5 18t68.5 56l38 -28q-69 -120 -180 -120zM55 349q0 154 106 259.5t261 105.5q154 0 259 -105.5t105 -257.5q0 -154 -106 -259.5t-260 -105.5q-155 0 -260 105.5t-105 257.5zM154 351q0 -116 77 -195.5
t189 -79.5q109 0 188 79t79 194t-79 195t-190 80q-109 0 -186.5 -79t-77.5 -194z" />
    <glyph glyph-name="obreve" unicode="&#x14f;" horiz-adv-x="614" 
d="M307 601q-104 0 -171 138l45 25q32 -43 61 -64t65 -21t65 21t61 64l45 -25q-67 -138 -171 -138zM43 249q0 106 74.5 185.5t190.5 79.5q120 0 191.5 -78t71.5 -184q0 -107 -74 -186.5t-191 -79.5q-119 0 -191 78.5t-72 184.5zM308 433q-76 0 -124 -53.5t-48 -130.5
q0 -78 48.5 -130t121.5 -52q76 0 124.5 54t48.5 131t-48.5 129t-122.5 52z" />
    <glyph glyph-name="Ohungarumlaut" unicode="&#x150;" horiz-adv-x="841" 
d="M475 777l82 141h124v-2l-157 -139h-49zM286 777l82 141h124v-2l-157 -139h-49zM55 349q0 154 106 259.5t261 105.5q154 0 259 -105.5t105 -257.5q0 -154 -106 -259.5t-260 -105.5q-155 0 -260 105.5t-105 257.5zM154 351q0 -116 77 -195.5t189 -79.5q109 0 188 79t79 194
t-79 195t-190 80q-109 0 -186.5 -79t-77.5 -194z" />
    <glyph glyph-name="ohungarumlaut" unicode="&#x151;" horiz-adv-x="614" 
d="M366 607l84 169h113v-2l-154 -167h-43zM178 607l84 169h113v-2l-154 -167h-43zM43 249q0 106 74.5 185.5t190.5 79.5q120 0 191.5 -78t71.5 -184q0 -107 -74 -186.5t-191 -79.5q-119 0 -191 78.5t-72 184.5zM308 433q-76 0 -124 -53.5t-48 -130.5q0 -78 48.5 -130
t121.5 -52q76 0 124.5 54t48.5 131t-48.5 129t-122.5 52z" />
    <glyph glyph-name="OE" unicode="&#x152;" horiz-adv-x="1011" 
d="M453 88h75v524h-79q-128 0 -211 -71t-83 -191q0 -123 82 -192.5t216 -69.5zM451 0q-180 0 -287.5 94t-107.5 254q0 159 111.5 255.5t283.5 96.5h471l29 -87h-327v-214h273v-86h-273v-226h330l-29 -87h-474z" />
    <glyph glyph-name="oe" unicode="&#x153;" horiz-adv-x="988" 
d="M712 435q-61 0 -102 -43.5t-47 -109.5h290q-6 70 -43 111.5t-98 41.5zM307 433q-76 0 -123.5 -53t-47.5 -131t48 -130t121 -52q76 0 123.5 53.5t47.5 131.5q0 77 -47.5 129t-121.5 52zM735 -11q-153 0 -218 113q-34 -54 -90 -85t-127 -31q-116 0 -186.5 78.5t-70.5 184.5
t73 185.5t187 79.5q145 0 217 -116q32 53 84 84.5t116 31.5q108 0 166 -75.5t58 -183.5q0 -25 -3 -40h-376q10 -69 57 -106.5t118 -37.5q91 0 184 61l3 -2l-31 -97q-77 -44 -161 -44z" />
    <glyph glyph-name="Racute" unicode="&#x154;" horiz-adv-x="635" 
d="M277 772l82 141h133v-2l-166 -139h-49zM195 614v-249h101q63 0 104 35.5t41 92.5q0 55 -39.5 88t-100.5 33h-106zM519 0l-246 280h-76v-280h-97v700h204q103 0 169 -54.5t66 -152.5q0 -72 -44.5 -124.5t-118.5 -72.5l264 -296h-121z" />
    <glyph glyph-name="racute" unicode="&#x155;" horiz-adv-x="415" 
d="M208 603l84 169h122v-2l-163 -167h-43zM175 0h-90v488l90 20v-127q56 70 92.5 98.5t81.5 28.5q15 0 32 -4l7 -95q-13 3 -27 3q-47 0 -90.5 -23t-95.5 -69v-320z" />
    <glyph glyph-name="uni0156" unicode="&#x156;" horiz-adv-x="635" 
d="M195 614v-249h101q63 0 104 35.5t41 92.5q0 55 -39.5 88t-100.5 33h-106zM519 0l-246 280h-76v-280h-97v700h204q103 0 169 -54.5t66 -152.5q0 -72 -44.5 -124.5t-118.5 -72.5l264 -296h-121zM321 -254l-50 19v2q68 41 68 66q0 13 -13.5 23.5t-56.5 30.5v3l95 28
q67 -27 67 -68q0 -50 -110 -104z" />
    <glyph glyph-name="uni0157" unicode="&#x157;" horiz-adv-x="415" 
d="M175 0h-90v488l90 20v-127q56 70 92.5 98.5t81.5 28.5q15 0 32 -4l7 -95q-13 3 -27 3q-47 0 -90.5 -23t-95.5 -69v-320zM103 -254l-50 19v2q68 41 68 66q0 13 -13 23.5t-57 30.5v3l95 28q67 -27 67 -68q0 -50 -110 -104z" />
    <glyph glyph-name="Rcaron" unicode="&#x158;" horiz-adv-x="635" 
d="M349 769h-88l-126 139v2h51l118 -75l118 75h53v-2zM195 614v-249h101q63 0 104 35.5t41 92.5q0 55 -39.5 88t-100.5 33h-106zM519 0l-246 280h-76v-280h-97v700h204q103 0 169 -54.5t66 -152.5q0 -72 -44.5 -124.5t-118.5 -72.5l264 -296h-121z" />
    <glyph glyph-name="rcaron" unicode="&#x159;" horiz-adv-x="415" 
d="M272 603h-82l-128 167v2h42l126 -97l126 97h44v-2zM175 0h-90v488l90 20v-127q56 70 92.5 98.5t81.5 28.5q15 0 32 -4l7 -95q-13 3 -27 3q-47 0 -90.5 -23t-95.5 -69v-320z" />
    <glyph glyph-name="Sacute" unicode="&#x15a;" horiz-adv-x="554" 
d="M259 777l82 141h133v-2l-166 -139h-49zM68 522q0 86 59 138t154 52q100 0 184 -53v-108h-2q-96 71 -186 71q-53 0 -84.5 -24.5t-31.5 -66.5q0 -41 31 -68.5t120 -67.5q94 -42 138 -89.5t44 -118.5q0 -89 -63.5 -144t-163.5 -55q-113 0 -205 69l-23 130l2 1
q52 -49 113.5 -79.5t117.5 -30.5q57 0 92.5 27t35.5 74q0 42 -33.5 70.5t-117.5 66.5q-92 41 -136.5 86t-44.5 120z" />
    <glyph glyph-name="sacute" unicode="&#x15b;" horiz-adv-x="504" 
d="M234 605l84 169h122v-2l-163 -167h-43zM457 138q0 -66 -57 -107.5t-144 -41.5q-104 0 -196 61l-19 108l3 2q111 -90 222 -90q45 0 74.5 17.5t29.5 45.5q0 31 -27.5 47.5t-108.5 35.5q-87 21 -130 53t-43 93q0 65 54 107t141 42q86 0 164 -46v-94l-3 -2q-94 61 -171 61
q-45 0 -71.5 -16t-26.5 -42q0 -29 28 -45.5t105 -34.5q91 -21 133.5 -54.5t42.5 -99.5z" />
    <glyph glyph-name="Scircumflex" unicode="&#x15c;" horiz-adv-x="554" 
d="M406 777l-118 75l-118 -75h-53v1l126 140h88l126 -140v-1h-51zM68 522q0 86 59 138t154 52q100 0 184 -53v-108h-2q-96 71 -186 71q-53 0 -84.5 -24.5t-31.5 -66.5q0 -41 31 -68.5t120 -67.5q94 -42 138 -89.5t44 -118.5q0 -89 -63.5 -144t-163.5 -55q-113 0 -205 69
l-23 130l2 1q52 -49 113.5 -79.5t117.5 -30.5q57 0 92.5 27t35.5 74q0 42 -33.5 70.5t-117.5 66.5q-92 41 -136.5 86t-44.5 120z" />
    <glyph glyph-name="scircumflex" unicode="&#x15d;" horiz-adv-x="504" 
d="M384 605l-126 96l-126 -96h-44v2l128 167h82l128 -167v-2h-42zM457 138q0 -66 -57 -107.5t-144 -41.5q-104 0 -196 61l-19 108l3 2q111 -90 222 -90q45 0 74.5 17.5t29.5 45.5q0 31 -27.5 47.5t-108.5 35.5q-87 21 -130 53t-43 93q0 65 54 107t141 42q86 0 164 -46v-94
l-3 -2q-94 61 -171 61q-45 0 -71.5 -16t-26.5 -42q0 -29 28 -45.5t105 -34.5q91 -21 133.5 -54.5t42.5 -99.5z" />
    <glyph glyph-name="uni015E" unicode="&#x15e;" horiz-adv-x="554" 
d="M240 -200q-32 0 -62 8l-26 47l3 3q42 -14 75 -14q58 0 58 31q0 28 -50 28q-16 0 -46 -4l-4 4l51 86q-98 9 -177 68l-23 130l2 1q52 -49 113.5 -79.5t117.5 -30.5q57 0 92.5 27t35.5 74q0 42 -33.5 70.5t-117.5 66.5q-92 41 -136.5 86t-44.5 120q0 86 59 138t154 52
q100 0 184 -53v-108h-2q-96 71 -186 71q-53 0 -84.5 -24.5t-31.5 -66.5q0 -41 31 -68.5t120 -67.5q94 -42 138 -89.5t44 -118.5q0 -83 -55 -136.5t-145 -61.5l-28 -44q91 -3 91 -66q0 -35 -31.5 -57t-85.5 -22z" />
    <glyph glyph-name="uni015F" unicode="&#x15f;" horiz-adv-x="504" 
d="M221 -197q-32 0 -62 8l-26 47l3 3q42 -14 75 -14q58 0 58 31q0 28 -50 28q-16 0 -46 -4l-4 4l50 85q-81 8 -159 59l-19 108l3 2q111 -90 222 -90q45 0 74.5 17.5t29.5 45.5q0 31 -27.5 47.5t-108.5 35.5q-87 21 -130 53t-43 93q0 65 54 107t141 42q86 0 164 -46v-94
l-3 -2q-94 61 -171 61q-45 0 -71.5 -16t-26.5 -42q0 -29 28 -45.5t105 -34.5q91 -21 133.5 -54.5t42.5 -99.5q0 -62 -51.5 -103t-132.5 -46l-26 -41q91 -3 91 -66q0 -35 -31.5 -57t-85.5 -22z" />
    <glyph glyph-name="Scaron" unicode="&#x160;" horiz-adv-x="554" 
d="M331 774h-88l-126 139v2h51l118 -75l118 75h53v-2zM68 522q0 86 59 138t154 52q100 0 184 -53v-108h-2q-96 71 -186 71q-53 0 -84.5 -24.5t-31.5 -66.5q0 -41 31 -68.5t120 -67.5q94 -42 138 -89.5t44 -118.5q0 -89 -63.5 -144t-163.5 -55q-113 0 -205 69l-23 130l2 1
q52 -49 113.5 -79.5t117.5 -30.5q57 0 92.5 27t35.5 74q0 42 -33.5 70.5t-117.5 66.5q-92 41 -136.5 86t-44.5 120z" />
    <glyph glyph-name="scaron" unicode="&#x161;" horiz-adv-x="504" 
d="M298 605h-82l-128 167v2h42l126 -97l126 97h44v-2zM457 138q0 -66 -57 -107.5t-144 -41.5q-104 0 -196 61l-19 108l3 2q111 -90 222 -90q45 0 74.5 17.5t29.5 45.5q0 31 -27.5 47.5t-108.5 35.5q-87 21 -130 53t-43 93q0 65 54 107t141 42q86 0 164 -46v-94l-3 -2
q-94 61 -171 61q-45 0 -71.5 -16t-26.5 -42q0 -29 28 -45.5t105 -34.5q91 -21 133.5 -54.5t42.5 -99.5z" />
    <glyph glyph-name="uni0162" unicode="&#x162;" horiz-adv-x="715" 
d="M328 -195q-32 0 -62 8l-26 47l3 3q42 -14 75 -14q58 0 58 31q0 28 -50 28q-16 0 -46 -4l-4 4l54 92h-21v613h-274v87h645v-87h-275v-613h-19l-32 -50q91 -3 91 -66q0 -35 -31.5 -57t-85.5 -22z" />
    <glyph glyph-name="uni0163" unicode="&#x163;" horiz-adv-x="447" 
d="M231 -195q-32 0 -62 8l-26 47l3 3q42 -14 75 -14q58 0 58 31q0 28 -50 28q-16 0 -46 -4l-4 4l50 86q-51 12 -80.5 53t-29.5 109v267h-85v77h85v112l89 33v-145h196v-77h-196v-263q0 -90 83 -90q56 0 112 51l3 -2l-20 -95q-42 -32 -104 -35l-25 -39q91 -3 91 -66
q0 -35 -31.5 -57t-85.5 -22z" />
    <glyph glyph-name="Tcaron" unicode="&#x164;" horiz-adv-x="715" 
d="M401 769h-88l-126 139v2h51l118 -75l118 75h53v-2zM680 613h-275v-613h-96v613h-274v87h645v-87z" />
    <glyph glyph-name="tcaron" unicode="&#x165;" horiz-adv-x="447" 
d="M270 569q26 52 26 100q0 51 -26 101h86q10 -33 10 -63q0 -70 -53 -138h-43zM386 24q-47 -35 -114 -35q-68 0 -110.5 42.5t-42.5 124.5v267h-85v77h85v112l89 33v-145h196v-77h-196v-263q0 -90 83 -90q56 0 112 51l3 -2z" />
    <glyph glyph-name="Tbar" unicode="&#x166;" horiz-adv-x="715" 
d="M559 301h-154v-301h-95v301h-154v70h154v242h-275v87h645v-87h-275v-242h154v-70z" />
    <glyph glyph-name="tbar" unicode="&#x167;" horiz-adv-x="447" 
d="M386 24q-47 -35 -114 -35q-68 0 -110.5 42.5t-42.5 124.5v86h-85v60h85v121h-85v77h85v112l89 33v-145h196v-77h-196v-121h161v-60h-161v-82q0 -90 83 -90q56 0 112 51l3 -2z" />
    <glyph glyph-name="Utilde" unicode="&#x168;" horiz-adv-x="789" 
d="M473 843q14 0 26 11t47 54l39 -28q-41 -64 -65 -86.5t-53 -22.5q-24 0 -79.5 31t-70.5 31q-14 0 -26 -11t-47 -54l-39 28q41 64 65 86.5t53 22.5q24 0 79.5 -31t70.5 -31zM91 306v394h97v-396q0 -109 55.5 -168t152.5 -59q96 0 152 59t56 171v393h93v-394
q0 -148 -80 -233t-223 -85q-142 0 -222.5 85t-80.5 233z" />
    <glyph glyph-name="utilde" unicode="&#x169;" horiz-adv-x="604" 
d="M376 680q13 0 24.5 12.5t46.5 62.5l45 -28q-43 -74 -67 -99.5t-55 -25.5q-24 0 -80 36t-70 36q-13 0 -24 -12.5t-47 -62.5l-45 27q43 75 67 100.5t55 25.5q24 0 80 -36t70 -36zM429 0v94q-42 -54 -84 -79t-94 -25q-78 0 -127 52t-49 143v315h91v-306q0 -58 29.5 -90.5
t81.5 -32.5q38 0 72.5 20t79.5 70v339h91v-500h-91z" />
    <glyph glyph-name="Umacron" unicode="&#x16a;" horiz-adv-x="789" 
d="M217 864h356v-68h-356v68zM91 306v394h97v-396q0 -109 55.5 -168t152.5 -59q96 0 152 59t56 171v393h93v-394q0 -148 -80 -233t-223 -85q-142 0 -222.5 85t-80.5 233z" />
    <glyph glyph-name="umacron" unicode="&#x16b;" horiz-adv-x="604" 
d="M130 696h336v-68h-336v68zM429 0v94q-42 -54 -84 -79t-94 -25q-78 0 -127 52t-49 143v315h91v-306q0 -58 29.5 -90.5t81.5 -32.5q38 0 72.5 20t79.5 70v339h91v-500h-91z" />
    <glyph glyph-name="Ubreve" unicode="&#x16c;" horiz-adv-x="789" 
d="M395 772q-111 0 -180 120l38 28q36 -38 68.5 -56t73.5 -18t73.5 18t68.5 56l38 -28q-69 -120 -180 -120zM91 306v394h97v-396q0 -109 55.5 -168t152.5 -59q96 0 152 59t56 171v393h93v-394q0 -148 -80 -233t-223 -85q-142 0 -222.5 85t-80.5 233z" />
    <glyph glyph-name="ubreve" unicode="&#x16d;" horiz-adv-x="604" 
d="M298 597q-104 0 -171 138l45 25q32 -43 61 -64t65 -21t65 21t61 64l45 -25q-67 -138 -171 -138zM429 0v94q-42 -54 -84 -79t-94 -25q-78 0 -127 52t-49 143v315h91v-306q0 -58 29.5 -90.5t81.5 -32.5q38 0 72.5 20t79.5 70v339h91v-500h-91z" />
    <glyph glyph-name="Uring" unicode="&#x16e;" horiz-adv-x="789" 
d="M271 884q0 48 36 81t88 33t88 -33t36 -81t-36 -81t-88 -33t-88 33t-36 81zM315 884q0 -31 23 -52t57 -21t57 21t23 52t-23 51.5t-57 20.5t-57 -20.5t-23 -51.5zM91 306v394h97v-396q0 -109 55.5 -168t152.5 -59q96 0 152 59t56 171v393h93v-394q0 -148 -80 -233t-223 -85
q-142 0 -222.5 85t-80.5 233z" />
    <glyph glyph-name="uring" unicode="&#x16f;" horiz-adv-x="604" 
d="M174 724q0 51 36 87.5t88 36.5t88 -36.5t36 -87.5t-36 -87.5t-88 -36.5t-88 36.5t-36 87.5zM218 724q0 -34 23.5 -58t56.5 -24t56.5 24t23.5 58t-23.5 58t-56.5 24t-56.5 -24t-23.5 -58zM429 0v94q-42 -54 -84 -79t-94 -25q-78 0 -127 52t-49 143v315h91v-306
q0 -58 29.5 -90.5t81.5 -32.5q38 0 72.5 20t79.5 70v339h91v-500h-91z" />
    <glyph glyph-name="Uhungarumlaut" unicode="&#x170;" horiz-adv-x="789" 
d="M449 772l82 141h124v-2l-157 -139h-49zM260 772l82 141h124v-2l-157 -139h-49zM91 306v394h97v-396q0 -109 55.5 -168t152.5 -59q96 0 152 59t56 171v393h93v-394q0 -148 -80 -233t-223 -85q-142 0 -222.5 85t-80.5 233z" />
    <glyph glyph-name="uhungarumlaut" unicode="&#x171;" horiz-adv-x="604" 
d="M357 603l84 169h113v-2l-154 -167h-43zM169 603l84 169h113v-2l-154 -167h-43zM429 0v94q-42 -54 -84 -79t-94 -25q-78 0 -127 52t-49 143v315h91v-306q0 -58 29.5 -90.5t81.5 -32.5q38 0 72.5 20t79.5 70v339h91v-500h-91z" />
    <glyph glyph-name="Uogonek" unicode="&#x172;" horiz-adv-x="789" 
d="M411 -199q-46 0 -75 19t-29 56q0 31 42 83l24 30q-133 6 -207.5 90t-74.5 227v394h97v-396q0 -109 55.5 -168t152.5 -59q96 0 152 59t56 171v393h93v-394q0 -138 -70.5 -222t-196.5 -94l-29 -52q-16 -28 -16 -47q0 -40 81 -40h23l-13 -42q-34 -8 -65 -8z" />
    <glyph glyph-name="uogonek" unicode="&#x173;" horiz-adv-x="604" 
d="M529 -186q-34 -8 -65 -8q-46 0 -75 19t-29 56q0 31 42 83l29 36h-2v94q-42 -54 -84 -79t-94 -25q-78 0 -127 52t-49 143v315h91v-306q0 -58 29.5 -90.5t81.5 -32.5q38 0 72.5 20t79.5 70v339h91v-500h-34l-32 -57q-16 -28 -16 -47q0 -40 81 -40h23z" />
    <glyph glyph-name="Wcircumflex" unicode="&#x174;" horiz-adv-x="1176" 
d="M710 772l-118 75l-118 -75h-53v1l126 140h88l126 -140v-1h-51zM278 -4l-241 704h105l188 -578l252 586h17l244 -586l196 578h102l-252 -704h-94l-208 509l-216 -509h-93z" />
    <glyph glyph-name="wcircumflex" unicode="&#x175;" horiz-adv-x="879" 
d="M569 603l-126 96l-126 -96h-44v2l128 167h82l128 -167v-2h-42zM208 -7l-182 507h97l129 -387l182 393h17l169 -393l142 387h92l-196 -507h-75l-145 332l-154 -332h-76z" />
    <glyph glyph-name="Ycircumflex" unicode="&#x176;" horiz-adv-x="668" 
d="M453 772l-118 75l-118 -75h-53v1l126 140h88l126 -140v-1h-51zM382 0h-96v313l-273 387h115l208 -302l208 302h111l-273 -387v-313z" />
    <glyph glyph-name="ycircumflex" unicode="&#x177;" horiz-adv-x="548" 
d="M401 603l-126 96l-126 -96h-44v2l128 167h82l128 -167v-2h-42zM122 -194q-45 0 -85 19l-18 91l3 2q43 -27 85 -27q69 0 106 86l22 51l-212 472h100l158 -369l148 369h98l-231 -554q-59 -140 -174 -140z" />
    <glyph glyph-name="Ydieresis" unicode="&#x178;" horiz-adv-x="668" 
d="M501 833q0 -26 -18 -44.5t-45 -18.5q-26 0 -44.5 18.5t-18.5 44.5t18.5 44.5t44.5 18.5q27 0 45 -18.5t18 -44.5zM293 833q0 -26 -18.5 -44.5t-44.5 -18.5q-27 0 -45 18.5t-18 44.5t18 44.5t45 18.5q26 0 44.5 -18.5t18.5 -44.5zM382 0h-96v313l-273 387h115l208 -302
l208 302h111l-273 -387v-313z" />
    <glyph glyph-name="Zacute" unicode="&#x179;" horiz-adv-x="698" 
d="M323 772l82 141h133v-2l-166 -139h-49zM613 0h-567l-7 14l448 599h-416v87h574l7 -14l-449 -599h457z" />
    <glyph glyph-name="zacute" unicode="&#x17a;" horiz-adv-x="535" 
d="M250 603l84 169h122v-2l-163 -167h-43zM470 0h-438l-5 15l314 407h-279v78h428l4 -14l-314 -408h318z" />
    <glyph glyph-name="Zdotaccent" unicode="&#x17b;" horiz-adv-x="698" 
d="M414 833q0 -26 -18 -44.5t-45 -18.5t-45 18.5t-18 44.5t18 44.5t45 18.5t45 -18.5t18 -44.5zM613 0h-567l-7 14l448 599h-416v87h574l7 -14l-449 -599h457z" />
    <glyph glyph-name="zdotaccent" unicode="&#x17c;" horiz-adv-x="535" 
d="M211 664q0 26 18 44t44 18t44 -18t18 -44t-18 -44t-44 -18t-44 18t-18 44zM470 0h-438l-5 15l314 407h-279v78h428l4 -14l-314 -408h318z" />
    <glyph glyph-name="Zcaron" unicode="&#x17d;" horiz-adv-x="698" 
d="M395 769h-88l-126 139v2h51l118 -75l118 75h53v-2zM613 0h-567l-7 14l448 599h-416v87h574l7 -14l-449 -599h457z" />
    <glyph glyph-name="zcaron" unicode="&#x17e;" horiz-adv-x="535" 
d="M314 603h-82l-128 167v2h42l126 -97l126 97h44v-2zM470 0h-438l-5 15l314 407h-279v78h428l4 -14l-314 -408h318z" />
    <glyph glyph-name="uni018F" unicode="&#x18f;" horiz-adv-x="771" 
d="M371 -14q-141 0 -231 97.5t-90 263.5v46h564q-13 105 -83 167t-172 62q-133 0 -258 -96l-3 2l15 107q116 77 250 77q157 0 255 -99t98 -264q0 -157 -98 -260t-247 -103zM374 76q94 0 161 65t80 166h-467q9 -107 70 -169t156 -62z" />
    <glyph glyph-name="Ohorn" unicode="&#x1a0;" horiz-adv-x="841" 
d="M420 -14q-155 0 -260 104.5t-105 255.5q0 153 106 257.5t266 104.5q28 0 79 -4t78 -4q65 0 93.5 19.5t28.5 66.5q0 27 -8 55h85q8 -21 8 -51q0 -64 -41 -103.5t-121 -46.5q73 -48 115 -124t42 -167q0 -153 -106 -258t-260 -105zM154 349q0 -115 77 -194t189 -79
q109 0 188 78.5t79 193.5q0 114 -78.5 193t-190.5 79q-109 0 -186.5 -78.5t-77.5 -192.5z" />
    <glyph glyph-name="ohorn" unicode="&#x1a1;" horiz-adv-x="614" 
d="M306 -14q-118 0 -190.5 77.5t-72.5 182.5q0 110 75.5 185.5t197.5 75.5q20 0 54 -1.5t50 -1.5q97 0 97 66q0 21 -8 47h78q9 -27 9 -52q0 -46 -31.5 -76.5t-89.5 -38.5q46 -37 71 -90t25 -110q0 -106 -74 -185t-191 -79zM308 429q-76 0 -124 -52.5t-48 -128.5
q0 -77 48.5 -129t121.5 -52q76 0 124.5 53t48.5 130q0 76 -48.5 127.5t-122.5 51.5z" />
    <glyph glyph-name="Uhorn" unicode="&#x1af;" horiz-adv-x="818" 
d="M394 -12q-142 0 -222.5 85t-80.5 233v394h97v-396q0 -109 55.5 -168t152.5 -59q96 0 152 59t56 171v393h30q60 0 88 20t28 66q0 27 -8 55h85q7 -23 7 -51q0 -124 -137 -149v-335q0 -148 -80 -233t-223 -85z" />
    <glyph glyph-name="uhorn" unicode="&#x1b0;" horiz-adv-x="625" 
d="M429 0v94q-42 -54 -84 -79t-94 -25q-78 0 -127 52t-49 143v315h91v-306q0 -58 29.5 -90.5t81.5 -32.5q38 0 72.5 20t79.5 70v339h29q53 0 79 14.5t26 48.5q0 22 -8 44h80q7 -19 7 -44q0 -98 -122 -118v-445h-91z" />
    <glyph glyph-name="uni01CD" unicode="&#x1cd;" horiz-adv-x="789" 
d="M441 769h-88l-126 139v2h51l118 -75l118 75h53v-2zM539 265l-143 329l-148 -329h291zM654 0l-78 180h-366l-81 -180h-100l326 704h89l314 -704h-104z" />
    <glyph glyph-name="uni01CE" unicode="&#x1ce;" horiz-adv-x="567" 
d="M336 603h-82l-128 167v2h42l126 -97l126 97h44v-2zM402 -8v89q-109 -89 -202 -89q-65 0 -106.5 36t-41.5 98q0 35 14.5 63t50.5 53t108 39.5t177 15.5v2q0 127 -115 127q-84 0 -178 -72l-3 1l20 101q80 53 175 53q91 0 141 -52t50 -153v-292zM218 69q69 0 184 70v100
q-81 -5 -136 -16.5t-80 -28t-34 -31.5t-9 -33q0 -28 20 -44.5t55 -16.5z" />
    <glyph glyph-name="uni01CF" unicode="&#x1cf;" horiz-adv-x="307" 
d="M198 769h-88l-126 139v2h51l118 -75l118 75h53v-2zM105 0v700h97v-700h-97z" />
    <glyph glyph-name="uni01D0" unicode="&#x1d0;" horiz-adv-x="270" 
d="M176 603h-82l-128 167v2h42l126 -97l126 97h44v-2zM90 0v500h90v-500h-90z" />
    <glyph glyph-name="uni01D1" unicode="&#x1d1;" horiz-adv-x="841" 
d="M465 774h-88l-126 139v2h51l118 -75l118 75h53v-2zM55 349q0 154 106 259.5t261 105.5q154 0 259 -105.5t105 -257.5q0 -154 -106 -259.5t-260 -105.5q-155 0 -260 105.5t-105 257.5zM154 351q0 -116 77 -195.5t189 -79.5q109 0 188 79t79 194t-79 195t-190 80
q-109 0 -186.5 -79t-77.5 -194z" />
    <glyph glyph-name="uni01D2" unicode="&#x1d2;" horiz-adv-x="614" 
d="M348 607h-82l-128 167v2h42l126 -97l126 97h44v-2zM43 249q0 106 74.5 185.5t190.5 79.5q120 0 191.5 -78t71.5 -184q0 -107 -74 -186.5t-191 -79.5q-119 0 -191 78.5t-72 184.5zM308 433q-76 0 -124 -53.5t-48 -130.5q0 -78 48.5 -130t121.5 -52q76 0 124.5 54t48.5 131
t-48.5 129t-122.5 52z" />
    <glyph glyph-name="uni01D3" unicode="&#x1d3;" horiz-adv-x="789" 
d="M439 769h-88l-126 139v2h51l118 -75l118 75h53v-2zM91 306v394h97v-396q0 -109 55.5 -168t152.5 -59q96 0 152 59t56 171v393h93v-394q0 -148 -80 -233t-223 -85q-142 0 -222.5 85t-80.5 233z" />
    <glyph glyph-name="uni01D4" unicode="&#x1d4;" horiz-adv-x="604" 
d="M339 603h-82l-128 167v2h42l126 -97l126 97h44v-2zM429 0v94q-42 -54 -84 -79t-94 -25q-78 0 -127 52t-49 143v315h91v-306q0 -58 29.5 -90.5t81.5 -32.5q38 0 72.5 20t79.5 70v339h91v-500h-91z" />
    <glyph glyph-name="uni01D5" unicode="&#x1d5;" horiz-adv-x="789" 
d="M229 1011h332v-64h-332v64zM562 833q0 -26 -18 -44.5t-45 -18.5q-26 0 -44.5 18.5t-18.5 44.5t18.5 44.5t44.5 18.5q27 0 45 -18.5t18 -44.5zM354 833q0 -26 -18.5 -44.5t-44.5 -18.5q-27 0 -45 18.5t-18 44.5t18 44.5t45 18.5q26 0 44.5 -18.5t18.5 -44.5zM91 306v394
h97v-396q0 -109 55.5 -168t152.5 -59q96 0 152 59t56 171v393h93v-394q0 -148 -80 -233t-223 -85q-142 0 -222.5 85t-80.5 233z" />
    <glyph glyph-name="uni01D6" unicode="&#x1d6;" horiz-adv-x="604" 
d="M132 790v65h332v-65h-332zM339 664q0 26 18 44t44 18t44 -18t18 -44t-18 -44t-44 -18t-44 18t-18 44zM133 664q0 26 18 44t44 18t44 -18t18 -44t-18 -44t-44 -18t-44 18t-18 44zM429 0v94q-42 -54 -84 -79t-94 -25q-78 0 -127 52t-49 143v315h91v-306q0 -58 29.5 -90.5
t81.5 -32.5q38 0 72.5 20t79.5 70v339h91v-500h-91z" />
    <glyph glyph-name="uni01D7" unicode="&#x1d7;" horiz-adv-x="789" 
d="M365 922l64 130h120v-2l-141 -128h-43zM562 833q0 -26 -18 -44.5t-45 -18.5q-26 0 -44.5 18.5t-18.5 44.5t18.5 44.5t44.5 18.5q27 0 45 -18.5t18 -44.5zM354 833q0 -26 -18.5 -44.5t-44.5 -18.5q-27 0 -45 18.5t-18 44.5t18 44.5t45 18.5q26 0 44.5 -18.5t18.5 -44.5z
M91 306v394h97v-396q0 -109 55.5 -168t152.5 -59q96 0 152 59t56 171v393h93v-394q0 -148 -80 -233t-223 -85q-142 0 -222.5 85t-80.5 233z" />
    <glyph glyph-name="uni01D8" unicode="&#x1d8;" horiz-adv-x="604" 
d="M273 759l65 140h120v-2l-142 -138h-43zM339 664q0 26 18 44t44 18t44 -18t18 -44t-18 -44t-44 -18t-44 18t-18 44zM133 664q0 26 18 44t44 18t44 -18t18 -44t-18 -44t-44 -18t-44 18t-18 44zM429 0v94q-42 -54 -84 -79t-94 -25q-78 0 -127 52t-49 143v315h91v-306
q0 -58 29.5 -90.5t81.5 -32.5q38 0 72.5 20t79.5 70v339h91v-500h-91z" />
    <glyph glyph-name="uni01D9" unicode="&#x1d9;" horiz-adv-x="789" 
d="M428 922h-66l-127 128v2h47l112 -61l111 61h50v-2zM562 833q0 -26 -18 -44.5t-45 -18.5q-26 0 -44.5 18.5t-18.5 44.5t18.5 44.5t44.5 18.5q27 0 45 -18.5t18 -44.5zM354 833q0 -26 -18.5 -44.5t-44.5 -18.5q-27 0 -45 18.5t-18 44.5t18 44.5t45 18.5q26 0 44.5 -18.5
t18.5 -44.5zM91 306v394h97v-396q0 -109 55.5 -168t152.5 -59q96 0 152 59t56 171v393h93v-394q0 -148 -80 -233t-223 -85q-142 0 -222.5 85t-80.5 233z" />
    <glyph glyph-name="uni01DA" unicode="&#x1da;" horiz-adv-x="604" 
d="M330 762h-64l-132 135v2h48l116 -70l115 70h49v-2zM339 664q0 26 18 44t44 18t44 -18t18 -44t-18 -44t-44 -18t-44 18t-18 44zM133 664q0 26 18 44t44 18t44 -18t18 -44t-18 -44t-44 -18t-44 18t-18 44zM429 0v94q-42 -54 -84 -79t-94 -25q-78 0 -127 52t-49 143v315h91
v-306q0 -58 29.5 -90.5t81.5 -32.5q38 0 72.5 20t79.5 70v339h91v-500h-91z" />
    <glyph glyph-name="uni01DB" unicode="&#x1db;" horiz-adv-x="789" 
d="M425 922h-43l-141 128v2h120zM228 833q0 26 18 44.5t45 18.5q26 0 44.5 -18.5t18.5 -44.5t-18.5 -44.5t-44.5 -18.5q-27 0 -45 18.5t-18 44.5zM436 833q0 26 18.5 44.5t44.5 18.5q27 0 45 -18.5t18 -44.5t-18 -44.5t-45 -18.5q-26 0 -44.5 18.5t-18.5 44.5zM91 306v394
h97v-396q0 -109 55.5 -168t152.5 -59q96 0 152 59t56 171v393h93v-394q0 -148 -80 -233t-223 -85q-142 0 -222.5 85t-80.5 233z" />
    <glyph glyph-name="uni01DC" unicode="&#x1dc;" horiz-adv-x="604" 
d="M323 759h-43l-142 138v2h120zM339 664q0 26 18 44t44 18t44 -18t18 -44t-18 -44t-44 -18t-44 18t-18 44zM133 664q0 26 18 44t44 18t44 -18t18 -44t-18 -44t-44 -18t-44 18t-18 44zM429 0v94q-42 -54 -84 -79t-94 -25q-78 0 -127 52t-49 143v315h91v-306
q0 -58 29.5 -90.5t81.5 -32.5q38 0 72.5 20t79.5 70v339h91v-500h-91z" />
    <glyph glyph-name="Gcaron" unicode="&#x1e6;" horiz-adv-x="795" 
d="M462 774h-88l-126 139v2h51l118 -75l118 75h53v-2zM702 77q-131 -87 -287 -87q-159 0 -259.5 98t-100.5 260q0 158 109 260t275 102q132 0 245 -60v-108q-128 77 -248 77q-119 0 -200.5 -77t-81.5 -192q0 -123 75.5 -196.5t190.5 -73.5q105 0 187 46v150h-201v88h296
v-287z" />
    <glyph glyph-name="gcaron" unicode="&#x1e7;" horiz-adv-x="620" 
d="M355 603h-82l-128 167v2h42l126 -97l126 97h44v-2zM292 89q72 0 153 66v248q-64 28 -124 28q-79 0 -131.5 -50.5t-52.5 -128.5q0 -74 43.5 -118.5t111.5 -44.5zM277 -196q-101 0 -196 46l-19 99l3 2q115 -64 216 -64q72 0 118 42.5t46 118.5v45q-86 -83 -180 -83
q-96 0 -158.5 67t-62.5 170q0 117 81 189t194 72q65 0 138 -30l67 22h12v-452q0 -114 -69.5 -179t-189.5 -65z" />
    <glyph glyph-name="uni01EA" unicode="&#x1ea;" horiz-adv-x="841" 
d="M437 -199q-46 0 -75 19t-29 56q0 31 42 83l22 28q-147 8 -244.5 111.5t-97.5 250.5q0 154 106 259.5t261 105.5q154 0 259 -105.5t105 -257.5q0 -144 -94.5 -247t-236.5 -116l-28 -50q-16 -28 -16 -47q0 -40 81 -40h23l-13 -42q-34 -8 -65 -8zM154 351q0 -116 77 -195.5
t189 -79.5q109 0 188 79t79 194t-79 195t-190 80q-109 0 -186.5 -79t-77.5 -194z" />
    <glyph glyph-name="uni01EB" unicode="&#x1eb;" horiz-adv-x="614" 
d="M323 -198q-46 0 -75 19t-29 56q0 31 42 83l22 27q-109 8 -174.5 84.5t-65.5 177.5q0 106 74.5 185.5t190.5 79.5q120 0 191.5 -78t71.5 -184q0 -98 -63.5 -175t-166.5 -89l-28 -49q-16 -28 -16 -47q0 -40 81 -40h23l-13 -42q-34 -8 -65 -8zM308 433q-76 0 -124 -53.5
t-48 -130.5q0 -78 48.5 -130t121.5 -52q76 0 124.5 54t48.5 131t-48.5 129t-122.5 52z" />
    <glyph glyph-name="uni01F0" unicode="&#x1f0;" horiz-adv-x="270" 
d="M176 603h-82l-128 167v2h42l126 -97l126 97h44v-2zM181 500v-527q0 -82 -41 -124.5t-110 -42.5q-30 0 -52 8l-13 78q24 -8 49 -8q76 0 76 87v529h91z" />
    <glyph glyph-name="uni01F8" unicode="&#x1f8;" horiz-adv-x="823" 
d="M439 772h-49l-166 139v2h133zM689 -5l-497 566v-561h-92v700h89l442 -503v503h91v-705h-33z" />
    <glyph glyph-name="uni01F9" unicode="&#x1f9;" horiz-adv-x="604" 
d="M330 603h-43l-163 167v2h122zM328 429q-39 0 -73.5 -20t-79.5 -70v-339h-90v488l90 20v-102q42 54 84 79t94 25q78 0 127 -52t49 -143v-315h-90v306q0 58 -29.5 90.5t-81.5 32.5z" />
    <glyph glyph-name="Aringacute" unicode="&#x1fa;" horiz-adv-x="789" 
d="M366 919l82 141h133v-2l-166 -139h-49zM399 835q-33 0 -56.5 -24t-23.5 -57q0 -34 23 -58t57 -24t57 24t23 58q0 33 -23.5 57t-56.5 24zM539 265l-143 328l-148 -328h291zM654 0l-78 180h-366l-81 -180h-100l301 651q-55 38 -55 103q0 50 36 86.5t88 36.5t88 -36.5
t36 -86.5q0 -65 -55 -103l290 -651h-104z" />
    <glyph glyph-name="aringacute" unicode="&#x1fb;" horiz-adv-x="567" 
d="M282 891l61 108h99v-1l-119 -107h-41zM171 724q0 51 36 87.5t88 36.5t88 -36.5t36 -87.5t-36 -87.5t-88 -36.5t-88 36.5t-36 87.5zM215 724q0 -34 23.5 -58t56.5 -24t56.5 24t23.5 58t-23.5 58t-56.5 24t-56.5 -24t-23.5 -58zM402 -8v89q-109 -89 -202 -89
q-65 0 -106.5 36t-41.5 98q0 35 14.5 63t50.5 53t108 39.5t177 15.5v2q0 127 -115 127q-84 0 -178 -72l-3 1l20 101q80 53 175 53q91 0 141 -52t50 -153v-292zM218 69q69 0 184 70v100q-81 -5 -136 -16.5t-80 -28t-34 -31.5t-9 -33q0 -28 20 -44.5t55 -16.5z" />
    <glyph glyph-name="AEacute" unicode="&#x1fc;" horiz-adv-x="994" 
d="M603 772l82 141h133v-2l-166 -139h-49zM511 265v346l-228 -346h228zM511 0v180h-284l-118 -180h-101l462 700h435l29 -87h-327v-214h273v-86h-273v-226h330l-29 -87h-397z" />
    <glyph glyph-name="aeacute" unicode="&#x1fd;" horiz-adv-x="913" 
d="M447 605l84 169h122v-2l-163 -167h-43zM638 435q-61 0 -102 -43.5t-47 -109.5h289q-6 70 -42.5 111.5t-97.5 41.5zM218 69q76 0 198 82q-14 41 -15 88q-81 -5 -135.5 -16.5t-79.5 -28t-34 -31.5t-9 -33q0 -29 21 -45t54 -16zM821 33q-80 -44 -165 -44q-143 0 -212 104
q-128 -101 -235 -101q-69 0 -113 35.5t-44 98.5q0 35 14.5 62.5t50.5 53t108 40t176 15.5v4q0 125 -114 125q-84 0 -178 -72l-3 1l20 101q80 53 175 53q115 0 162 -81q69 86 179 86q109 0 168 -75.5t59 -183.5q0 -25 -3 -40h-375q10 -69 57 -106.5t118 -37.5q89 0 184 61
l2 -2z" />
    <glyph glyph-name="Oslashacute" unicode="&#x1fe;" horiz-adv-x="841" 
d="M393 777l82 141h133v-2l-166 -139h-49zM150 346q0 -107 65 -183l356 422q-65 43 -148 43q-114 0 -193.5 -81t-79.5 -201zM418 72q114 0 193.5 81t79.5 201q0 108 -65 183l-357 -422q67 -43 149 -43zM420 -14q-115 0 -208 63l-78 -92h-97l119 140q-101 104 -101 252
q0 154 106 259.5t261 105.5q114 0 207 -63l79 92h96l-120 -139q102 -105 102 -253q0 -154 -106 -259.5t-260 -105.5z" />
    <glyph glyph-name="oslashacute" unicode="&#x1ff;" horiz-adv-x="614" 
d="M284 607l84 169h122v-2l-163 -167h-43zM132 245q0 -66 37 -116l226 286q-38 22 -82 22q-82 0 -131.5 -54.5t-49.5 -137.5zM302 63q81 0 130.5 55t49.5 138q0 67 -37 115l-225 -287q39 -21 82 -21zM306 -14q-76 0 -137 37l-53 -67h-89l89 109q-73 78 -73 184t74.5 185.5
t190.5 79.5q75 0 137 -36l53 66h89l-88 -109q72 -77 72 -183q0 -107 -74 -186.5t-191 -79.5z" />
    <glyph glyph-name="uni0218" unicode="&#x218;" horiz-adv-x="554" 
d="M68 522q0 86 59 138t154 52q100 0 184 -53v-108h-2q-96 71 -186 71q-53 0 -84.5 -24.5t-31.5 -66.5q0 -41 31 -68.5t120 -67.5q94 -42 138 -89.5t44 -118.5q0 -89 -63.5 -144t-163.5 -55q-113 0 -205 69l-23 130l2 1q52 -49 113.5 -79.5t117.5 -30.5q57 0 92.5 27
t35.5 74q0 42 -33.5 70.5t-117.5 66.5q-92 41 -136.5 86t-44.5 120zM237 -259l-50 19v2q68 41 68 66q0 12 -13.5 23t-56.5 31v3l95 28q67 -27 67 -68q0 -50 -110 -104z" />
    <glyph glyph-name="uni0219" unicode="&#x219;" horiz-adv-x="504" 
d="M457 138q0 -66 -57 -107.5t-144 -41.5q-104 0 -196 61l-19 108l3 2q111 -90 222 -90q45 0 74.5 17.5t29.5 45.5q0 31 -27.5 47.5t-108.5 35.5q-87 21 -130 53t-43 93q0 65 54 107t141 42q86 0 164 -46v-94l-3 -2q-94 61 -171 61q-45 0 -71.5 -16t-26.5 -42
q0 -29 28 -45.5t105 -34.5q91 -21 133.5 -54.5t42.5 -99.5zM218 -256l-50 19v2q68 41 68 66q0 13 -13 23.5t-57 30.5v3l95 28q67 -27 67 -68q0 -50 -110 -104z" />
    <glyph glyph-name="uni021A" unicode="&#x21a;" horiz-adv-x="715" 
d="M680 613h-275v-613h-96v613h-274v87h645v-87zM330 -254l-50 19v2q68 41 68 66q0 13 -13 23.5t-57 30.5v3l95 28q67 -27 67 -68q0 -50 -110 -104z" />
    <glyph glyph-name="uni021B" unicode="&#x21b;" horiz-adv-x="447" 
d="M386 24q-47 -35 -114 -35q-68 0 -110.5 42.5t-42.5 124.5v267h-85v77h85v112l89 33v-145h196v-77h-196v-263q0 -90 83 -90q56 0 112 51l3 -2zM228 -254l-50 19v2q68 41 68 66q0 13 -13 23.5t-57 30.5v3l95 28q67 -27 67 -68q0 -50 -110 -104z" />
    <glyph glyph-name="uni0226" unicode="&#x226;" horiz-adv-x="789" 
d="M460 833q0 -26 -18 -44.5t-45 -18.5t-45 18.5t-18 44.5t18 44.5t45 18.5t45 -18.5t18 -44.5zM539 265l-143 329l-148 -329h291zM654 0l-78 180h-366l-81 -180h-100l326 704h89l314 -704h-104z" />
    <glyph glyph-name="uni0227" unicode="&#x227;" horiz-adv-x="567" 
d="M233 664q0 26 18 44t44 18t44 -18t18 -44t-18 -44t-44 -18t-44 18t-18 44zM402 -8v89q-109 -89 -202 -89q-65 0 -106.5 36t-41.5 98q0 35 14.5 63t50.5 53t108 39.5t177 15.5v2q0 127 -115 127q-84 0 -178 -72l-3 1l20 101q80 53 175 53q91 0 141 -52t50 -153v-292z
M218 69q69 0 184 70v100q-81 -5 -136 -16.5t-80 -28t-34 -31.5t-9 -33q0 -28 20 -44.5t55 -16.5z" />
    <glyph glyph-name="uni022E" unicode="&#x22e;" horiz-adv-x="841" 
d="M484 838q0 -26 -18 -44.5t-45 -18.5t-45 18.5t-18 44.5t18 44.5t45 18.5t45 -18.5t18 -44.5zM55 349q0 154 106 259.5t261 105.5q154 0 259 -105.5t105 -257.5q0 -154 -106 -259.5t-260 -105.5q-155 0 -260 105.5t-105 257.5zM154 351q0 -116 77 -195.5t189 -79.5
q109 0 188 79t79 194t-79 195t-190 80q-109 0 -186.5 -79t-77.5 -194z" />
    <glyph glyph-name="uni022F" unicode="&#x22f;" horiz-adv-x="614" 
d="M245 668q0 26 18 44t44 18t44 -18t18 -44t-18 -44t-44 -18t-44 18t-18 44zM43 249q0 106 74.5 185.5t190.5 79.5q120 0 191.5 -78t71.5 -184q0 -107 -74 -186.5t-191 -79.5q-119 0 -191 78.5t-72 184.5zM308 433q-76 0 -124 -53.5t-48 -130.5q0 -78 48.5 -130t121.5 -52
q76 0 124.5 54t48.5 131t-48.5 129t-122.5 52z" />
    <glyph glyph-name="uni0232" unicode="&#x232;" horiz-adv-x="668" 
d="M156 864h356v-68h-356v68zM382 0h-96v313l-273 387h115l208 -302l208 302h111l-273 -387v-313z" />
    <glyph glyph-name="uni0233" unicode="&#x233;" horiz-adv-x="548" 
d="M106 696h336v-68h-336v68zM122 -194q-45 0 -85 19l-18 91l3 2q43 -27 85 -27q69 0 106 86l22 51l-212 472h100l158 -369l148 369h98l-231 -554q-59 -140 -174 -140z" />
    <glyph glyph-name="uni0237" unicode="&#x237;" horiz-adv-x="270" 
d="M181 500v-527q0 -82 -41 -124.5t-110 -42.5q-30 0 -52 8l-13 78q24 -8 49 -8q76 0 76 87v529h91z" />
    <glyph glyph-name="uni0259" unicode="&#x259;" horiz-adv-x="559" 
d="M272 -14q-109 0 -168.5 75.5t-59.5 183.5q0 25 3 40h376q-10 69 -57 106.5t-118 37.5q-90 0 -185 -61l-2 2l31 97q80 44 166 44q119 0 188.5 -71.5t69.5 -188.5q0 -108 -69 -186.5t-175 -78.5zM276 65q61 0 102 43.5t47 109.5h-290q6 -70 43 -111.5t98 -41.5z" />
    <glyph glyph-name="uni02B9" unicode="&#x2b9;" horiz-adv-x="250" 
d="M124 700h112l-158 -292l-36 14z" />
    <glyph glyph-name="uni02BA" unicode="&#x2ba;" horiz-adv-x="444" 
d="M318 700h111l-157 -292l-37 14zM124 700h112l-158 -292l-36 14z" />
    <glyph glyph-name="uni02BB" unicode="&#x2bb;" horiz-adv-x="218" 
d="M177 417h-96q-44 62 -44 112q0 10 2 20t4.5 18.5t9 19t10.5 17.5t13.5 18.5t14 17t16.5 18t16 16.5t18 17.5t17 16.5l30 -22q-68 -94 -68 -143q0 -26 11 -50t46 -76z" />
    <glyph glyph-name="uni02BC" unicode="&#x2bc;" horiz-adv-x="218" 
d="M41 700h95q45 -61 45 -112q0 -11 -2 -21.5t-7 -21.5t-9 -20t-14 -21t-15 -19t-17.5 -20t-17.5 -18.5t-20 -20t-19 -18.5l-30 23q68 94 68 143q0 26 -11 50t-46 76z" />
    <glyph glyph-name="uni02BE" unicode="&#x2be;" horiz-adv-x="201" 
d="M35 552v51q36 1 59 20.5t23 52.5t-22.5 52t-59.5 21v51q63 0 100.5 -33.5t37.5 -90.5q0 -56 -38.5 -90t-99.5 -34z" />
    <glyph glyph-name="uni02BF" unicode="&#x2bf;" horiz-adv-x="201" 
d="M166 800v-51q-36 -1 -59 -20.5t-23 -52.5t22.5 -52t59.5 -21v-51q-63 0 -100.5 33.5t-37.5 90.5q0 56 38.5 90t99.5 34z" />
    <glyph glyph-name="circumflex" unicode="&#x2c6;" horiz-adv-x="500" 
d="M377 603l-126 96l-126 -96h-44v2l128 167h82l128 -167v-2h-42z" />
    <glyph glyph-name="caron" unicode="&#x2c7;" horiz-adv-x="500" 
d="M291 603h-82l-128 167v2h42l126 -97l126 97h44v-2z" />
    <glyph glyph-name="uni02C8" unicode="&#x2c8;" horiz-adv-x="184" 
d="M65 554v244h54v-244h-54z" />
    <glyph glyph-name="uni02CC" unicode="&#x2cc;" horiz-adv-x="184" 
d="M65 -191v244h54v-244h-54z" />
    <glyph glyph-name="uni02CD" unicode="&#x2cd;" horiz-adv-x="500" 
d="M82 -107h336v-68h-336v68z" />
    <glyph glyph-name="breve" unicode="&#x2d8;" horiz-adv-x="500" 
d="M250 597q-104 0 -171 138l45 25q32 -43 61 -64t65 -21t65 21t61 64l45 -25q-67 -138 -171 -138z" />
    <glyph glyph-name="dotaccent" unicode="&#x2d9;" horiz-adv-x="500" 
d="M188 664q0 26 18 44t44 18t44 -18t18 -44t-18 -44t-44 -18t-44 18t-18 44z" />
    <glyph glyph-name="ring" unicode="&#x2da;" horiz-adv-x="500" 
d="M126 724q0 51 36 87.5t88 36.5t88 -36.5t36 -87.5t-36 -87.5t-88 -36.5t-88 36.5t-36 87.5zM170 724q0 -34 23.5 -58t56.5 -24t56.5 24t23.5 58t-23.5 58t-56.5 24t-56.5 -24t-23.5 -58z" />
    <glyph glyph-name="ogonek" unicode="&#x2db;" horiz-adv-x="500" 
d="M331 -186q-34 -8 -65 -8q-46 0 -75 19t-29 56q0 31 42 83l37 46h53l-38 -67q-16 -28 -16 -47q0 -40 81 -40h23z" />
    <glyph glyph-name="tilde" unicode="&#x2dc;" horiz-adv-x="500" 
d="M328 680q13 0 24.5 12.5t46.5 62.5l45 -28q-43 -74 -67 -99.5t-55 -25.5q-24 0 -80 36t-70 36q-13 0 -24 -12.5t-47 -62.5l-45 27q43 75 67 100.5t55 25.5q24 0 80 -36t70 -36z" />
    <glyph glyph-name="hungarumlaut" unicode="&#x2dd;" horiz-adv-x="500" 
d="M309 603l84 169h113v-2l-154 -167h-43zM121 603l84 169h113v-2l-154 -167h-43z" />
    <glyph glyph-name="uni0300" unicode="&#x300;" 
d="M23 603h-43l-163 167v2h122z" />
    <glyph glyph-name="uni0301" unicode="&#x301;" 
d="M-23 603l84 169h122v-2l-163 -167h-43z" />
    <glyph glyph-name="uni0302" unicode="&#x302;" 
d="M127 603l-126 96l-126 -96h-44v2l128 167h82l128 -167v-2h-42z" />
    <glyph glyph-name="uni0303" unicode="&#x303;" 
d="M78 680q13 0 24.5 12.5t46.5 62.5l45 -28q-43 -74 -67 -99.5t-55 -25.5q-24 0 -80 36t-70 36q-13 0 -24 -12.5t-47 -62.5l-45 27q43 75 67 100.5t55 25.5q24 0 80 -36t70 -36z" />
    <glyph glyph-name="uni0304" unicode="&#x304;" 
d="M-168 696h336v-68h-336v68z" />
    <glyph glyph-name="uni0306" unicode="&#x306;" 
d="M0 597q-104 0 -171 138l45 25q32 -43 61 -64t65 -21t65 21t61 64l45 -25q-67 -138 -171 -138z" />
    <glyph glyph-name="uni0307" unicode="&#x307;" 
d="M-62 664q0 26 18 44t44 18t44 -18t18 -44t-18 -44t-44 -18t-44 18t-18 44z" />
    <glyph glyph-name="uni0308" unicode="&#x308;" 
d="M41 664q0 26 18 44t44 18t44 -18t18 -44t-18 -44t-44 -18t-44 18t-18 44zM-165 664q0 26 18 44t44 18t44 -18t18 -44t-18 -44t-44 -18t-44 18t-18 44z" />
    <glyph glyph-name="uni0309" unicode="&#x309;" 
d="M7 596l-51 15v2q60 50 77.5 69.5t17.5 37.5q0 33 -43 33q-51 0 -114 -50h-2v73q55 44 124 44q48 0 77 -23t29 -63q0 -37 -28.5 -67.5t-86.5 -70.5z" />
    <glyph glyph-name="uni030A" unicode="&#x30a;" 
d="M-124 724q0 51 36 87.5t88 36.5t88 -36.5t36 -87.5t-36 -87.5t-88 -36.5t-88 36.5t-36 87.5zM-80 724q0 -34 23.5 -58t56.5 -24t56.5 24t23.5 58t-23.5 58t-56.5 24t-56.5 -24t-23.5 -58z" />
    <glyph glyph-name="uni030B" unicode="&#x30b;" 
d="M59 603l84 169h113v-2l-154 -167h-43zM-129 603l84 169h113v-2l-154 -167h-43z" />
    <glyph glyph-name="uni030C" unicode="&#x30c;" 
d="M41 603h-82l-128 167v2h42l126 -97l126 97h44v-2z" />
    <glyph glyph-name="uni0312" unicode="&#x312;" 
d="M27 785l50 -20v-2q-68 -43 -68 -72q0 -15 13 -26.5t57 -34.5v-3l-95 -29q-35 16 -51 33t-16 41q0 32 29.5 58.5t80.5 54.5z" />
    <glyph glyph-name="uni0315" unicode="&#x315;" 
d="M0 550q26 52 26 100q0 51 -26 101h86q10 -33 10 -63q0 -70 -53 -138h-43z" />
    <glyph glyph-name="uni0323" unicode="&#x323;" 
d="M-62 -148q0 26 18 44t44 18t44 -18t18 -44t-18 -44t-44 -18t-44 18t-18 44z" />
    <glyph glyph-name="uni0324" unicode="&#x324;" 
d="M41 -148q0 26 18 44t44 18t44 -18t18 -44t-18 -44t-44 -18t-44 18t-18 44zM-165 -148q0 26 18 44t44 18t44 -18t18 -44t-18 -44t-44 -18t-44 18t-18 44z" />
    <glyph glyph-name="uni0326" unicode="&#x326;" 
d="M-27 -254l-50 19v2q68 41 68 66q0 13 -13 23.5t-57 30.5v3l95 28q67 -27 67 -68q0 -50 -110 -104z" />
    <glyph glyph-name="uni0327" unicode="&#x327;" 
d="M-24 -195q-32 0 -62 8l-26 47l3 3q42 -14 75 -14q58 0 58 31q0 28 -50 28q-16 0 -46 -4l-4 4l57 97h56l-35 -55q91 -3 91 -66q0 -35 -31.5 -57t-85.5 -22z" />
    <glyph glyph-name="uni0328" unicode="&#x328;" 
d="M81 -186q-34 -8 -65 -8q-46 0 -75 19t-29 56q0 31 42 83l37 46h53l-38 -67q-16 -28 -16 -47q0 -40 81 -40h23z" />
    <glyph glyph-name="uni032D" unicode="&#x32d;" 
d="M127 -255l-126 96l-126 -96h-44v2l128 167h82l128 -167v-2h-42z" />
    <glyph glyph-name="uni032E" unicode="&#x32e;" 
d="M0 -256q-104 0 -171 138l45 25q32 -43 61 -64t65 -21t65 21t61 64l45 -25q-67 -138 -171 -138z" />
    <glyph glyph-name="uni0331" unicode="&#x331;" 
d="M-168 -111h336v-68h-336v68z" />
    <glyph glyph-name="uni0E3F" unicode="&#xe3f;" horiz-adv-x="659" 
d="M359 -163h-60v163h-199v700h199v123h60v-123q101 0 160 -47.5t59 -132.5q0 -51 -29 -91.5t-81 -64.5q63 -21 99.5 -64t36.5 -102q0 -91 -68 -144.5t-177 -53.5v-163zM189 619v-223h111v223h-111zM487 514q0 50 -34.5 77.5t-95.5 27.5v-223q61 2 95.5 33.5t34.5 84.5z
M189 81h111v237h-111v-237zM514 199q0 57 -43.5 88t-113.5 31v-237h5q70 0 111 32.5t41 85.5z" />
    <glyph glyph-name="uni1E06" unicode="&#x1e06;" horiz-adv-x="617" 
d="M309 0h-209v700h211q103 0 162 -48.5t59 -134.5q0 -102 -106 -153q65 -19 101 -61.5t36 -104.5q0 -91 -70.5 -144.5t-183.5 -53.5zM193 617v-219h102q64 0 102.5 31.5t38.5 81.5q0 49 -35.5 77.5t-95.5 28.5h-112zM193 83h121q71 0 112 32.5t41 84.5q0 55 -41.5 85.5
t-116.5 30.5h-116v-233zM152 -111h336v-68h-336v68z" />
    <glyph glyph-name="uni1E07" unicode="&#x1e07;" horiz-adv-x="616" 
d="M296 -8q-66 0 -135 29l-65 -21h-11v726l90 33v-332q83 83 176 83t156.5 -70t63.5 -176q0 -122 -81 -197t-194 -75zM294 72q79 0 132 52.5t53 133.5q0 77 -44 124t-111 47q-73 0 -149 -63v-270q59 -24 119 -24zM139 -111h336v-68h-336v68z" />
    <glyph glyph-name="uni1E0C" unicode="&#x1e0c;" horiz-adv-x="783" 
d="M329 612h-132v-524h136q128 0 211.5 71t83.5 191q0 124 -82 193t-217 69zM100 0v700h231q181 0 288.5 -93.5t107.5 -254.5q0 -159 -111.5 -255.5t-284.5 -96.5h-231zM320 -148q0 26 18 44t44 18t44 -18t18 -44t-18 -44t-44 -18t-44 18t-18 44z" />
    <glyph glyph-name="uni1E0D" unicode="&#x1e0d;" horiz-adv-x="620" 
d="M296 71q73 0 149 63v252q-67 42 -134 42q-75 0 -124.5 -51t-49.5 -130t46.5 -127.5t112.5 -48.5zM445 0v72q-81 -82 -173 -82q-95 0 -161.5 71t-66.5 179q0 120 76 194t176 74q77 0 149 -52v270l91 33v-759h-91zM245 -148q0 26 18 44t44 18t44 -18t18 -44t-18 -44
t-44 -18t-44 18t-18 44z" />
    <glyph glyph-name="uni1E0E" unicode="&#x1e0e;" horiz-adv-x="783" 
d="M329 612h-132v-524h136q128 0 211.5 71t83.5 191q0 124 -82 193t-217 69zM100 0v700h231q181 0 288.5 -93.5t107.5 -254.5q0 -159 -111.5 -255.5t-284.5 -96.5h-231zM214 -111h336v-68h-336v68z" />
    <glyph glyph-name="uni1E0F" unicode="&#x1e0f;" horiz-adv-x="620" 
d="M296 71q73 0 149 63v252q-67 42 -134 42q-75 0 -124.5 -51t-49.5 -130t46.5 -127.5t112.5 -48.5zM445 0v72q-81 -82 -173 -82q-95 0 -161.5 71t-66.5 179q0 120 76 194t176 74q77 0 149 -52v270l91 33v-759h-91zM139 -111h336v-68h-336v68z" />
    <glyph glyph-name="uni1E12" unicode="&#x1e12;" horiz-adv-x="783" 
d="M329 612h-132v-524h136q128 0 211.5 71t83.5 191q0 124 -82 193t-217 69zM100 0v700h231q181 0 288.5 -93.5t107.5 -254.5q0 -159 -111.5 -255.5t-284.5 -96.5h-231zM509 -255l-126 96l-126 -96h-44v2l128 167h82l128 -167v-2h-42z" />
    <glyph glyph-name="uni1E13" unicode="&#x1e13;" horiz-adv-x="620" 
d="M296 71q73 0 149 63v252q-67 42 -134 42q-75 0 -124.5 -51t-49.5 -130t46.5 -127.5t112.5 -48.5zM445 0v72q-81 -82 -173 -82q-95 0 -161.5 71t-66.5 179q0 120 76 194t176 74q77 0 149 -52v270l91 33v-759h-91zM434 -255l-126 96l-126 -96h-44v2l128 167h82l128 -167v-2
h-42z" />
    <glyph glyph-name="uni1E20" unicode="&#x1e20;" horiz-adv-x="795" 
d="M240 869h356v-68h-356v68zM702 77q-131 -87 -287 -87q-159 0 -259.5 98t-100.5 260q0 158 109 260t275 102q132 0 245 -60v-108q-128 77 -248 77q-119 0 -200.5 -77t-81.5 -192q0 -123 75.5 -196.5t190.5 -73.5q105 0 187 46v150h-201v88h296v-287z" />
    <glyph glyph-name="uni1E21" unicode="&#x1e21;" horiz-adv-x="620" 
d="M146 696h336v-68h-336v68zM292 89q72 0 153 66v248q-64 28 -124 28q-79 0 -131.5 -50.5t-52.5 -128.5q0 -74 43.5 -118.5t111.5 -44.5zM277 -196q-101 0 -196 46l-19 99l3 2q115 -64 216 -64q72 0 118 42.5t46 118.5v45q-86 -83 -180 -83q-96 0 -158.5 67t-62.5 170
q0 117 81 189t194 72q65 0 138 -30l67 22h12v-452q0 -114 -69.5 -179t-189.5 -65z" />
    <glyph glyph-name="uni1E24" unicode="&#x1e24;" horiz-adv-x="816" 
d="M619 0v313h-422v-313h-97v700h97v-298h422v298h96v-700h-96zM346 -144q0 26 18 44t44 18t44 -18t18 -44t-18 -44t-44 -18t-44 18t-18 44z" />
    <glyph glyph-name="uni1E25" unicode="&#x1e25;" horiz-adv-x="604" 
d="M328 429q-39 0 -73.5 -20t-79.5 -70v-339h-90v726l90 33v-353q42 54 84 79t94 25q78 0 127 -52t49 -143v-315h-90v306q0 58 -29.5 90.5t-81.5 32.5zM245 -142q0 26 18 44t44 18t44 -18t18 -44t-18 -44t-44 -18t-44 18t-18 44z" />
    <glyph glyph-name="uni1E28" unicode="&#x1e28;" horiz-adv-x="816" 
d="M122 -195q-32 0 -62 8l-26 47l3 3q42 -14 75 -14q58 0 58 31q0 28 -50 28q-16 0 -46 -4l-4 4l54 92h-24v700h97v-298h422v298h96v-700h-96v313h-422v-313h-17l-32 -50q91 -3 91 -66q0 -35 -31.5 -57t-85.5 -22z" />
    <glyph glyph-name="uni1E29" unicode="&#x1e29;" horiz-adv-x="604" 
d="M103 -195q-32 0 -62 8l-26 47l3 3q42 -14 75 -14q58 0 58 31q0 28 -50 28q-16 0 -46 -4l-4 4l54 92h-20v726l90 33v-353q42 54 84 79t94 25q78 0 127 -52t49 -143v-315h-90v306q0 58 -29.5 90.5t-81.5 32.5q-39 0 -73.5 -20t-79.5 -70v-339h-14l-32 -50q91 -3 91 -66
q0 -35 -31.5 -57t-85.5 -22z" />
    <glyph glyph-name="uni1E2A" unicode="&#x1e2a;" horiz-adv-x="816" 
d="M619 0v313h-422v-313h-97v700h97v-298h422v298h96v-700h-96zM408 -256q-104 0 -171 138l45 25q32 -43 61 -64t65 -21t65 21t61 64l45 -25q-67 -138 -171 -138z" />
    <glyph glyph-name="uni1E2B" unicode="&#x1e2b;" horiz-adv-x="604" 
d="M328 429q-39 0 -73.5 -20t-79.5 -70v-339h-90v726l90 33v-353q42 54 84 79t94 25q78 0 127 -52t49 -143v-315h-90v306q0 58 -29.5 90.5t-81.5 32.5zM307 -256q-104 0 -171 138l45 25q32 -43 61 -64t65 -21t65 21t61 64l45 -25q-67 -138 -171 -138z" />
    <glyph glyph-name="uni1E32" unicode="&#x1e32;" horiz-adv-x="690" 
d="M552 0l-332 316h-23v-316h-97v700h97v-301h24l329 301h125v-3l-377 -337l381 -357v-3h-127zM310 -148q0 26 18 44t44 18t44 -18t18 -44t-18 -44t-44 -18t-44 18t-18 44z" />
    <glyph glyph-name="uni1E33" unicode="&#x1e33;" horiz-adv-x="549" 
d="M424 0l-220 220h-29v-220h-90v726l90 33v-471h28l209 212h113v-3l-244 -240l261 -254v-3h-118zM239 -148q0 26 18 44t44 18t44 -18t18 -44t-18 -44t-44 -18t-44 18t-18 44z" />
    <glyph glyph-name="uni1E34" unicode="&#x1e34;" horiz-adv-x="690" 
d="M552 0l-332 316h-23v-316h-97v700h97v-301h24l329 301h125v-3l-377 -337l381 -357v-3h-127zM204 -111h336v-68h-336v68z" />
    <glyph glyph-name="uni1E35" unicode="&#x1e35;" horiz-adv-x="549" 
d="M424 0l-220 220h-29v-220h-90v726l90 33v-471h28l209 212h113v-3l-244 -240l261 -254v-3h-118zM133 -111h336v-68h-336v68z" />
    <glyph glyph-name="uni1E36" unicode="&#x1e36;" horiz-adv-x="537" 
d="M100 0v700h97v-613h301v-87h-398zM237 -148q0 26 18 44t44 18t44 -18t18 -44t-18 -44t-44 -18t-44 18t-18 44z" />
    <glyph glyph-name="uni1E37" unicode="&#x1e37;" horiz-adv-x="270" 
d="M90 0v726l90 33v-759h-90zM73 -148q0 26 18 44t44 18t44 -18t18 -44t-18 -44t-44 -18t-44 18t-18 44z" />
    <glyph glyph-name="uni1E38" unicode="&#x1e38;" horiz-adv-x="537" 
d="M16 864h276v-68h-276v68zM100 0v700h97v-613h301v-87h-398zM237 -148q0 26 18 44t44 18t44 -18t18 -44t-18 -44t-44 -18t-44 18t-18 44z" />
    <glyph glyph-name="uni1E39" unicode="&#x1e39;" horiz-adv-x="270" 
d="M-3 916h276v-68h-276v68zM90 0v726l90 33v-759h-90zM73 -148q0 26 18 44t44 18t44 -18t18 -44t-18 -44t-44 -18t-44 18t-18 44z" />
    <glyph glyph-name="uni1E3A" unicode="&#x1e3a;" horiz-adv-x="537" 
d="M100 0v700h97v-613h301v-87h-398zM131 -111h336v-68h-336v68z" />
    <glyph glyph-name="uni1E3B" unicode="&#x1e3b;" horiz-adv-x="270" 
d="M90 0v726l90 33v-759h-90zM-3 -111h276v-68h-276v68z" />
    <glyph glyph-name="uni1E3C" unicode="&#x1e3c;" horiz-adv-x="537" 
d="M100 0v700h97v-613h301v-87h-398zM426 -255l-126 96l-126 -96h-44v2l128 167h82l128 -167v-2h-42z" />
    <glyph glyph-name="uni1E3D" unicode="&#x1e3d;" horiz-adv-x="270" 
d="M90 0v726l90 33v-759h-90zM262 -255l-126 96l-126 -96h-44v2l128 167h82l128 -167v-2h-42z" />
    <glyph glyph-name="uni1E3E" unicode="&#x1e3e;" horiz-adv-x="1029" 
d="M486 772l82 141h133v-2l-166 -139h-49zM505 -11l-314 614v-603h-91v700h143l270 -538l269 538h146v-700h-94v608l-314 -619h-15z" />
    <glyph glyph-name="uni1E3F" unicode="&#x1e3f;" horiz-adv-x="921" 
d="M442 603l84 169h122v-2l-163 -167h-43zM315 429q-35 0 -66.5 -19.5t-73.5 -66.5v-343h-90v488l90 20v-98q76 100 167 100q54 0 95 -29t60 -82q43 58 85 84.5t95 26.5q75 0 122 -52t47 -143v-315h-91v306q0 58 -28 90.5t-77 32.5q-35 0 -67 -19.5t-74 -67.5q1 -8 1 -27
v-315h-90v306q0 58 -28 90.5t-77 32.5z" />
    <glyph glyph-name="uni1E40" unicode="&#x1e40;" horiz-adv-x="1029" 
d="M577 833q0 -26 -18 -44.5t-45 -18.5t-45 18.5t-18 44.5t18 44.5t45 18.5t45 -18.5t18 -44.5zM505 -11l-314 614v-603h-91v700h143l270 -538l269 538h146v-700h-94v608l-314 -619h-15z" />
    <glyph glyph-name="uni1E41" unicode="&#x1e41;" horiz-adv-x="921" 
d="M403 664q0 26 18 44t44 18t44 -18t18 -44t-18 -44t-44 -18t-44 18t-18 44zM315 429q-35 0 -66.5 -19.5t-73.5 -66.5v-343h-90v488l90 20v-98q76 100 167 100q54 0 95 -29t60 -82q43 58 85 84.5t95 26.5q75 0 122 -52t47 -143v-315h-91v306q0 58 -28 90.5t-77 32.5
q-35 0 -67 -19.5t-74 -67.5q1 -8 1 -27v-315h-90v306q0 58 -28 90.5t-77 32.5z" />
    <glyph glyph-name="uni1E42" unicode="&#x1e42;" horiz-adv-x="1029" 
d="M505 -11l-314 614v-603h-91v700h143l270 -538l269 538h146v-700h-94v608l-314 -619h-15zM451 -148q0 26 18 44t44 18t44 -18t18 -44t-18 -44t-44 -18t-44 18t-18 44z" />
    <glyph glyph-name="uni1E43" unicode="&#x1e43;" horiz-adv-x="921" 
d="M315 429q-35 0 -66.5 -19.5t-73.5 -66.5v-343h-90v488l90 20v-98q76 100 167 100q54 0 95 -29t60 -82q43 58 85 84.5t95 26.5q75 0 122 -52t47 -143v-315h-91v306q0 58 -28 90.5t-77 32.5q-35 0 -67 -19.5t-74 -67.5q1 -8 1 -27v-315h-90v306q0 58 -28 90.5t-77 32.5z
M403 -148q0 26 18 44t44 18t44 -18t18 -44t-18 -44t-44 -18t-44 18t-18 44z" />
    <glyph glyph-name="uni1E44" unicode="&#x1e44;" horiz-adv-x="823" 
d="M474 833q0 -26 -18 -44.5t-45 -18.5t-45 18.5t-18 44.5t18 44.5t45 18.5t45 -18.5t18 -44.5zM689 -5l-497 566v-561h-92v700h89l442 -503v503h91v-705h-33z" />
    <glyph glyph-name="uni1E45" unicode="&#x1e45;" horiz-adv-x="604" 
d="M245 664q0 26 18 44t44 18t44 -18t18 -44t-18 -44t-44 -18t-44 18t-18 44zM328 429q-39 0 -73.5 -20t-79.5 -70v-339h-90v488l90 20v-102q42 54 84 79t94 25q78 0 127 -52t49 -143v-315h-90v306q0 58 -29.5 90.5t-81.5 32.5z" />
    <glyph glyph-name="uni1E46" unicode="&#x1e46;" horiz-adv-x="823" 
d="M689 -5l-497 566v-561h-92v700h89l442 -503v503h91v-705h-33zM359 -144q0 26 18 44t44 18t44 -18t18 -44t-18 -44t-44 -18t-44 18t-18 44z" />
    <glyph glyph-name="uni1E47" unicode="&#x1e47;" horiz-adv-x="604" 
d="M328 429q-39 0 -73.5 -20t-79.5 -70v-339h-90v488l90 20v-102q42 54 84 79t94 25q78 0 127 -52t49 -143v-315h-90v306q0 58 -29.5 90.5t-81.5 32.5zM245 -142q0 26 18 44t44 18t44 -18t18 -44t-18 -44t-44 -18t-44 18t-18 44z" />
    <glyph glyph-name="uni1E48" unicode="&#x1e48;" horiz-adv-x="823" 
d="M689 -5l-497 566v-561h-92v700h89l442 -503v503h91v-705h-33zM253 -111h336v-68h-336v68z" />
    <glyph glyph-name="uni1E49" unicode="&#x1e49;" horiz-adv-x="604" 
d="M328 429q-39 0 -73.5 -20t-79.5 -70v-339h-90v488l90 20v-102q42 54 84 79t94 25q78 0 127 -52t49 -143v-315h-90v306q0 58 -29.5 90.5t-81.5 32.5zM139 -111h336v-68h-336v68z" />
    <glyph glyph-name="uni1E4A" unicode="&#x1e4a;" horiz-adv-x="823" 
d="M689 -5l-497 566v-561h-92v700h89l442 -503v503h91v-705h-33zM548 -255l-126 96l-126 -96h-44v2l128 167h82l128 -167v-2h-42z" />
    <glyph glyph-name="uni1E4B" unicode="&#x1e4b;" horiz-adv-x="604" 
d="M328 429q-39 0 -73.5 -20t-79.5 -70v-339h-90v488l90 20v-102q42 54 84 79t94 25q78 0 127 -52t49 -143v-315h-90v306q0 58 -29.5 90.5t-81.5 32.5zM434 -255l-126 96l-126 -96h-44v2l128 167h82l128 -167v-2h-42z" />
    <glyph glyph-name="uni1E58" unicode="&#x1e58;" horiz-adv-x="635" 
d="M368 833q0 -26 -18 -44.5t-45 -18.5t-45 18.5t-18 44.5t18 44.5t45 18.5t45 -18.5t18 -44.5zM195 614v-249h101q63 0 104 35.5t41 92.5q0 55 -39.5 88t-100.5 33h-106zM519 0l-246 280h-76v-280h-97v700h204q103 0 169 -54.5t66 -152.5q0 -72 -44.5 -124.5t-118.5 -72.5
l264 -296h-121z" />
    <glyph glyph-name="uni1E59" unicode="&#x1e59;" horiz-adv-x="415" 
d="M169 664q0 26 18 44t44 18t44 -18t18 -44t-18 -44t-44 -18t-44 18t-18 44zM175 0h-90v488l90 20v-127q56 70 92.5 98.5t81.5 28.5q15 0 32 -4l7 -95q-13 3 -27 3q-47 0 -90.5 -23t-95.5 -69v-320z" />
    <glyph glyph-name="uni1E5A" unicode="&#x1e5a;" horiz-adv-x="635" 
d="M195 614v-249h101q63 0 104 35.5t41 92.5q0 55 -39.5 88t-100.5 33h-106zM519 0l-246 280h-76v-280h-97v700h204q103 0 169 -54.5t66 -152.5q0 -72 -44.5 -124.5t-118.5 -72.5l264 -296h-121zM286 -148q0 26 18 44t44 18t44 -18t18 -44t-18 -44t-44 -18t-44 18t-18 44z
" />
    <glyph glyph-name="uni1E5B" unicode="&#x1e5b;" horiz-adv-x="415" 
d="M175 0h-90v488l90 20v-127q56 70 92.5 98.5t81.5 28.5q15 0 32 -4l7 -95q-13 3 -27 3q-47 0 -90.5 -23t-95.5 -69v-320zM68 -148q0 26 18 44t44 18t44 -18t18 -44t-18 -44t-44 -18t-44 18t-18 44z" />
    <glyph glyph-name="uni1E5C" unicode="&#x1e5c;" horiz-adv-x="635" 
d="M127 864h356v-68h-356v68zM195 614v-249h101q63 0 104 35.5t41 92.5q0 55 -39.5 88t-100.5 33h-106zM519 0l-246 280h-76v-280h-97v700h204q103 0 169 -54.5t66 -152.5q0 -72 -44.5 -124.5t-118.5 -72.5l264 -296h-121zM286 -148q0 26 18 44t44 18t44 -18t18 -44t-18 -44
t-44 -18t-44 18t-18 44z" />
    <glyph glyph-name="uni1E5D" unicode="&#x1e5d;" horiz-adv-x="415" 
d="M93 696h276v-68h-276v68zM175 0h-90v488l90 20v-127q56 70 92.5 98.5t81.5 28.5q15 0 32 -4l7 -95q-13 3 -27 3q-47 0 -90.5 -23t-95.5 -69v-320zM68 -148q0 26 18 44t44 18t44 -18t18 -44t-18 -44t-44 -18t-44 18t-18 44z" />
    <glyph glyph-name="uni1E5E" unicode="&#x1e5e;" horiz-adv-x="635" 
d="M195 614v-249h101q63 0 104 35.5t41 92.5q0 55 -39.5 88t-100.5 33h-106zM519 0l-246 280h-76v-280h-97v700h204q103 0 169 -54.5t66 -152.5q0 -72 -44.5 -124.5t-118.5 -72.5l264 -296h-121zM180 -111h336v-68h-336v68z" />
    <glyph glyph-name="uni1E5F" unicode="&#x1e5f;" horiz-adv-x="415" 
d="M175 0h-90v488l90 20v-127q56 70 92.5 98.5t81.5 28.5q15 0 32 -4l7 -95q-13 3 -27 3q-47 0 -90.5 -23t-95.5 -69v-320zM-8 -111h276v-68h-276v68z" />
    <glyph glyph-name="uni1E62" unicode="&#x1e62;" horiz-adv-x="554" 
d="M68 522q0 86 59 138t154 52q100 0 184 -53v-108h-2q-96 71 -186 71q-53 0 -84.5 -24.5t-31.5 -66.5q0 -41 31 -68.5t120 -67.5q94 -42 138 -89.5t44 -118.5q0 -89 -63.5 -144t-163.5 -55q-113 0 -205 69l-23 130l2 1q52 -49 113.5 -79.5t117.5 -30.5q57 0 92.5 27
t35.5 74q0 42 -33.5 70.5t-117.5 66.5q-92 41 -136.5 86t-44.5 120zM202 -153q0 26 18 44t44 18t44 -18t18 -44t-18 -44t-44 -18t-44 18t-18 44z" />
    <glyph glyph-name="uni1E63" unicode="&#x1e63;" horiz-adv-x="504" 
d="M457 138q0 -66 -57 -107.5t-144 -41.5q-104 0 -196 61l-19 108l3 2q111 -90 222 -90q45 0 74.5 17.5t29.5 45.5q0 31 -27.5 47.5t-108.5 35.5q-87 21 -130 53t-43 93q0 65 54 107t141 42q86 0 164 -46v-94l-3 -2q-94 61 -171 61q-45 0 -71.5 -16t-26.5 -42
q0 -29 28 -45.5t105 -34.5q91 -21 133.5 -54.5t42.5 -99.5zM183 -150q0 26 18 44t44 18t44 -18t18 -44t-18 -44t-44 -18t-44 18t-18 44z" />
    <glyph glyph-name="uni1E6C" unicode="&#x1e6c;" horiz-adv-x="715" 
d="M680 613h-275v-613h-96v613h-274v87h645v-87zM295 -148q0 26 18 44t44 18t44 -18t18 -44t-18 -44t-44 -18t-44 18t-18 44z" />
    <glyph glyph-name="uni1E6D" unicode="&#x1e6d;" horiz-adv-x="447" 
d="M386 24q-47 -35 -114 -35q-68 0 -110.5 42.5t-42.5 124.5v267h-85v77h85v112l89 33v-145h196v-77h-196v-263q0 -90 83 -90q56 0 112 51l3 -2zM193 -148q0 26 18 44t44 18t44 -18t18 -44t-18 -44t-44 -18t-44 18t-18 44z" />
    <glyph glyph-name="uni1E6E" unicode="&#x1e6e;" horiz-adv-x="715" 
d="M680 613h-275v-613h-96v613h-274v87h645v-87zM189 -111h336v-68h-336v68z" />
    <glyph glyph-name="uni1E6F" unicode="&#x1e6f;" horiz-adv-x="447" 
d="M386 24q-47 -35 -114 -35q-68 0 -110.5 42.5t-42.5 124.5v267h-85v77h85v112l89 33v-145h196v-77h-196v-263q0 -90 83 -90q56 0 112 51l3 -2zM117 -111h276v-68h-276v68z" />
    <glyph glyph-name="uni1E70" unicode="&#x1e70;" horiz-adv-x="715" 
d="M680 613h-275v-613h-96v613h-274v87h645v-87zM484 -255l-126 96l-126 -96h-44v2l128 167h82l128 -167v-2h-42z" />
    <glyph glyph-name="uni1E71" unicode="&#x1e71;" horiz-adv-x="447" 
d="M386 24q-47 -35 -114 -35q-68 0 -110.5 42.5t-42.5 124.5v267h-85v77h85v112l89 33v-145h196v-77h-196v-263q0 -90 83 -90q56 0 112 51l3 -2zM382 -255l-126 96l-126 -96h-44v2l128 167h82l128 -167v-2h-42z" />
    <glyph glyph-name="uni1E7E" unicode="&#x1e7e;" horiz-adv-x="771" 
d="M370 -16l-339 716h108l246 -542l253 542h104l-350 -716h-22zM320 -157q0 26 18 44t44 18t44 -18t18 -44t-18 -44t-44 -18t-44 18t-18 44z" />
    <glyph glyph-name="uni1E7F" unicode="&#x1e7f;" horiz-adv-x="569" 
d="M267 -14l-246 514h99l160 -353l172 353h98l-264 -514h-19zM216 -148q0 26 18 44t44 18t44 -18t18 -44t-18 -44t-44 -18t-44 18t-18 44z" />
    <glyph glyph-name="Wgrave" unicode="&#x1e80;" horiz-adv-x="1176" 
d="M619 772h-49l-166 139v2h133zM278 -4l-241 704h105l188 -578l252 586h17l244 -586l196 578h102l-252 -704h-94l-208 509l-216 -509h-93z" />
    <glyph glyph-name="wgrave" unicode="&#x1e81;" horiz-adv-x="879" 
d="M465 603h-43l-163 167v2h122zM208 -7l-182 507h97l129 -387l182 393h17l169 -393l142 387h92l-196 -507h-75l-145 332l-154 -332h-76z" />
    <glyph glyph-name="Wacute" unicode="&#x1e82;" horiz-adv-x="1176" 
d="M563 772l82 141h133v-2l-166 -139h-49zM278 -4l-241 704h105l188 -578l252 586h17l244 -586l196 578h102l-252 -704h-94l-208 509l-216 -509h-93z" />
    <glyph glyph-name="wacute" unicode="&#x1e83;" horiz-adv-x="879" 
d="M419 603l84 169h122v-2l-163 -167h-43zM208 -7l-182 507h97l129 -387l182 393h17l169 -393l142 387h92l-196 -507h-75l-145 332l-154 -332h-76z" />
    <glyph glyph-name="Wdieresis" unicode="&#x1e84;" horiz-adv-x="1176" 
d="M758 833q0 -26 -18 -44.5t-45 -18.5q-26 0 -44.5 18.5t-18.5 44.5t18.5 44.5t44.5 18.5q27 0 45 -18.5t18 -44.5zM550 833q0 -26 -18.5 -44.5t-44.5 -18.5q-27 0 -45 18.5t-18 44.5t18 44.5t45 18.5q26 0 44.5 -18.5t18.5 -44.5zM278 -4l-241 704h105l188 -578l252 586
h17l244 -586l196 578h102l-252 -704h-94l-208 509l-216 -509h-93z" />
    <glyph glyph-name="wdieresis" unicode="&#x1e85;" horiz-adv-x="879" 
d="M483 664q0 26 18 44t44 18t44 -18t18 -44t-18 -44t-44 -18t-44 18t-18 44zM277 664q0 26 18 44t44 18t44 -18t18 -44t-18 -44t-44 -18t-44 18t-18 44zM208 -7l-182 507h97l129 -387l182 393h17l169 -393l142 387h92l-196 -507h-75l-145 332l-154 -332h-76z" />
    <glyph glyph-name="uni1E8C" unicode="&#x1e8c;" horiz-adv-x="739" 
d="M537 833q0 -26 -18 -44.5t-45 -18.5q-26 0 -44.5 18.5t-18.5 44.5t18.5 44.5t44.5 18.5q27 0 45 -18.5t18 -44.5zM329 833q0 -26 -18.5 -44.5t-44.5 -18.5q-27 0 -45 18.5t-18 44.5t18 44.5t45 18.5q26 0 44.5 -18.5t18.5 -44.5zM590 0l-223 289l-220 -289h-112l276 355
l-268 345h114l214 -277l214 277h111l-269 -345l277 -355h-114z" />
    <glyph glyph-name="uni1E8D" unicode="&#x1e8d;" horiz-adv-x="558" 
d="M320 664q0 26 18 44t44 18t44 -18t18 -44t-18 -44t-44 -18t-44 18t-18 44zM114 664q0 26 18 44t44 18t44 -18t18 -44t-18 -44t-44 -18t-44 18t-18 44zM423 0l-145 194l-147 -194h-103l199 256l-188 244h107l134 -179l135 179h103l-187 -242l198 -258h-106z" />
    <glyph glyph-name="uni1E8E" unicode="&#x1e8e;" horiz-adv-x="668" 
d="M397 833q0 -26 -18 -44.5t-45 -18.5t-45 18.5t-18 44.5t18 44.5t45 18.5t45 -18.5t18 -44.5zM382 0h-96v313l-273 387h115l208 -302l208 302h111l-273 -387v-313z" />
    <glyph glyph-name="uni1E8F" unicode="&#x1e8f;" horiz-adv-x="548" 
d="M212 664q0 26 18 44t44 18t44 -18t18 -44t-18 -44t-44 -18t-44 18t-18 44zM122 -194q-45 0 -85 19l-18 91l3 2q43 -27 85 -27q69 0 106 86l22 51l-212 472h100l158 -369l148 369h98l-231 -554q-59 -140 -174 -140z" />
    <glyph glyph-name="uni1E90" unicode="&#x1e90;" horiz-adv-x="698" 
d="M470 772l-118 75l-118 -75h-53v1l126 140h88l126 -140v-1h-51zM613 0h-567l-7 14l448 599h-416v87h574l7 -14l-449 -599h457z" />
    <glyph glyph-name="uni1E91" unicode="&#x1e91;" horiz-adv-x="535" 
d="M400 603l-126 96l-126 -96h-44v2l128 167h82l128 -167v-2h-42zM470 0h-438l-5 15l314 407h-279v78h428l4 -14l-314 -408h318z" />
    <glyph glyph-name="uni1E92" unicode="&#x1e92;" horiz-adv-x="698" 
d="M613 0h-567l-7 14l448 599h-416v87h574l7 -14l-449 -599h457zM288 -148q0 26 18 44t44 18t44 -18t18 -44t-18 -44t-44 -18t-44 18t-18 44z" />
    <glyph glyph-name="uni1E93" unicode="&#x1e93;" horiz-adv-x="535" 
d="M470 0h-438l-5 15l314 407h-279v78h428l4 -14l-314 -408h318zM201 -148q0 26 18 44t44 18t44 -18t18 -44t-18 -44t-44 -18t-44 18t-18 44z" />
    <glyph glyph-name="uni1E94" unicode="&#x1e94;" horiz-adv-x="698" 
d="M613 0h-567l-7 14l448 599h-416v87h574l7 -14l-449 -599h457zM182 -111h336v-68h-336v68z" />
    <glyph glyph-name="uni1E95" unicode="&#x1e95;" horiz-adv-x="535" 
d="M470 0h-438l-5 15l314 407h-279v78h428l4 -14l-314 -408h318zM95 -111h336v-68h-336v68z" />
    <glyph glyph-name="uni1E96" unicode="&#x1e96;" horiz-adv-x="604" 
d="M328 429q-39 0 -73.5 -20t-79.5 -70v-339h-90v726l90 33v-353q42 54 84 79t94 25q78 0 127 -52t49 -143v-315h-90v306q0 58 -29.5 90.5t-81.5 32.5zM139 -111h336v-68h-336v68z" />
    <glyph glyph-name="uni1E9E" unicode="&#x1e9e;" horiz-adv-x="703" 
d="M448 -12q-67 0 -136 28l-21 110l2 1q83 -49 154 -49q50 0 81.5 28.5t31.5 70.5q0 52 -48.5 83.5t-189.5 74.5l-4 15l178 239q-58 35 -134 35q-83 0 -128.5 -51.5t-45.5 -142.5v-430h-97v428q0 132 72 209t204 77q75 0 141 -28t108 -69v-14l-164 -220q108 -36 155.5 -80.5
t47.5 -126.5q0 -81 -58 -134.5t-149 -53.5z" />
    <glyph glyph-name="uni1EA0" unicode="&#x1ea0;" horiz-adv-x="789" 
d="M539 265l-143 329l-148 -329h291zM654 0l-78 180h-366l-81 -180h-100l326 704h89l314 -704h-104zM332 -148q0 26 18 44t44 18t44 -18t18 -44t-18 -44t-44 -18t-44 18t-18 44z" />
    <glyph glyph-name="uni1EA1" unicode="&#x1ea1;" horiz-adv-x="567" 
d="M402 -8v89q-109 -89 -202 -89q-65 0 -106.5 36t-41.5 98q0 35 14.5 63t50.5 53t108 39.5t177 15.5v2q0 127 -115 127q-84 0 -178 -72l-3 1l20 101q80 53 175 53q91 0 141 -52t50 -153v-292zM218 69q69 0 184 70v100q-81 -5 -136 -16.5t-80 -28t-34 -31.5t-9 -33
q0 -28 20 -44.5t55 -16.5zM225 -148q0 26 18 44t44 18t44 -18t18 -44t-18 -44t-44 -18t-44 18t-18 44z" />
    <glyph glyph-name="uni1EA2" unicode="&#x1ea2;" horiz-adv-x="789" 
d="M404 767l-51 14v2q61 37 78 52t17 28q0 26 -45 26q-52 0 -114 -37h-2v61q59 34 121 34q52 0 81.5 -18.5t29.5 -51.5q0 -30 -24.5 -53t-90.5 -57zM539 265l-143 329l-148 -329h291zM654 0l-78 180h-366l-81 -180h-100l326 704h89l314 -704h-104z" />
    <glyph glyph-name="uni1EA3" unicode="&#x1ea3;" horiz-adv-x="567" 
d="M302 596l-51 15v2q60 50 77.5 69.5t17.5 37.5q0 33 -43 33q-51 0 -114 -50h-2v73q55 44 124 44q48 0 77 -23t29 -63q0 -37 -28.5 -67.5t-86.5 -70.5zM402 -8v89q-109 -89 -202 -89q-65 0 -106.5 36t-41.5 98q0 35 14.5 63t50.5 53t108 39.5t177 15.5v2q0 127 -115 127
q-84 0 -178 -72l-3 1l20 101q80 53 175 53q91 0 141 -52t50 -153v-292zM218 69q69 0 184 70v100q-81 -5 -136 -16.5t-80 -28t-34 -31.5t-9 -33q0 -28 20 -44.5t55 -16.5z" />
    <glyph glyph-name="uni1EA4" unicode="&#x1ea4;" horiz-adv-x="789" 
d="M512 881l70 109h124v-2l-146 -107h-48zM516 772l-118 75l-118 -75h-53v1l126 138h88l126 -138v-1h-51zM539 265l-143 329l-148 -329h291zM654 0l-78 180h-366l-81 -180h-100l326 704h89l314 -704h-104z" />
    <glyph glyph-name="uni1EA5" unicode="&#x1ea5;" horiz-adv-x="567" 
d="M422 732l64 128h101v-1l-125 -127h-40zM423 603l-127 74l-127 -74h-44v2l129 139h82l129 -139v-2h-42zM402 -8v89q-109 -89 -202 -89q-65 0 -106.5 36t-41.5 98q0 35 14.5 63t50.5 53t108 39.5t177 15.5v2q0 127 -115 127q-84 0 -178 -72l-3 1l20 101q80 53 175 53
q91 0 141 -52t50 -153v-292zM218 69q69 0 184 70v100q-81 -5 -136 -16.5t-80 -28t-34 -31.5t-9 -33q0 -28 20 -44.5t55 -16.5z" />
    <glyph glyph-name="uni1EA6" unicode="&#x1ea6;" horiz-adv-x="789" 
d="M660 881h-49l-146 107v2h125zM516 772l-118 75l-118 -75h-53v1l126 138h88l126 -138v-1h-51zM539 265l-143 329l-148 -329h291zM654 0l-78 180h-366l-81 -180h-100l326 704h89l314 -704h-104z" />
    <glyph glyph-name="uni1EA7" unicode="&#x1ea7;" horiz-adv-x="567" 
d="M524 732h-41l-124 127v1h100zM423 603l-127 74l-127 -74h-44v2l129 139h82l129 -139v-2h-42zM402 -8v89q-109 -89 -202 -89q-65 0 -106.5 36t-41.5 98q0 35 14.5 63t50.5 53t108 39.5t177 15.5v2q0 127 -115 127q-84 0 -178 -72l-3 1l20 101q80 53 175 53q91 0 141 -52
t50 -153v-292zM218 69q69 0 184 70v100q-81 -5 -136 -16.5t-80 -28t-34 -31.5t-9 -33q0 -28 20 -44.5t55 -16.5z" />
    <glyph glyph-name="uni1EA8" unicode="&#x1ea8;" horiz-adv-x="789" 
d="M574 882l-46 11v2q50 30 64 42.5t14 22.5q0 18 -30 18q-45 0 -99 -30h-1v51q49 27 107 27q40 0 63.5 -14.5t23.5 -41.5q0 -23 -20.5 -41t-75.5 -47zM516 772l-118 75l-118 -75h-53v1l126 138h88l126 -138v-1h-51zM539 265l-143 329l-148 -329h291zM654 0l-78 180h-366
l-81 -180h-100l326 704h89l314 -704h-104z" />
    <glyph glyph-name="uni1EA9" unicode="&#x1ea9;" horiz-adv-x="567" 
d="M484 720l-46 13v2q53 36 67.5 50t14.5 27q0 26 -35 26q-46 0 -104 -38h-1v58q50 34 111 34q43 0 68.5 -18t25.5 -49q0 -28 -24 -50t-77 -55zM423 603l-127 74l-127 -74h-44v2l129 139h82l129 -139v-2h-42zM402 -8v89q-109 -89 -202 -89q-65 0 -106.5 36t-41.5 98
q0 35 14.5 63t50.5 53t108 39.5t177 15.5v2q0 127 -115 127q-84 0 -178 -72l-3 1l20 101q80 53 175 53q91 0 141 -52t50 -153v-292zM218 69q69 0 184 70v100q-81 -5 -136 -16.5t-80 -28t-34 -31.5t-9 -33q0 -28 20 -44.5t55 -16.5z" />
    <glyph glyph-name="uni1EAA" unicode="&#x1eaa;" horiz-adv-x="789" 
d="M470 990q14 0 25.5 9.5t42.5 46.5l38 -25q-39 -57 -61.5 -77t-49.5 -20q-22 0 -74.5 27t-66.5 27t-25.5 -9.5t-42.5 -47.5l-38 26q39 57 61.5 76.5t49.5 19.5q22 0 74.5 -26.5t66.5 -26.5zM516 772l-118 58l-118 -58h-53v1l121 114h98l121 -114v-1h-51zM539 265l-143 329
l-148 -329h291zM654 0l-78 180h-366l-81 -180h-100l326 704h89l314 -704h-104z" />
    <glyph glyph-name="uni1EAB" unicode="&#x1eab;" horiz-adv-x="567" 
d="M360 841q12 0 23 8.5t38 41.5l36 -24q-36 -56 -55 -75t-45 -19q-21 0 -68 23t-59 23t-23 -8.5t-38 -41.5l-36 24q36 55 55 74t45 19q21 0 68 -22.5t59 -22.5zM423 603l-127 65l-127 -65h-44v2l125 123h90l125 -123v-2h-42zM402 -8v89q-109 -89 -202 -89q-65 0 -106.5 36
t-41.5 98q0 35 14.5 63t50.5 53t108 39.5t177 15.5v2q0 127 -115 127q-84 0 -178 -72l-3 1l20 101q80 53 175 53q91 0 141 -52t50 -153v-292zM218 69q69 0 184 70v100q-81 -5 -136 -16.5t-80 -28t-34 -31.5t-9 -33q0 -28 20 -44.5t55 -16.5z" />
    <glyph glyph-name="uni1EAC" unicode="&#x1eac;" horiz-adv-x="789" 
d="M516 772l-118 75l-118 -75h-53v1l126 140h88l126 -140v-1h-51zM539 265l-143 329l-148 -329h291zM654 0l-78 180h-366l-81 -180h-100l326 704h89l314 -704h-104zM332 -148q0 26 18 44t44 18t44 -18t18 -44t-18 -44t-44 -18t-44 18t-18 44z" />
    <glyph glyph-name="uni1EAD" unicode="&#x1ead;" horiz-adv-x="567" 
d="M422 603l-126 96l-126 -96h-44v2l128 167h82l128 -167v-2h-42zM402 -8v89q-109 -89 -202 -89q-65 0 -106.5 36t-41.5 98q0 35 14.5 63t50.5 53t108 39.5t177 15.5v2q0 127 -115 127q-84 0 -178 -72l-3 1l20 101q80 53 175 53q91 0 141 -52t50 -153v-292zM218 69
q69 0 184 70v100q-81 -5 -136 -16.5t-80 -28t-34 -31.5t-9 -33q0 -28 20 -44.5t55 -16.5zM225 -148q0 26 18 44t44 18t44 -18t18 -44t-18 -44t-44 -18t-44 18t-18 44z" />
    <glyph glyph-name="uni1EAE" unicode="&#x1eae;" horiz-adv-x="789" 
d="M362 909l64 118h118v-1l-142 -117h-40zM397 772q-112 0 -180 109l31 28q76 -63 149 -63t149 63l31 -28q-68 -109 -180 -109zM539 265l-143 329l-148 -329h291zM654 0l-78 180h-366l-81 -180h-100l326 704h89l314 -704h-104z" />
    <glyph glyph-name="uni1EAF" unicode="&#x1eaf;" horiz-adv-x="567" 
d="M265 750l65 128h118v-1l-143 -127h-40zM294 597q-104 0 -170 108l32 29q68 -67 137 -67q71 0 139 70l33 -27q-63 -113 -171 -113zM402 -8v89q-109 -89 -202 -89q-65 0 -106.5 36t-41.5 98q0 35 14.5 63t50.5 53t108 39.5t177 15.5v2q0 127 -115 127q-84 0 -178 -72l-3 1
l20 101q80 53 175 53q91 0 141 -52t50 -153v-292zM218 69q69 0 184 70v100q-81 -5 -136 -16.5t-80 -28t-34 -31.5t-9 -33q0 -28 20 -44.5t55 -16.5z" />
    <glyph glyph-name="uni1EB0" unicode="&#x1eb0;" horiz-adv-x="789" 
d="M432 909h-40l-142 117v1h118zM397 772q-112 0 -180 109l31 28q76 -63 149 -63t149 63l31 -28q-68 -109 -180 -109zM539 265l-143 329l-148 -329h291zM654 0l-78 180h-366l-81 -180h-100l326 704h89l314 -704h-104z" />
    <glyph glyph-name="uni1EB1" unicode="&#x1eb1;" horiz-adv-x="567" 
d="M325 750h-40l-143 127v1h118zM294 597q-104 0 -170 108l32 29q68 -67 137 -67q71 0 139 70l33 -27q-63 -113 -171 -113zM402 -8v89q-109 -89 -202 -89q-65 0 -106.5 36t-41.5 98q0 35 14.5 63t50.5 53t108 39.5t177 15.5v2q0 127 -115 127q-84 0 -178 -72l-3 1l20 101
q80 53 175 53q91 0 141 -52t50 -153v-292zM218 69q69 0 184 70v100q-81 -5 -136 -16.5t-80 -28t-34 -31.5t-9 -33q0 -28 20 -44.5t55 -16.5z" />
    <glyph glyph-name="uni1EB2" unicode="&#x1eb2;" horiz-adv-x="789" 
d="M403 909l-48 14v1q55 35 70 47.5t15 23.5q0 22 -35 22q-44 0 -105 -34h-1v56q57 31 113 31q43 0 70.5 -17.5t27.5 -45.5q0 -17 -17 -35.5t-34.5 -30t-55.5 -32.5zM397 772q-112 0 -180 109l31 28q76 -63 149 -63t149 63l31 -28q-68 -109 -180 -109zM539 265l-143 329
l-148 -329h291zM654 0l-78 180h-366l-81 -180h-100l326 704h89l314 -704h-104z" />
    <glyph glyph-name="uni1EB3" unicode="&#x1eb3;" horiz-adv-x="567" 
d="M302 744l-46 13v2q54 37 69.5 51.5t15.5 27.5q0 26 -37 26q-46 0 -106 -38h-1v58q49 35 113 35q44 0 70 -18.5t26 -49.5q0 -28 -25 -51t-79 -56zM294 597q-104 0 -170 108l32 29q68 -67 137 -67q71 0 139 70l33 -27q-63 -113 -171 -113zM402 -8v89q-109 -89 -202 -89
q-65 0 -106.5 36t-41.5 98q0 35 14.5 63t50.5 53t108 39.5t177 15.5v2q0 127 -115 127q-84 0 -178 -72l-3 1l20 101q80 53 175 53q91 0 141 -52t50 -153v-292zM218 69q69 0 184 70v100q-81 -5 -136 -16.5t-80 -28t-34 -31.5t-9 -33q0 -28 20 -44.5t55 -16.5z" />
    <glyph glyph-name="uni1EB4" unicode="&#x1eb4;" horiz-adv-x="789" 
d="M478 1005q13 0 24.5 9.5t42.5 47.5l38 -26q-39 -57 -61.5 -76.5t-49.5 -19.5q-22 0 -74.5 26.5t-66.5 26.5q-13 0 -25 -9.5t-40 -44.5l-38 26q38 56 59.5 75t48.5 19q22 0 75 -27t67 -27zM397 772q-112 0 -180 109l31 28q76 -63 149 -63t149 63l31 -28
q-68 -109 -180 -109zM539 265l-143 329l-148 -329h291zM654 0l-78 180h-366l-81 -180h-100l326 704h89l314 -704h-104z" />
    <glyph glyph-name="uni1EB5" unicode="&#x1eb5;" horiz-adv-x="567" 
d="M364 843q13 0 24.5 8t40.5 39l37 -25q-40 -54 -60 -72t-44 -18t-73.5 24.5t-62.5 24.5t-24.5 -8t-40.5 -39l-37 25q40 54 60 72t44 18t73.5 -24.5t62.5 -24.5zM294 597q-104 0 -170 108l32 29q68 -67 137 -67q71 0 139 70l33 -27q-63 -113 -171 -113zM402 -8v89
q-109 -89 -202 -89q-65 0 -106.5 36t-41.5 98q0 35 14.5 63t50.5 53t108 39.5t177 15.5v2q0 127 -115 127q-84 0 -178 -72l-3 1l20 101q80 53 175 53q91 0 141 -52t50 -153v-292zM218 69q69 0 184 70v100q-81 -5 -136 -16.5t-80 -28t-34 -31.5t-9 -33q0 -28 20 -44.5
t55 -16.5z" />
    <glyph glyph-name="uni1EB6" unicode="&#x1eb6;" horiz-adv-x="789" 
d="M397 772q-111 0 -180 120l38 28q36 -38 68.5 -56t73.5 -18t73.5 18t68.5 56l38 -28q-69 -120 -180 -120zM539 265l-143 329l-148 -329h291zM654 0l-78 180h-366l-81 -180h-100l326 704h89l314 -704h-104zM332 -148q0 26 18 44t44 18t44 -18t18 -44t-18 -44t-44 -18
t-44 18t-18 44z" />
    <glyph glyph-name="uni1EB7" unicode="&#x1eb7;" horiz-adv-x="567" 
d="M295 597q-104 0 -171 138l45 25q32 -43 61 -64t65 -21t65 21t61 64l45 -25q-67 -138 -171 -138zM402 -8v89q-109 -89 -202 -89q-65 0 -106.5 36t-41.5 98q0 35 14.5 63t50.5 53t108 39.5t177 15.5v2q0 127 -115 127q-84 0 -178 -72l-3 1l20 101q80 53 175 53
q91 0 141 -52t50 -153v-292zM218 69q69 0 184 70v100q-81 -5 -136 -16.5t-80 -28t-34 -31.5t-9 -33q0 -28 20 -44.5t55 -16.5zM225 -148q0 26 18 44t44 18t44 -18t18 -44t-18 -44t-44 -18t-44 18t-18 44z" />
    <glyph glyph-name="uni1EB8" unicode="&#x1eb8;" horiz-adv-x="584" 
d="M100 0v700h394l29 -87h-326v-214h273v-86h-273v-226h329l-29 -87h-397zM246 -148q0 26 18 44t44 18t44 -18t18 -44t-18 -44t-44 -18t-44 18t-18 44z" />
    <glyph glyph-name="uni1EB9" unicode="&#x1eb9;" horiz-adv-x="559" 
d="M284 435q-62 0 -103 -43.5t-47 -109.5h290q-6 70 -42.5 111.5t-97.5 41.5zM467 33q-80 -44 -165 -44q-120 0 -189.5 71.5t-69.5 189.5q0 107 69 185.5t175 78.5q110 0 169 -75.5t59 -183.5q0 -25 -3 -40h-376q10 -69 57 -106.5t119 -37.5q89 0 184 61l3 -2zM234 -152
q0 26 18 44t44 18t44 -18t18 -44t-18 -44t-44 -18t-44 18t-18 44z" />
    <glyph glyph-name="uni1EBA" unicode="&#x1eba;" horiz-adv-x="584" 
d="M315 767l-51 14v2q61 37 78 52t17 28q0 26 -45 26q-52 0 -114 -37h-2v61q59 34 121 34q52 0 81.5 -18.5t29.5 -51.5q0 -30 -24.5 -53t-90.5 -57zM100 0v700h394l29 -87h-326v-214h273v-86h-273v-226h329l-29 -87h-397z" />
    <glyph glyph-name="uni1EBB" unicode="&#x1ebb;" horiz-adv-x="559" 
d="M296 600l-51 15v2q60 50 77.5 69.5t17.5 37.5q0 33 -43 33q-51 0 -114 -50h-2v73q55 44 124 44q48 0 77 -23t29 -63q0 -37 -28.5 -67.5t-86.5 -70.5zM284 435q-62 0 -103 -43.5t-47 -109.5h290q-6 70 -42.5 111.5t-97.5 41.5zM467 33q-80 -44 -165 -44
q-120 0 -189.5 71.5t-69.5 189.5q0 107 69 185.5t175 78.5q110 0 169 -75.5t59 -183.5q0 -25 -3 -40h-376q10 -69 57 -106.5t119 -37.5q89 0 184 61l3 -2z" />
    <glyph glyph-name="uni1EBC" unicode="&#x1ebc;" horiz-adv-x="584" 
d="M386 843q14 0 26 11t47 54l39 -28q-41 -64 -65 -86.5t-53 -22.5q-24 0 -79.5 31t-70.5 31q-14 0 -26 -11t-47 -54l-39 28q41 64 65 86.5t53 22.5q24 0 79.5 -31t70.5 -31zM100 0v700h394l29 -87h-326v-214h273v-86h-273v-226h329l-29 -87h-397z" />
    <glyph glyph-name="uni1EBD" unicode="&#x1ebd;" horiz-adv-x="559" 
d="M367 684q13 0 24.5 12.5t46.5 62.5l45 -28q-43 -74 -67 -99.5t-55 -25.5q-24 0 -80 36t-70 36q-13 0 -24 -12.5t-47 -62.5l-45 27q43 75 67 100.5t55 25.5q24 0 80 -36t70 -36zM284 435q-62 0 -103 -43.5t-47 -109.5h290q-6 70 -42.5 111.5t-97.5 41.5zM467 33
q-80 -44 -165 -44q-120 0 -189.5 71.5t-69.5 189.5q0 107 69 185.5t175 78.5q110 0 169 -75.5t59 -183.5q0 -25 -3 -40h-376q10 -69 57 -106.5t119 -37.5q89 0 184 61l3 -2z" />
    <glyph glyph-name="uni1EBE" unicode="&#x1ebe;" horiz-adv-x="584" 
d="M423 881l70 109h124v-2l-146 -107h-48zM427 772l-118 75l-118 -75h-53v1l126 138h88l126 -138v-1h-51zM100 0v700h394l29 -87h-326v-214h273v-86h-273v-226h329l-29 -87h-397z" />
    <glyph glyph-name="uni1EBF" unicode="&#x1ebf;" horiz-adv-x="559" 
d="M416 736l64 128h101v-1l-125 -127h-40zM417 607l-127 74l-127 -74h-44v2l129 139h82l129 -139v-2h-42zM284 435q-62 0 -103 -43.5t-47 -109.5h290q-6 70 -42.5 111.5t-97.5 41.5zM467 33q-80 -44 -165 -44q-120 0 -189.5 71.5t-69.5 189.5q0 107 69 185.5t175 78.5
q110 0 169 -75.5t59 -183.5q0 -25 -3 -40h-376q10 -69 57 -106.5t119 -37.5q89 0 184 61l3 -2z" />
    <glyph glyph-name="uni1EC0" unicode="&#x1ec0;" horiz-adv-x="584" 
d="M571 881h-49l-146 107v2h125zM427 772l-118 75l-118 -75h-53v1l126 138h88l126 -138v-1h-51zM100 0v700h394l29 -87h-326v-214h273v-86h-273v-226h329l-29 -87h-397z" />
    <glyph glyph-name="uni1EC1" unicode="&#x1ec1;" horiz-adv-x="559" 
d="M518 736h-41l-124 127v1h100zM417 607l-127 74l-127 -74h-44v2l129 139h82l129 -139v-2h-42zM284 435q-62 0 -103 -43.5t-47 -109.5h290q-6 70 -42.5 111.5t-97.5 41.5zM467 33q-80 -44 -165 -44q-120 0 -189.5 71.5t-69.5 189.5q0 107 69 185.5t175 78.5
q110 0 169 -75.5t59 -183.5q0 -25 -3 -40h-376q10 -69 57 -106.5t119 -37.5q89 0 184 61l3 -2z" />
    <glyph glyph-name="uni1EC2" unicode="&#x1ec2;" horiz-adv-x="584" 
d="M485 882l-46 11v2q50 30 64 42.5t14 22.5q0 18 -30 18q-45 0 -99 -30h-1v51q49 27 107 27q40 0 63.5 -14.5t23.5 -41.5q0 -23 -20.5 -41t-75.5 -47zM427 772l-118 75l-118 -75h-53v1l126 138h88l126 -138v-1h-51zM100 0v700h394l29 -87h-326v-214h273v-86h-273v-226h329
l-29 -87h-397z" />
    <glyph glyph-name="uni1EC3" unicode="&#x1ec3;" horiz-adv-x="559" 
d="M478 724l-46 13v2q53 36 67.5 50t14.5 27q0 26 -35 26q-46 0 -104 -38h-1v58q50 34 111 34q43 0 68.5 -18t25.5 -49q0 -28 -24 -50t-77 -55zM417 607l-127 74l-127 -74h-44v2l129 139h82l129 -139v-2h-42zM284 435q-62 0 -103 -43.5t-47 -109.5h290q-6 70 -42.5 111.5
t-97.5 41.5zM467 33q-80 -44 -165 -44q-120 0 -189.5 71.5t-69.5 189.5q0 107 69 185.5t175 78.5q110 0 169 -75.5t59 -183.5q0 -25 -3 -40h-376q10 -69 57 -106.5t119 -37.5q89 0 184 61l3 -2z" />
    <glyph glyph-name="uni1EC4" unicode="&#x1ec4;" horiz-adv-x="584" 
d="M381 990q14 0 25.5 9.5t42.5 46.5l38 -25q-39 -57 -61.5 -77t-49.5 -20q-22 0 -74.5 27t-66.5 27t-25.5 -9.5t-42.5 -47.5l-38 26q39 57 61.5 76.5t49.5 19.5q22 0 74.5 -26.5t66.5 -26.5zM427 772l-118 58l-118 -58h-53v1l121 114h98l121 -114v-1h-51zM100 0v700h394
l29 -87h-326v-214h273v-86h-273v-226h329l-29 -87h-397z" />
    <glyph glyph-name="uni1EC5" unicode="&#x1ec5;" horiz-adv-x="559" 
d="M354 845q12 0 23 8.5t38 41.5l36 -24q-36 -56 -55 -75t-45 -19q-21 0 -68 23t-59 23t-23 -8.5t-38 -41.5l-36 24q36 55 55 74t45 19q21 0 68 -22.5t59 -22.5zM417 607l-127 65l-127 -65h-44v2l125 123h90l125 -123v-2h-42zM284 435q-62 0 -103 -43.5t-47 -109.5h290
q-6 70 -42.5 111.5t-97.5 41.5zM467 33q-80 -44 -165 -44q-120 0 -189.5 71.5t-69.5 189.5q0 107 69 185.5t175 78.5q110 0 169 -75.5t59 -183.5q0 -25 -3 -40h-376q10 -69 57 -106.5t119 -37.5q89 0 184 61l3 -2z" />
    <glyph glyph-name="uni1EC6" unicode="&#x1ec6;" horiz-adv-x="584" 
d="M427 772l-118 75l-118 -75h-53v1l126 140h88l126 -140v-1h-51zM100 0v700h394l29 -87h-326v-214h273v-86h-273v-226h329l-29 -87h-397zM246 -148q0 26 18 44t44 18t44 -18t18 -44t-18 -44t-44 -18t-44 18t-18 44z" />
    <glyph glyph-name="uni1EC7" unicode="&#x1ec7;" horiz-adv-x="559" 
d="M416 607l-126 96l-126 -96h-44v2l128 167h82l128 -167v-2h-42zM284 435q-62 0 -103 -43.5t-47 -109.5h290q-6 70 -42.5 111.5t-97.5 41.5zM467 33q-80 -44 -165 -44q-120 0 -189.5 71.5t-69.5 189.5q0 107 69 185.5t175 78.5q110 0 169 -75.5t59 -183.5q0 -25 -3 -40
h-376q10 -69 57 -106.5t119 -37.5q89 0 184 61l3 -2zM234 -152q0 26 18 44t44 18t44 -18t18 -44t-18 -44t-44 -18t-44 18t-18 44z" />
    <glyph glyph-name="uni1EC8" unicode="&#x1ec8;" horiz-adv-x="307" 
d="M161 767l-51 14v2q61 37 78 52t17 28q0 26 -45 26q-52 0 -114 -37h-2v61q59 34 121 34q52 0 81.5 -18.5t29.5 -51.5q0 -30 -24.5 -53t-90.5 -57zM105 0v700h97v-700h-97z" />
    <glyph glyph-name="uni1EC9" unicode="&#x1ec9;" horiz-adv-x="270" 
d="M142 596l-51 15v2q60 50 77.5 69.5t17.5 37.5q0 33 -43 33q-51 0 -114 -50h-2v73q55 44 124 44q48 0 77 -23t29 -63q0 -37 -28.5 -67.5t-86.5 -70.5zM90 0v500h90v-500h-90z" />
    <glyph glyph-name="uni1ECA" unicode="&#x1eca;" horiz-adv-x="307" 
d="M105 0v700h97v-700h-97zM92 -148q0 26 18 44t44 18t44 -18t18 -44t-18 -44t-44 -18t-44 18t-18 44z" />
    <glyph glyph-name="uni1ECB" unicode="&#x1ecb;" horiz-adv-x="270" 
d="M197 679q0 -26 -18 -44t-44 -18t-44 18t-18 44t18 44t44 18t44 -18t18 -44zM90 0v500h90v-500h-90zM73 -148q0 26 18 44t44 18t44 -18t18 -44t-18 -44t-44 -18t-44 18t-18 44z" />
    <glyph glyph-name="uni1ECC" unicode="&#x1ecc;" horiz-adv-x="841" 
d="M55 349q0 154 106 259.5t261 105.5q154 0 259 -105.5t105 -257.5q0 -154 -106 -259.5t-260 -105.5q-155 0 -260 105.5t-105 257.5zM154 351q0 -116 77 -195.5t189 -79.5q109 0 188 79t79 194t-79 195t-190 80q-109 0 -186.5 -79t-77.5 -194zM359 -153q0 26 18 44t44 18
t44 -18t18 -44t-18 -44t-44 -18t-44 18t-18 44z" />
    <glyph glyph-name="uni1ECD" unicode="&#x1ecd;" horiz-adv-x="614" 
d="M43 249q0 106 74.5 185.5t190.5 79.5q120 0 191.5 -78t71.5 -184q0 -107 -74 -186.5t-191 -79.5q-119 0 -191 78.5t-72 184.5zM308 433q-76 0 -124 -53.5t-48 -130.5q0 -78 48.5 -130t121.5 -52q76 0 124.5 54t48.5 131t-48.5 129t-122.5 52zM245 -152q0 26 18 44t44 18
t44 -18t18 -44t-18 -44t-44 -18t-44 18t-18 44z" />
    <glyph glyph-name="uni1ECE" unicode="&#x1ece;" horiz-adv-x="841" 
d="M428 772l-51 14v2q61 37 78 52t17 28q0 26 -45 26q-52 0 -114 -37h-2v61q59 34 121 34q52 0 81.5 -18.5t29.5 -51.5q0 -30 -24.5 -53t-90.5 -57zM55 349q0 154 106 259.5t261 105.5q154 0 259 -105.5t105 -257.5q0 -154 -106 -259.5t-260 -105.5q-155 0 -260 105.5
t-105 257.5zM154 351q0 -116 77 -195.5t189 -79.5q109 0 188 79t79 194t-79 195t-190 80q-109 0 -186.5 -79t-77.5 -194z" />
    <glyph glyph-name="uni1ECF" unicode="&#x1ecf;" horiz-adv-x="614" 
d="M314 600l-51 15v2q60 50 77.5 69.5t17.5 37.5q0 33 -43 33q-51 0 -114 -50h-2v73q55 44 124 44q48 0 77 -23t29 -63q0 -37 -28.5 -67.5t-86.5 -70.5zM43 249q0 106 74.5 185.5t190.5 79.5q120 0 191.5 -78t71.5 -184q0 -107 -74 -186.5t-191 -79.5q-119 0 -191 78.5
t-72 184.5zM308 433q-76 0 -124 -53.5t-48 -130.5q0 -78 48.5 -130t121.5 -52q76 0 124.5 54t48.5 131t-48.5 129t-122.5 52z" />
    <glyph glyph-name="uni1ED0" unicode="&#x1ed0;" horiz-adv-x="841" 
d="M536 886l70 109h124v-2l-146 -107h-48zM540 777l-118 75l-118 -75h-53v1l126 138h88l126 -138v-1h-51zM55 349q0 154 106 259.5t261 105.5q154 0 259 -105.5t105 -257.5q0 -154 -106 -259.5t-260 -105.5q-155 0 -260 105.5t-105 257.5zM154 351q0 -116 77 -195.5
t189 -79.5q109 0 188 79t79 194t-79 195t-190 80q-109 0 -186.5 -79t-77.5 -194z" />
    <glyph glyph-name="uni1ED1" unicode="&#x1ed1;" horiz-adv-x="614" 
d="M434 736l64 128h101v-1l-125 -127h-40zM435 607l-127 74l-127 -74h-44v2l129 139h82l129 -139v-2h-42zM43 249q0 106 74.5 185.5t190.5 79.5q120 0 191.5 -78t71.5 -184q0 -107 -74 -186.5t-191 -79.5q-119 0 -191 78.5t-72 184.5zM308 433q-76 0 -124 -53.5t-48 -130.5
q0 -78 48.5 -130t121.5 -52q76 0 124.5 54t48.5 131t-48.5 129t-122.5 52z" />
    <glyph glyph-name="uni1ED2" unicode="&#x1ed2;" horiz-adv-x="841" 
d="M684 886h-49l-146 107v2h125zM540 777l-118 75l-118 -75h-53v1l126 138h88l126 -138v-1h-51zM55 349q0 154 106 259.5t261 105.5q154 0 259 -105.5t105 -257.5q0 -154 -106 -259.5t-260 -105.5q-155 0 -260 105.5t-105 257.5zM154 351q0 -116 77 -195.5t189 -79.5
q109 0 188 79t79 194t-79 195t-190 80q-109 0 -186.5 -79t-77.5 -194z" />
    <glyph glyph-name="uni1ED3" unicode="&#x1ed3;" horiz-adv-x="614" 
d="M536 736h-41l-124 127v1h100zM435 607l-127 74l-127 -74h-44v2l129 139h82l129 -139v-2h-42zM43 249q0 106 74.5 185.5t190.5 79.5q120 0 191.5 -78t71.5 -184q0 -107 -74 -186.5t-191 -79.5q-119 0 -191 78.5t-72 184.5zM308 433q-76 0 -124 -53.5t-48 -130.5
q0 -78 48.5 -130t121.5 -52q76 0 124.5 54t48.5 131t-48.5 129t-122.5 52z" />
    <glyph glyph-name="uni1ED4" unicode="&#x1ed4;" horiz-adv-x="841" 
d="M598 887l-46 11v2q50 30 64 42.5t14 22.5q0 18 -30 18q-45 0 -99 -30h-1v51q49 27 107 27q40 0 63.5 -14.5t23.5 -41.5q0 -23 -20.5 -41t-75.5 -47zM540 777l-118 75l-118 -75h-53v1l126 138h88l126 -138v-1h-51zM55 349q0 154 106 259.5t261 105.5q154 0 259 -105.5
t105 -257.5q0 -154 -106 -259.5t-260 -105.5q-155 0 -260 105.5t-105 257.5zM154 351q0 -116 77 -195.5t189 -79.5q109 0 188 79t79 194t-79 195t-190 80q-109 0 -186.5 -79t-77.5 -194z" />
    <glyph glyph-name="uni1ED5" unicode="&#x1ed5;" horiz-adv-x="614" 
d="M496 724l-46 13v2q53 36 67.5 50t14.5 27q0 26 -35 26q-46 0 -104 -38h-1v58q50 34 111 34q43 0 68.5 -18t25.5 -49q0 -28 -24 -50t-77 -55zM435 607l-127 74l-127 -74h-44v2l129 139h82l129 -139v-2h-42zM43 249q0 106 74.5 185.5t190.5 79.5q120 0 191.5 -78t71.5 -184
q0 -107 -74 -186.5t-191 -79.5q-119 0 -191 78.5t-72 184.5zM308 433q-76 0 -124 -53.5t-48 -130.5q0 -78 48.5 -130t121.5 -52q76 0 124.5 54t48.5 131t-48.5 129t-122.5 52z" />
    <glyph glyph-name="uni1ED6" unicode="&#x1ed6;" horiz-adv-x="841" 
d="M494 995q14 0 25.5 9.5t42.5 46.5l38 -25q-39 -57 -61.5 -77t-49.5 -20q-22 0 -74.5 27t-66.5 27t-25.5 -9.5t-42.5 -47.5l-38 26q39 57 61.5 76.5t49.5 19.5q22 0 74.5 -26.5t66.5 -26.5zM540 777l-118 58l-118 -58h-53v1l121 114h98l121 -114v-1h-51zM55 349
q0 154 106 259.5t261 105.5q154 0 259 -105.5t105 -257.5q0 -154 -106 -259.5t-260 -105.5q-155 0 -260 105.5t-105 257.5zM154 351q0 -116 77 -195.5t189 -79.5q109 0 188 79t79 194t-79 195t-190 80q-109 0 -186.5 -79t-77.5 -194z" />
    <glyph glyph-name="uni1ED7" unicode="&#x1ed7;" horiz-adv-x="614" 
d="M372 845q12 0 23 8.5t38 41.5l36 -24q-36 -56 -55 -75t-45 -19q-21 0 -68 23t-59 23t-23 -8.5t-38 -41.5l-36 24q36 55 55 74t45 19q21 0 68 -22.5t59 -22.5zM435 607l-127 65l-127 -65h-44v2l125 123h90l125 -123v-2h-42zM43 249q0 106 74.5 185.5t190.5 79.5
q120 0 191.5 -78t71.5 -184q0 -107 -74 -186.5t-191 -79.5q-119 0 -191 78.5t-72 184.5zM308 433q-76 0 -124 -53.5t-48 -130.5q0 -78 48.5 -130t121.5 -52q76 0 124.5 54t48.5 131t-48.5 129t-122.5 52z" />
    <glyph glyph-name="uni1ED8" unicode="&#x1ed8;" horiz-adv-x="841" 
d="M540 777l-118 75l-118 -75h-53v1l126 140h88l126 -140v-1h-51zM55 349q0 154 106 259.5t261 105.5q154 0 259 -105.5t105 -257.5q0 -154 -106 -259.5t-260 -105.5q-155 0 -260 105.5t-105 257.5zM154 351q0 -116 77 -195.5t189 -79.5q109 0 188 79t79 194t-79 195
t-190 80q-109 0 -186.5 -79t-77.5 -194zM359 -153q0 26 18 44t44 18t44 -18t18 -44t-18 -44t-44 -18t-44 18t-18 44z" />
    <glyph glyph-name="uni1ED9" unicode="&#x1ed9;" horiz-adv-x="614" 
d="M434 607l-126 96l-126 -96h-44v2l128 167h82l128 -167v-2h-42zM43 249q0 106 74.5 185.5t190.5 79.5q120 0 191.5 -78t71.5 -184q0 -107 -74 -186.5t-191 -79.5q-119 0 -191 78.5t-72 184.5zM308 433q-76 0 -124 -53.5t-48 -130.5q0 -78 48.5 -130t121.5 -52
q76 0 124.5 54t48.5 131t-48.5 129t-122.5 52zM245 -152q0 26 18 44t44 18t44 -18t18 -44t-18 -44t-44 -18t-44 18t-18 44z" />
    <glyph glyph-name="uni1EDA" unicode="&#x1eda;" horiz-adv-x="841" 
d="M393 776l82 141h133v-2l-166 -139h-49zM420 -14q-155 0 -260 104.5t-105 255.5q0 153 106 257.5t266 104.5q28 0 79 -4t78 -4q65 0 93.5 19.5t28.5 66.5q0 27 -8 55h85q8 -21 8 -51q0 -64 -41 -103.5t-121 -46.5q73 -48 115 -124t42 -167q0 -153 -106 -258t-260 -105z
M154 349q0 -115 77 -194t189 -79q109 0 188 78.5t79 193.5q0 114 -78.5 193t-190.5 79q-109 0 -186.5 -78.5t-77.5 -192.5z" />
    <glyph glyph-name="uni1EDB" unicode="&#x1edb;" horiz-adv-x="614" 
d="M284 607l84 169h122v-2l-163 -167h-43zM306 -14q-118 0 -190.5 77.5t-72.5 182.5q0 110 75.5 185.5t197.5 75.5q20 0 54 -1.5t50 -1.5q97 0 97 66q0 21 -8 47h78q9 -27 9 -52q0 -46 -31.5 -76.5t-89.5 -38.5q46 -37 71 -90t25 -110q0 -106 -74 -185t-191 -79zM308 429
q-76 0 -124 -52.5t-48 -128.5q0 -77 48.5 -129t121.5 -52q76 0 124.5 53t48.5 130q0 76 -48.5 127.5t-122.5 51.5z" />
    <glyph glyph-name="uni1EDC" unicode="&#x1edc;" horiz-adv-x="841" 
d="M449 776h-49l-166 139v2h133zM420 -14q-155 0 -260 104.5t-105 255.5q0 153 106 257.5t266 104.5q28 0 79 -4t78 -4q65 0 93.5 19.5t28.5 66.5q0 27 -8 55h85q8 -21 8 -51q0 -64 -41 -103.5t-121 -46.5q73 -48 115 -124t42 -167q0 -153 -106 -258t-260 -105zM154 349
q0 -115 77 -194t189 -79q109 0 188 78.5t79 193.5q0 114 -78.5 193t-190.5 79q-109 0 -186.5 -78.5t-77.5 -192.5z" />
    <glyph glyph-name="uni1EDD" unicode="&#x1edd;" horiz-adv-x="614" 
d="M330 607h-43l-163 167v2h122zM306 -14q-118 0 -190.5 77.5t-72.5 182.5q0 110 75.5 185.5t197.5 75.5q20 0 54 -1.5t50 -1.5q97 0 97 66q0 21 -8 47h78q9 -27 9 -52q0 -46 -31.5 -76.5t-89.5 -38.5q46 -37 71 -90t25 -110q0 -106 -74 -185t-191 -79zM308 429
q-76 0 -124 -52.5t-48 -128.5q0 -77 48.5 -129t121.5 -52q76 0 124.5 53t48.5 130q0 76 -48.5 127.5t-122.5 51.5z" />
    <glyph glyph-name="uni1EDE" unicode="&#x1ede;" horiz-adv-x="841" 
d="M428 771l-51 14v2q61 37 78 52t17 28q0 26 -45 26q-52 0 -114 -37h-2v61q59 34 121 34q52 0 81.5 -18.5t29.5 -51.5q0 -30 -24.5 -53t-90.5 -57zM420 -14q-155 0 -260 104.5t-105 255.5q0 153 106 257.5t266 104.5q28 0 79 -4t78 -4q65 0 93.5 19.5t28.5 66.5q0 27 -8 55
h85q8 -21 8 -51q0 -64 -41 -103.5t-121 -46.5q73 -48 115 -124t42 -167q0 -153 -106 -258t-260 -105zM154 349q0 -115 77 -194t189 -79q109 0 188 78.5t79 193.5q0 114 -78.5 193t-190.5 79q-109 0 -186.5 -78.5t-77.5 -192.5z" />
    <glyph glyph-name="uni1EDF" unicode="&#x1edf;" horiz-adv-x="614" 
d="M314 600l-51 15v2q60 50 77.5 69.5t17.5 37.5q0 33 -43 33q-51 0 -114 -50h-2v73q55 44 124 44q48 0 77 -23t29 -63q0 -37 -28.5 -67.5t-86.5 -70.5zM306 -14q-118 0 -190.5 77.5t-72.5 182.5q0 110 75.5 185.5t197.5 75.5q20 0 54 -1.5t50 -1.5q97 0 97 66q0 21 -8 47
h78q9 -27 9 -52q0 -46 -31.5 -76.5t-89.5 -38.5q46 -37 71 -90t25 -110q0 -106 -74 -185t-191 -79zM308 429q-76 0 -124 -52.5t-48 -128.5q0 -77 48.5 -129t121.5 -52q76 0 124.5 53t48.5 130q0 76 -48.5 127.5t-122.5 51.5z" />
    <glyph glyph-name="uni1EE0" unicode="&#x1ee0;" horiz-adv-x="841" 
d="M499 847q14 0 26 11t47 54l39 -28q-41 -64 -65 -86.5t-53 -22.5q-24 0 -79.5 31t-70.5 31q-14 0 -26 -11t-47 -54l-39 28q41 64 65 86.5t53 22.5q24 0 79.5 -31t70.5 -31zM420 -14q-155 0 -260 104.5t-105 255.5q0 153 106 257.5t266 104.5q28 0 79 -4t78 -4
q65 0 93.5 19.5t28.5 66.5q0 27 -8 55h85q8 -21 8 -51q0 -64 -41 -103.5t-121 -46.5q73 -48 115 -124t42 -167q0 -153 -106 -258t-260 -105zM154 349q0 -115 77 -194t189 -79q109 0 188 78.5t79 193.5q0 114 -78.5 193t-190.5 79q-109 0 -186.5 -78.5t-77.5 -192.5z" />
    <glyph glyph-name="uni1EE1" unicode="&#x1ee1;" horiz-adv-x="614" 
d="M374 684q13 0 25 13.5t46 62.5l46 -28q-45 -75 -68.5 -100.5t-53.5 -25.5q-25 0 -80.5 36t-69.5 36q-13 0 -25.5 -13.5t-45.5 -61.5l-46 28q44 74 68 99.5t54 25.5q25 0 80.5 -36t69.5 -36zM306 -14q-118 0 -190.5 77.5t-72.5 182.5q0 110 75.5 185.5t197.5 75.5
q20 0 54 -1.5t50 -1.5q97 0 97 66q0 21 -8 47h78q9 -27 9 -52q0 -46 -31.5 -76.5t-89.5 -38.5q46 -37 71 -90t25 -110q0 -106 -74 -185t-191 -79zM308 429q-76 0 -124 -52.5t-48 -128.5q0 -77 48.5 -129t121.5 -52q76 0 124.5 53t48.5 130q0 76 -48.5 127.5t-122.5 51.5z
" />
    <glyph glyph-name="uni1EE2" unicode="&#x1ee2;" horiz-adv-x="841" 
d="M420 -14q-155 0 -260 104.5t-105 255.5q0 153 106 257.5t266 104.5q28 0 79 -4t78 -4q65 0 93.5 19.5t28.5 66.5q0 27 -8 55h85q8 -21 8 -51q0 -64 -41 -103.5t-121 -46.5q73 -48 115 -124t42 -167q0 -153 -106 -258t-260 -105zM154 349q0 -115 77 -194t189 -79
q109 0 188 78.5t79 193.5q0 114 -78.5 193t-190.5 79q-109 0 -186.5 -78.5t-77.5 -192.5zM359 -152q0 26 18 44t44 18t44 -18t18 -44t-18 -44t-44 -18t-44 18t-18 44z" />
    <glyph glyph-name="uni1EE3" unicode="&#x1ee3;" horiz-adv-x="614" 
d="M306 -14q-118 0 -190.5 77.5t-72.5 182.5q0 110 75.5 185.5t197.5 75.5q20 0 54 -1.5t50 -1.5q97 0 97 66q0 21 -8 47h78q9 -27 9 -52q0 -46 -31.5 -76.5t-89.5 -38.5q46 -37 71 -90t25 -110q0 -106 -74 -185t-191 -79zM308 429q-76 0 -124 -52.5t-48 -128.5
q0 -77 48.5 -129t121.5 -52q76 0 124.5 53t48.5 130q0 76 -48.5 127.5t-122.5 51.5zM245 -152q0 26 18 44t44 18t44 -18t18 -44t-18 -44t-44 -18t-44 18t-18 44z" />
    <glyph glyph-name="uni1EE4" unicode="&#x1ee4;" horiz-adv-x="789" 
d="M91 306v394h97v-396q0 -109 55.5 -168t152.5 -59q96 0 152 59t56 171v393h93v-394q0 -148 -80 -233t-223 -85q-142 0 -222.5 85t-80.5 233zM333 -153q0 26 18 44t44 18t44 -18t18 -44t-18 -44t-44 -18t-44 18t-18 44z" />
    <glyph glyph-name="uni1EE5" unicode="&#x1ee5;" horiz-adv-x="604" 
d="M429 0v94q-42 -54 -84 -79t-94 -25q-78 0 -127 52t-49 143v315h91v-306q0 -58 29.5 -90.5t81.5 -32.5q38 0 72.5 20t79.5 70v339h91v-500h-91zM236 -148q0 26 18 44t44 18t44 -18t18 -44t-18 -44t-44 -18t-44 18t-18 44z" />
    <glyph glyph-name="uni1EE6" unicode="&#x1ee6;" horiz-adv-x="789" 
d="M402 767l-51 14v2q61 37 78 52t17 28q0 26 -45 26q-52 0 -114 -37h-2v61q59 34 121 34q52 0 81.5 -18.5t29.5 -51.5q0 -30 -24.5 -53t-90.5 -57zM91 306v394h97v-396q0 -109 55.5 -168t152.5 -59q96 0 152 59t56 171v393h93v-394q0 -148 -80 -233t-223 -85
q-142 0 -222.5 85t-80.5 233z" />
    <glyph glyph-name="uni1EE7" unicode="&#x1ee7;" horiz-adv-x="604" 
d="M305 596l-51 15v2q60 50 77.5 69.5t17.5 37.5q0 33 -43 33q-51 0 -114 -50h-2v73q55 44 124 44q48 0 77 -23t29 -63q0 -37 -28.5 -67.5t-86.5 -70.5zM429 0v94q-42 -54 -84 -79t-94 -25q-78 0 -127 52t-49 143v315h91v-306q0 -58 29.5 -90.5t81.5 -32.5q38 0 72.5 20
t79.5 70v339h91v-500h-91z" />
    <glyph glyph-name="uni1EE8" unicode="&#x1ee8;" horiz-adv-x="818" 
d="M367 772l82 141h133v-2l-166 -139h-49zM394 -12q-142 0 -222.5 85t-80.5 233v394h97v-396q0 -109 55.5 -168t152.5 -59q96 0 152 59t56 171v393h30q60 0 88 20t28 66q0 27 -8 55h85q7 -23 7 -51q0 -124 -137 -149v-335q0 -148 -80 -233t-223 -85z" />
    <glyph glyph-name="uni1EE9" unicode="&#x1ee9;" horiz-adv-x="625" 
d="M275 603l84 169h122v-2l-163 -167h-43zM429 0v94q-42 -54 -84 -79t-94 -25q-78 0 -127 52t-49 143v315h91v-306q0 -58 29.5 -90.5t81.5 -32.5q38 0 72.5 20t79.5 70v339h29q53 0 79 14.5t26 48.5q0 22 -8 44h80q7 -19 7 -44q0 -98 -122 -118v-445h-91z" />
    <glyph glyph-name="uni1EEA" unicode="&#x1eea;" horiz-adv-x="818" 
d="M423 772h-49l-166 139v2h133zM394 -12q-142 0 -222.5 85t-80.5 233v394h97v-396q0 -109 55.5 -168t152.5 -59q96 0 152 59t56 171v393h30q60 0 88 20t28 66q0 27 -8 55h85q7 -23 7 -51q0 -124 -137 -149v-335q0 -148 -80 -233t-223 -85z" />
    <glyph glyph-name="uni1EEB" unicode="&#x1eeb;" horiz-adv-x="625" 
d="M321 603h-43l-163 167v2h122zM429 0v94q-42 -54 -84 -79t-94 -25q-78 0 -127 52t-49 143v315h91v-306q0 -58 29.5 -90.5t81.5 -32.5q38 0 72.5 20t79.5 70v339h29q53 0 79 14.5t26 48.5q0 22 -8 44h80q7 -19 7 -44q0 -98 -122 -118v-445h-91z" />
    <glyph glyph-name="uni1EEC" unicode="&#x1eec;" horiz-adv-x="818" 
d="M402 767l-51 14v2q61 37 78 52t17 28q0 26 -45 26q-52 0 -114 -37h-2v61q59 34 121 34q52 0 81.5 -18.5t29.5 -51.5q0 -30 -24.5 -53t-90.5 -57zM394 -12q-142 0 -222.5 85t-80.5 233v394h97v-396q0 -109 55.5 -168t152.5 -59q96 0 152 59t56 171v393h30q60 0 88 20
t28 66q0 27 -8 55h85q7 -23 7 -51q0 -124 -137 -149v-335q0 -148 -80 -233t-223 -85z" />
    <glyph glyph-name="uni1EED" unicode="&#x1eed;" horiz-adv-x="625" 
d="M305 596l-51 15v2q60 50 77.5 69.5t17.5 37.5q0 33 -43 33q-51 0 -114 -50h-2v73q55 44 124 44q48 0 77 -23t29 -63q0 -37 -28.5 -67.5t-86.5 -70.5zM429 0v94q-42 -54 -84 -79t-94 -25q-78 0 -127 52t-49 143v315h91v-306q0 -58 29.5 -90.5t81.5 -32.5q38 0 72.5 20
t79.5 70v339h29q53 0 79 14.5t26 48.5q0 22 -8 44h80q7 -19 7 -44q0 -98 -122 -118v-445h-91z" />
    <glyph glyph-name="uni1EEE" unicode="&#x1eee;" horiz-adv-x="818" 
d="M473 843q14 0 26 11t47 54l39 -28q-41 -64 -65 -86.5t-53 -22.5q-24 0 -79.5 31t-70.5 31q-14 0 -26 -11t-47 -54l-39 28q41 64 65 86.5t53 22.5q24 0 79.5 -31t70.5 -31zM394 -12q-142 0 -222.5 85t-80.5 233v394h97v-396q0 -109 55.5 -168t152.5 -59q96 0 152 59
t56 171v393h30q60 0 88 20t28 66q0 27 -8 55h85q7 -23 7 -51q0 -124 -137 -149v-335q0 -148 -80 -233t-223 -85z" />
    <glyph glyph-name="uni1EEF" unicode="&#x1eef;" horiz-adv-x="625" 
d="M376 680q13 0 24.5 12.5t46.5 62.5l45 -28q-43 -74 -67 -99.5t-55 -25.5q-24 0 -80 36t-70 36q-13 0 -24 -12.5t-47 -62.5l-45 27q43 75 67 100.5t55 25.5q24 0 80 -36t70 -36zM429 0v94q-42 -54 -84 -79t-94 -25q-78 0 -127 52t-49 143v315h91v-306q0 -58 29.5 -90.5
t81.5 -32.5q38 0 72.5 20t79.5 70v339h29q53 0 79 14.5t26 48.5q0 22 -8 44h80q7 -19 7 -44q0 -98 -122 -118v-445h-91z" />
    <glyph glyph-name="uni1EF0" unicode="&#x1ef0;" horiz-adv-x="818" 
d="M394 -12q-142 0 -222.5 85t-80.5 233v394h97v-396q0 -109 55.5 -168t152.5 -59q96 0 152 59t56 171v393h30q60 0 88 20t28 66q0 27 -8 55h85q7 -23 7 -51q0 -124 -137 -149v-335q0 -148 -80 -233t-223 -85zM333 -153q0 26 18 44t44 18t44 -18t18 -44t-18 -44t-44 -18
t-44 18t-18 44z" />
    <glyph glyph-name="uni1EF1" unicode="&#x1ef1;" horiz-adv-x="625" 
d="M429 0v94q-42 -54 -84 -79t-94 -25q-78 0 -127 52t-49 143v315h91v-306q0 -58 29.5 -90.5t81.5 -32.5q38 0 72.5 20t79.5 70v339h29q53 0 79 14.5t26 48.5q0 22 -8 44h80q7 -19 7 -44q0 -98 -122 -118v-445h-91zM236 -148q0 26 18 44t44 18t44 -18t18 -44t-18 -44
t-44 -18t-44 18t-18 44z" />
    <glyph glyph-name="Ygrave" unicode="&#x1ef2;" horiz-adv-x="668" 
d="M362 772h-49l-166 139v2h133zM382 0h-96v313l-273 387h115l208 -302l208 302h111l-273 -387v-313z" />
    <glyph glyph-name="ygrave" unicode="&#x1ef3;" horiz-adv-x="548" 
d="M297 603h-43l-163 167v2h122zM122 -194q-45 0 -85 19l-18 91l3 2q43 -27 85 -27q69 0 106 86l22 51l-212 472h100l158 -369l148 369h98l-231 -554q-59 -140 -174 -140z" />
    <glyph glyph-name="uni1EF4" unicode="&#x1ef4;" horiz-adv-x="668" 
d="M382 0h-96v313l-273 387h115l208 -302l208 302h111l-273 -387v-313zM272 -148q0 26 18 44t44 18t44 -18t18 -44t-18 -44t-44 -18t-44 18t-18 44z" />
    <glyph glyph-name="uni1EF5" unicode="&#x1ef5;" horiz-adv-x="548" 
d="M122 -194q-45 0 -85 19l-18 91l3 2q43 -27 85 -27q69 0 106 86l22 51l-212 472h100l158 -369l148 369h98l-231 -554q-59 -140 -174 -140zM387 -148q0 26 18 44t44 18t44 -18t18 -44t-18 -44t-44 -18t-44 18t-18 44z" />
    <glyph glyph-name="uni1EF6" unicode="&#x1ef6;" horiz-adv-x="668" 
d="M341 767l-51 14v2q61 37 78 52t17 28q0 26 -45 26q-52 0 -114 -37h-2v61q59 34 121 34q52 0 81.5 -18.5t29.5 -51.5q0 -30 -24.5 -53t-90.5 -57zM382 0h-96v313l-273 387h115l208 -302l208 302h111l-273 -387v-313z" />
    <glyph glyph-name="uni1EF7" unicode="&#x1ef7;" horiz-adv-x="548" 
d="M281 596l-51 15v2q60 50 77.5 69.5t17.5 37.5q0 33 -43 33q-51 0 -114 -50h-2v73q55 44 124 44q48 0 77 -23t29 -63q0 -37 -28.5 -67.5t-86.5 -70.5zM122 -194q-45 0 -85 19l-18 91l3 2q43 -27 85 -27q69 0 106 86l22 51l-212 472h100l158 -369l148 369h98l-231 -554
q-59 -140 -174 -140z" />
    <glyph glyph-name="uni1EF8" unicode="&#x1ef8;" horiz-adv-x="668" 
d="M412 843q14 0 26 11t47 54l39 -28q-41 -64 -65 -86.5t-53 -22.5q-24 0 -79.5 31t-70.5 31q-14 0 -26 -11t-47 -54l-39 28q41 64 65 86.5t53 22.5q24 0 79.5 -31t70.5 -31zM382 0h-96v313l-273 387h115l208 -302l208 302h111l-273 -387v-313z" />
    <glyph glyph-name="uni1EF9" unicode="&#x1ef9;" horiz-adv-x="548" 
d="M352 680q13 0 24.5 12.5t46.5 62.5l45 -28q-43 -74 -67 -99.5t-55 -25.5q-24 0 -80 36t-70 36q-13 0 -24 -12.5t-47 -62.5l-45 27q43 75 67 100.5t55 25.5q24 0 80 -36t70 -36zM122 -194q-45 0 -85 19l-18 91l3 2q43 -27 85 -27q69 0 106 86l22 51l-212 472h100l158 -369
l148 369h98l-231 -554q-59 -140 -174 -140z" />
    <glyph glyph-name="uni2002" unicode="&#x2002;" horiz-adv-x="500" 
 />
    <glyph glyph-name="uni2003" unicode="&#x2003;" horiz-adv-x="1000" 
 />
    <glyph glyph-name="uni2004" unicode="&#x2004;" horiz-adv-x="333" 
 />
    <glyph glyph-name="uni2005" unicode="&#x2005;" horiz-adv-x="250" 
 />
    <glyph glyph-name="uni2007" unicode="&#x2007;" horiz-adv-x="600" 
 />
    <glyph glyph-name="uni2009" unicode="&#x2009;" horiz-adv-x="125" 
 />
    <glyph glyph-name="uni200A" unicode="&#x200a;" horiz-adv-x="42" 
 />
    <glyph glyph-name="uni2011" unicode="&#x2011;" horiz-adv-x="389" 
d="M64 317h261v-85h-261v85z" />
    <glyph glyph-name="figuredash" unicode="&#x2012;" horiz-adv-x="600" 
d="M80 393h440v-86h-440v86z" />
    <glyph glyph-name="endash" unicode="&#x2013;" horiz-adv-x="552" 
d="M64 315h424v-82h-424v82z" />
    <glyph glyph-name="emdash" unicode="&#x2014;" horiz-adv-x="932" 
d="M64 315h804v-82h-804v82z" />
    <glyph glyph-name="uni2015" unicode="&#x2015;" horiz-adv-x="932" 
d="M64 315h804v-82h-804v82z" />
    <glyph glyph-name="quoteleft" unicode="&#x2018;" horiz-adv-x="218" 
d="M177 417h-96q-44 62 -44 112q0 10 2 20t4.5 18.5t9 19t10.5 17.5t13.5 18.5t14 17t16.5 18t16 16.5t18 17.5t17 16.5l30 -22q-68 -94 -68 -143q0 -26 11 -50t46 -76z" />
    <glyph glyph-name="quoteright" unicode="&#x2019;" horiz-adv-x="218" 
d="M41 700h95q45 -61 45 -112q0 -11 -2 -21.5t-7 -21.5t-9 -20t-14 -21t-15 -19t-17.5 -20t-17.5 -18.5t-20 -20t-19 -18.5l-30 23q68 94 68 143q0 26 -11 50t-46 76z" />
    <glyph glyph-name="quotesinglbase" unicode="&#x201a;" horiz-adv-x="197" 
d="M22 115h95q45 -61 45 -112q0 -11 -2 -21.5t-7 -21.5t-9 -20t-14 -21t-15 -19t-17.5 -20t-17.5 -18.5t-20 -20t-19 -18.5l-30 23q68 94 68 143q0 26 -11 50t-46 76z" />
    <glyph glyph-name="quotedblleft" unicode="&#x201c;" horiz-adv-x="410" 
d="M370 417h-96q-45 61 -45 112q0 22 7.5 42.5t29.5 47t31.5 36.5t42.5 42l11 11l30 -22q-68 -92 -68 -143q0 -27 11.5 -51t45.5 -75zM177 417h-96q-44 62 -44 112q0 10 2 20t4.5 18.5t9 19t10.5 17.5t13.5 18.5t14 17t16.5 18t16 16.5t18 17.5t17 16.5l30 -22
q-68 -94 -68 -143q0 -26 11 -50t46 -76z" />
    <glyph glyph-name="quotedblright" unicode="&#x201d;" horiz-adv-x="410" 
d="M41 700h95q45 -61 45 -112q0 -11 -2 -21.5t-7 -21.5t-9 -20t-14 -21t-15 -19t-17.5 -20t-17.5 -18.5t-20 -20t-19 -18.5l-30 23q68 94 68 143q0 26 -11 50t-46 76zM233 700h96q44 -60 44 -112q0 -11 -2 -21.5t-7 -21.5t-9 -20t-14 -21t-15 -19t-17.5 -20t-17.5 -18.5
t-20 -20t-19 -18.5l-30 23q68 92 68 143q0 27 -11.5 51t-45.5 75z" />
    <glyph glyph-name="quotedblbase" unicode="&#x201e;" horiz-adv-x="390" 
d="M22 115h95q45 -61 45 -112q0 -11 -2 -21.5t-7 -21.5t-9 -20t-14 -21t-15 -19t-17.5 -20t-17.5 -18.5t-20 -20t-19 -18.5l-30 23q68 94 68 143q0 26 -11 50t-46 76zM214 115h96q44 -60 44 -112q0 -11 -2 -21.5t-7 -21.5t-9 -20t-14 -21t-15 -19t-17.5 -20t-17.5 -18.5
t-20 -20t-19 -18.5l-30 23q68 92 68 143q0 27 -11.5 51t-45.5 75z" />
    <glyph glyph-name="uni201F" unicode="&#x201f;" horiz-adv-x="410" 
d="M370 700q-34 -51 -45.5 -75t-11.5 -51q0 -51 68 -143l-30 -23q-72 71 -92 99q-30 43 -30 81q0 51 45 112h96zM177 700q-35 -52 -46 -76t-11 -50q0 -49 68 -143l-30 -23q-4 4 -19 18.5t-20 20t-17.5 18.5t-17.5 20t-15 19t-14 21t-9 20t-7 21.5t-2 21.5q0 50 44 112h96z
" />
    <glyph glyph-name="dagger" unicode="&#x2020;" horiz-adv-x="532" 
d="M216 704h100l-41 -170h-18zM474 546v-100l-170 41v17zM228 487l-170 -41v100l170 -42v-17zM220 288l37 170h18l37 -170l-36 -298h-20z" />
    <glyph glyph-name="daggerdbl" unicode="&#x2021;" horiz-adv-x="532" 
d="M216 704h100l-41 -170h-18zM474 546v-100l-170 41v17zM228 487l-170 -41v100l170 -42v-17zM220 350l37 108h18l37 -108l-37 -108h-18zM228 195l-170 -41v100l170 -42v-17zM474 254v-100l-170 41v17zM316 -4h-100l41 170h18z" />
    <glyph glyph-name="bullet" unicode="&#x2022;" horiz-adv-x="498" 
d="M105 351q0 59 42 101.5t102 42.5t102 -42.5t42 -101.5t-42 -101.5t-102 -42.5t-102 42.5t-42 101.5z" />
    <glyph glyph-name="ellipsis" unicode="&#x2026;" horiz-adv-x="599" 
d="M436 55q0 27 18.5 46t45.5 19t45.5 -19t18.5 -46q0 -26 -18.5 -45t-45.5 -19t-45.5 19t-18.5 45zM235 55q0 26 19 45.5t45 19.5q27 0 45.5 -19t18.5 -46q0 -26 -18.5 -45t-45.5 -19q-26 0 -45 19t-19 45zM35 55q0 27 18.5 46t45.5 19t45.5 -19t18.5 -46q0 -26 -18.5 -45
t-45.5 -19t-45.5 19t-18.5 45z" />
    <glyph glyph-name="uni202F" unicode="&#x202f;" horiz-adv-x="125" 
 />
    <glyph glyph-name="guilsinglleft" unicode="&#x2039;" horiz-adv-x="382" 
d="M322 489l-167 -238l167 -240l-34 -18l-241 249v16l241 249z" />
    <glyph glyph-name="guilsinglright" unicode="&#x203a;" horiz-adv-x="382" 
d="M60 11l167 238l-167 240l34 18l241 -249v-16l-241 -249z" />
    <glyph glyph-name="fraction" unicode="&#x2044;" horiz-adv-x="102" 
d="M-223 -2l252 366l222 338h74l-252 -366l-222 -338h-74z" />
    <glyph glyph-name="uni20A6" unicode="&#x20a6;" horiz-adv-x="887" 
d="M331 453l-108 174v-174h108zM664 304v94h-202l58 -94h144zM424 304l-59 94h-142v-94h201zM664 72v178h-110zM613 0l-154 247h-236v-247h-86v247h-102v57h102v94h-102v58h102v244h137l152 -244h238v244h86v-244h102v-58h-102v-94h102v-57h-102v-247h-137z" />
    <glyph glyph-name="uni20A9" unicode="&#x20a9;" horiz-adv-x="1142" 
d="M620 452l-49 188l-50 -188h99zM862 305l22 93h-170l25 -93h123zM658 305l-24 93h-127l-24 -93h175zM406 305l24 93h-169l22 -93h123zM804 55l46 196h-97zM341 57l51 194h-97zM274 -4l-65 252h-156v57h142l-24 93h-120v57h105l-63 245h97l58 -245h197l66 251h123l65 -251
h198l58 245h93l-63 -245h106v-57h-121l-24 -93h142v-57h-156l-65 -252h-128l-66 252h-205l-66 -252h-128z" />
    <glyph glyph-name="dong" unicode="&#x20ab;" horiz-adv-x="612" 
d="M281 69q65 0 131 53v219q-57 35 -118 35q-68 0 -112 -42.5t-44 -113.5t41 -111t102 -40zM414 -1v63q-72 -72 -155 -72q-88 0 -149 62t-61 162q0 109 68.5 174t155.5 65q75 0 139 -44v147h-176v57h176v87h87v-87h87v-57h-87v-557h-85zM58 -159v57h451v-57h-451z" />
    <glyph glyph-name="Euro" unicode="&#x20ac;" horiz-adv-x="677" 
d="M606 31q-43 -24 -80 -33.5t-96 -9.5q-114 0 -188 69t-96 191h-114v58h106q-1 14 -1 43q0 16 2 48h-107v57h115q24 118 99.5 188t186.5 70q96 0 182 -47v-99h-2q-53 33 -91.5 47.5t-81.5 14.5q-75 0 -127 -45.5t-72 -128.5h283v-57h-292q-2 -30 -2 -46q0 -17 2 -45h292
v-58h-283q19 -85 70.5 -130.5t123.5 -45.5q51 0 90.5 13t92.5 45h2z" />
    <glyph glyph-name="uni20B1" unicode="&#x20b1;" horiz-adv-x="666" 
d="M221 620v-124h267q-8 57 -51.5 90.5t-113.5 33.5h-102zM323 321q68 0 111.5 32t52.5 91h-266v-123h102zM319 241h-98v-241h-86v441h-101v58h101v201h191q106 0 175 -52t77 -149h76v-58h-77q-13 -94 -83.5 -147t-174.5 -53z" />
    <glyph glyph-name="uni20B9" unicode="&#x20b9;" horiz-adv-x="621" 
d="M539 2v-2h-132l-346 270l4 14h50q100 0 160 35.5t71 102.5h-281v58h282q-10 67 -70 102t-160 35h-57v83h498v-57h-231q103 -53 116 -163h111v-58h-112q-9 -75 -60 -124.5t-133 -70.5z" />
    <glyph glyph-name="uni20BA" unicode="&#x20ba;" horiz-adv-x="610" 
d="M267 -5q-62 0 -132 18v207l-101 -47v79l101 45v103l-101 -47v79l101 45v223h91v-182l222 102v-79l-222 -99v-104l222 102v-79l-222 -99v-181q21 -4 49 -4q188 0 280 200h2l28 -102q-42 -82 -123.5 -131t-194.5 -49z" />
    <glyph glyph-name="uni20BD" unicode="&#x20bd;" horiz-adv-x="605" 
d="M226 618v-263h90q74 0 115.5 35.5t41.5 100.5q0 61 -39 94t-109 33h-99zM506 147h-278v-147h-93v147h-101v57h101v91h-101v57h101v348h194q107 0 172.5 -51t65.5 -147q0 -99 -69.5 -153t-183.5 -54h-86v-91h278v-57z" />
    <glyph glyph-name="uni2117" unicode="&#x2117;" horiz-adv-x="890" 
d="M42 349q0 166 118.5 281.5t285.5 115.5q168 0 285 -115t117 -280q0 -166 -118.5 -281.5t-285.5 -115.5q-168 0 -285 115t-117 280zM74 351q0 -153 109 -259.5t263 -106.5q155 0 262.5 106t107.5 258q0 153 -109 259.5t-263 106.5q-155 0 -262.5 -106t-107.5 -258z
M385 525v-176h76q49 0 77 24t28 67q0 38 -28 61.5t-77 23.5h-76zM458 294h-73v-169h-66v455h144q77 0 123.5 -36t46.5 -104t-49 -107t-126 -39z" />
    <glyph glyph-name="uni2120" unicode="&#x2120;" horiz-adv-x="965" 
d="M54 597q0 49 37 79.5t97 30.5q64 0 113 -30v-70q-62 41 -118 41q-28 0 -45 -12t-17 -32q0 -26 31 -45t68 -31t68 -41t31 -72q0 -52 -38.5 -83.5t-101.5 -31.5q-70 0 -122 39l-11 74q77 -55 138 -55q31 0 51 14.5t20 37.5q0 25 -31.5 43.5t-69 30t-69 40.5t-31.5 73z
M641 300l-167 330v-324h-63v394h98l139 -280l139 280h98v-394h-66v322l-167 -328h-11z" />
    <glyph glyph-name="trademark" unicode="&#x2122;" horiz-adv-x="1014" 
d="M385 640h-145v-334h-67v334h-145v60h357v-60zM691 300l-167 328v-322h-64v394h98l139 -279l139 279h98v-394h-65v324l-167 -330h-11z" />
    <glyph glyph-name="onethird" unicode="&#x2153;" horiz-adv-x="836" 
d="M219 287h-71v311l-117 -70v75l178 105l10 -3v-418zM115 -2l252 366l222 338h74l-252 -366l-222 -338h-74zM648 -6q-64 0 -123 33l-10 74l2 1q70 -47 127 -47q34 0 56 16t22 42q0 30 -31 48.5t-108 31.5v30q78 25 104 43.5t26 44.5q0 22 -17 34.5t-47 12.5q-50 0 -119 -50
h-2v72q63 39 128 39q60 0 95 -28t35 -74q0 -63 -85 -102q46 -13 70 -40.5t24 -63.5q0 -52 -43.5 -84.5t-103.5 -32.5z" />
    <glyph glyph-name="twothirds" unicode="&#x2154;" horiz-adv-x="907" 
d="M41 287l-8 24l147 170q31 36 43.5 58t12.5 44q0 25 -16.5 42t-45.5 17q-58 0 -123 -80h-2l-9 75q59 69 139 69q58 0 93.5 -31.5t35.5 -83.5q0 -36 -15.5 -66t-54.5 -72l-92 -104h189l-29 -62h-265zM186 -2l252 366l222 338h74l-252 -366l-222 -338h-74zM718 -6
q-64 0 -123 33l-10 74l2 1q70 -47 127 -47q34 0 56 16t22 42q0 30 -31 48.5t-108 31.5v30q78 25 104 43.5t26 44.5q0 22 -17 34.5t-47 12.5q-50 0 -119 -50h-2v72q63 39 128 39q60 0 95 -28t35 -74q0 -63 -85 -102q46 -13 70 -40.5t24 -63.5q0 -52 -43.5 -84.5t-103.5 -32.5
z" />
    <glyph glyph-name="oneeighth" unicode="&#x215b;" horiz-adv-x="847" 
d="M219 287h-71v311l-117 -70v75l178 105l10 -3v-418zM115 -2l252 366l222 338h74l-252 -366l-222 -338h-74zM649 -7q-69 0 -113 32.5t-44 83.5q0 70 75 102q-62 30 -62 95q0 49 39.5 81.5t104.5 32.5t105 -32.5t40 -81.5q0 -64 -63 -95q76 -32 76 -102q0 -51 -44 -83.5
t-114 -32.5zM574 301q0 -28 21 -46.5t54 -18.5q34 0 55 18.5t21 46.5q0 27 -21 45t-55 18t-54.5 -18t-20.5 -45zM562 115q0 -30 24 -48t63 -18q40 0 64 17.5t24 48.5q0 30 -25 49t-63 19t-62.5 -19t-24.5 -49z" />
    <glyph glyph-name="threeeighths" unicode="&#x215c;" horiz-adv-x="888" 
d="M156 -2l252 366l222 338h74l-252 -366l-222 -338h-74zM690 -7q-69 0 -113 32.5t-44 83.5q0 70 75 102q-62 30 -62 95q0 49 39.5 81.5t104.5 32.5t105 -32.5t40 -81.5q0 -64 -63 -95q76 -32 76 -102q0 -51 -44 -83.5t-114 -32.5zM165 281q-64 0 -123 33l-10 74l2 1
q70 -47 127 -47q34 0 56 16t22 42q0 30 -31 48.5t-108 31.5v30q78 25 104 43.5t26 44.5q0 22 -17 34.5t-47 12.5q-50 0 -119 -50h-2v72q63 39 128 39q60 0 95 -28t35 -74q0 -63 -85 -102q46 -13 70 -40.5t24 -63.5q0 -52 -43.5 -84.5t-103.5 -32.5zM615 301q0 -28 21 -46.5
t54 -18.5q34 0 55 18.5t21 46.5q0 27 -21 45t-55 18t-54.5 -18t-20.5 -45zM603 115q0 -30 24 -48t63 -18q40 0 64 17.5t24 48.5q0 30 -25 49t-63 19t-62.5 -19t-24.5 -49z" />
    <glyph glyph-name="fiveeighths" unicode="&#x215d;" horiz-adv-x="904" 
d="M171 -2l252 366l222 338h74l-252 -366l-222 -338h-74zM705 -7q-69 0 -113 32.5t-44 83.5q0 70 75 102q-62 30 -62 95q0 49 39.5 81.5t104.5 32.5t105 -32.5t40 -81.5q0 -64 -63 -95q76 -32 76 -102q0 -51 -44 -83.5t-114 -32.5zM168 280q-63 0 -115 26l-9 68l2 1
q65 -34 117 -34q44 0 71.5 21t27.5 57q0 33 -25.5 51.5t-69.5 18.5q-45 0 -102 -19l-7 4l15 226h240v-63h-182l-8 -96q26 6 59 6q69 0 110 -34t41 -95q0 -62 -46 -100t-119 -38zM630 301q0 -28 21 -46.5t54 -18.5q34 0 55 18.5t21 46.5q0 27 -21 45t-55 18t-54.5 -18
t-20.5 -45zM618 115q0 -30 24 -48t63 -18q40 0 64 17.5t24 48.5q0 30 -25 49t-63 19t-62.5 -19t-24.5 -49z" />
    <glyph glyph-name="seveneighths" unicode="&#x215e;" horiz-adv-x="843" 
d="M110 -2l252 366l222 338h74l-252 -366l-222 -338h-74zM148 287h-77l174 351h-200l-13 62h306l5 -8zM644 -7q-69 0 -113 32.5t-44 83.5q0 70 75 102q-62 30 -62 95q0 49 39.5 81.5t104.5 32.5t105 -32.5t40 -81.5q0 -64 -63 -95q76 -32 76 -102q0 -51 -44 -83.5
t-114 -32.5zM569 301q0 -28 21 -46.5t54 -18.5q34 0 55 18.5t21 46.5q0 27 -21 45t-55 18t-54.5 -18t-20.5 -45zM557 115q0 -30 24 -48t63 -18q40 0 64 17.5t24 48.5q0 30 -25 49t-63 19t-62.5 -19t-24.5 -49z" />
    <glyph glyph-name="minus" unicode="&#x2212;" horiz-adv-x="600" 
d="M550 310h-500v80h500v-80z" />
    <glyph glyph-name="approxequal" unicode="&#x2248;" horiz-adv-x="600" 
d="M191 571q31 0 114 -53t101 -53t34.5 20t48.5 83l53 -28q-42 -95 -72.5 -130t-65.5 -35q-31 0 -114 52.5t-101 52.5t-34.5 -20t-48.5 -82l-54 27q44 96 73.5 131t65.5 35zM196 326q31 0 114 -52.5t101 -52.5t34.5 20t48.5 82l54 -27q-43 -96 -73 -131t-66 -35
q-31 0 -114 52.5t-101 52.5t-34.5 -20t-48.5 -82l-53 27q42 96 72 131t66 35z" />
    <glyph glyph-name="notequal" unicode="&#x2260;" horiz-adv-x="600" 
d="M540 210h-275l-63 -134l-52 24l52 110h-142v80h180l56 120h-236v80h274l64 135l52 -24l-52 -111h142v-80h-180l-57 -120h237v-80z" />
    <glyph glyph-name="uni237F" unicode="&#x237f;" horiz-adv-x="579" 
d="M329 -90h-79v299q-49 11 -81 50.5t-32 90.5t32 90.5t81 50.5v289h79v-289q49 -11 81 -50.5t32 -90.5t-32 -90.5t-81 -50.5v-299z" />
    <glyph glyph-name="uniA788" unicode="&#xa788;" horiz-adv-x="500" 
d="M377 -250l-126 96l-126 -96h-44v2l128 167h82l128 -167v-2h-42z" />
    <glyph glyph-name="G.alt" horiz-adv-x="798" 
d="M748 344q0 -166 -94.5 -262t-247.5 -96q-151 0 -251 100.5t-100 259.5q0 158 104 262.5t260 104.5q161 0 280 -110l-23 -105l-2 -1q-121 124 -257 124q-111 0 -187 -79.5t-76 -195.5q0 -121 73 -195.5t180 -74.5q96 0 159 53t80 147h-237v88h339v-20z" />
    <glyph glyph-name="Q.alt" horiz-adv-x="845" 
d="M416 79q88 0 158 52l-132 109l63 72l132 -116q50 69 50 160q0 111 -79 189.5t-190 78.5q-109 0 -186.5 -78t-77.5 -193q0 -116 76 -195t186 -79zM729 -6l-84 76q-100 -80 -229 -80q-153 0 -257 104.5t-104 256.5q0 154 106 258.5t261 104.5t259.5 -103t104.5 -253
q0 -125 -77 -223l84 -70z" />
    <glyph glyph-name="a.alt" horiz-adv-x="618" 
d="M287 72q78 0 154 70v265q-55 21 -118 21q-80 0 -133 -52.5t-53 -133.5q0 -78 42.5 -124t107.5 -46zM461 0l-15 81q-45 -49 -87 -70t-94 -21q-92 0 -156.5 69.5t-64.5 175.5q0 123 81.5 198t195.5 75q69 0 137 -28l62 20h11v-347l20 -153h-90z" />
    <glyph glyph-name="a.sc" horiz-adv-x="663" 
d="M442 212l-109 253l-112 -253h221zM532 0l-58 134h-286l-60 -134h-96l258 560h91l250 -560h-99z" />
    <glyph glyph-name="b.sc" horiz-adv-x="553" 
d="M300 0h-213v557h210q84 0 132.5 -39t48.5 -108q0 -81 -85 -121q109 -33 109 -131q0 -73 -55.5 -115.5t-146.5 -42.5zM175 478v-156h107q49 0 77.5 21.5t28.5 59.5q0 35 -26 55t-71 20h-116zM175 79h127q51 0 79.5 23.5t28.5 61.5q0 39 -30 59.5t-82 20.5h-123v-165z" />
    <glyph glyph-name="c.sc" horiz-adv-x="597" 
d="M334 -12q-119 0 -200.5 80.5t-81.5 209.5q0 124 85 207t207 83q108 0 188 -67v-109h-2q-92 92 -186 92q-82 0 -140.5 -59.5t-58.5 -144.5q0 -92 59 -150t139 -58q103 0 197 89l2 -1l-13 -104q-88 -68 -195 -68z" />
    <glyph glyph-name="d.sc" horiz-adv-x="648" 
d="M278 475h-100v-394h102q97 0 160 53t63 144q0 93 -61.5 145t-163.5 52zM87 0v557h192q146 0 231.5 -75t85.5 -203q0 -125 -88.5 -202t-228.5 -77h-192z" />
    <glyph glyph-name="e.sc" horiz-adv-x="519" 
d="M87 0v557h355l23 -82h-288v-153h243v-80h-243v-161h291l-24 -81h-357z" />
    <glyph glyph-name="f.sc" horiz-adv-x="488" 
d="M406 230h-228v-230h-91v557h370l-24 -82h-255v-165h228v-80z" />
    <glyph glyph-name="g.sc" horiz-adv-x="652" 
d="M572 60q-107 -68 -230 -68q-128 0 -209 77.5t-81 206.5q0 128 88 210t222 82q106 0 196 -46v-97q-101 59 -196 59q-94 0 -155.5 -58.5t-61.5 -148.5q0 -94 57.5 -148t148.5 -54q76 0 134 31v111h-151v78h238v-235z" />
    <glyph glyph-name="g.scalt" horiz-adv-x="660" 
d="M611 274q0 -135 -75 -210.5t-197 -75.5t-204.5 82t-82.5 209q0 125 84.5 207.5t208.5 82.5q129 0 224 -83l-24 -92h-2q-94 91 -197 91q-85 0 -143 -58.5t-58 -147.5q0 -93 57 -151t139 -58q70 0 116 38.5t59 107.5h-180v78h275v-20z" />
    <glyph glyph-name="h.sc" horiz-adv-x="675" 
d="M497 0v242h-319v-242h-91v557h91v-232h319v232h91v-557h-91z" />
    <glyph glyph-name="i.sc" horiz-adv-x="275" 
d="M92 0v557h91v-557h-91z" />
    <glyph glyph-name="j.sc" horiz-adv-x="397" 
d="M223 167v390h91v-403q0 -77 -44 -120t-116 -43q-55 0 -103 28l-19 98h2q55 -43 104 -43q40 0 62.5 23.5t22.5 69.5z" />
    <glyph glyph-name="k.sc" horiz-adv-x="589" 
d="M452 0l-240 245h-34v-245h-91v557h91v-235h34l238 235h116v-2l-279 -269l283 -284v-2h-118z" />
    <glyph glyph-name="l.sc" horiz-adv-x="484" 
d="M87 0v557h91v-474h264v-83h-355z" />
    <glyph glyph-name="m.sc" horiz-adv-x="861" 
d="M421 -10l-244 480v-470h-89v557h142l201 -407l201 407h140v-557h-90v470l-244 -480h-17z" />
    <glyph glyph-name="n.sc" horiz-adv-x="683" 
d="M555 -4l-378 432v-428h-90v557h94l325 -375v375h90v-561h-41z" />
    <glyph glyph-name="o.sc" horiz-adv-x="692" 
d="M640 279q0 -123 -85 -208t-209 -85q-125 0 -209.5 85t-84.5 206q0 123 85.5 208.5t209.5 85.5t208.5 -85t84.5 -207zM547 277q0 89 -58.5 149t-142.5 60t-142.5 -59t-58.5 -148t58.5 -149t143.5 -60q83 0 141.5 59.5t58.5 147.5z" />
    <glyph glyph-name="p.sc" horiz-adv-x="534" 
d="M177 475v-204h99q55 0 90 28t35 77q0 45 -32.5 72t-86.5 27h-105zM277 191h-99v-191h-91v557h197q94 0 151 -46t57 -133q0 -88 -60.5 -137.5t-154.5 -49.5z" />
    <glyph glyph-name="q.sc" horiz-adv-x="692" 
d="M530 -119q-59 0 -106 23.5t-97 86.5q-118 7 -196.5 89t-78.5 198q0 122 85.5 207.5t209.5 85.5t209 -85t85 -206q0 -96 -57 -171.5t-147 -103.5q47 -51 110 -51q37 0 75 15l1 -2l-28 -77q-29 -9 -65 -9zM548 277q0 89 -58.5 149t-143.5 60q-84 0 -142.5 -59t-58.5 -148
t58.5 -149t143.5 -60q83 0 142 59.5t59 147.5z" />
    <glyph glyph-name="q.scalt" horiz-adv-x="696" 
d="M339 71q68 0 118 36l-102 91l55 57l102 -92q35 52 35 117q0 87 -58.5 146.5t-142.5 59.5t-142.5 -59t-58.5 -148q0 -88 57.5 -148t136.5 -60zM585 -9l-64 58q-82 -59 -184 -59q-118 0 -201.5 85.5t-83.5 204.5q0 121 85.5 206t209.5 85t208.5 -84t84.5 -202
q0 -102 -62 -181l63 -55z" />
    <glyph glyph-name="r.sc" horiz-adv-x="569" 
d="M177 476v-186h107q48 0 78.5 26t30.5 68q0 43 -28.5 67.5t-76.5 24.5h-111zM452 0l-182 211h-92v-211h-91v557h202q91 0 143.5 -44.5t52.5 -125.5q0 -58 -32.5 -100t-88.5 -60l200 -227h-112z" />
    <glyph glyph-name="s.sc" horiz-adv-x="497" 
d="M152 416q0 -32 27.5 -52t99.5 -45q84 -30 123.5 -67t39.5 -102q0 -70 -56 -115t-143 -45q-96 0 -184 60l-17 105l2 1q108 -86 203 -86q48 0 77 20t29 55q0 33 -27.5 53.5t-102.5 46.5q-84 30 -122.5 65.5t-38.5 102.5t53.5 110t136.5 43q89 0 166 -42v-97h-2
q-88 59 -168 59q-43 0 -69.5 -18.5t-26.5 -51.5z" />
    <glyph glyph-name="t.sc" horiz-adv-x="608" 
d="M569 473h-219v-473h-91v473h-220v84h530v-84z" />
    <glyph glyph-name="u.sc" horiz-adv-x="654" 
d="M80 245v312h91v-312q0 -83 42 -129t116 -46q72 0 114.5 46t42.5 131v310h88v-312q0 -119 -66 -187t-181 -68t-181 68t-66 187z" />
    <glyph glyph-name="v.sc" horiz-adv-x="646" 
d="M293 -7l-260 564h101l189 -431l195 431h96l-268 -564h-53z" />
    <glyph glyph-name="w.sc" horiz-adv-x="977" 
d="M235 -3l-195 560h100l143 -442l200 450h17l195 -450l149 442h96l-203 -560h-84l-164 384l-170 -384h-84z" />
    <glyph glyph-name="x.sc" horiz-adv-x="620" 
d="M478 0l-170 222l-168 -222h-104l220 282l-214 275h107l163 -214l162 214h104l-214 -274l221 -283h-107z" />
    <glyph glyph-name="y.sc" horiz-adv-x="590" 
d="M341 0h-91v246l-231 311h109l170 -237l169 237h104l-230 -312v-245z" />
    <glyph glyph-name="z.sc" horiz-adv-x="587" 
d="M518 0h-471l-5 14l341 464h-314v79h463l5 -15l-341 -463h348z" />
    <glyph glyph-name="quoteleftreversed" horiz-adv-x="218" 
d="M177 700q-35 -52 -46 -76t-11 -50q0 -49 68 -143l-30 -23q-4 4 -19 18.5t-20 20t-17.5 18.5t-17.5 20t-15 19t-14 21t-9 20t-7 21.5t-2 21.5q0 50 44 112h96z" />
    <glyph glyph-name="guillemotleft.cap" horiz-adv-x="625" 
d="M564 593l-157 -238l157 -240l-33 -18l-231 249v16l231 249zM312 593l-157 -238l157 -240l-34 -18l-231 249v16l231 249z" />
    <glyph glyph-name="guillemotright.cap" horiz-adv-x="625" 
d="M60 115l157 238l-157 240l34 18l231 -249v-16l-231 -249zM313 115l157 238l-157 240l34 18l231 -249v-16l-231 -249z" />
    <glyph glyph-name="guilsinglleft.cap" horiz-adv-x="382" 
d="M322 593l-167 -238l167 -240l-34 -18l-241 249v16l241 249z" />
    <glyph glyph-name="guilsinglright.cap" horiz-adv-x="382" 
d="M60 115l167 238l-167 240l34 18l241 -249v-16l-241 -249z" />
    <glyph glyph-name="parenleft.cap" horiz-adv-x="409" 
d="M162 348q0 -236 223 -415l-26 -30q-135 91 -209.5 197t-74.5 248t74.5 248t209.5 197l26 -30q-223 -179 -223 -415z" />
    <glyph glyph-name="parenright.cap" horiz-adv-x="409" 
d="M247 348q0 236 -223 415l26 30q135 -91 209.5 -197t74.5 -248t-74.5 -248t-209.5 -197l-26 30q223 179 223 415z" />
    <glyph glyph-name="bracketleft.cap" horiz-adv-x="410" 
d="M107 -87v870h256l13 -56h-185v-758h185l-13 -56h-256z" />
    <glyph glyph-name="bracketright.cap" horiz-adv-x="410" 
d="M303 783v-870h-256l-13 56h185v758h-185l13 56h256z" />
    <glyph glyph-name="braceleft.cap" horiz-adv-x="492" 
d="M445 -87h-110q-85 0 -136 39.5t-51 107.5q0 40 30 102t30 85q0 31 -23 46.5t-75 23.5l-74 11v40l74 11q52 8 75 23.5t23 46.5q0 23 -30 85t-30 102q0 68 51 107.5t136 39.5h110l13 -56h-104q-113 0 -113 -85q0 -27 28 -90.5t28 -97.5q0 -41 -24.5 -65t-72.5 -41
q48 -17 72.5 -41t24.5 -65q0 -34 -28 -97.5t-28 -90.5q0 -42 29.5 -63.5t83.5 -21.5h104z" />
    <glyph glyph-name="braceright.cap" horiz-adv-x="492" 
d="M157 -87h-110l-13 56h104q113 0 113 85q0 27 -28 90.5t-28 97.5q0 41 24.5 65t72.5 41q-48 17 -72.5 41t-24.5 65q0 34 28 97.5t28 90.5q0 42 -29.5 63.5t-83.5 21.5h-104l13 56h110q85 0 136 -39.5t51 -107.5q0 -40 -30 -102t-30 -85q0 -31 23 -46.5t75 -23.5l74 -11
v-40l-74 -11q-52 -8 -75 -23.5t-23 -46.5q0 -23 30 -85t30 -102q0 -68 -51 -107.5t-136 -39.5z" />
    <glyph glyph-name="slash.cap" horiz-adv-x="455" 
d="M10 -90l352 870h78l-352 -870h-78z" />
    <glyph glyph-name="bar.cap" horiz-adv-x="378" 
d="M228 -90h-78v870h78v-870z" />
    <glyph glyph-name="backslash.cap" horiz-adv-x="455" 
d="M445 -90h-78l-351 870h78z" />
    <glyph glyph-name="hyphen.cap" horiz-adv-x="402" 
d="M68 399h266v-85h-266v85z" />
    <glyph glyph-name="endash.cap" horiz-adv-x="559" 
d="M68 397h424v-82h-424v82z" />
    <glyph glyph-name="emdash.cap" horiz-adv-x="939" 
d="M68 397h804v-82h-804v82z" />
    <glyph glyph-name="periodcentered.cap" horiz-adv-x="245" 
d="M47 351q0 30 22 52.5t53 22.5t53 -22.5t22 -52.5t-22 -52.5t-53 -22.5t-53 22.5t-22 52.5z" />
    <glyph glyph-name="colon.fig" horiz-adv-x="248" 
d="M56 498q0 27 20 47t48 20t47.5 -20t19.5 -47q0 -28 -19.5 -48t-47.5 -20t-48 20t-20 48zM56 202q0 28 20 48t48 20t47.5 -20t19.5 -48q0 -27 -19.5 -47t-47.5 -20t-48 20t-20 47z" />
    <glyph glyph-name="paragraph.alt" horiz-adv-x="589" 
d="M434 700h62v-700h-62v700zM344 0h-62v154h-13q-96 0 -159 53t-63 148q0 96 63 149.5t164 53.5h8v142h62v-700z" />
    <glyph glyph-name="zero.osf" horiz-adv-x="632" 
d="M51 258q0 116 75.5 195.5t190.5 79.5t189.5 -79t74.5 -194t-75.5 -194.5t-190.5 -79.5q-116 0 -190 79t-74 193zM315 452q-73 0 -123.5 -56t-50.5 -136q0 -81 50 -137t126 -56q73 0 123.5 55.5t50.5 135.5q0 81 -50 137.5t-126 56.5z" />
    <glyph glyph-name="one.osf" horiz-adv-x="395" 
d="M293 0h-90v397l-167 -107v91l236 149l21 -4v-526z" />
    <glyph glyph-name="two.osf" horiz-adv-x="536" 
d="M464 0h-422l-5 16l238 216q51 46 73.5 76.5t22.5 61.5q0 38 -25.5 59t-66.5 21q-57 0 -106 -35.5t-98 -100.5h-2l-24 89q104 128 235 128q79 0 128 -43t49 -115q0 -47 -29 -88.5t-96 -102.5l-117 -103h283z" />
    <glyph glyph-name="three.osf" horiz-adv-x="540" 
d="M226 -194q-92 0 -166 24l-16 93q90 -37 185 -37q69 0 116 35t47 88q0 119 -234 117l-10 41q120 47 173 90t53 93q0 42 -30.5 70t-80.5 28q-88 0 -196 -108h-2v105q95 84 206 84q89 0 141 -48t52 -124q0 -104 -143 -179q77 -13 119 -57.5t42 -110.5q0 -92 -75.5 -148
t-180.5 -56z" />
    <glyph glyph-name="four.osf" horiz-adv-x="631" 
d="M387 75v339l-234 -339h234zM600 0h-129v-191h-86v191h-362l-4 20l348 506h104v-451h129v-75z" />
    <glyph glyph-name="five.osf" horiz-adv-x="570" 
d="M192 -194q-61 0 -119 15l-14 92q75 -23 137 -23q101 0 163.5 43.5t62.5 109.5q0 61 -43 93.5t-113 32.5q-83 0 -162 -27l-13 9v368h391v-86h-304v-192q46 12 108 12q94 0 162.5 -53t68.5 -150q0 -117 -91 -180.5t-234 -63.5z" />
    <glyph glyph-name="six.osf" horiz-adv-x="625" 
d="M314 -14q-121 0 -188.5 68t-67.5 182q0 73 31 143t108 177l138 193h109l-162 -224q-26 -34 -53 -78q63 22 127 22q91 0 155 -65.5t64 -169.5q0 -102 -70.5 -175t-190.5 -73zM315 68q73 0 120.5 47.5t47.5 115.5q0 74 -49 117t-124 43q-61 0 -123 -17q-36 -72 -36 -136
q0 -80 44.5 -125t119.5 -45z" />
    <glyph glyph-name="seven.osf" horiz-adv-x="574" 
d="M205 -191h-101l309 626h-350l-19 84h487l8 -13z" />
    <glyph glyph-name="eight.osf" horiz-adv-x="613" 
d="M306 -12q-106 0 -176 59t-70 145q0 60 34 109t92 76q-49 27 -77.5 73.5t-28.5 100.5q0 83 64 144.5t164 61.5q99 0 162 -61.5t63 -144.5q0 -53 -28 -99t-77 -73q58 -26 92 -74.5t34 -109.5q0 -87 -71 -147t-177 -60zM172 547q0 -52 39.5 -92t96.5 -40q56 0 94.5 40
t38.5 92q0 53 -38 91t-97 38q-60 0 -97 -38t-37 -91zM151 204q0 -59 46 -97t111 -38q64 0 109 38t45 97q0 56 -47 94.5t-109 38.5t-108.5 -38.5t-46.5 -94.5z" />
    <glyph glyph-name="nine.osf" horiz-adv-x="604" 
d="M291 -191h-109l138 189q29 39 59 85q-61 -21 -117 -21q-88 0 -150 63.5t-62 165.5q0 101 69 171.5t181 70.5q113 0 179.5 -68t66.5 -181q0 -72 -31.5 -140.5t-108.5 -176.5zM308 140q52 0 112 14q33 69 33 128q0 77 -42 123t-112 46q-68 0 -112.5 -46t-44.5 -111
q0 -74 47 -114t119 -40z" />
    <glyph glyph-name="plus.osf" horiz-adv-x="600" 
d="M550 224h-208v-211h-84v211h-208v80h208v210h84v-210h208v-80z" />
    <glyph glyph-name="divide.osf" horiz-adv-x="600" 
d="M232 468q0 28 20 48t48 20t48 -20t20 -48t-20 -48t-48 -20t-48 20t-20 48zM550 224h-500v80h500v-80zM232 60q0 27 20 47t48 20t48 -20t20 -47q0 -28 -20 -48t-48 -20t-48 20t-20 48z" />
    <glyph glyph-name="minus.osf" horiz-adv-x="600" 
d="M550 224h-500v80h500v-80z" />
    <glyph glyph-name="equal.osf" horiz-adv-x="600" 
d="M540 324h-480v80h480v-80zM540 124h-480v80h480v-80z" />
    <glyph glyph-name="notequal.osf" horiz-adv-x="600" 
d="M540 124h-275l-63 -134l-52 24l52 110h-142v80h180l56 120h-236v80h274l64 135l52 -24l-52 -111h142v-80h-180l-57 -120h237v-80z" />
    <glyph glyph-name="asciitilde.osf" horiz-adv-x="600" 
d="M193 362q31 0 114.5 -52.5t101.5 -52.5t34.5 20t48.5 82l53 -27q-43 -95 -73 -130.5t-65 -35.5q-31 0 -114.5 53t-101.5 53t-34.5 -20t-48.5 -83l-53 27q42 96 72 131t66 35z" />
    <glyph glyph-name="approxequal.osf" horiz-adv-x="600" 
d="M191 485q31 0 114 -53t101 -53t34.5 20t48.5 83l53 -28q-42 -95 -72.5 -130t-65.5 -35q-31 0 -114 52.5t-101 52.5t-34.5 -20t-48.5 -82l-54 27q44 96 73.5 131t65.5 35zM196 240q31 0 114 -52.5t101 -52.5t34.5 20t48.5 82l54 -27q-43 -96 -73 -131t-66 -35
q-31 0 -114 52.5t-101 52.5t-34.5 -20t-48.5 -82l-53 27q42 96 72 131t66 35z" />
    <glyph glyph-name="multiply.osf" horiz-adv-x="600" 
d="M471 36l-171 173l-171 -173l-59 58l174 171l-174 171l59 59l171 -174l171 174l59 -59l-174 -171l174 -171z" />
    <glyph glyph-name="less.osf" horiz-adv-x="600" 
d="M537 11l-484 241v25l484 240v-88l-340 -164l340 -164v-90z" />
    <glyph glyph-name="greater.osf" horiz-adv-x="600" 
d="M63 11v88l340 165l-340 163v90l484 -240v-25z" />
    <glyph glyph-name="numbersign.osf" horiz-adv-x="645" 
d="M381 190l41 139h-158l-41 -139h158zM324 -2l33 112h-158l-33 -112h-59l33 112h-106v80h130l41 139h-131v80h155l33 112h59l-33 -112h158l33 112h59l-33 -112h107v-80h-131l-41 -139h131v-80h-155l-33 -112h-59z" />
    <glyph glyph-name="cent.osf" horiz-adv-x="554" 
d="M138 259q0 -62 32.5 -107t87.5 -60l33 339q-69 -7 -111 -56t-42 -116zM479 59q-81 -53 -169 -53l-10 -102h-62l10 107q-89 17 -142.5 83.5t-53.5 163.5q0 101 69 173t176 79l11 104h61l-10 -106q70 -9 126 -53v-105h-2q-69 66 -134 79l-33 -344q92 4 177 74l2 -1z" />
    <glyph glyph-name="zero.tab" horiz-adv-x="600" 
d="M299 -14q-121 0 -185.5 97t-64.5 266t65.5 267t186.5 98q120 0 185 -97t65 -266q0 -171 -66 -268t-186 -97zM141 351q0 -132 42.5 -207.5t117.5 -75.5q73 0 115.5 74t42.5 207t-43 208t-117 75t-116 -75t-42 -206z" />
    <glyph glyph-name="one.tab" horiz-adv-x="600" 
d="M531 0h-430v78h176v493l-176 -111v100l244 153l25 -5v-630h161v-78z" />
    <glyph glyph-name="two.tab" horiz-adv-x="600" 
d="M533 0h-493l-2 18l293 318q52 57 74.5 95t22.5 76q0 53 -34 85.5t-89 32.5q-119 0 -223 -163h-2l-28 94q97 154 257 154q95 0 152.5 -53.5t57.5 -142.5q0 -58 -28 -108.5t-93 -120.5l-187 -202h344z" />
    <glyph glyph-name="three.tab" horiz-adv-x="600" 
d="M291 -11q-115 0 -222 67l-16 109l2 1q126 -92 235 -92q66 0 110 31.5t44 82.5q0 59 -57 90.5t-211 53.5v43q146 38 199.5 71.5t53.5 84.5q0 44 -34.5 70t-91.5 26q-112 0 -228 -116l-2 1v102q98 98 232 98q102 0 159.5 -47t57.5 -122q0 -125 -165 -181q183 -37 183 -181
q0 -85 -71 -138.5t-178 -53.5z" />
    <glyph glyph-name="four.tab" horiz-adv-x="600" 
d="M129 236h248v384zM577 162h-113v-162h-88v162h-345l-13 42l324 501h122v-467h113v-76z" />
    <glyph glyph-name="five.tab" horiz-adv-x="600" 
d="M278 -12q-107 0 -199 44l-14 98l2 1q113 -60 209 -60q75 0 123 42t48 105q0 64 -45.5 100t-123.5 36q-85 0 -175 -36l-14 7l26 375h392v-85h-312l-14 -193q54 16 114 16q111 0 179 -58.5t68 -157.5t-72 -166.5t-192 -67.5z" />
    <glyph glyph-name="six.tab" horiz-adv-x="600" 
d="M300 -14q-115 0 -182.5 68.5t-67.5 181.5q0 72 32 142.5t109 175.5l105 146h110l-132 -177q-41 -56 -67 -101q69 26 132 26q90 0 153.5 -63t63.5 -162t-70.5 -168t-185.5 -69zM301 68q71 0 116.5 44.5t45.5 107.5q0 71 -46 110.5t-120 39.5q-63 0 -126 -17
q-28 -59 -28 -115q0 -77 43.5 -123.5t114.5 -46.5z" />
    <glyph glyph-name="seven.tab" horiz-adv-x="600" 
d="M228 0h-101l319 617h-377l-19 83h517l4 -18z" />
    <glyph glyph-name="eight.tab" horiz-adv-x="600" 
d="M299 -12q-106 0 -176.5 56t-70.5 141q0 57 33 101.5t88 69.5q-47 26 -74 68t-27 94q0 82 64.5 138t164.5 56t163.5 -56t63.5 -138q0 -51 -27 -93t-75 -68q56 -25 89 -69.5t33 -102.5q0 -84 -71.5 -140.5t-177.5 -56.5zM164 514q0 -50 39.5 -85t97.5 -35q57 0 96 34.5
t39 84.5t-39 84t-98 34t-97 -34t-38 -83zM143 194q0 -56 46 -90.5t112 -34.5t111 34.5t45 90.5q0 52 -48 87t-110 35t-109 -35t-47 -87z" />
    <glyph glyph-name="nine.tab" horiz-adv-x="600" 
d="M303 0h-109l132 177q39 57 64 95q-67 -24 -129 -24q-89 0 -153 64t-64 163q0 100 70.5 169.5t185.5 69.5t182.5 -68.5t67.5 -181.5q0 -72 -32 -142.5t-109 -175.5zM303 326q60 0 125 17q29 61 29 119q0 77 -43.5 123.5t-114.5 46.5t-116.5 -45t-45.5 -109
q0 -72 46.5 -112t119.5 -40z" />
    <glyph glyph-name="twodotleader" horiz-adv-x="600" 
d="M382 59q0 28 20 48t48 20t48 -20t20 -48t-20 -48t-48 -20t-48 20t-20 48zM82 59q0 28 20 48t48 20t48 -20t20 -48t-20 -48t-48 -20t-48 20t-20 48z" />
    <glyph glyph-name="quotedbl.tab" horiz-adv-x="600" 
d="M416 700h112l-160 -292l-36 14zM183 700h112l-160 -292l-37 14z" />
    <glyph glyph-name="quotesingle.tab" horiz-adv-x="300" 
d="M149 700h112l-160 -292l-37 14z" />
    <glyph glyph-name="period.tab" horiz-adv-x="300" 
d="M77 65q0 29 21.5 51t51.5 22t51.5 -22t21.5 -51q0 -30 -21.5 -52t-51.5 -22t-51.5 22t-21.5 52z" />
    <glyph glyph-name="comma.tab" horiz-adv-x="300" 
d="M51 -165l-35 28q49 63 69.5 118t25.5 143h104q-3 -71 -25.5 -124t-52 -85t-86.5 -80z" />
    <glyph glyph-name="colon.tab" horiz-adv-x="300" 
d="M77 436q0 29 21.5 51t51.5 22t51.5 -22t21.5 -51q0 -30 -21.5 -51.5t-51.5 -21.5t-51.5 21.5t-21.5 51.5zM77 64q0 30 21.5 51.5t51.5 21.5t51.5 -21.5t21.5 -51.5q0 -29 -21.5 -51t-51.5 -22t-51.5 22t-21.5 51z" />
    <glyph glyph-name="colon.figtab" horiz-adv-x="300" 
d="M82 498q0 27 20 47t48 20t48 -20t20 -47q0 -28 -20 -48t-48 -20t-48 20t-20 48zM82 202q0 28 20 48t48 20t48 -20t20 -48q0 -27 -20 -47t-48 -20t-48 20t-20 47z" />
    <glyph glyph-name="periodcentered.tab" horiz-adv-x="300" 
d="M77 351q0 29 21.5 51t51.5 22t51.5 -22t21.5 -51q0 -30 -21.5 -52t-51.5 -22t-51.5 22t-21.5 52z" />
    <glyph glyph-name="slash.tab" horiz-adv-x="600" 
d="M7 -87l493 870h90l-493 -870h-90z" />
    <glyph glyph-name="dollar.tab" horiz-adv-x="600" 
d="M144 520q0 -47 30.5 -72t105.5 -45l21 217h-12q-65 0 -105 -27.5t-40 -72.5zM463 189q0 45 -30.5 70.5t-103.5 46.5l-22 -226q73 1 114.5 30t41.5 79zM285 -163h-62l17 164q-101 12 -181 67l-20 110l1 1q113 -77 210 -94l22 235q-107 26 -160.5 68.5t-53.5 126.5
q0 85 69.5 136t177.5 51h2l12 121h62l-12 -125q80 -11 146 -48v-104h-2q-77 50 -155 66l-21 -224q107 -27 159.5 -69t52.5 -126q0 -88 -68 -139.5t-180 -55.5z" />
    <glyph glyph-name="sterling.tab" horiz-adv-x="600" 
d="M549 83l-19 -83h-471l-4 18q107 98 140 138t33 75q0 31 -23 72h-158v67h115q-56 90 -56 153q0 85 60.5 137t165.5 52q99 0 196 -52l14 -105h-3q-115 74 -211 74q-60 0 -95.5 -29t-35.5 -76q0 -32 14 -62t54 -92h219v-67h-181q14 -36 14 -65q0 -39 -21 -72.5t-72 -82.5
h325z" />
    <glyph glyph-name="yen.tab" horiz-adv-x="600" 
d="M540 161h-196v-161h-87v161h-197v57h197v83h-197v57h170l-207 342h101l178 -303l177 303h98l-207 -342h170v-57h-196v-83h196v-57z" />
    <glyph glyph-name="Euro.tab" horiz-adv-x="600" 
d="M546 31q-69 -43 -158 -43q-103 0 -172 69t-89 191h-95v58h88q-1 14 -1 43q0 16 2 48h-89v57h96q23 119 93.5 188.5t175.5 69.5q83 0 158 -47v-99h-2q-88 62 -152 62q-67 0 -113.5 -45.5t-64.5 -128.5h236v-57h-245q-2 -30 -2 -46q0 -17 2 -45h245v-58h-237
q18 -85 64.5 -130.5t110.5 -45.5q45 0 79.5 12.5t81.5 45.5h2z" />
    <glyph glyph-name="zero.sup" horiz-adv-x="421" 
d="M210 401q-80 0 -126.5 59.5t-46.5 154.5q0 94 48 154.5t126 60.5t125.5 -60t47.5 -154q0 -95 -48 -155t-126 -60zM109 616q0 -67 28 -110t74 -43q45 0 73 42t28 110q0 67 -28.5 109.5t-73.5 42.5q-46 0 -73.5 -42.5t-27.5 -108.5z" />
    <glyph glyph-name="one.sup" horiz-adv-x="293" 
d="M219 409h-71v311l-117 -70v75l178 105l10 -3v-418z" />
    <glyph glyph-name="two.sup" horiz-adv-x="359" 
d="M41 409l-8 24l147 170q31 36 43.5 58t12.5 44q0 25 -16.5 42t-45.5 17q-58 0 -123 -80h-2l-9 75q59 69 139 69q58 0 93.5 -31.5t35.5 -83.5q0 -36 -15.5 -66t-54.5 -72l-92 -104h189l-29 -62h-265z" />
    <glyph glyph-name="three.sup" horiz-adv-x="353" 
d="M165 403q-64 0 -123 33l-10 74l2 1q70 -47 127 -47q34 0 56 16t22 42q0 30 -31 48.5t-108 31.5v30q78 25 104 43.5t26 44.5q0 22 -17 34.5t-47 12.5q-50 0 -119 -50h-2v72q63 39 128 39q60 0 95 -28t35 -74q0 -63 -85 -102q46 -13 70 -40.5t24 -63.5q0 -52 -43.5 -84.5
t-103.5 -32.5z" />
    <glyph glyph-name="four.sup" horiz-adv-x="396" 
d="M234 555v204l-130 -204h130zM370 500h-69v-91h-67v91h-215l-3 17l200 308h85v-270h69v-55z" />
    <glyph glyph-name="five.sup" horiz-adv-x="374" 
d="M168 402q-63 0 -115 26l-9 68l2 1q65 -34 117 -34q44 0 71.5 21t27.5 57q0 33 -25.5 51.5t-69.5 18.5q-45 0 -102 -19l-7 4l15 226h240v-63h-182l-8 -96q26 6 59 6q69 0 110 -34t41 -95q0 -62 -46 -100t-119 -38z" />
    <glyph glyph-name="six.sup" horiz-adv-x="381" 
d="M191 401q-73 0 -114 40.5t-41 108.5q0 43 20 84t67 103l64 85h84l-90 -114q-26 -35 -32 -44q38 14 72 14q55 0 92.5 -35.5t37.5 -95.5q0 -61 -45.5 -103.5t-114.5 -42.5zM192 460q39 0 63.5 24t24.5 60q0 39 -24.5 59t-66.5 20q-27 0 -67 -10q-15 -33 -15 -62
q0 -41 23.5 -66t61.5 -25z" />
    <glyph glyph-name="seven.sup" horiz-adv-x="364" 
d="M148 409h-77l174 351h-200l-13 62h306l5 -8z" />
    <glyph glyph-name="eight.sup" horiz-adv-x="396" 
d="M198 402q-69 0 -113 32.5t-44 83.5q0 70 75 102q-62 30 -62 95q0 49 39.5 81.5t104.5 32.5t105 -32.5t40 -81.5q0 -64 -63 -95q76 -32 76 -102q0 -51 -44 -83.5t-114 -32.5zM123 710q0 -28 21 -46.5t54 -18.5q34 0 55 18.5t21 46.5q0 27 -21 45t-55 18t-54.5 -18
t-20.5 -45zM111 524q0 -30 24 -48t63 -18q40 0 64 17.5t24 48.5q0 30 -25 49t-63 19t-62.5 -19t-24.5 -49z" />
    <glyph glyph-name="nine.sup" horiz-adv-x="381" 
d="M194 409h-83l90 115q18 22 29 39q-36 -14 -71 -14q-54 0 -91.5 36.5t-37.5 97.5q-1 63 44 105.5t116 42.5q72 0 114 -41t42 -108q0 -42 -20 -83t-68 -104zM191 604q32 0 68 11q16 33 16 66q0 41 -23.5 65.5t-62.5 24.5t-64 -24.5t-25 -60.5q0 -40 24.5 -61t66.5 -21z" />
    <glyph glyph-name="zero.inf" horiz-adv-x="421" 
d="M210 -140q-80 0 -126.5 59.5t-46.5 154.5q0 94 48 154.5t126 60.5t125.5 -60t47.5 -154q0 -95 -48 -155t-126 -60zM109 75q0 -67 28 -110t74 -43q45 0 73 42t28 110q0 67 -28.5 109.5t-73.5 42.5q-46 0 -73.5 -42.5t-27.5 -108.5z" />
    <glyph glyph-name="one.inf" horiz-adv-x="293" 
d="M219 -132h-71v311l-117 -70v75l178 105l10 -3v-418z" />
    <glyph glyph-name="two.inf" horiz-adv-x="359" 
d="M41 -132l-8 24l147 170q31 36 43.5 58t12.5 44q0 25 -16.5 42t-45.5 17q-58 0 -123 -80h-2l-9 75q59 69 139 69q58 0 93.5 -31.5t35.5 -83.5q0 -36 -15.5 -66t-54.5 -72l-92 -104h189l-29 -62h-265z" />
    <glyph glyph-name="three.inf" horiz-adv-x="353" 
d="M165 -138q-64 0 -123 33l-10 74l2 1q70 -47 127 -47q34 0 56 16t22 42q0 30 -31 48.5t-108 31.5v30q78 25 104 43.5t26 44.5q0 22 -17 34.5t-47 12.5q-50 0 -119 -50h-2v72q63 39 128 39q60 0 95 -28t35 -74q0 -63 -85 -102q46 -13 70 -40.5t24 -63.5q0 -52 -43.5 -84.5
t-103.5 -32.5z" />
    <glyph glyph-name="four.inf" horiz-adv-x="396" 
d="M234 14v204l-130 -204h130zM370 -41h-69v-91h-67v91h-215l-3 17l200 308h85v-270h69v-55z" />
    <glyph glyph-name="five.inf" horiz-adv-x="374" 
d="M168 -139q-63 0 -115 26l-9 68l2 1q65 -34 117 -34q44 0 71.5 21t27.5 57q0 33 -25.5 51.5t-69.5 18.5q-45 0 -102 -19l-7 4l15 226h240v-63h-182l-8 -96q25 6 59 6q69 0 110 -34t41 -95q0 -62 -46 -100t-119 -38z" />
    <glyph glyph-name="six.inf" horiz-adv-x="381" 
d="M191 -140q-73 0 -114 40.5t-41 108.5q0 43 20 84t67 103l64 85h84l-90 -114q-26 -35 -32 -44q38 14 72 14q55 0 92.5 -35.5t37.5 -95.5q0 -61 -45.5 -103.5t-114.5 -42.5zM192 -81q39 0 63.5 24t24.5 60q0 39 -24.5 59t-66.5 20q-27 0 -67 -10q-15 -33 -15 -62
q0 -41 23.5 -66t61.5 -25z" />
    <glyph glyph-name="seven.inf" horiz-adv-x="364" 
d="M148 -132h-77l174 351h-200l-13 62h306l5 -8z" />
    <glyph glyph-name="eight.inf" horiz-adv-x="396" 
d="M198 -139q-69 0 -113 32.5t-44 83.5q0 70 75 102q-62 30 -62 95q0 49 39.5 81.5t104.5 32.5t105 -32.5t40 -81.5q0 -64 -63 -95q76 -32 76 -102q0 -51 -44 -83.5t-114 -32.5zM123 169q0 -28 21 -46.5t54 -18.5q34 0 55 18.5t21 46.5q0 27 -21 45t-55 18t-54.5 -18
t-20.5 -45zM111 -17q0 -30 24 -48t63 -18q40 0 64 17.5t24 48.5q0 30 -25 49t-63 19t-62.5 -19t-24.5 -49z" />
    <glyph glyph-name="nine.inf" horiz-adv-x="381" 
d="M194 -132h-83l90 115q18 22 29 39q-36 -14 -71 -14q-54 0 -91.5 36.5t-37.5 97.5q-1 63 44 105.5t116 42.5q72 0 114 -41t42 -108q0 -42 -20 -83t-68 -104zM191 63q32 0 68 11q16 33 16 66q0 41 -23.5 65.5t-62.5 24.5t-64 -24.5t-25 -60.5q0 -40 24.5 -61t66.5 -21z" />
    </font>
</defs>
</svg>
