<?xml version="1.0" standalone="no"?>
<!DOCTYPE svg PUBLIC "-//W3C//DTD SVG 1.1//EN" "http://www.w3.org/Graphics/SVG/1.1/DTD/svg11.dtd" >
<svg xmlns="http://www.w3.org/2000/svg" xmlns:xlink="http://www.w3.org/1999/xlink" version="1.1">
<metadata>
Created by FontForge 20170731 at Mon Nov 30 02:24:03 2015
 By Aleksey,,,
(C) 2015 Frere-Jones Type LLC
</metadata>
<defs>
<font id="Mallory-Light" horiz-adv-x="0" >
  <font-face 
    font-family="Mallory Light"
    font-weight="350"
    font-stretch="normal"
    units-per-em="1000"
    panose-1="2 1 4 1 3 5 1 2 3 4"
    ascent="800"
    descent="-200"
    x-height="494"
    cap-height="700"
    bbox="-215 -263 1396 1072"
    underline-thickness="50"
    underline-position="-200"
    unicode-range="U+0020-FB02"
  />
<missing-glyph horiz-adv-x="700" 
d="M100 -240v1200h500v-1200h-500zM192 910l158 -481l157 481h-315zM321 360l-171 514v-1028zM378 360l172 -514v1028zM350 291l-158 -481h315z" />
    <glyph glyph-name="fi" unicode="fi" horiz-adv-x="639" 
d="M559 670q0 -20 -14 -34.5t-35 -14.5q-20 0 -34 14.5t-14 34.5t14 34.5t35 14.5q20 0 34 -14.5t14 -34.5zM477 0v494h67v-494h-67zM366 436h-168v-436h-67v436h-90v58h90v92q0 79 42 123.5t113 44.5q44 0 83 -21l12 -69l-2 -1q-49 30 -90 30q-42 0 -66.5 -27.5
t-24.5 -76.5v-95h168v-58z" />
    <glyph glyph-name="fl" unicode="fl" horiz-adv-x="639" 
d="M477 0v730l67 25v-755h-67zM366 436h-168v-436h-67v436h-90v58h90v92q0 79 42 123.5t113 44.5q44 0 83 -21l12 -69l-2 -1q-49 30 -90 30q-42 0 -66.5 -27.5t-24.5 -76.5v-95h168v-58z" />
    <glyph glyph-name="f_f" unicode="ff" horiz-adv-x="764" 
d="M748 436h-168v-436h-67v436h-90v58h90v92q0 79 42 123.5t113 44.5q44 0 83 -21l12 -69l-2 -1q-49 30 -90 30q-42 0 -66.5 -27.5t-24.5 -76.5v-95h168v-58zM366 436h-168v-436h-67v436h-90v58h90v92q0 79 42 123.5t113 44.5q44 0 83 -21l12 -69l-2 -1q-49 30 -90 30
q-42 0 -66.5 -27.5t-24.5 -76.5v-95h168v-58z" />
    <glyph glyph-name="f_f_i" unicode="ffi" horiz-adv-x="1021" 
d="M941 670q0 -20 -14 -34.5t-35 -14.5q-20 0 -34 14.5t-14 34.5t14 34.5t35 14.5q20 0 34 -14.5t14 -34.5zM859 0v494h67v-494h-67zM748 436h-168v-436h-67v436h-90v58h90v92q0 79 42 123.5t113 44.5q44 0 83 -21l12 -69l-2 -1q-49 30 -90 30q-42 0 -66.5 -27.5
t-24.5 -76.5v-95h168v-58zM366 436h-168v-436h-67v436h-90v58h90v92q0 79 42 123.5t113 44.5q44 0 83 -21l12 -69l-2 -1q-49 30 -90 30q-42 0 -66.5 -27.5t-24.5 -76.5v-95h168v-58z" />
    <glyph glyph-name="f_f_l" unicode="ffl" horiz-adv-x="1021" 
d="M859 0v730l67 25v-755h-67zM748 436h-168v-436h-67v436h-90v58h90v92q0 79 42 123.5t113 44.5q44 0 83 -21l12 -69l-2 -1q-49 30 -90 30q-42 0 -66.5 -27.5t-24.5 -76.5v-95h168v-58zM366 436h-168v-436h-67v436h-90v58h90v92q0 79 42 123.5t113 44.5q44 0 83 -21l12 -69
l-2 -1q-49 30 -90 30q-42 0 -66.5 -27.5t-24.5 -76.5v-95h168v-58z" />
    <glyph glyph-name=".notdef" horiz-adv-x="700" 
d="M100 -240v1200h500v-1200h-500zM192 910l158 -481l157 481h-315zM321 360l-171 514v-1028zM378 360l172 -514v1028zM350 291l-158 -481h315z" />
    <glyph glyph-name="uni0000" 
 />
    <glyph glyph-name="uni0000" 
 />
    <glyph glyph-name="nonmarkingreturn" horiz-adv-x="333" 
 />
    <glyph glyph-name="space" unicode=" " horiz-adv-x="218" 
 />
    <glyph glyph-name="exclam" unicode="!" horiz-adv-x="251" 
d="M161 567l-20 -363h-31l-20 363v133h71v-133zM72 46q0 22 15.5 37.5t37.5 15.5t38 -15.5t16 -37.5t-16 -37.5t-38 -15.5t-37.5 15.5t-15.5 37.5z" />
    <glyph glyph-name="quotedbl" unicode="&#x22;" horiz-adv-x="417" 
d="M317 700h84l-143 -289l-29 11zM131 700h85l-143 -289l-29 11z" />
    <glyph glyph-name="numbersign" unicode="#" horiz-adv-x="670" 
d="M418 250l47 200h-204l-47 -200h204zM359 -2l45 190h-204l-45 -190h-48l45 190h-122v62h136l47 200h-133v62h147l45 190h48l-45 -190h204l45 190h48l-45 -190h113v-62h-127l-47 -200h124v-62h-138l-45 -190h-48z" />
    <glyph glyph-name="dollar" unicode="$" horiz-adv-x="579" 
d="M132 528q0 -50 34 -80t111 -55l24 247q-6 1 -17 1q-66 0 -109 -31t-43 -82zM459 182q0 50 -33.5 80.5t-109.5 54.5l-25 -258q76 0 122 33t46 90zM270 -163h-48l17 164q-101 13 -178 69l-16 82l2 1q100 -75 199 -90l25 267q-49 14 -83 29t-62.5 37t-42.5 53.5t-14 73.5
q0 82 63 130.5t160 48.5h14l12 121h48l-12 -126q73 -11 136 -52v-75h-2q-67 48 -141 64l-25 -255q99 -29 149.5 -71t50.5 -123q0 -86 -66 -136.5t-170 -50.5z" />
    <glyph glyph-name="percent" unicode="%" horiz-adv-x="921" 
d="M217 315q-73 0 -119 56t-46 143t46.5 143.5t119.5 56.5t119 -56t46 -143q0 -88 -46.5 -144t-119.5 -56zM193 -2l248 365l224 339h63l-247 -365l-225 -339h-63zM110 515q0 -65 30.5 -106.5t78.5 -41.5q47 0 76.5 41t29.5 105q0 65 -30 107t-78 42q-47 0 -77 -41.5
t-30 -105.5zM705 385q74 0 119.5 -55.5t45.5 -143.5q0 -87 -46.5 -143.5t-119.5 -56.5t-119 56t-46 143q0 88 46.5 144t119.5 56zM812 185q0 65 -30 106.5t-79 41.5q-46 0 -76 -41t-30 -105q0 -65 30 -107t78 -42q46 0 76.5 41.5t30.5 105.5z" />
    <glyph glyph-name="ampersand" unicode="&#x26;" horiz-adv-x="686" 
d="M214 548q0 -64 66 -156q144 80 144 164q0 44 -29 73t-70 29q-47 0 -79 -31.5t-32 -78.5zM232 53q88 0 180 98q-95 94 -155 171q-75 -40 -110.5 -76.5t-35.5 -79.5q0 -48 34 -80.5t87 -32.5zM575 0q-76 67 -120 110q-112 -117 -228 -117q-81 0 -131.5 48t-50.5 120
q0 64 43.5 112.5t134.5 93.5q-75 105 -75 179q0 72 51.5 120t130.5 48q68 0 114 -44t46 -110q0 -117 -177 -211q61 -75 140 -153q43 53 121 161h74l-1 -3q-97 -134 -152 -199q75 -72 168 -152v-3h-88z" />
    <glyph glyph-name="quotesingle" unicode="'" horiz-adv-x="231" 
d="M131 700h85l-143 -289l-29 11z" />
    <glyph glyph-name="parenleft" unicode="(" horiz-adv-x="398" 
d="M144 305q0 -128 58.5 -229.5t165.5 -190.5l-21 -25q-129 94 -198 198.5t-69 246.5t69 246.5t198 198.5l21 -25q-107 -89 -165.5 -190.5t-58.5 -229.5z" />
    <glyph glyph-name="parenright" unicode=")" horiz-adv-x="398" 
d="M254 305q0 236 -225 420l21 25q62 -45 108 -89.5t83.5 -98.5t56.5 -118.5t19 -138.5t-19 -138.5t-56.5 -118.5t-83.5 -98.5t-108 -89.5l-21 25q225 184 225 420z" />
    <glyph glyph-name="asterisk" unicode="*" horiz-adv-x="524" 
d="M224 710h77l-32 -176h-14zM452 599l24 -74l-174 -26l-5 14zM223 499l-174 26l23 74l156 -86zM418 348l-63 -44l-76 155l11 9zM246 459l-77 -155l-62 44l128 120z" />
    <glyph glyph-name="plus" unicode="+" horiz-adv-x="600" 
d="M550 322h-219v-222h-62v222h-219v59h219v220h62v-220h219v-59z" />
    <glyph glyph-name="comma" unicode="," horiz-adv-x="183" 
d="M8 -161l-21 19q46 57 62 97t16 109v24h69q0 -88 -28 -138t-98 -111z" />
    <glyph glyph-name="hyphen" unicode="-" horiz-adv-x="371" 
d="M60 303h250v-63h-250v63z" />
    <glyph glyph-name="period" unicode="." horiz-adv-x="183" 
d="M38 46q0 22 15.5 37.5t37.5 15.5t37.5 -15.5t15.5 -37.5t-15.5 -37.5t-37.5 -15.5t-37.5 15.5t-15.5 37.5z" />
    <glyph glyph-name="slash" unicode="/" horiz-adv-x="440" 
d="M-6 -130l354 870h59l-355 -870h-58z" />
    <glyph glyph-name="zero" unicode="0" horiz-adv-x="661" 
d="M330 -14q-121 0 -193 103t-72 260q0 158 73 261.5t193 103.5t192.5 -103t72.5 -260q0 -158 -73 -261.5t-193 -103.5zM134 351q0 -132 54.5 -217t143.5 -85q86 0 140.5 84t54.5 216t-55 217t-143 85q-87 0 -141 -85t-54 -215z" />
    <glyph glyph-name="one" unicode="1" horiz-adv-x="423" 
d="M296 0h-68v603l-185 -124v75l238 157l15 -4v-707z" />
    <glyph glyph-name="two" unicode="2" horiz-adv-x="572" 
d="M60 0l-6 16l255 299q58 68 81.5 112.5t23.5 92.5q0 54 -36.5 91t-93.5 37q-112 0 -207 -144h-2l-12 78q92 128 224 128q85 0 139.5 -50.5t54.5 -133.5q0 -60 -25.5 -111t-90.5 -126l-198 -227h358l-34 -62h-431z" />
    <glyph glyph-name="three" unicode="3" horiz-adv-x="549" 
d="M263 -11q-60 0 -104 15t-94 45l-13 82l2 1q108 -80 207 -80q64 0 110 35.5t46 92.5q0 136 -245 161v29q121 31 176 72t55 98q0 49 -36 79t-92 30q-91 0 -197 -81h-2v76q100 67 203 67q88 0 141 -46t53 -119q0 -119 -160 -180q87 -22 130.5 -72t43.5 -115q0 -84 -67 -137
t-157 -53z" />
    <glyph glyph-name="four" unicode="4" horiz-adv-x="618" 
d="M400 231v384l-273 -384h273zM581 174h-117v-174h-65v174h-363l-4 18l367 513l4 -2v2h61v-474h117v-57z" />
    <glyph glyph-name="five" unicode="5" horiz-adv-x="573" 
d="M267 -12q-104 0 -190 48l-11 76q102 -62 200 -62q79 0 130 46.5t51 117.5q0 72 -47.5 113.5t-125.5 41.5q-90 0 -171 -42l-14 8l26 365h372v-63h-312l-17 -230q62 24 129 24q102 0 166 -58t64 -156t-69.5 -163.5t-180.5 -65.5z" />
    <glyph glyph-name="six" unicode="6" horiz-adv-x="586" 
d="M293 -14q-107 0 -170.5 66t-63.5 177q0 73 33 145t112 179l110 147h81l-130 -173q-46 -62 -77 -113q65 24 130 24q91 0 154 -59t63 -157t-68.5 -167t-173.5 -69zM295 47q76 0 124 49.5t48 121.5q0 79 -50 120.5t-131 41.5q-57 0 -127 -20q-31 -65 -31 -129
q0 -84 45.5 -134t121.5 -50z" />
    <glyph glyph-name="seven" unicode="7" horiz-adv-x="559" 
d="M199 0h-75l311 638h-375l-15 62h477l5 -12z" />
    <glyph glyph-name="eight" unicode="8" horiz-adv-x="605" 
d="M302 -12q-103 0 -172 55t-69 137q0 60 36.5 106.5t96.5 69.5q-52 25 -83 69t-31 98q0 79 63.5 134t159.5 55t159 -55t63 -134q0 -54 -30.5 -98t-82.5 -68q60 -24 96 -70t36 -107q0 -82 -69.5 -137t-172.5 -55zM148 520q0 -57 45.5 -96.5t109.5 -39.5t109.5 39.5
t45.5 96.5q0 56 -44.5 94t-112.5 38t-110.5 -38t-42.5 -94zM129 188q0 -62 51 -101t124 -39t123 39t50 101q0 59 -53 98.5t-122 39.5q-68 0 -120.5 -39.5t-52.5 -98.5z" />
    <glyph glyph-name="nine" unicode="9" horiz-adv-x="586" 
d="M272 0h-81l129 173q41 53 72 104q-62 -22 -124 -22q-92 0 -154.5 60t-62.5 159q0 100 68 170t174 70t169.5 -66t63.5 -177q0 -74 -33 -146t-112 -178zM300 313q54 0 123 19q34 69 34 137q0 84 -45.5 134t-120.5 50q-76 0 -124 -50.5t-48 -124.5q0 -81 49 -123t132 -42z
" />
    <glyph glyph-name="colon" unicode=":" horiz-adv-x="199" 
d="M46 448q0 22 15.5 37.5t37.5 15.5t38 -15.5t16 -37.5t-15.5 -37.5t-38.5 -15.5q-22 0 -37.5 15.5t-15.5 37.5zM46 46q0 22 15.5 37.5t37.5 15.5t38 -15.5t16 -37.5t-16 -37.5t-38 -15.5t-37.5 15.5t-15.5 37.5z" />
    <glyph glyph-name="semicolon" unicode=";" horiz-adv-x="199" 
d="M49 448q0 22 15.5 37.5t37.5 15.5t37.5 -15.5t15.5 -37.5t-15.5 -37.5t-37.5 -15.5t-37.5 15.5t-15.5 37.5zM13 -161l-21 19q46 57 62 97t16 109v24h69q0 -88 -28 -138t-98 -111z" />
    <glyph glyph-name="less" unicode="&#x3c;" horiz-adv-x="600" 
d="M526 98l-462 242v23l462 241v-65l-362 -187l362 -187v-67z" />
    <glyph glyph-name="equal" unicode="=" horiz-adv-x="600" 
d="M540 422h-480v59h480v-59zM540 222h-480v59h480v-59z" />
    <glyph glyph-name="greater" unicode="&#x3e;" horiz-adv-x="600" 
d="M74 98v66l362 187l-362 187v66l462 -241v-23z" />
    <glyph glyph-name="question" unicode="?" horiz-adv-x="482" 
d="M43 614q92 96 207 96q78 0 128.5 -44t50.5 -116q0 -55 -30.5 -91t-92.5 -75q-56 -34 -74.5 -53t-18.5 -42q0 -27 30 -80h-41q-28 34 -38.5 55t-10.5 46q0 33 24 57.5t84 61.5q56 34 79 60t23 62q0 42 -33 69.5t-83 27.5q-99 0 -202 -112l-2 1v77zM164 46q0 22 15.5 37.5
t37.5 15.5t37.5 -15.5t15.5 -37.5t-15.5 -37.5t-37.5 -15.5t-37.5 15.5t-15.5 37.5z" />
    <glyph glyph-name="at" unicode="@" horiz-adv-x="1044" 
d="M480 -185q-197 0 -309.5 106t-112.5 287q0 139 69.5 262t193 199t270.5 76q179 0 288 -103.5t109 -273.5q0 -131 -66 -219.5t-171 -88.5q-51 0 -85.5 26.5t-38.5 68.5q-112 -95 -199 -95q-61 0 -99 39.5t-38 108.5q0 111 89 203t209 92q60 0 118 -35l34 28h20l-69 -292
q-5 -23 -5 -38q0 -35 21 -54.5t57 -19.5q81 0 137 80.5t56 194.5q0 161 -100.5 255.5t-267.5 94.5q-137 0 -253 -71.5t-182 -188t-66 -247.5q0 -171 104 -268.5t288 -97.5q150 0 279 50v-31q-136 -48 -280 -48zM447 116q72 0 185 89l52 216q-46 27 -100 27q-93 0 -162 -73
t-69 -160q0 -48 25 -73.5t69 -25.5z" />
    <glyph glyph-name="A" unicode="A" horiz-adv-x="781" 
d="M556 254l-165 372l-169 -372h334zM669 0l-85 191h-390l-87 -191h-73l326 705h67l318 -705h-76z" />
    <glyph glyph-name="B" unicode="B" horiz-adv-x="607" 
d="M309 0h-204v700h200q97 0 154.5 -48t57.5 -132q0 -54 -29.5 -94.5t-81.5 -62.5q67 -18 105.5 -62t38.5 -107q0 -88 -66.5 -141t-174.5 -53zM173 638v-251h120q68 0 111 36t43 93q0 56 -39.5 89t-107.5 33h-127zM173 62h139q78 0 123 37t45 96q0 61 -47 96.5t-122 35.5
h-138v-265z" />
    <glyph glyph-name="C" unicode="C" horiz-adv-x="729" 
d="M405 -12q-142 0 -244 101t-102 261q0 153 106 257.5t253 104.5q141 0 242 -95v-85h-2q-113 115 -243 115q-115 0 -199.5 -86.5t-84.5 -208.5q0 -131 84 -215t195 -84q141 0 258 119l2 -2l-11 -84q-110 -98 -254 -98z" />
    <glyph glyph-name="D" unicode="D" horiz-adv-x="782" 
d="M327 636h-152v-572h156q137 0 228 77t91 209q0 134 -90 210t-233 76zM105 0v700h224q178 0 285.5 -94t107.5 -254q0 -161 -111 -256.5t-282 -95.5h-224z" />
    <glyph glyph-name="E" unicode="E" horiz-adv-x="570" 
d="M105 0v700h384l23 -64h-337v-248h286v-64h-286v-260h340l-23 -64h-387z" />
    <glyph glyph-name="F" unicode="F" horiz-adv-x="537" 
d="M441 311h-266v-311h-70v700h398l-23 -64h-305v-261h266v-64z" />
    <glyph glyph-name="G" unicode="G" horiz-adv-x="793" 
d="M695 71q-130 -81 -275 -81q-157 0 -259 97.5t-102 259.5q0 159 108.5 261t272.5 102q134 0 241 -64v-79q-119 77 -243 77q-130 0 -218.5 -84t-88.5 -211q0 -134 84 -214t210 -80q111 0 201 53v183h-223v65h292v-285z" />
    <glyph glyph-name="H" unicode="H" horiz-adv-x="814" 
d="M639 0v326h-464v-326h-70v700h70v-309h464v309h70v-700h-70z" />
    <glyph glyph-name="I" unicode="I" horiz-adv-x="291" 
d="M110 0v700h70v-700h-70z" />
    <glyph glyph-name="J" unicode="J" horiz-adv-x="453" 
d="M279 180v520h70v-527q0 -85 -47.5 -134t-126.5 -49q-70 0 -123 40l-17 83l2 1q64 -58 129 -58q52 0 82.5 33t30.5 91z" />
    <glyph glyph-name="K" unicode="K" horiz-adv-x="680" 
d="M566 0l-356 328h-35v-328h-70v700h70v-311h36l352 311h92v-3l-388 -337l394 -357v-3h-95z" />
    <glyph glyph-name="L" unicode="L" horiz-adv-x="527" 
d="M105 0v700h70v-636h318v-64h-388z" />
    <glyph glyph-name="M" unicode="M" horiz-adv-x="1017" 
d="M500 -11l-329 636v-625h-66v700h102l301 -588l300 588h104v-700h-69v627l-329 -638h-14z" />
    <glyph glyph-name="N" unicode="N" horiz-adv-x="825" 
d="M694 -4l-522 603v-599h-67v700h66l481 -555v555h67v-704h-25z" />
    <glyph glyph-name="O" unicode="O" horiz-adv-x="845" 
d="M59 349q0 153 105.5 259t258.5 106q152 0 257.5 -105.5t105.5 -257.5q0 -154 -106 -259.5t-259 -105.5q-152 0 -257 105.5t-105 257.5zM131 351q0 -126 85 -213t206 -87q119 0 205.5 87t86.5 211q0 126 -86 213t-208 87q-119 0 -204 -86.5t-85 -211.5z" />
    <glyph glyph-name="P" unicode="P" horiz-adv-x="575" 
d="M175 637v-301h112q77 0 125.5 41.5t48.5 112.5q0 67 -47 107t-122 40h-117zM286 273h-111v-273h-70v700h190q105 0 171 -55.5t66 -154.5q0 -101 -69 -159t-177 -58z" />
    <glyph glyph-name="Q" unicode="Q" horiz-adv-x="845" 
d="M663 -158q-77 0 -137 33t-118 111q-148 5 -248.5 110t-100.5 253q0 153 105.5 259t258.5 106q152 0 257.5 -105.5t105.5 -257.5q0 -133 -81 -232t-207 -125q36 -46 76.5 -66.5t95.5 -20.5q45 0 88 13l1 -1l-22 -67q-40 -10 -74 -10zM420 649q-119 0 -204 -86.5
t-85 -211.5q0 -126 85 -213t206 -87q119 0 205.5 87t86.5 211q0 126 -86 213t-208 87z" />
    <glyph glyph-name="R" unicode="R" horiz-adv-x="620" 
d="M174 637v-283h116q68 0 115.5 40.5t47.5 103.5q0 64 -44.5 101.5t-114.5 37.5h-120zM534 0l-260 291h-99v-291h-70v700h192q99 0 163 -53t64 -149q0 -73 -48 -126.5t-124 -70.5l271 -301h-89z" />
    <glyph glyph-name="S" unicode="S" horiz-adv-x="556" 
d="M73 529q0 82 58 132.5t148 50.5q100 0 183 -55v-79h-2q-91 69 -184 69q-59 0 -97 -31t-38 -81q0 -47 35.5 -77.5t127.5 -72.5q97 -46 141.5 -91.5t44.5 -115.5q0 -85 -62.5 -137.5t-155.5 -52.5q-116 0 -208 75l-19 97l2 1q110 -108 229 -108q60 0 103 33t43 87
q0 48 -38 80.5t-126 72.5q-94 43 -139.5 87.5t-45.5 115.5z" />
    <glyph glyph-name="T" unicode="T" horiz-adv-x="704" 
d="M671 636h-284v-636h-70v636h-284v64h638v-64z" />
    <glyph glyph-name="U" unicode="U" horiz-adv-x="784" 
d="M96 295v405h70v-407q0 -113 62 -176.5t166 -63.5q103 0 164.5 63t61.5 179v405h68v-404q0 -144 -79.5 -226t-216.5 -82t-216.5 82.5t-79.5 224.5z" />
    <glyph glyph-name="V" unicode="V" horiz-adv-x="769" 
d="M373 -14l-337 714h78l270 -587l275 587h75l-344 -714h-17z" />
    <glyph glyph-name="W" unicode="W" horiz-adv-x="1181" 
d="M288 -6l-246 706h76l208 -613l260 618h14l255 -618l212 613h74l-253 -706h-68l-230 564l-234 -564h-68z" />
    <glyph glyph-name="X" unicode="X" horiz-adv-x="731" 
d="M606 0l-243 308l-241 -308h-82l281 355l-273 345h84l235 -296l234 296h82l-275 -345l283 -355h-85z" />
    <glyph glyph-name="Y" unicode="Y" horiz-adv-x="660" 
d="M366 0h-70v317l-277 383h84l229 -320l228 320h81l-275 -381v-319z" />
    <glyph glyph-name="Z" unicode="Z" horiz-adv-x="699" 
d="M620 0h-570l-6 11l481 625h-447v64h563l6 -11l-481 -625h489z" />
    <glyph glyph-name="bracketleft" unicode="[" horiz-adv-x="403" 
d="M113 -130v870h238l13 -44h-188v-782h188l-13 -44h-238z" />
    <glyph glyph-name="backslash" unicode="\" horiz-adv-x="440" 
d="M446 -130h-58l-355 870h59z" />
    <glyph glyph-name="bracketright" unicode="]" horiz-adv-x="403" 
d="M290 740v-870h-238l-13 44h188v782h-188l13 44h238z" />
    <glyph glyph-name="asciicircum" unicode="^" horiz-adv-x="600" 
d="M480 335l-180 301l-181 -301h-66l236 390h22l236 -390h-67z" />
    <glyph glyph-name="underscore" unicode="_" horiz-adv-x="600" 
d="M-2 -83h604v-49h-604v49z" />
    <glyph glyph-name="grave" unicode="`" horiz-adv-x="500" 
d="M270 596h-33l-147 161v1h89z" />
    <glyph glyph-name="a" unicode="a" horiz-adv-x="562" 
d="M212 48q76 0 200 84v114q-88 -4 -148.5 -15.5t-90 -29.5t-41.5 -36t-12 -41q0 -35 26 -55.5t66 -20.5zM412 -7v94q-117 -96 -212 -96q-63 0 -104.5 35.5t-41.5 94.5q0 36 15.5 64t53.5 52.5t111 38.5t178 16v12q0 68 -33 103.5t-93 35.5q-87 0 -181 -72l-2 1l14 76
q84 56 178 56q86 0 134.5 -50.5t48.5 -145.5v-297z" />
    <glyph glyph-name="b" unicode="b" horiz-adv-x="616" 
d="M304 -8q-75 0 -157 46l-44 -38h-13v730l67 25v-340q87 89 185 89q93 0 158.5 -69.5t65.5 -176.5q0 -118 -76.5 -192t-185.5 -74zM303 50q83 0 139.5 58.5t56.5 145.5q0 86 -51 138t-124 52q-81 0 -167 -76v-274q74 -44 146 -44z" />
    <glyph glyph-name="c" unicode="c" horiz-adv-x="538" 
d="M475 48q-85 -60 -176 -60q-109 0 -179.5 72.5t-70.5 185.5q0 108 73.5 184t185.5 76q97 0 170 -62v-81h-2q-82 82 -169 82q-82 0 -136.5 -58t-54.5 -139q0 -86 52 -142.5t134 -56.5q91 0 183 77l3 -1z" />
    <glyph glyph-name="d" unicode="d" horiz-adv-x="618" 
d="M294 50q82 0 168 77v257q-80 59 -156 59q-80 0 -134.5 -57.5t-54.5 -143.5t52.5 -139t124.5 -53zM462 0v79q-87 -89 -184 -89q-94 0 -161.5 69.5t-67.5 179.5q0 116 73 189.5t175 73.5q87 0 165 -63v291l66 25v-755h-66z" />
    <glyph glyph-name="e" unicode="e" horiz-adv-x="558" 
d="M283 449q-70 0 -117 -51.5t-52 -126.5h328q-4 79 -45.5 128.5t-113.5 49.5zM467 36q-81 -47 -167 -47q-114 0 -183 70.5t-69 188.5q0 107 67.5 183.5t170.5 76.5q106 0 164.5 -74t58.5 -180q0 -14 -2 -34h-391q9 -81 60.5 -125.5t130.5 -44.5q89 0 182 61l2 -1z" />
    <glyph glyph-name="f" unicode="f" horiz-adv-x="382" 
d="M366 436h-168v-436h-67v436h-90v58h90v92q0 79 42 123.5t113 44.5q44 0 83 -21l12 -69l-2 -1q-49 30 -90 30q-42 0 -66.5 -27.5t-24.5 -76.5v-95h168v-58z" />
    <glyph glyph-name="g" unicode="g" horiz-adv-x="618" 
d="M291 70q83 0 170 78v251q-75 46 -150 46q-82 0 -138.5 -56t-56.5 -138q0 -80 49.5 -130.5t125.5 -50.5zM277 -193q-98 0 -192 46l-16 75l2 2q107 -62 209 -62q79 0 130 47.5t51 133.5v51q-90 -88 -188 -88q-97 0 -160.5 66.5t-63.5 168.5q0 112 76.5 183.5t184.5 71.5
q78 0 159 -47l46 39h12v-445q0 -115 -68.5 -178.5t-181.5 -63.5z" />
    <glyph glyph-name="h" unicode="h" horiz-adv-x="603" 
d="M328 445q-44 0 -83.5 -24t-87.5 -80v-341h-67v730l67 25v-362q84 112 187 112q77 0 126.5 -51.5t49.5 -143.5v-310h-66v304q0 68 -34.5 104.5t-91.5 36.5z" />
    <glyph glyph-name="i" unicode="i" horiz-adv-x="257" 
d="M177 670q0 -20 -14 -34.5t-35 -14.5q-20 0 -34 14.5t-14 34.5t14 34.5t35 14.5q20 0 34 -14.5t14 -34.5zM95 0v494h67v-494h-67z" />
    <glyph glyph-name="j" unicode="j" horiz-adv-x="257" 
d="M178 670q0 -20 -14 -34.5t-35 -14.5q-20 0 -34 14.5t-14 34.5t14 34.5t35 14.5q20 0 34 -14.5t14 -34.5zM163 494v-538q0 -72 -38 -109.5t-99 -37.5q-28 0 -49 8l-10 59q24 -9 50 -9q36 0 57.5 22.5t21.5 65.5v539h67z" />
    <glyph glyph-name="k" unicode="k" horiz-adv-x="534" 
d="M430 0l-241 225h-32v-225h-67v730l67 25v-478h34l228 217h85v-3l-258 -239l272 -249v-3h-88z" />
    <glyph glyph-name="l" unicode="l" horiz-adv-x="257" 
d="M95 0v730l67 25v-755h-67z" />
    <glyph glyph-name="m" unicode="m" horiz-adv-x="930" 
d="M315 445q-75 0 -158 -102v-343h-67v483l67 18v-104q80 108 176 108q55 0 97.5 -30t60.5 -86q86 116 187 116q74 0 121.5 -51.5t47.5 -143.5v-310h-66v304q0 68 -33 104.5t-87 36.5q-75 0 -161 -100q2 -22 2 -35v-310h-66v304q0 68 -33 104.5t-88 36.5z" />
    <glyph glyph-name="n" unicode="n" horiz-adv-x="603" 
d="M328 445q-44 0 -83.5 -24t-87.5 -80v-341h-67v483l67 18v-108q84 112 187 112q77 0 126.5 -51.5t49.5 -143.5v-310h-66v304q0 68 -34.5 104.5t-91.5 36.5z" />
    <glyph glyph-name="o" unicode="o" horiz-adv-x="616" 
d="M48 246q0 107 73.5 184.5t187.5 77.5q115 0 186.5 -77t71.5 -183q0 -107 -73.5 -184.5t-187.5 -77.5q-113 0 -185.5 77t-72.5 183zM308 448q-84 0 -138 -58t-54 -143q0 -86 54.5 -144t136.5 -58q84 0 138.5 59t54.5 143q0 85 -54.5 143t-137.5 58z" />
    <glyph glyph-name="p" unicode="p" horiz-adv-x="618" 
d="M312 50q80 0 134.5 58t54.5 143q0 87 -52 140t-125 53q-81 0 -167 -76v-260q79 -58 155 -58zM321 -8q-85 0 -164 62v-242h-67v673l67 14v-83q86 88 183 88q94 0 161.5 -69.5t67.5 -179.5q0 -116 -73 -189.5t-175 -73.5z" />
    <glyph glyph-name="q" unicode="q" horiz-adv-x="616" 
d="M525 -188h-66v267q-87 -89 -185 -89q-94 0 -159.5 69t-65.5 177q0 118 76.5 192t186.5 74q74 0 156 -46l44 38h13v-682zM292 50q81 0 167 77v273q-75 43 -146 43q-83 0 -139.5 -58.5t-56.5 -144.5t51 -138t124 -52z" />
    <glyph glyph-name="r" unicode="r" horiz-adv-x="402" 
d="M157 0h-67v483l67 18v-127q60 72 97.5 100t81.5 28q14 0 32 -5l5 -70q-13 5 -29 5q-46 0 -88.5 -25.5t-98.5 -81.5v-325z" />
    <glyph glyph-name="s" unicode="s" horiz-adv-x="492" 
d="M442 132q0 -62 -54.5 -102.5t-135.5 -40.5q-108 0 -197 65l-13 81l2 2q102 -89 214 -89q52 0 86 23t34 57q0 36 -30.5 55t-112.5 40q-88 23 -130.5 53.5t-42.5 89.5q0 61 52 100t132 39q83 0 163 -48v-71l-3 -1q-84 60 -167 60q-49 0 -81 -20t-32 -53q0 -34 30 -52.5
t111 -39.5q91 -23 133 -54.5t42 -93.5z" />
    <glyph glyph-name="t" unicode="t" horiz-adv-x="434" 
d="M381 29q-54 -40 -118 -40q-62 0 -102 39t-40 112v296h-86v58h86v117l65 25v-142h207v-58h-207v-293q0 -46 24.5 -70t64.5 -24q62 0 119 54l3 -1z" />
    <glyph glyph-name="u" unicode="u" horiz-adv-x="603" 
d="M446 0v102q-84 -113 -187 -113q-77 0 -126.5 51t-49.5 144v310h66v-305q0 -67 34.5 -103.5t91.5 -36.5q44 0 83.5 24.5t87.5 79.5v341h66v-494h-66z" />
    <glyph glyph-name="v" unicode="v" horiz-adv-x="567" 
d="M271 -12l-245 506h73l182 -392l189 392h72l-256 -506h-15z" />
    <glyph glyph-name="w" unicode="w" horiz-adv-x="869" 
d="M218 -7l-187 501h70l148 -413l180 417h14l174 -418l154 414h68l-196 -501h-55l-154 371l-161 -371h-55z" />
    <glyph glyph-name="x" unicode="x" horiz-adv-x="550" 
d="M439 0l-164 209l-165 -209h-77l203 253l-192 241h78l154 -196l154 196h76l-191 -239l202 -255h-78z" />
    <glyph glyph-name="y" unicode="y" horiz-adv-x="533" 
d="M114 -191q-40 0 -80 21l-13 67l2 2q43 -28 82 -28q37 1 64 24.5t49 76.5l23 52l-215 470h73l176 -397l162 397h73l-231 -543q-30 -72 -70 -106.5t-95 -35.5z" />
    <glyph glyph-name="z" unicode="z" horiz-adv-x="527" 
d="M469 0h-437l-3 10l343 426h-310v58h420l4 -10l-344 -427h347z" />
    <glyph glyph-name="braceleft" unicode="{" horiz-adv-x="492" 
d="M440 -130h-100q-84 0 -132.5 38.5t-48.5 105.5q0 38 30 101.5t30 88.5q0 35 -25 53t-77 25l-67 8v30l67 8q52 7 77 25t25 53q0 25 -30 88.5t-30 101.5q0 67 48.5 105.5t132.5 38.5h100l13 -44h-102q-60 0 -92 -24.5t-32 -70.5q0 -29 28.5 -94t28.5 -97q0 -76 -96 -105
q96 -29 96 -105q0 -32 -28.5 -97t-28.5 -94q0 -46 32.5 -70.5t91.5 -24.5h102z" />
    <glyph glyph-name="bar" unicode="|" horiz-adv-x="359" 
d="M209 -130h-59v870h59v-870z" />
    <glyph glyph-name="braceright" unicode="}" horiz-adv-x="492" 
d="M152 -130h-100l-13 44h102q60 0 92 24.5t32 70.5q0 29 -28.5 94t-28.5 97q0 76 96 105q-96 29 -96 105q0 32 28.5 97t28.5 94q0 46 -32.5 70.5t-91.5 24.5h-102l13 44h100q84 0 132.5 -38.5t48.5 -105.5q0 -38 -30 -101.5t-30 -88.5q0 -35 25 -53t77 -25l67 -8v-30
l-67 -8q-52 -7 -77 -25t-25 -53q0 -25 30 -88.5t30 -101.5q0 -67 -48.5 -105.5t-132.5 -38.5z" />
    <glyph glyph-name="asciitilde" unicode="~" horiz-adv-x="600" 
d="M192 436q31 0 114.5 -51.5t103.5 -51.5q23 0 42 20.5t52 82.5l41 -21q-43 -87 -71.5 -118t-65.5 -31q-31 0 -114.5 52t-103.5 52q-23 0 -41.5 -20.5t-52.5 -82.5l-41 20q42 87 71 118t66 31z" />
    <glyph glyph-name="uni00A0" unicode="&#xa0;" horiz-adv-x="218" 
 />
    <glyph glyph-name="exclamdown" unicode="&#xa1;" horiz-adv-x="251" 
d="M179 654q0 -22 -16 -37.5t-38 -15.5t-37.5 15.5t-15.5 37.5t15.5 37.5t37.5 15.5t38 -15.5t16 -37.5zM90 133l20 363h31l20 -363v-133h-71v133z" />
    <glyph glyph-name="cent" unicode="&#xa2;" horiz-adv-x="530" 
d="M115 349q0 -71 37.5 -121t98.5 -64l37 376q-76 -5 -124.5 -60t-48.5 -131zM464 152q-79 -52 -172 -52l-11 -106h-48l11 110q-86 15 -139.5 81t-53.5 163q0 101 68.5 173t172.5 77l10 107h48l-10 -109q68 -9 128 -52v-77h-2q-68 60 -133 70l-36 -378q93 1 178 67l1 -1z
" />
    <glyph glyph-name="sterling" unicode="&#xa3;" horiz-adv-x="579" 
d="M523 62l-15 -62h-443l-4 16q102 94 135 136.5t33 78.5q0 35 -25 79h-151v51h121q-33 54 -47 89.5t-14 75.5q0 81 58.5 133.5t154.5 52.5q90 0 181 -51l11 -79h-3q-100 68 -191 68q-64 0 -104 -34t-40 -88q0 -35 14.5 -68.5t54.5 -98.5h212v-51h-184q18 -39 18 -75
q0 -40 -24 -76.5t-85 -96.5h337z" />
    <glyph glyph-name="yen" unicode="&#xa5;" horiz-adv-x="620" 
d="M542 167h-199v-167h-66v167h-200v46h200v94h-200v46h179l-226 347h78l203 -317l203 317h76l-226 -347h178v-46h-199v-94h199v-46z" />
    <glyph glyph-name="section" unicode="&#xa7;" horiz-adv-x="626" 
d="M308 137q48 -17 63 -23q144 46 144 128q0 46 -42 75t-154 65q-36 12 -66 24q-142 -48 -142 -128q0 -45 43 -75t154 -66zM310 -192q-114 0 -206 59l-15 81l2 1q113 -80 221 -80q56 0 92.5 25.5t36.5 64.5q0 40 -34 65.5t-123 55.5q-130 42 -185 85t-55 108q0 53 41 94
t116 64q-82 48 -82 130q0 67 56 109t145 42q102 0 188 -43v-72h-1q-101 54 -189 54q-59 0 -95.5 -26t-36.5 -65q0 -42 33 -67t123 -54q132 -43 186 -84.5t54 -107.5q0 -53 -42 -94.5t-118 -63.5q85 -48 85 -131q0 -66 -56 -108t-141 -42z" />
    <glyph glyph-name="dieresis" unicode="&#xa8;" horiz-adv-x="500" 
d="M304 648q0 20 14 34.5t35 14.5q20 0 34.5 -14.5t14.5 -34.5t-14 -34.5t-35 -14.5q-20 0 -34.5 14.5t-14.5 34.5zM98 648q0 20 14 34.5t35 14.5q20 0 34.5 -14.5t14.5 -34.5t-14 -34.5t-35 -14.5q-20 0 -34.5 14.5t-14.5 34.5z" />
    <glyph glyph-name="copyright" unicode="&#xa9;" horiz-adv-x="890" 
d="M42 349q0 166 118.5 281.5t285.5 115.5q168 0 285 -115t117 -280q0 -166 -118.5 -281.5t-285.5 -115.5q-168 0 -285 115t-117 280zM72 350q0 -154 109 -261t264 -107q156 0 264.5 107t108.5 261t-108.5 261t-264.5 107q-155 0 -264 -107t-109 -261zM622 230l2 -1l-9 -56
q-72 -51 -160 -51q-97 0 -166 63.5t-69 165.5q0 99 70 164t171 65q91 0 158 -54v-58h-2q-76 64 -157 64q-77 0 -132 -51.5t-55 -127.5q0 -83 55 -133t129 -50q88 0 165 60z" />
    <glyph glyph-name="ordfeminine" unicode="&#xaa;" horiz-adv-x="482" 
d="M192 386q59 0 145 61v75q-208 -11 -208 -83q0 -24 17.5 -38.5t45.5 -14.5zM338 348v64q-79 -70 -155 -70q-46 0 -76.5 25.5t-30.5 67.5q0 53 57 86t204 38v7q0 94 -88 94q-64 0 -135 -53h-2l11 58q60 41 133 41q64 0 99 -35t35 -102v-214zM71 245h340v-44h-340v44z" />
    <glyph glyph-name="guillemotleft" unicode="&#xab;" horiz-adv-x="627" 
d="M559 486l-174 -238l174 -240l-26 -15l-228 248v12l228 248zM307 486l-174 -238l174 -240l-26 -15l-227 248v12l227 248z" />
    <glyph glyph-name="registered" unicode="&#xae;" horiz-adv-x="550" 
d="M274 288q-92 0 -156.5 63t-64.5 154t65 154.5t157 63.5q93 0 157.5 -63t64.5 -154q0 -92 -65.5 -155t-157.5 -63zM275 701q-83 0 -140.5 -57t-57.5 -139q0 -83 57 -139.5t141 -56.5q83 0 140.5 57t57.5 139q0 84 -57 140t-141 56zM231 604v-92h36q26 0 41.5 12t15.5 34
q0 21 -15 33.5t-41 12.5h-37zM346 387l-88 94h-27v-94h-35v248h76q39 0 63.5 -20.5t24.5 -54.5q0 -28 -17 -47t-45 -27l93 -99h-45z" />
    <glyph glyph-name="macron" unicode="&#xaf;" horiz-adv-x="500" 
d="M86 675h328v-52h-328v52z" />
    <glyph glyph-name="degree" unicode="&#xb0;" horiz-adv-x="534" 
d="M268 714q89 0 149.5 -62.5t60.5 -151.5t-60.5 -151.5t-151.5 -62.5q-90 0 -149.5 62.5t-59.5 150.5q0 89 60.5 152t150.5 63zM268 337q64 0 108 47.5t44 114.5q0 68 -44.5 116t-108.5 48t-108 -47.5t-44 -114.5q0 -68 43.5 -116t109.5 -48z" />
    <glyph glyph-name="plusminus" unicode="&#xb1;" horiz-adv-x="600" 
d="M543 420h-212v-221h-62v221h-212v60h212v220h62v-220h212v-60zM543 0h-486v58h486v-58z" />
    <glyph glyph-name="acute" unicode="&#xb4;" horiz-adv-x="500" 
d="M230 596l91 162h89v-1l-147 -161h-33z" />
    <glyph glyph-name="uni00B5" unicode="&#xb5;" horiz-adv-x="610" 
d="M153 -148v-40h-63v682h67v-305q0 -67 34.5 -103.5t91.5 -36.5q45 0 84.5 24.5t86.5 80.5v340h66v-494h-50l-12 106q-86 -113 -179 -113q-86 0 -134 70z" />
    <glyph glyph-name="paragraph" unicode="&#xb6;" horiz-adv-x="668" 
d="M420 0h-48v255h-56q-111 0 -186 59t-75 162q0 102 76.5 163t186.5 61h253v-700h-49v640h-102v-640zM317 300h55v340h-55q-83 0 -138.5 -46t-55.5 -126q0 -76 55.5 -122t138.5 -46z" />
    <glyph glyph-name="periodcentered" unicode="&#xb7;" horiz-adv-x="212" 
d="M53 271q0 22 15.5 38t37.5 16t37.5 -16t15.5 -38t-15.5 -37.5t-37.5 -15.5t-37.5 15.5t-15.5 37.5z" />
    <glyph glyph-name="cedilla" unicode="&#xb8;" horiz-adv-x="500" 
d="M230 -195q-34 0 -66 9l-21 40l2 2q42 -15 79 -15q68 0 68 38q0 31 -54 31q-21 0 -58 -7l-3 4l58 98h45l-38 -60h10q92 0 92 -64q0 -34 -31 -55t-83 -21z" />
    <glyph glyph-name="ordmasculine" unicode="&#xba;" horiz-adv-x="495" 
d="M249 711q84 0 136.5 -55t52.5 -130q0 -76 -53.5 -131.5t-137.5 -55.5t-137 55.5t-53 130.5t54 130.5t138 55.5zM248 662q-60 0 -98 -39.5t-38 -96.5q0 -58 38 -98t97 -40q60 0 98.5 40t38.5 97q0 58 -38.5 97.5t-97.5 39.5zM73 245h349v-44h-349v44z" />
    <glyph glyph-name="guillemotright" unicode="&#xbb;" horiz-adv-x="627" 
d="M68 8l174 238l-174 240l26 15l227 -248v-12l-227 -248zM320 8l173 238l-173 240l26 15l227 -248v-12l-227 -248z" />
    <glyph glyph-name="onequarter" unicode="&#xbc;" horiz-adv-x="780" 
d="M199 287h-54v336l-116 -73v58l161 99l9 -2v-418zM106 -2l249 363l225 341h58l-249 -363l-225 -341h-58zM633 141v216l-151 -216h151zM754 98h-70v-98h-51v98h-219l-2 13l212 305h60v-275h70v-43z" />
    <glyph glyph-name="onehalf" unicode="&#xbd;" horiz-adv-x="815" 
d="M199 287h-54v336l-116 -73v58l161 99l9 -2v-418zM106 -2l249 363l225 341h58l-249 -363l-225 -341h-58zM501 0l-5 18l150 172q34 39 48 63t14 49q0 30 -19.5 49t-52.5 19q-64 0 -125 -84h-2l-8 58q57 75 139 75q54 0 88.5 -30.5t34.5 -80.5q0 -35 -16.5 -65t-55.5 -74
l-109 -121h207l-24 -48h-264z" />
    <glyph glyph-name="threequarters" unicode="&#xbe;" horiz-adv-x="834" 
d="M159 -2l249 363l225 341h58l-249 -363l-225 -341h-58zM166 281q-66 0 -123 34l-9 58l2 1q66 -47 128 -47q37 0 62 18.5t25 49.5q0 68 -146 89v24q76 21 107 42.5t31 51.5q0 25 -20 41t-53 16q-55 0 -120 -49h-2v56q60 40 127 40q56 0 89.5 -28t33.5 -72q0 -69 -94 -104
q51 -14 77 -42.5t26 -65.5q0 -50 -41.5 -81.5t-99.5 -31.5zM686 141v216l-151 -216h151zM807 98h-70v-98h-51v98h-219l-2 13l212 305h60v-275h70v-43z" />
    <glyph glyph-name="questiondown" unicode="&#xbf;" horiz-adv-x="482" 
d="M439 86q-92 -96 -208 -96q-77 0 -127.5 44t-50.5 116q0 55 30 91.5t93 74.5q55 34 73.5 53t18.5 42q0 29 -29 80h41q27 -34 37.5 -55t10.5 -46q0 -33 -24 -58t-83 -61q-56 -34 -79 -60t-23 -62q0 -42 33 -69.5t83 -27.5q99 0 202 112l2 -1v-77zM318 654
q0 -22 -15.5 -37.5t-37.5 -15.5t-37.5 15.5t-15.5 37.5t15.5 37.5t37.5 15.5t37.5 -15.5t15.5 -37.5z" />
    <glyph glyph-name="Agrave" unicode="&#xc0;" horiz-adv-x="781" 
d="M415 773h-37l-150 140v1h97zM556 254l-165 372l-169 -372h334zM669 0l-85 191h-390l-87 -191h-73l326 705h67l318 -705h-76z" />
    <glyph glyph-name="Aacute" unicode="&#xc1;" horiz-adv-x="781" 
d="M369 773l90 141h97v-1l-150 -140h-37zM556 254l-165 372l-169 -372h334zM669 0l-85 191h-390l-87 -191h-73l326 705h67l318 -705h-76z" />
    <glyph glyph-name="Acircumflex" unicode="&#xc2;" horiz-adv-x="781" 
d="M513 773l-121 90l-121 -90h-41v1l131 140h62l131 -140v-1h-41zM556 254l-165 372l-169 -372h334zM669 0l-85 191h-390l-87 -191h-73l326 705h67l318 -705h-76z" />
    <glyph glyph-name="Atilde" unicode="&#xc3;" horiz-adv-x="781" 
d="M474 828q16 0 30 14.5t47 64.5l31 -21q-39 -67 -62 -90t-52 -23q-25 0 -83 37.5t-75 37.5q-16 0 -30 -14.5t-47 -64.5l-31 21q39 67 62 90t52 23q25 0 83 -37.5t75 -37.5zM556 254l-165 372l-169 -372h334zM669 0l-85 191h-390l-87 -191h-73l326 705h67l318 -705h-76z
" />
    <glyph glyph-name="Adieresis" unicode="&#xc4;" horiz-adv-x="781" 
d="M549 823q0 -20 -14 -34.5t-35 -14.5t-35 14.5t-14 34.5q0 21 14 35.5t35 14.5t35 -14.5t14 -35.5zM333 823q0 -20 -14 -34.5t-35 -14.5t-35 14.5t-14 34.5q0 21 14 35.5t35 14.5t35 -14.5t14 -35.5zM556 254l-165 372l-169 -372h334zM669 0l-85 191h-390l-87 -191h-73
l326 705h67l318 -705h-76z" />
    <glyph glyph-name="Aring" unicode="&#xc5;" horiz-adv-x="781" 
d="M393 855q-38 0 -63.5 -25t-25.5 -61q0 -35 25.5 -60.5t63.5 -25.5t63.5 25t25.5 61q0 35 -25.5 60.5t-63.5 25.5zM556 254l-165 373l-169 -373h334zM669 0l-85 191h-390l-87 -191h-73l305 661q-32 14 -51 43.5t-19 64.5q0 49 35.5 84t88.5 35t88.5 -35t35.5 -84
q0 -35 -19.5 -64.5t-51.5 -43.5l299 -661h-76z" />
    <glyph glyph-name="AE" unicode="&#xc6;" horiz-adv-x="968" 
d="M504 254v382l-252 -382h252zM504 0v191h-293l-126 -191h-75l461 700h416l23 -64h-336v-248h285v-64h-285v-260h339l-23 -64h-386z" />
    <glyph glyph-name="Ccedilla" unicode="&#xc7;" horiz-adv-x="729" 
d="M386 -200q-34 0 -66 9l-21 40l2 2q42 -15 79 -15q68 0 68 38q0 31 -54 31q-21 0 -58 -7l-3 4l51 87q-135 8 -230 107.5t-95 253.5q0 153 106 257.5t253 104.5q141 0 242 -95v-85h-2q-113 115 -243 115q-115 0 -199.5 -86.5t-84.5 -208.5q0 -131 84 -215t195 -84
q141 0 258 119l2 -2l-11 -84q-101 -90 -230 -97l-31 -49h10q92 0 92 -64q0 -34 -31 -55t-83 -21z" />
    <glyph glyph-name="Egrave" unicode="&#xc8;" horiz-adv-x="570" 
d="M330 773h-37l-150 140v1h97zM105 0v700h384l23 -64h-337v-248h286v-64h-286v-260h340l-23 -64h-387z" />
    <glyph glyph-name="Eacute" unicode="&#xc9;" horiz-adv-x="570" 
d="M284 773l90 141h97v-1l-150 -140h-37zM105 0v700h384l23 -64h-337v-248h286v-64h-286v-260h340l-23 -64h-387z" />
    <glyph glyph-name="Ecircumflex" unicode="&#xca;" horiz-adv-x="570" 
d="M428 773l-121 90l-121 -90h-41v1l131 140h62l131 -140v-1h-41zM105 0v700h384l23 -64h-337v-248h286v-64h-286v-260h340l-23 -64h-387z" />
    <glyph glyph-name="Edieresis" unicode="&#xcb;" horiz-adv-x="570" 
d="M464 823q0 -20 -14 -34.5t-35 -14.5t-35 14.5t-14 34.5q0 21 14 35.5t35 14.5t35 -14.5t14 -35.5zM248 823q0 -20 -14 -34.5t-35 -14.5t-35 14.5t-14 34.5q0 21 14 35.5t35 14.5t35 -14.5t14 -35.5zM105 0v700h384l23 -64h-337v-248h286v-64h-286v-260h340l-23 -64h-387z
" />
    <glyph glyph-name="Igrave" unicode="&#xcc;" horiz-adv-x="291" 
d="M168 773h-37l-150 140v1h97zM110 0v700h70v-700h-70z" />
    <glyph glyph-name="Iacute" unicode="&#xcd;" horiz-adv-x="291" 
d="M122 773l90 141h97v-1l-150 -140h-37zM110 0v700h70v-700h-70z" />
    <glyph glyph-name="Icircumflex" unicode="&#xce;" horiz-adv-x="291" 
d="M266 773l-121 90l-121 -90h-41v1l131 140h62l131 -140v-1h-41zM110 0v700h70v-700h-70z" />
    <glyph glyph-name="Idieresis" unicode="&#xcf;" horiz-adv-x="291" 
d="M302 823q0 -20 -14 -34.5t-35 -14.5t-35 14.5t-14 34.5q0 21 14 35.5t35 14.5t35 -14.5t14 -35.5zM86 823q0 -20 -14 -34.5t-35 -14.5t-35 14.5t-14 34.5q0 21 14 35.5t35 14.5t35 -14.5t14 -35.5zM110 0v700h70v-700h-70z" />
    <glyph glyph-name="Eth" unicode="&#xd0;" horiz-adv-x="802" 
d="M394 332h-200v-268h157q137 0 228 77t91 209q0 134 -90 210t-233 76h-153v-252h200v-52zM125 0v332h-106v52h106v316h224q178 0 285.5 -94t107.5 -254q0 -161 -111 -256.5t-282 -95.5h-224z" />
    <glyph glyph-name="Ntilde" unicode="&#xd1;" horiz-adv-x="825" 
d="M494 828q16 0 30 14.5t47 64.5l31 -21q-39 -67 -62 -90t-52 -23q-25 0 -83 37.5t-75 37.5q-16 0 -30 -14.5t-47 -64.5l-31 21q39 67 62 90t52 23q25 0 83 -37.5t75 -37.5zM694 -4l-522 603v-599h-67v700h66l481 -555v555h67v-704h-25z" />
    <glyph glyph-name="Ograve" unicode="&#xd2;" horiz-adv-x="845" 
d="M445 778h-37l-150 140v1h97zM59 349q0 153 105.5 259t258.5 106q152 0 257.5 -105.5t105.5 -257.5q0 -154 -106 -259.5t-259 -105.5q-152 0 -257 105.5t-105 257.5zM131 351q0 -126 85 -213t206 -87q119 0 205.5 87t86.5 211q0 126 -86 213t-208 87q-119 0 -204 -86.5
t-85 -211.5z" />
    <glyph glyph-name="Oacute" unicode="&#xd3;" horiz-adv-x="845" 
d="M399 778l90 141h97v-1l-150 -140h-37zM59 349q0 153 105.5 259t258.5 106q152 0 257.5 -105.5t105.5 -257.5q0 -154 -106 -259.5t-259 -105.5q-152 0 -257 105.5t-105 257.5zM131 351q0 -126 85 -213t206 -87q119 0 205.5 87t86.5 211q0 126 -86 213t-208 87
q-119 0 -204 -86.5t-85 -211.5z" />
    <glyph glyph-name="Ocircumflex" unicode="&#xd4;" horiz-adv-x="845" 
d="M543 778l-121 90l-121 -90h-41v1l131 140h62l131 -140v-1h-41zM59 349q0 153 105.5 259t258.5 106q152 0 257.5 -105.5t105.5 -257.5q0 -154 -106 -259.5t-259 -105.5q-152 0 -257 105.5t-105 257.5zM131 351q0 -126 85 -213t206 -87q119 0 205.5 87t86.5 211
q0 126 -86 213t-208 87q-119 0 -204 -86.5t-85 -211.5z" />
    <glyph glyph-name="Otilde" unicode="&#xd5;" horiz-adv-x="845" 
d="M504 833q16 0 30 14.5t47 64.5l31 -21q-39 -67 -62 -90t-52 -23q-25 0 -83 37.5t-75 37.5q-16 0 -30 -14.5t-47 -64.5l-31 21q39 67 62 90t52 23q25 0 83 -37.5t75 -37.5zM59 349q0 153 105.5 259t258.5 106q152 0 257.5 -105.5t105.5 -257.5q0 -154 -106 -259.5
t-259 -105.5q-152 0 -257 105.5t-105 257.5zM131 351q0 -126 85 -213t206 -87q119 0 205.5 87t86.5 211q0 126 -86 213t-208 87q-119 0 -204 -86.5t-85 -211.5z" />
    <glyph glyph-name="Odieresis" unicode="&#xd6;" horiz-adv-x="845" 
d="M579 828q0 -20 -14 -34.5t-35 -14.5t-35 14.5t-14 34.5q0 21 14 35.5t35 14.5t35 -14.5t14 -35.5zM363 828q0 -20 -14 -34.5t-35 -14.5t-35 14.5t-14 34.5q0 21 14 35.5t35 14.5t35 -14.5t14 -35.5zM59 349q0 153 105.5 259t258.5 106q152 0 257.5 -105.5t105.5 -257.5
q0 -154 -106 -259.5t-259 -105.5q-152 0 -257 105.5t-105 257.5zM131 351q0 -126 85 -213t206 -87q119 0 205.5 87t86.5 211q0 126 -86 213t-208 87q-119 0 -204 -86.5t-85 -211.5z" />
    <glyph glyph-name="multiply" unicode="&#xd7;" horiz-adv-x="600" 
d="M478 130l-178 182l-179 -182l-43 44l181 178l-181 178l44 45l178 -181l178 180l43 -44l-180 -177l181 -178z" />
    <glyph glyph-name="Oslash" unicode="&#xd8;" horiz-adv-x="845" 
d="M129 348q0 -124 81 -210l385 459q-76 54 -172 54q-122 0 -208 -87.5t-86 -215.5zM421 49q122 0 208.5 88t86.5 215q0 124 -81 210l-385 -459q76 -54 171 -54zM421 -14q-117 0 -213 69l-83 -98h-71l113 133q-108 106 -108 259t105.5 259t258.5 106q118 0 214 -69l82 98h72
l-113 -133q108 -105 108 -259t-106 -259.5t-259 -105.5z" />
    <glyph glyph-name="Ugrave" unicode="&#xd9;" horiz-adv-x="784" 
d="M416 773h-37l-150 140v1h97zM96 295v405h70v-407q0 -113 62 -176.5t166 -63.5q103 0 164.5 63t61.5 179v405h68v-404q0 -144 -79.5 -226t-216.5 -82t-216.5 82.5t-79.5 224.5z" />
    <glyph glyph-name="Uacute" unicode="&#xda;" horiz-adv-x="784" 
d="M370 773l90 141h97v-1l-150 -140h-37zM96 295v405h70v-407q0 -113 62 -176.5t166 -63.5q103 0 164.5 63t61.5 179v405h68v-404q0 -144 -79.5 -226t-216.5 -82t-216.5 82.5t-79.5 224.5z" />
    <glyph glyph-name="Ucircumflex" unicode="&#xdb;" horiz-adv-x="784" 
d="M514 773l-121 90l-121 -90h-41v1l131 140h62l131 -140v-1h-41zM96 295v405h70v-407q0 -113 62 -176.5t166 -63.5q103 0 164.5 63t61.5 179v405h68v-404q0 -144 -79.5 -226t-216.5 -82t-216.5 82.5t-79.5 224.5z" />
    <glyph glyph-name="Udieresis" unicode="&#xdc;" horiz-adv-x="784" 
d="M550 823q0 -20 -14 -34.5t-35 -14.5t-35 14.5t-14 34.5q0 21 14 35.5t35 14.5t35 -14.5t14 -35.5zM334 823q0 -20 -14 -34.5t-35 -14.5t-35 14.5t-14 34.5q0 21 14 35.5t35 14.5t35 -14.5t14 -35.5zM96 295v405h70v-407q0 -113 62 -176.5t166 -63.5q103 0 164.5 63
t61.5 179v405h68v-404q0 -144 -79.5 -226t-216.5 -82t-216.5 82.5t-79.5 224.5z" />
    <glyph glyph-name="Yacute" unicode="&#xdd;" horiz-adv-x="660" 
d="M307 773l90 141h97v-1l-150 -140h-37zM366 0h-70v317l-277 383h84l229 -320l228 320h81l-275 -381v-319z" />
    <glyph glyph-name="Thorn" unicode="&#xde;" horiz-adv-x="593" 
d="M308 504h-133v-292h126q77 0 124.5 39t47.5 108q0 66 -45.5 105.5t-119.5 39.5zM299 149h-124v-149h-70v700h70v-133h137q103 0 167.5 -54.5t64.5 -150.5q0 -99 -69 -156t-176 -57z" />
    <glyph glyph-name="germandbls" unicode="&#xdf;" horiz-adv-x="640" 
d="M409 -9q-62 0 -120 27l-12 73l2 1q71 -42 130 -42q51 0 85 32.5t34 81.5q0 131 -228 182l-7 21q80 51 119 95t39 106q0 54 -35.5 89.5t-88.5 35.5q-61 0 -95 -41.5t-34 -107.5v-544h-67v436h-90v58h90v48q0 96 53.5 154t145.5 58q83 0 136 -51.5t53 -127.5
q0 -61 -30.5 -107t-91.5 -91q100 -32 149 -81.5t49 -129.5q0 -78 -52.5 -126.5t-133.5 -48.5z" />
    <glyph glyph-name="agrave" unicode="&#xe0;" horiz-adv-x="562" 
d="M307 596h-33l-147 161v1h89zM212 48q76 0 200 84v114q-88 -4 -148.5 -15.5t-90 -29.5t-41.5 -36t-12 -41q0 -35 26 -55.5t66 -20.5zM412 -7v94q-117 -96 -212 -96q-63 0 -104.5 35.5t-41.5 94.5q0 36 15.5 64t53.5 52.5t111 38.5t178 16v12q0 68 -33 103.5t-93 35.5
q-87 0 -181 -72l-2 1l14 76q84 56 178 56q86 0 134.5 -50.5t48.5 -145.5v-297z" />
    <glyph glyph-name="aacute" unicode="&#xe1;" horiz-adv-x="562" 
d="M267 596l91 162h89v-1l-147 -161h-33zM212 48q76 0 200 84v114q-88 -4 -148.5 -15.5t-90 -29.5t-41.5 -36t-12 -41q0 -35 26 -55.5t66 -20.5zM412 -7v94q-117 -96 -212 -96q-63 0 -104.5 35.5t-41.5 94.5q0 36 15.5 64t53.5 52.5t111 38.5t178 16v12q0 68 -33 103.5
t-93 35.5q-87 0 -181 -72l-2 1l14 76q84 56 178 56q86 0 134.5 -50.5t48.5 -145.5v-297z" />
    <glyph glyph-name="acircumflex" unicode="&#xe2;" horiz-adv-x="562" 
d="M410 596l-123 106l-122 -106h-35v1l126 161h62l126 -161v-1h-34zM212 48q76 0 200 84v114q-88 -4 -148.5 -15.5t-90 -29.5t-41.5 -36t-12 -41q0 -35 26 -55.5t66 -20.5zM412 -7v94q-117 -96 -212 -96q-63 0 -104.5 35.5t-41.5 94.5q0 36 15.5 64t53.5 52.5t111 38.5
t178 16v12q0 68 -33 103.5t-93 35.5q-87 0 -181 -72l-2 1l14 76q84 56 178 56q86 0 134.5 -50.5t48.5 -145.5v-297z" />
    <glyph glyph-name="atilde" unicode="&#xe3;" horiz-adv-x="562" 
d="M368 656q15 0 29 17t48 73l34 -20q-40 -75 -63 -101.5t-53 -26.5q-26 0 -83.5 42.5t-73.5 42.5q-15 0 -29.5 -17t-47.5 -72l-34 20q40 74 63 100.5t53 26.5q26 0 83.5 -42.5t73.5 -42.5zM212 48q76 0 200 84v114q-88 -4 -148.5 -15.5t-90 -29.5t-41.5 -36t-12 -41
q0 -35 26 -55.5t66 -20.5zM412 -7v94q-117 -96 -212 -96q-63 0 -104.5 35.5t-41.5 94.5q0 36 15.5 64t53.5 52.5t111 38.5t178 16v12q0 68 -33 103.5t-93 35.5q-87 0 -181 -72l-2 1l14 76q84 56 178 56q86 0 134.5 -50.5t48.5 -145.5v-297z" />
    <glyph glyph-name="adieresis" unicode="&#xe4;" horiz-adv-x="562" 
d="M341 648q0 20 14 34.5t35 14.5q20 0 34.5 -14.5t14.5 -34.5t-14 -34.5t-35 -14.5q-20 0 -34.5 14.5t-14.5 34.5zM135 648q0 20 14 34.5t35 14.5q20 0 34.5 -14.5t14.5 -34.5t-14 -34.5t-35 -14.5q-20 0 -34.5 14.5t-14.5 34.5zM212 48q76 0 200 84v114
q-88 -4 -148.5 -15.5t-90 -29.5t-41.5 -36t-12 -41q0 -35 26 -55.5t66 -20.5zM412 -7v94q-117 -96 -212 -96q-63 0 -104.5 35.5t-41.5 94.5q0 36 15.5 64t53.5 52.5t111 38.5t178 16v12q0 68 -33 103.5t-93 35.5q-87 0 -181 -72l-2 1l14 76q84 56 178 56q86 0 134.5 -50.5
t48.5 -145.5v-297z" />
    <glyph glyph-name="aring" unicode="&#xe5;" horiz-adv-x="562" 
d="M163 717q0 51 36 87.5t88 36.5t88 -36.5t36 -87.5t-36 -87t-88 -36t-88 36t-36 87zM199 717q0 -38 25.5 -64t62.5 -26t62.5 26t25.5 64t-25.5 64.5t-62.5 26.5t-62.5 -26.5t-25.5 -64.5zM212 48q76 0 200 84v114q-88 -4 -148.5 -15.5t-90 -29.5t-41.5 -36t-12 -41
q0 -35 26 -55.5t66 -20.5zM412 -7v94q-117 -96 -212 -96q-63 0 -104.5 35.5t-41.5 94.5q0 36 15.5 64t53.5 52.5t111 38.5t178 16v12q0 68 -33 103.5t-93 35.5q-87 0 -181 -72l-2 1l14 76q84 56 178 56q86 0 134.5 -50.5t48.5 -145.5v-297z" />
    <glyph glyph-name="ae" unicode="&#xe6;" horiz-adv-x="910" 
d="M637 449q-69 0 -115 -51t-51 -127h323q-4 79 -44.5 128.5t-112.5 49.5zM212 48q83 0 212 95q-17 48 -17 103q-86 -4 -145.5 -16t-89 -29.5t-41 -35.5t-11.5 -41q0 -35 26.5 -55.5t65.5 -20.5zM819 36q-79 -47 -164 -47q-144 0 -210 110q-134 -108 -240 -108
q-66 0 -108.5 35t-42.5 95q0 36 15.5 63.5t53 52t109 39t175.5 16.5v17q0 65 -30.5 99.5t-90.5 34.5q-87 0 -181 -72l-2 1l14 76q84 56 178 56q121 0 160 -96q70 100 186 100q104 0 162 -74t58 -180q0 -14 -2 -34h-386q8 -80 59 -125t129 -45q87 0 180 61l2 -1z" />
    <glyph glyph-name="ccedilla" unicode="&#xe7;" horiz-adv-x="538" 
d="M272 -198q-34 0 -66 9l-21 40l2 2q42 -15 79 -15q68 0 68 38q0 31 -54 31q-21 0 -58 -7l-3 4l51 86q-98 10 -159.5 80.5t-61.5 175.5q0 108 73.5 184t185.5 76q97 0 170 -62v-81h-2q-82 82 -169 82q-82 0 -136.5 -58t-54.5 -139q0 -86 52 -142.5t134 -56.5q91 0 183 77
l3 -1l-13 -77q-78 -55 -162 -60l-29 -46h10q92 0 92 -64q0 -34 -31 -55t-83 -21z" />
    <glyph glyph-name="egrave" unicode="&#xe8;" horiz-adv-x="558" 
d="M308 599h-33l-147 161v1h89zM283 449q-70 0 -117 -51.5t-52 -126.5h328q-4 79 -45.5 128.5t-113.5 49.5zM467 36q-81 -47 -167 -47q-114 0 -183 70.5t-69 188.5q0 107 67.5 183.5t170.5 76.5q106 0 164.5 -74t58.5 -180q0 -14 -2 -34h-391q9 -81 60.5 -125.5t130.5 -44.5
q89 0 182 61l2 -1z" />
    <glyph glyph-name="eacute" unicode="&#xe9;" horiz-adv-x="558" 
d="M268 599l91 162h89v-1l-147 -161h-33zM283 449q-70 0 -117 -51.5t-52 -126.5h328q-4 79 -45.5 128.5t-113.5 49.5zM467 36q-81 -47 -167 -47q-114 0 -183 70.5t-69 188.5q0 107 67.5 183.5t170.5 76.5q106 0 164.5 -74t58.5 -180q0 -14 -2 -34h-391q9 -81 60.5 -125.5
t130.5 -44.5q89 0 182 61l2 -1z" />
    <glyph glyph-name="ecircumflex" unicode="&#xea;" horiz-adv-x="558" 
d="M411 599l-123 106l-122 -106h-35v1l126 161h62l126 -161v-1h-34zM283 449q-70 0 -117 -51.5t-52 -126.5h328q-4 79 -45.5 128.5t-113.5 49.5zM467 36q-81 -47 -167 -47q-114 0 -183 70.5t-69 188.5q0 107 67.5 183.5t170.5 76.5q106 0 164.5 -74t58.5 -180q0 -14 -2 -34
h-391q9 -81 60.5 -125.5t130.5 -44.5q89 0 182 61l2 -1z" />
    <glyph glyph-name="edieresis" unicode="&#xeb;" horiz-adv-x="558" 
d="M342 651q0 20 14 34.5t35 14.5q20 0 34.5 -14.5t14.5 -34.5t-14 -34.5t-35 -14.5q-20 0 -34.5 14.5t-14.5 34.5zM136 651q0 20 14 34.5t35 14.5q20 0 34.5 -14.5t14.5 -34.5t-14 -34.5t-35 -14.5q-20 0 -34.5 14.5t-14.5 34.5zM283 449q-70 0 -117 -51.5t-52 -126.5h328
q-4 79 -45.5 128.5t-113.5 49.5zM467 36q-81 -47 -167 -47q-114 0 -183 70.5t-69 188.5q0 107 67.5 183.5t170.5 76.5q106 0 164.5 -74t58.5 -180q0 -14 -2 -34h-391q9 -81 60.5 -125.5t130.5 -44.5q89 0 182 61l2 -1z" />
    <glyph glyph-name="igrave" unicode="&#xec;" horiz-adv-x="257" 
d="M149 596h-33l-147 161v1h89zM95 0v494h67v-494h-67z" />
    <glyph glyph-name="iacute" unicode="&#xed;" horiz-adv-x="257" 
d="M109 596l91 162h89v-1l-147 -161h-33zM95 0v494h67v-494h-67z" />
    <glyph glyph-name="icircumflex" unicode="&#xee;" horiz-adv-x="257" 
d="M252 596l-123 106l-122 -106h-35v1l126 161h62l126 -161v-1h-34zM95 0v494h67v-494h-67z" />
    <glyph glyph-name="idieresis" unicode="&#xef;" horiz-adv-x="257" 
d="M183 648q0 20 14 34.5t35 14.5q20 0 34.5 -14.5t14.5 -34.5t-14 -34.5t-35 -14.5q-20 0 -34.5 14.5t-14.5 34.5zM-23 648q0 20 14 34.5t35 14.5q20 0 34.5 -14.5t14.5 -34.5t-14 -34.5t-35 -14.5q-20 0 -34.5 14.5t-14.5 34.5zM95 0v494h67v-494h-67z" />
    <glyph glyph-name="eth" unicode="&#xf0;" horiz-adv-x="603" 
d="M293 -14q-108 0 -176.5 70.5t-68.5 166.5q0 98 67.5 168.5t169.5 70.5q115 0 186 -87q-39 122 -176 237l-72 -73l-35 31l71 71q-39 32 -91 67l36 47q53 -35 98 -71l70 71l35 -31l-70 -69q207 -183 207 -398q0 -128 -75 -203q-68 -68 -176 -68zM296 404
q-79 0 -129.5 -51.5t-50.5 -127.5t50 -128t127 -52q81 0 132.5 52.5t51.5 132.5q0 76 -50.5 125t-130.5 49z" />
    <glyph glyph-name="ntilde" unicode="&#xf1;" horiz-adv-x="603" 
d="M387 656q15 0 29 17t48 73l34 -20q-40 -75 -63 -101.5t-53 -26.5q-26 0 -83.5 42.5t-73.5 42.5q-15 0 -29.5 -17t-47.5 -72l-34 20q40 74 63 100.5t53 26.5q26 0 83.5 -42.5t73.5 -42.5zM328 445q-44 0 -83.5 -24t-87.5 -80v-341h-67v483l67 18v-108q84 112 187 112
q77 0 126.5 -51.5t49.5 -143.5v-310h-66v304q0 68 -34.5 104.5t-91.5 36.5z" />
    <glyph glyph-name="ograve" unicode="&#xf2;" horiz-adv-x="616" 
d="M328 599h-33l-147 161v1h89zM48 246q0 107 73.5 184.5t187.5 77.5q115 0 186.5 -77t71.5 -183q0 -107 -73.5 -184.5t-187.5 -77.5q-113 0 -185.5 77t-72.5 183zM308 448q-84 0 -138 -58t-54 -143q0 -86 54.5 -144t136.5 -58q84 0 138.5 59t54.5 143q0 85 -54.5 143
t-137.5 58z" />
    <glyph glyph-name="oacute" unicode="&#xf3;" horiz-adv-x="616" 
d="M288 599l91 162h89v-1l-147 -161h-33zM48 246q0 107 73.5 184.5t187.5 77.5q115 0 186.5 -77t71.5 -183q0 -107 -73.5 -184.5t-187.5 -77.5q-113 0 -185.5 77t-72.5 183zM308 448q-84 0 -138 -58t-54 -143q0 -86 54.5 -144t136.5 -58q84 0 138.5 59t54.5 143
q0 85 -54.5 143t-137.5 58z" />
    <glyph glyph-name="ocircumflex" unicode="&#xf4;" horiz-adv-x="616" 
d="M431 599l-123 106l-122 -106h-35v1l126 161h62l126 -161v-1h-34zM48 246q0 107 73.5 184.5t187.5 77.5q115 0 186.5 -77t71.5 -183q0 -107 -73.5 -184.5t-187.5 -77.5q-113 0 -185.5 77t-72.5 183zM308 448q-84 0 -138 -58t-54 -143q0 -86 54.5 -144t136.5 -58
q84 0 138.5 59t54.5 143q0 85 -54.5 143t-137.5 58z" />
    <glyph glyph-name="otilde" unicode="&#xf5;" horiz-adv-x="616" 
d="M389 659q15 0 29 17t48 73l34 -20q-40 -75 -63 -101.5t-53 -26.5q-26 0 -83.5 42.5t-73.5 42.5q-15 0 -29.5 -17t-47.5 -72l-34 20q40 74 63 100.5t53 26.5q26 0 83.5 -42.5t73.5 -42.5zM48 246q0 107 73.5 184.5t187.5 77.5q115 0 186.5 -77t71.5 -183
q0 -107 -73.5 -184.5t-187.5 -77.5q-113 0 -185.5 77t-72.5 183zM308 448q-84 0 -138 -58t-54 -143q0 -86 54.5 -144t136.5 -58q84 0 138.5 59t54.5 143q0 85 -54.5 143t-137.5 58z" />
    <glyph glyph-name="odieresis" unicode="&#xf6;" horiz-adv-x="616" 
d="M362 651q0 20 14 34.5t35 14.5q20 0 34.5 -14.5t14.5 -34.5t-14 -34.5t-35 -14.5q-20 0 -34.5 14.5t-14.5 34.5zM156 651q0 20 14 34.5t35 14.5q20 0 34.5 -14.5t14.5 -34.5t-14 -34.5t-35 -14.5q-20 0 -34.5 14.5t-14.5 34.5zM48 246q0 107 73.5 184.5t187.5 77.5
q115 0 186.5 -77t71.5 -183q0 -107 -73.5 -184.5t-187.5 -77.5q-113 0 -185.5 77t-72.5 183zM308 448q-84 0 -138 -58t-54 -143q0 -86 54.5 -144t136.5 -58q84 0 138.5 59t54.5 143q0 85 -54.5 143t-137.5 58z" />
    <glyph glyph-name="divide" unicode="&#xf7;" horiz-adv-x="600" 
d="M247 554q0 22 15.5 38t37.5 16t37.5 -16t15.5 -38t-15.5 -37.5t-37.5 -15.5t-37.5 15.5t-15.5 37.5zM550 322h-500v59h500v-59zM247 147q0 22 15.5 37.5t37.5 15.5t37.5 -15.5t15.5 -37.5t-15.5 -37.5t-37.5 -15.5t-37.5 15.5t-15.5 37.5z" />
    <glyph glyph-name="oslash" unicode="&#xf8;" horiz-adv-x="616" 
d="M114 244q0 -82 50 -138l249 315q-44 29 -102 29q-87 0 -142 -59t-55 -147zM305 43q86 0 141.5 59.5t55.5 147.5q0 82 -50 138l-249 -316q47 -29 102 -29zM306 -14q-78 0 -140 40l-58 -73h-68l85 106q-77 77 -77 187q0 107 73.5 184.5t187.5 77.5q79 0 141 -40l58 73h68
l-85 -106q76 -78 76 -187q0 -107 -73.5 -184.5t-187.5 -77.5z" />
    <glyph glyph-name="ugrave" unicode="&#xf9;" horiz-adv-x="603" 
d="M318 596h-33l-147 161v1h89zM446 0v102q-84 -113 -187 -113q-77 0 -126.5 51t-49.5 144v310h66v-305q0 -67 34.5 -103.5t91.5 -36.5q44 0 83.5 24.5t87.5 79.5v341h66v-494h-66z" />
    <glyph glyph-name="uacute" unicode="&#xfa;" horiz-adv-x="603" 
d="M278 596l91 162h89v-1l-147 -161h-33zM446 0v102q-84 -113 -187 -113q-77 0 -126.5 51t-49.5 144v310h66v-305q0 -67 34.5 -103.5t91.5 -36.5q44 0 83.5 24.5t87.5 79.5v341h66v-494h-66z" />
    <glyph glyph-name="ucircumflex" unicode="&#xfb;" horiz-adv-x="603" 
d="M421 596l-123 106l-122 -106h-35v1l126 161h62l126 -161v-1h-34zM446 0v102q-84 -113 -187 -113q-77 0 -126.5 51t-49.5 144v310h66v-305q0 -67 34.5 -103.5t91.5 -36.5q44 0 83.5 24.5t87.5 79.5v341h66v-494h-66z" />
    <glyph glyph-name="udieresis" unicode="&#xfc;" horiz-adv-x="603" 
d="M352 648q0 20 14 34.5t35 14.5q20 0 34.5 -14.5t14.5 -34.5t-14 -34.5t-35 -14.5q-20 0 -34.5 14.5t-14.5 34.5zM146 648q0 20 14 34.5t35 14.5q20 0 34.5 -14.5t14.5 -34.5t-14 -34.5t-35 -14.5q-20 0 -34.5 14.5t-14.5 34.5zM446 0v102q-84 -113 -187 -113
q-77 0 -126.5 51t-49.5 144v310h66v-305q0 -67 34.5 -103.5t91.5 -36.5q44 0 83.5 24.5t87.5 79.5v341h66v-494h-66z" />
    <glyph glyph-name="yacute" unicode="&#xfd;" horiz-adv-x="533" 
d="M245 596l91 162h89v-1l-147 -161h-33zM114 -191q-40 0 -80 21l-13 67l2 2q43 -28 82 -28q37 1 64 24.5t49 76.5l23 52l-215 470h73l176 -397l162 397h73l-231 -543q-30 -72 -70 -106.5t-95 -35.5z" />
    <glyph glyph-name="thorn" unicode="&#xfe;" horiz-adv-x="621" 
d="M314 50q81 0 135.5 57.5t54.5 143.5q0 87 -52.5 140t-125.5 53q-81 0 -167 -76v-259q80 -59 155 -59zM323 -8q-84 0 -164 62v-243l-66 1v918l66 25v-339q86 88 183 88q94 0 161.5 -69.5t67.5 -179.5q0 -116 -73 -189.5t-175 -73.5z" />
    <glyph glyph-name="ydieresis" unicode="&#xff;" horiz-adv-x="533" 
d="M319 648q0 20 14 34.5t35 14.5q20 0 34.5 -14.5t14.5 -34.5t-14 -34.5t-35 -14.5q-20 0 -34.5 14.5t-14.5 34.5zM113 648q0 20 14 34.5t35 14.5q20 0 34.5 -14.5t14.5 -34.5t-14 -34.5t-35 -14.5q-20 0 -34.5 14.5t-14.5 34.5zM114 -191q-40 0 -80 21l-13 67l2 2
q43 -28 82 -28q37 1 64 24.5t49 76.5l23 52l-215 470h73l176 -397l162 397h73l-231 -543q-30 -72 -70 -106.5t-95 -35.5z" />
    <glyph glyph-name="Amacron" unicode="&#x100;" horiz-adv-x="781" 
d="M218 850h348v-52h-348v52zM556 254l-165 372l-169 -372h334zM669 0l-85 191h-390l-87 -191h-73l326 705h67l318 -705h-76z" />
    <glyph glyph-name="amacron" unicode="&#x101;" horiz-adv-x="562" 
d="M123 675h328v-52h-328v52zM212 48q76 0 200 84v114q-88 -4 -148.5 -15.5t-90 -29.5t-41.5 -36t-12 -41q0 -35 26 -55.5t66 -20.5zM412 -7v94q-117 -96 -212 -96q-63 0 -104.5 35.5t-41.5 94.5q0 36 15.5 64t53.5 52.5t111 38.5t178 16v12q0 68 -33 103.5t-93 35.5
q-87 0 -181 -72l-2 1l14 76q84 56 178 56q86 0 134.5 -50.5t48.5 -145.5v-297z" />
    <glyph glyph-name="Abreve" unicode="&#x102;" horiz-adv-x="781" 
d="M392 774q-59 0 -100 31.5t-75 87.5l28 20q37 -40 70 -61t77 -21t77 21t70 61l28 -20q-34 -56 -75 -87.5t-100 -31.5zM556 254l-165 372l-169 -372h334zM669 0l-85 191h-390l-87 -191h-73l326 705h67l318 -705h-76z" />
    <glyph glyph-name="abreve" unicode="&#x103;" horiz-adv-x="562" 
d="M287 592q-56 0 -94 36t-68 102l32 18q31 -48 60.5 -72t69.5 -24t69.5 24t60.5 72l32 -18q-30 -66 -68 -102t-94 -36zM212 48q76 0 200 84v114q-88 -4 -148.5 -15.5t-90 -29.5t-41.5 -36t-12 -41q0 -35 26 -55.5t66 -20.5zM412 -7v94q-117 -96 -212 -96q-63 0 -104.5 35.5
t-41.5 94.5q0 36 15.5 64t53.5 52.5t111 38.5t178 16v12q0 68 -33 103.5t-93 35.5q-87 0 -181 -72l-2 1l14 76q84 56 178 56q86 0 134.5 -50.5t48.5 -145.5v-297z" />
    <glyph glyph-name="Aogonek" unicode="&#x104;" horiz-adv-x="781" 
d="M556 254l-165 372l-169 -372h334zM755 -184q-32 -9 -69 -9q-41 0 -66.5 17.5t-25.5 51.5q0 30 42 85l32 41l-84 189h-390l-87 -191h-73l326 705h67l318 -705h-37l-31 -55q-22 -38 -22 -58q0 -39 71 -39h39z" />
    <glyph glyph-name="aogonek" unicode="&#x105;" horiz-adv-x="562" 
d="M429 -193q-41 0 -66.5 17.5t-25.5 51.5q0 30 42 85l33 43v83q-117 -96 -212 -96q-63 0 -104.5 35.5t-41.5 94.5q0 36 15.5 64t53.5 52.5t111 38.5t178 16v12q0 68 -33 103.5t-93 35.5q-87 0 -181 -72l-2 1l14 76q84 56 178 56q86 0 134.5 -50.5t48.5 -145.5v-297l-24 -7
l-34 -59q-22 -38 -22 -58q0 -39 71 -39h39l-10 -32q-32 -9 -69 -9zM212 48q76 0 200 84v114q-88 -4 -148.5 -15.5t-90 -29.5t-41.5 -36t-12 -41q0 -35 26 -55.5t66 -20.5z" />
    <glyph glyph-name="Cacute" unicode="&#x106;" horiz-adv-x="729" 
d="M386 778l90 141h97v-1l-150 -140h-37zM405 -12q-142 0 -244 101t-102 261q0 153 106 257.5t253 104.5q141 0 242 -95v-85h-2q-113 115 -243 115q-115 0 -199.5 -86.5t-84.5 -208.5q0 -131 84 -215t195 -84q141 0 258 119l2 -2l-11 -84q-110 -98 -254 -98z" />
    <glyph glyph-name="cacute" unicode="&#x107;" horiz-adv-x="538" 
d="M273 599l91 162h89v-1l-147 -161h-33zM475 48q-85 -60 -176 -60q-109 0 -179.5 72.5t-70.5 185.5q0 108 73.5 184t185.5 76q97 0 170 -62v-81h-2q-82 82 -169 82q-82 0 -136.5 -58t-54.5 -139q0 -86 52 -142.5t134 -56.5q91 0 183 77l3 -1z" />
    <glyph glyph-name="Ccircumflex" unicode="&#x108;" horiz-adv-x="729" 
d="M530 778l-121 90l-121 -90h-41v1l131 140h62l131 -140v-1h-41zM405 -12q-142 0 -244 101t-102 261q0 153 106 257.5t253 104.5q141 0 242 -95v-85h-2q-113 115 -243 115q-115 0 -199.5 -86.5t-84.5 -208.5q0 -131 84 -215t195 -84q141 0 258 119l2 -2l-11 -84
q-110 -98 -254 -98z" />
    <glyph glyph-name="ccircumflex" unicode="&#x109;" horiz-adv-x="538" 
d="M416 599l-123 106l-122 -106h-35v1l126 161h62l126 -161v-1h-34zM475 48q-85 -60 -176 -60q-109 0 -179.5 72.5t-70.5 185.5q0 108 73.5 184t185.5 76q97 0 170 -62v-81h-2q-82 82 -169 82q-82 0 -136.5 -58t-54.5 -139q0 -86 52 -142.5t134 -56.5q91 0 183 77l3 -1z" />
    <glyph glyph-name="Cdotaccent" unicode="&#x10a;" horiz-adv-x="729" 
d="M459 828q0 -20 -14.5 -34.5t-35.5 -14.5t-35.5 14.5t-14.5 34.5t14.5 35t35.5 15t35.5 -14.5t14.5 -35.5zM405 -12q-142 0 -244 101t-102 261q0 153 106 257.5t253 104.5q141 0 242 -95v-85h-2q-113 115 -243 115q-115 0 -199.5 -86.5t-84.5 -208.5q0 -131 84 -215
t195 -84q141 0 258 119l2 -2l-11 -84q-110 -98 -254 -98z" />
    <glyph glyph-name="cdotaccent" unicode="&#x10b;" horiz-adv-x="538" 
d="M244 651q0 20 14 34.5t35 14.5q20 0 34.5 -14.5t14.5 -34.5t-14 -34.5t-35 -14.5q-20 0 -34.5 14.5t-14.5 34.5zM475 48q-85 -60 -176 -60q-109 0 -179.5 72.5t-70.5 185.5q0 108 73.5 184t185.5 76q97 0 170 -62v-81h-2q-82 82 -169 82q-82 0 -136.5 -58t-54.5 -139
q0 -86 52 -142.5t134 -56.5q91 0 183 77l3 -1z" />
    <glyph glyph-name="Ccaron" unicode="&#x10c;" horiz-adv-x="729" 
d="M440 777h-62l-131 140v1h41l121 -90l121 90h41v-1zM405 -12q-142 0 -244 101t-102 261q0 153 106 257.5t253 104.5q141 0 242 -95v-85h-2q-113 115 -243 115q-115 0 -199.5 -86.5t-84.5 -208.5q0 -131 84 -215t195 -84q141 0 258 119l2 -2l-11 -84q-110 -98 -254 -98z
" />
    <glyph glyph-name="ccaron" unicode="&#x10d;" horiz-adv-x="538" 
d="M324 599h-62l-126 161v1h34l123 -106l122 106h35v-1zM475 48q-85 -60 -176 -60q-109 0 -179.5 72.5t-70.5 185.5q0 108 73.5 184t185.5 76q97 0 170 -62v-81h-2q-82 82 -169 82q-82 0 -136.5 -58t-54.5 -139q0 -86 52 -142.5t134 -56.5q91 0 183 77l3 -1z" />
    <glyph glyph-name="Dcaron" unicode="&#x10e;" horiz-adv-x="782" 
d="M410 772h-62l-131 140v1h41l121 -90l121 90h41v-1zM327 636h-152v-572h156q137 0 228 77t91 209q0 134 -90 210t-233 76zM105 0v700h224q178 0 285.5 -94t107.5 -254q0 -161 -111 -256.5t-282 -95.5h-224z" />
    <glyph glyph-name="dcaron" unicode="&#x10f;" horiz-adv-x="618" 
d="M589 548q26 57 26 100q0 47 -26 101h65q13 -36 13 -71q0 -62 -44 -130h-34zM294 50q82 0 168 77v257q-80 59 -156 59q-80 0 -134.5 -57.5t-54.5 -143.5t52.5 -139t124.5 -53zM462 0v79q-87 -89 -184 -89q-94 0 -161.5 69.5t-67.5 179.5q0 116 73 189.5t175 73.5
q87 0 165 -63v291l66 25v-755h-66z" />
    <glyph glyph-name="Dcroat" unicode="&#x110;" horiz-adv-x="802" 
d="M394 332h-200v-268h157q137 0 228 77t91 209q0 134 -90 210t-233 76h-153v-252h200v-52zM125 0v332h-106v52h106v316h224q178 0 285.5 -94t107.5 -254q0 -161 -111 -256.5t-282 -95.5h-224z" />
    <glyph glyph-name="dcroat" unicode="&#x111;" horiz-adv-x="624" 
d="M294 50q83 0 168 75v257q-79 58 -156 58q-80 0 -134.5 -57t-54.5 -142t52.5 -138t124.5 -53zM462 0v78q-88 -88 -184 -88q-94 0 -161.5 69.5t-67.5 177.5q0 115 73.5 188.5t174.5 73.5q86 0 165 -62v154h-165v47h165v92l66 25v-117h82v-47h-82v-591h-66z" />
    <glyph glyph-name="Emacron" unicode="&#x112;" horiz-adv-x="570" 
d="M133 850h348v-52h-348v52zM105 0v700h384l23 -64h-337v-248h286v-64h-286v-260h340l-23 -64h-387z" />
    <glyph glyph-name="emacron" unicode="&#x113;" horiz-adv-x="558" 
d="M124 678h328v-52h-328v52zM283 449q-70 0 -117 -51.5t-52 -126.5h328q-4 79 -45.5 128.5t-113.5 49.5zM467 36q-81 -47 -167 -47q-114 0 -183 70.5t-69 188.5q0 107 67.5 183.5t170.5 76.5q106 0 164.5 -74t58.5 -180q0 -14 -2 -34h-391q9 -81 60.5 -125.5t130.5 -44.5
q89 0 182 61l2 -1z" />
    <glyph glyph-name="Ebreve" unicode="&#x114;" horiz-adv-x="570" 
d="M307 774q-59 0 -100 31.5t-75 87.5l28 20q37 -40 70 -61t77 -21t77 21t70 61l28 -20q-34 -56 -75 -87.5t-100 -31.5zM105 0v700h384l23 -64h-337v-248h286v-64h-286v-260h340l-23 -64h-387z" />
    <glyph glyph-name="ebreve" unicode="&#x115;" horiz-adv-x="558" 
d="M288 595q-56 0 -94 36t-68 102l32 18q31 -48 60.5 -72t69.5 -24t69.5 24t60.5 72l32 -18q-30 -66 -68 -102t-94 -36zM283 449q-70 0 -117 -51.5t-52 -126.5h328q-4 79 -45.5 128.5t-113.5 49.5zM467 36q-81 -47 -167 -47q-114 0 -183 70.5t-69 188.5q0 107 67.5 183.5
t170.5 76.5q106 0 164.5 -74t58.5 -180q0 -14 -2 -34h-391q9 -81 60.5 -125.5t130.5 -44.5q89 0 182 61l2 -1z" />
    <glyph glyph-name="Edotaccent" unicode="&#x116;" horiz-adv-x="570" 
d="M357 823q0 -20 -14.5 -34.5t-35.5 -14.5t-35.5 14.5t-14.5 34.5t14.5 35t35.5 15t35.5 -14.5t14.5 -35.5zM105 0v700h384l23 -64h-337v-248h286v-64h-286v-260h340l-23 -64h-387z" />
    <glyph glyph-name="edotaccent" unicode="&#x117;" horiz-adv-x="558" 
d="M239 651q0 20 14 34.5t35 14.5q20 0 34.5 -14.5t14.5 -34.5t-14 -34.5t-35 -14.5q-20 0 -34.5 14.5t-14.5 34.5zM283 449q-70 0 -117 -51.5t-52 -126.5h328q-4 79 -45.5 128.5t-113.5 49.5zM467 36q-81 -47 -167 -47q-114 0 -183 70.5t-69 188.5q0 107 67.5 183.5
t170.5 76.5q106 0 164.5 -74t58.5 -180q0 -14 -2 -34h-391q9 -81 60.5 -125.5t130.5 -44.5q89 0 182 61l2 -1z" />
    <glyph glyph-name="Eogonek" unicode="&#x118;" horiz-adv-x="570" 
d="M505 -184q-32 -9 -69 -9q-41 0 -66.5 17.5t-25.5 51.5q0 30 42 85l30 39h-311v700h384l23 -64h-337v-248h286v-64h-286v-260h340l-23 -64h-34l-31 -55q-22 -38 -22 -58q0 -39 71 -39h39z" />
    <glyph glyph-name="eogonek" unicode="&#x119;" horiz-adv-x="558" 
d="M283 449q-70 0 -117 -51.5t-52 -126.5h328q-4 79 -45.5 128.5t-113.5 49.5zM450 -184q-34 -9 -70 -9q-40 0 -64.5 17t-24.5 49q0 20 11.5 38t40.5 47l44 43q-39 -12 -87 -12q-114 0 -183 70.5t-69 188.5q0 107 67.5 183.5t170.5 76.5q106 0 164.5 -74t58.5 -180
q0 -14 -2 -34h-391q9 -81 60.5 -125.5t130.5 -44.5q89 0 182 61l2 -1l-24 -74l-80 -88q-35 -39 -35 -63q0 -37 66 -37h42z" />
    <glyph glyph-name="Ecaron" unicode="&#x11a;" horiz-adv-x="570" 
d="M338 772h-62l-131 140v1h41l121 -90l121 90h41v-1zM105 0v700h384l23 -64h-337v-248h286v-64h-286v-260h340l-23 -64h-387z" />
    <glyph glyph-name="ecaron" unicode="&#x11b;" horiz-adv-x="558" 
d="M319 599h-62l-126 161v1h34l123 -106l122 106h35v-1zM283 449q-70 0 -117 -51.5t-52 -126.5h328q-4 79 -45.5 128.5t-113.5 49.5zM467 36q-81 -47 -167 -47q-114 0 -183 70.5t-69 188.5q0 107 67.5 183.5t170.5 76.5q106 0 164.5 -74t58.5 -180q0 -14 -2 -34h-391
q9 -81 60.5 -125.5t130.5 -44.5q89 0 182 61l2 -1z" />
    <glyph glyph-name="Gcircumflex" unicode="&#x11c;" horiz-adv-x="793" 
d="M542 778l-121 90l-121 -90h-41v1l131 140h62l131 -140v-1h-41zM695 71q-130 -81 -275 -81q-157 0 -259 97.5t-102 259.5q0 159 108.5 261t272.5 102q134 0 241 -64v-79q-119 77 -243 77q-130 0 -218.5 -84t-88.5 -211q0 -134 84 -214t210 -80q111 0 201 53v183h-223v65
h292v-285z" />
    <glyph glyph-name="gcircumflex" unicode="&#x11d;" horiz-adv-x="618" 
d="M433 596l-123 106l-122 -106h-35v1l126 161h62l126 -161v-1h-34zM291 70q83 0 170 78v251q-75 46 -150 46q-82 0 -138.5 -56t-56.5 -138q0 -80 49.5 -130.5t125.5 -50.5zM277 -193q-98 0 -192 46l-16 75l2 2q107 -62 209 -62q79 0 130 47.5t51 133.5v51q-90 -88 -188 -88
q-97 0 -160.5 66.5t-63.5 168.5q0 112 76.5 183.5t184.5 71.5q78 0 159 -47l46 39h12v-445q0 -115 -68.5 -178.5t-181.5 -63.5z" />
    <glyph glyph-name="Gbreve" unicode="&#x11e;" horiz-adv-x="793" 
d="M421 779q-59 0 -100 31.5t-75 87.5l28 20q37 -40 70 -61t77 -21t77 21t70 61l28 -20q-34 -56 -75 -87.5t-100 -31.5zM695 71q-130 -81 -275 -81q-157 0 -259 97.5t-102 259.5q0 159 108.5 261t272.5 102q134 0 241 -64v-79q-119 77 -243 77q-130 0 -218.5 -84t-88.5 -211
q0 -134 84 -214t210 -80q111 0 201 53v183h-223v65h292v-285z" />
    <glyph glyph-name="gbreve" unicode="&#x11f;" horiz-adv-x="618" 
d="M310 592q-56 0 -94 36t-68 102l32 18q31 -48 60.5 -72t69.5 -24t69.5 24t60.5 72l32 -18q-30 -66 -68 -102t-94 -36zM291 70q83 0 170 78v251q-75 46 -150 46q-82 0 -138.5 -56t-56.5 -138q0 -80 49.5 -130.5t125.5 -50.5zM277 -193q-98 0 -192 46l-16 75l2 2
q107 -62 209 -62q79 0 130 47.5t51 133.5v51q-90 -88 -188 -88q-97 0 -160.5 66.5t-63.5 168.5q0 112 76.5 183.5t184.5 71.5q78 0 159 -47l46 39h12v-445q0 -115 -68.5 -178.5t-181.5 -63.5z" />
    <glyph glyph-name="Gdotaccent" unicode="&#x120;" horiz-adv-x="793" 
d="M471 828q0 -20 -14.5 -34.5t-35.5 -14.5t-35.5 14.5t-14.5 34.5t14.5 35t35.5 15t35.5 -14.5t14.5 -35.5zM695 71q-130 -81 -275 -81q-157 0 -259 97.5t-102 259.5q0 159 108.5 261t272.5 102q134 0 241 -64v-79q-119 77 -243 77q-130 0 -218.5 -84t-88.5 -211
q0 -134 84 -214t210 -80q111 0 201 53v183h-223v65h292v-285z" />
    <glyph glyph-name="gdotaccent" unicode="&#x121;" horiz-adv-x="618" 
d="M261 648q0 20 14 34.5t35 14.5q20 0 34.5 -14.5t14.5 -34.5t-14 -34.5t-35 -14.5q-20 0 -34.5 14.5t-14.5 34.5zM291 70q83 0 170 78v251q-75 46 -150 46q-82 0 -138.5 -56t-56.5 -138q0 -80 49.5 -130.5t125.5 -50.5zM277 -193q-98 0 -192 46l-16 75l2 2
q107 -62 209 -62q79 0 130 47.5t51 133.5v51q-90 -88 -188 -88q-97 0 -160.5 66.5t-63.5 168.5q0 112 76.5 183.5t184.5 71.5q78 0 159 -47l46 39h12v-445q0 -115 -68.5 -178.5t-181.5 -63.5z" />
    <glyph glyph-name="uni0122" unicode="&#x122;" horiz-adv-x="793" 
d="M695 71q-130 -81 -275 -81q-157 0 -259 97.5t-102 259.5q0 159 108.5 261t272.5 102q134 0 241 -64v-79q-119 77 -243 77q-130 0 -218.5 -84t-88.5 -211q0 -134 84 -214t210 -80q111 0 201 53v183h-223v65h292v-285zM397 -263l-37 15v1q64 46 64 74q0 16 -12.5 28
t-53.5 35v2l69 21q34 -18 49 -34.5t15 -38.5q0 -27 -24.5 -51.5t-69.5 -51.5z" />
    <glyph glyph-name="uni0123" unicode="&#x123;" horiz-adv-x="618" 
d="M333 778l37 -15v-2q-64 -47 -64 -78q0 -17 12.5 -29.5t53.5 -36.5v-3l-69 -21q-64 34 -64 76q0 50 94 109zM291 70q83 0 170 78v251q-75 46 -150 46q-82 0 -138.5 -56t-56.5 -138q0 -80 49.5 -130.5t125.5 -50.5zM277 -193q-98 0 -192 46l-16 75l2 2q107 -62 209 -62
q79 0 130 47.5t51 133.5v51q-90 -88 -188 -88q-97 0 -160.5 66.5t-63.5 168.5q0 112 76.5 183.5t184.5 71.5q78 0 159 -47l46 39h12v-445q0 -115 -68.5 -178.5t-181.5 -63.5z" />
    <glyph glyph-name="Hcircumflex" unicode="&#x124;" horiz-adv-x="814" 
d="M528 773l-121 90l-121 -90h-41v1l131 140h62l131 -140v-1h-41zM639 0v326h-464v-326h-70v700h70v-309h464v309h70v-700h-70z" />
    <glyph glyph-name="hcircumflex" unicode="&#x125;" horiz-adv-x="603" 
d="M247 797l-123 106l-122 -106h-35v1l126 161h62l126 -161v-1h-34zM328 445q-44 0 -83.5 -24t-87.5 -80v-341h-67v730l67 25v-362q84 112 187 112q77 0 126.5 -51.5t49.5 -143.5v-310h-66v304q0 68 -34.5 104.5t-91.5 36.5z" />
    <glyph glyph-name="Hbar" unicode="&#x126;" horiz-adv-x="854" 
d="M660 358v170h-466v-170h466zM660 0v293h-466v-293h-69v526h-106v53h106v121h69v-121h466v121h69v-121h106v-53h-106v-526h-69z" />
    <glyph glyph-name="hbar" unicode="&#x127;" horiz-adv-x="608" 
d="M333 445q-45 0 -84 -24.5t-87 -80.5v-340h-66v591h-82v47h82v92l66 25v-117h162v-47h-162v-199q84 113 187 113q77 0 126.5 -51.5t49.5 -143.5v-310h-66v304q0 68 -34.5 104.5t-91.5 36.5z" />
    <glyph glyph-name="Itilde" unicode="&#x128;" horiz-adv-x="291" 
d="M227 828q16 0 30 14.5t47 64.5l31 -21q-39 -67 -62 -90t-52 -23q-25 0 -83 37.5t-75 37.5q-16 0 -30 -14.5t-47 -64.5l-31 21q39 67 62 90t52 23q25 0 83 -37.5t75 -37.5zM110 0v700h70v-700h-70z" />
    <glyph glyph-name="itilde" unicode="&#x129;" horiz-adv-x="257" 
d="M210 656q15 0 29 17t48 73l34 -20q-40 -75 -63 -101.5t-53 -26.5q-26 0 -83.5 42.5t-73.5 42.5q-15 0 -29.5 -17t-47.5 -72l-34 20q40 74 63 100.5t53 26.5q26 0 83.5 -42.5t73.5 -42.5zM95 0v494h67v-494h-67z" />
    <glyph glyph-name="Imacron" unicode="&#x12a;" horiz-adv-x="291" 
d="M11 850h268v-52h-268v52zM110 0v700h70v-700h-70z" />
    <glyph glyph-name="imacron" unicode="&#x12b;" horiz-adv-x="257" 
d="M-5 675h268v-52h-268v52zM95 0v494h67v-494h-67z" />
    <glyph glyph-name="Ibreve" unicode="&#x12c;" horiz-adv-x="291" 
d="M145 774q-59 0 -100 31.5t-75 87.5l28 20q37 -40 70 -61t77 -21t77 21t70 61l28 -20q-34 -56 -75 -87.5t-100 -31.5zM110 0v700h70v-700h-70z" />
    <glyph glyph-name="ibreve" unicode="&#x12d;" horiz-adv-x="257" 
d="M129 592q-56 0 -94 36t-68 102l32 18q31 -48 60.5 -72t69.5 -24t69.5 24t60.5 72l32 -18q-30 -66 -68 -102t-94 -36zM95 0v494h67v-494h-67z" />
    <glyph glyph-name="Iogonek" unicode="&#x12e;" horiz-adv-x="291" 
d="M212 -184q-32 -9 -69 -9q-41 0 -66.5 17.5t-25.5 51.5q0 30 42 85l30 39h-13v700h70v-700h-15l-31 -55q-22 -38 -22 -58q0 -39 71 -39h39z" />
    <glyph glyph-name="iogonek" unicode="&#x12f;" horiz-adv-x="257" 
d="M177 670q0 -20 -14 -34.5t-35 -14.5q-20 0 -34 14.5t-14 34.5t14 34.5t35 14.5q20 0 34 -14.5t14 -34.5zM195 -184q-32 -9 -69 -9q-41 0 -66.5 17.5t-25.5 51.5q0 30 42 85l30 39h-11v494h67v-494h-14l-31 -55q-22 -38 -22 -58q0 -39 71 -39h39z" />
    <glyph glyph-name="Idotaccent" unicode="&#x130;" horiz-adv-x="291" 
d="M195 823q0 -20 -14.5 -34.5t-35.5 -14.5t-35.5 14.5t-14.5 34.5t14.5 35t35.5 15t35.5 -14.5t14.5 -35.5zM110 0v700h70v-700h-70z" />
    <glyph glyph-name="dotlessi" unicode="&#x131;" horiz-adv-x="257" 
d="M95 0v494h67v-494h-67z" />
    <glyph glyph-name="Jcircumflex" unicode="&#x134;" horiz-adv-x="453" 
d="M436 773l-121 90l-121 -90h-41v1l131 140h62l131 -140v-1h-41zM279 180v520h70v-527q0 -85 -47.5 -134t-126.5 -49q-70 0 -123 40l-17 83l2 1q64 -58 129 -58q52 0 82.5 33t30.5 91z" />
    <glyph glyph-name="jcircumflex" unicode="&#x135;" horiz-adv-x="257" 
d="M252 596l-123 106l-122 -106h-35v1l126 161h62l126 -161v-1h-34zM163 494v-539q0 -70 -35.5 -108t-94.5 -38q-33 0 -57 11l-10 59q29 -12 58 -12q72 0 72 86v541h67z" />
    <glyph glyph-name="uni0136" unicode="&#x136;" horiz-adv-x="680" 
d="M566 0l-356 328h-35v-328h-70v700h70v-311h36l352 311h92v-3l-388 -337l394 -357v-3h-95zM344 -258l-37 15v1q64 46 64 74q0 16 -12.5 28t-53.5 35v2l69 21q34 -18 49 -34.5t15 -38.5q0 -27 -24.5 -51.5t-69.5 -51.5z" />
    <glyph glyph-name="uni0137" unicode="&#x137;" horiz-adv-x="527" 
d="M430 0l-241 225h-32v-225h-67v730l67 25v-478h34l228 217h85v-3l-258 -239l272 -249v-3h-88zM268 -258l-37 15v1q64 46 64 74q0 16 -12.5 28t-53.5 35v2l69 21q34 -18 49 -34.5t15 -38.5q0 -27 -24.5 -51.5t-69.5 -51.5z" />
    <glyph glyph-name="Lacute" unicode="&#x139;" horiz-adv-x="527" 
d="M120 773l90 141h97v-1l-150 -140h-37zM105 0v700h70v-636h318v-64h-388z" />
    <glyph glyph-name="lacute" unicode="&#x13a;" horiz-adv-x="257" 
d="M109 822l91 162h89v-1l-147 -161h-33zM95 0v730l67 25v-755h-67z" />
    <glyph glyph-name="uni013B" unicode="&#x13b;" horiz-adv-x="527" 
d="M105 0v700h70v-636h318v-64h-388zM276 -258l-37 15v1q64 46 64 74q0 16 -12.5 28t-53.5 35v2l69 21q34 -18 49 -34.5t15 -38.5q0 -27 -24.5 -51.5t-69.5 -51.5z" />
    <glyph glyph-name="uni013C" unicode="&#x13c;" horiz-adv-x="257" 
d="M95 0v730l67 25v-755h-67zM106 -258l-37 15v1q64 46 64 74q0 16 -12.5 28t-53.5 35v2l69 21q34 -18 49 -34.5t15 -38.5q0 -27 -24.5 -51.5t-69.5 -51.5z" />
    <glyph glyph-name="Lcaron" unicode="&#x13d;" horiz-adv-x="527" 
d="M248 545q26 57 26 100q0 47 -26 101h65q13 -36 13 -71q0 -62 -44 -130h-34zM105 0v700h70v-636h318v-64h-388z" />
    <glyph glyph-name="lcaron" unicode="&#x13e;" horiz-adv-x="257" 
d="M95 0v730l67 25v-755h-67zM223 548q26 57 26 100q0 47 -26 101h65q13 -36 13 -71q0 -62 -44 -130h-34z" />
    <glyph glyph-name="Lslash" unicode="&#x141;" horiz-adv-x="547" 
d="M513 0h-388v270l-104 -75h-2v64l106 77v364h70v-320l175 126h2v-64l-177 -127v-251h318v-64z" />
    <glyph glyph-name="lslash" unicode="&#x142;" horiz-adv-x="284" 
d="M175 0h-66v322l-92 -71h-2v61l94 72v346l66 25v-327l92 72h2v-60l-94 -73v-367z" />
    <glyph glyph-name="Nacute" unicode="&#x143;" horiz-adv-x="825" 
d="M389 773l90 141h97v-1l-150 -140h-37zM694 -4l-522 603v-599h-67v700h66l481 -555v555h67v-704h-25z" />
    <glyph glyph-name="nacute" unicode="&#x144;" horiz-adv-x="603" 
d="M286 596l91 162h89v-1l-147 -161h-33zM328 445q-44 0 -83.5 -24t-87.5 -80v-341h-67v483l67 18v-108q84 112 187 112q77 0 126.5 -51.5t49.5 -143.5v-310h-66v304q0 68 -34.5 104.5t-91.5 36.5z" />
    <glyph glyph-name="uni0145" unicode="&#x145;" horiz-adv-x="825" 
d="M694 -4l-522 603v-599h-67v700h66l481 -555v555h67v-704h-25zM395 -258l-37 15v1q64 46 64 74q0 16 -12.5 28t-53.5 35v2l69 21q34 -18 49 -34.5t15 -38.5q0 -27 -24.5 -51.5t-69.5 -51.5z" />
    <glyph glyph-name="uni0146" unicode="&#x146;" horiz-adv-x="603" 
d="M328 445q-44 0 -83.5 -24t-87.5 -80v-341h-67v483l67 18v-108q84 112 187 112q77 0 126.5 -51.5t49.5 -143.5v-310h-66v304q0 68 -34.5 104.5t-91.5 36.5zM283 -258l-37 15v1q64 46 64 74q0 16 -12.5 28t-53.5 35v2l69 21q34 -18 49 -34.5t15 -38.5q0 -27 -24.5 -51.5
t-69.5 -51.5z" />
    <glyph glyph-name="Ncaron" unicode="&#x147;" horiz-adv-x="825" 
d="M443 772h-62l-131 140v1h41l121 -90l121 90h41v-1zM694 -4l-522 603v-599h-67v700h66l481 -555v555h67v-704h-25z" />
    <glyph glyph-name="ncaron" unicode="&#x148;" horiz-adv-x="603" 
d="M337 596h-62l-126 161v1h34l123 -106l122 106h35v-1zM328 445q-44 0 -83.5 -24t-87.5 -80v-341h-67v483l67 18v-108q84 112 187 112q77 0 126.5 -51.5t49.5 -143.5v-310h-66v304q0 68 -34.5 104.5t-91.5 36.5z" />
    <glyph glyph-name="Eng" unicode="&#x14a;" horiz-adv-x="825" 
d="M519 -191q-42 0 -78 11l-13 66l1 1q41 -16 83 -16q61 0 100.5 38.5t39.5 108.5v7l-480 572v-597h-67v700h66l481 -574v574h67v-679q0 -101 -55.5 -156.5t-144.5 -55.5z" />
    <glyph glyph-name="eng" unicode="&#x14b;" horiz-adv-x="600" 
d="M382 -191q-38 0 -61 13l-10 59q28 -14 63 -14q36 0 58 23t22 66v348q0 68 -34.5 104.5t-91.5 36.5q-44 0 -83.5 -24t-87.5 -80v-341h-67v483l67 18v-108q84 112 187 112q77 0 126.5 -51.5t49.5 -143.5v-352q0 -71 -37.5 -110t-100.5 -39z" />
    <glyph glyph-name="Omacron" unicode="&#x14c;" horiz-adv-x="845" 
d="M248 855h348v-52h-348v52zM59 349q0 153 105.5 259t258.5 106q152 0 257.5 -105.5t105.5 -257.5q0 -154 -106 -259.5t-259 -105.5q-152 0 -257 105.5t-105 257.5zM131 351q0 -126 85 -213t206 -87q119 0 205.5 87t86.5 211q0 126 -86 213t-208 87q-119 0 -204 -86.5
t-85 -211.5z" />
    <glyph glyph-name="omacron" unicode="&#x14d;" horiz-adv-x="616" 
d="M144 678h328v-52h-328v52zM48 246q0 107 73.5 184.5t187.5 77.5q115 0 186.5 -77t71.5 -183q0 -107 -73.5 -184.5t-187.5 -77.5q-113 0 -185.5 77t-72.5 183zM308 448q-84 0 -138 -58t-54 -143q0 -86 54.5 -144t136.5 -58q84 0 138.5 59t54.5 143q0 85 -54.5 143
t-137.5 58z" />
    <glyph glyph-name="Obreve" unicode="&#x14e;" horiz-adv-x="845" 
d="M422 779q-59 0 -100 31.5t-75 87.5l28 20q37 -40 70 -61t77 -21t77 21t70 61l28 -20q-34 -56 -75 -87.5t-100 -31.5zM59 349q0 153 105.5 259t258.5 106q152 0 257.5 -105.5t105.5 -257.5q0 -154 -106 -259.5t-259 -105.5q-152 0 -257 105.5t-105 257.5zM131 351
q0 -126 85 -213t206 -87q119 0 205.5 87t86.5 211q0 126 -86 213t-208 87q-119 0 -204 -86.5t-85 -211.5z" />
    <glyph glyph-name="obreve" unicode="&#x14f;" horiz-adv-x="616" 
d="M308 595q-56 0 -94 36t-68 102l32 18q31 -48 60.5 -72t69.5 -24t69.5 24t60.5 72l32 -18q-30 -66 -68 -102t-94 -36zM48 246q0 107 73.5 184.5t187.5 77.5q115 0 186.5 -77t71.5 -183q0 -107 -73.5 -184.5t-187.5 -77.5q-113 0 -185.5 77t-72.5 183zM308 448
q-84 0 -138 -58t-54 -143q0 -86 54.5 -144t136.5 -58q84 0 138.5 59t54.5 143q0 85 -54.5 143t-137.5 58z" />
    <glyph glyph-name="Ohungarumlaut" unicode="&#x150;" horiz-adv-x="845" 
d="M484 778l90 141h91v-1l-145 -140h-36zM296 778l89 141h92v-1l-145 -140h-36zM59 349q0 153 105.5 259t258.5 106q152 0 257.5 -105.5t105.5 -257.5q0 -154 -106 -259.5t-259 -105.5q-152 0 -257 105.5t-105 257.5zM131 351q0 -126 85 -213t206 -87q119 0 205.5 87
t86.5 211q0 126 -86 213t-208 87q-119 0 -204 -86.5t-85 -211.5z" />
    <glyph glyph-name="ohungarumlaut" unicode="&#x151;" horiz-adv-x="616" 
d="M375 599l91 162h84v-1l-141 -161h-34zM187 599l91 162h84v-1l-141 -161h-34zM48 246q0 107 73.5 184.5t187.5 77.5q115 0 186.5 -77t71.5 -183q0 -107 -73.5 -184.5t-187.5 -77.5q-113 0 -185.5 77t-72.5 183zM308 448q-84 0 -138 -58t-54 -143q0 -86 54.5 -144
t136.5 -58q84 0 138.5 59t54.5 143q0 85 -54.5 143t-137.5 58z" />
    <glyph glyph-name="OE" unicode="&#x152;" horiz-adv-x="985" 
d="M455 64h66v572h-70q-137 0 -228.5 -77t-91.5 -209q0 -135 90 -210.5t234 -75.5zM453 0q-178 0 -285.5 94t-107.5 254q0 161 111 256.5t282 95.5h451l23 -64h-336v-248h285v-64h-285v-260h339l-23 -64h-454z" />
    <glyph glyph-name="oe" unicode="&#x153;" horiz-adv-x="998" 
d="M723 449q-70 0 -117 -51.5t-52 -126.5h328q-4 79 -45.5 128.5t-113.5 49.5zM303 448q-81 0 -134 -58t-53 -143q0 -86 53 -144t133 -58q82 0 135 59t53 143q0 85 -53 143t-134 58zM743 -11q-77 0 -135 34t-87 96q-33 -61 -91 -97t-131 -36q-111 0 -181 77t-70 183
q0 107 71.5 184.5t182.5 77.5q75 0 132 -36.5t88 -97.5q29 61 83.5 97.5t123.5 36.5q105 0 162.5 -73.5t57.5 -180.5q0 -14 -2 -34h-391q9 -81 60.5 -125.5t130.5 -44.5q89 0 182 61l2 -1l-23 -74q-81 -47 -165 -47z" />
    <glyph glyph-name="Racute" unicode="&#x154;" horiz-adv-x="620" 
d="M278 773l90 141h97v-1l-150 -140h-37zM174 637v-283h116q68 0 115.5 40.5t47.5 103.5q0 64 -44.5 101.5t-114.5 37.5h-120zM534 0l-260 291h-99v-291h-70v700h192q99 0 163 -53t64 -149q0 -73 -48 -126.5t-124 -70.5l271 -301h-89z" />
    <glyph glyph-name="racute" unicode="&#x155;" horiz-adv-x="402" 
d="M199 596l91 162h89v-1l-147 -161h-33zM157 0h-67v483l67 18v-127q60 72 97.5 100t81.5 28q14 0 32 -5l5 -70q-13 5 -29 5q-46 0 -88.5 -25.5t-98.5 -81.5v-325z" />
    <glyph glyph-name="uni0156" unicode="&#x156;" horiz-adv-x="620" 
d="M174 637v-283h116q68 0 115.5 40.5t47.5 103.5q0 64 -44.5 101.5t-114.5 37.5h-120zM534 0l-260 291h-99v-291h-70v700h192q99 0 163 -53t64 -149q0 -73 -48 -126.5t-124 -70.5l271 -301h-89zM324 -258l-37 15v1q64 46 64 74q0 16 -12.5 28t-53.5 35v2l69 21
q34 -18 49 -34.5t15 -38.5q0 -27 -24.5 -51.5t-69.5 -51.5z" />
    <glyph glyph-name="uni0157" unicode="&#x157;" horiz-adv-x="402" 
d="M157 0h-67v483l67 18v-127q60 72 97.5 100t81.5 28q14 0 32 -5l5 -70q-13 5 -29 5q-46 0 -88.5 -25.5t-98.5 -81.5v-325zM101 -258l-37 15v1q64 46 64 74q0 16 -12.5 28t-53.5 35v2l69 21q34 -18 49 -34.5t15 -38.5q0 -27 -24.5 -51.5t-69.5 -51.5z" />
    <glyph glyph-name="Rcaron" unicode="&#x158;" horiz-adv-x="620" 
d="M332 772h-62l-131 140v1h41l121 -90l121 90h41v-1zM174 637v-283h116q68 0 115.5 40.5t47.5 103.5q0 64 -44.5 101.5t-114.5 37.5h-120zM534 0l-260 291h-99v-291h-70v700h192q99 0 163 -53t64 -149q0 -73 -48 -126.5t-124 -70.5l271 -301h-89z" />
    <glyph glyph-name="rcaron" unicode="&#x159;" horiz-adv-x="402" 
d="M250 596h-62l-126 161v1h34l123 -106l122 106h35v-1zM157 0h-67v483l67 18v-127q60 72 97.5 100t81.5 28q14 0 32 -5l5 -70q-13 5 -29 5q-46 0 -88.5 -25.5t-98.5 -81.5v-325z" />
    <glyph glyph-name="Sacute" unicode="&#x15a;" horiz-adv-x="556" 
d="M261 778l90 141h97v-1l-150 -140h-37zM73 529q0 82 58 132.5t148 50.5q100 0 183 -55v-79h-2q-91 69 -184 69q-59 0 -97 -31t-38 -81q0 -47 35.5 -77.5t127.5 -72.5q97 -46 141.5 -91.5t44.5 -115.5q0 -85 -62.5 -137.5t-155.5 -52.5q-116 0 -208 75l-19 97l2 1
q110 -108 229 -108q60 0 103 33t43 87q0 48 -38 80.5t-126 72.5q-94 43 -139.5 87.5t-45.5 115.5z" />
    <glyph glyph-name="sacute" unicode="&#x15b;" horiz-adv-x="492" 
d="M230 597l91 162h89v-1l-147 -161h-33zM442 132q0 -62 -54.5 -102.5t-135.5 -40.5q-108 0 -197 65l-13 81l2 2q102 -89 214 -89q52 0 86 23t34 57q0 36 -30.5 55t-112.5 40q-88 23 -130.5 53.5t-42.5 89.5q0 61 52 100t132 39q83 0 163 -48v-71l-3 -1q-84 60 -167 60
q-49 0 -81 -20t-32 -53q0 -34 30 -52.5t111 -39.5q91 -23 133 -54.5t42 -93.5z" />
    <glyph glyph-name="Scircumflex" unicode="&#x15c;" horiz-adv-x="556" 
d="M405 778l-121 90l-121 -90h-41v1l131 140h62l131 -140v-1h-41zM73 529q0 82 58 132.5t148 50.5q100 0 183 -55v-79h-2q-91 69 -184 69q-59 0 -97 -31t-38 -81q0 -47 35.5 -77.5t127.5 -72.5q97 -46 141.5 -91.5t44.5 -115.5q0 -85 -62.5 -137.5t-155.5 -52.5
q-116 0 -208 75l-19 97l2 1q110 -108 229 -108q60 0 103 33t43 87q0 48 -38 80.5t-126 72.5q-94 43 -139.5 87.5t-45.5 115.5z" />
    <glyph glyph-name="scircumflex" unicode="&#x15d;" horiz-adv-x="492" 
d="M373 597l-123 106l-122 -106h-35v1l126 161h62l126 -161v-1h-34zM442 132q0 -62 -54.5 -102.5t-135.5 -40.5q-108 0 -197 65l-13 81l2 2q102 -89 214 -89q52 0 86 23t34 57q0 36 -30.5 55t-112.5 40q-88 23 -130.5 53.5t-42.5 89.5q0 61 52 100t132 39q83 0 163 -48v-71
l-3 -1q-84 60 -167 60q-49 0 -81 -20t-32 -53q0 -34 30 -52.5t111 -39.5q91 -23 133 -54.5t42 -93.5z" />
    <glyph glyph-name="uni015E" unicode="&#x15e;" horiz-adv-x="556" 
d="M246 -200q-34 0 -66 9l-21 40l2 2q42 -15 79 -15q68 0 68 38q0 31 -54 31q-21 0 -58 -7l-3 4l52 87q-100 8 -181 74l-19 97l2 1q110 -108 229 -108q60 0 103 33t43 87q0 48 -38 80.5t-126 72.5q-94 43 -139.5 87.5t-45.5 115.5q0 82 58 132.5t148 50.5q100 0 183 -55v-79
h-2q-91 69 -184 69q-59 0 -97 -31t-38 -81q0 -47 35.5 -77.5t127.5 -72.5q97 -46 141.5 -91.5t44.5 -115.5q0 -81 -57 -133t-144 -57l-31 -48h10q92 0 92 -64q0 -34 -31 -55t-83 -21z" />
    <glyph glyph-name="uni015F" unicode="&#x15f;" horiz-adv-x="492" 
d="M219 -196q-35 0 -66 9l-21 40l2 2q42 -15 79 -15q68 0 68 38q0 31 -54 31q-21 0 -58 -7l-3 4l50 85q-86 8 -161 63l-13 81l2 2q102 -89 214 -89q52 0 86 23t34 57q0 36 -30.5 55t-112.5 40q-88 23 -130.5 53.5t-42.5 89.5q0 61 52 100t132 39q83 0 163 -48v-71l-3 -1
q-84 60 -167 60q-49 0 -81 -20t-32 -53q0 -34 30 -52.5t111 -39.5q91 -23 133 -54.5t42 -93.5q0 -60 -51.5 -100.5t-130.5 -42.5l-29 -45h10q92 0 92 -64q0 -34 -31 -55t-83 -21z" />
    <glyph glyph-name="Scaron" unicode="&#x160;" horiz-adv-x="556" 
d="M315 777h-62l-131 140v1h41l121 -90l121 90h41v-1zM73 529q0 82 58 132.5t148 50.5q100 0 183 -55v-79h-2q-91 69 -184 69q-59 0 -97 -31t-38 -81q0 -47 35.5 -77.5t127.5 -72.5q97 -46 141.5 -91.5t44.5 -115.5q0 -85 -62.5 -137.5t-155.5 -52.5q-116 0 -208 75l-19 97
l2 1q110 -108 229 -108q60 0 103 33t43 87q0 48 -38 80.5t-126 72.5q-94 43 -139.5 87.5t-45.5 115.5z" />
    <glyph glyph-name="scaron" unicode="&#x161;" horiz-adv-x="492" 
d="M281 597h-62l-126 161v1h34l123 -106l122 106h35v-1zM442 132q0 -62 -54.5 -102.5t-135.5 -40.5q-108 0 -197 65l-13 81l2 2q102 -89 214 -89q52 0 86 23t34 57q0 36 -30.5 55t-112.5 40q-88 23 -130.5 53.5t-42.5 89.5q0 61 52 100t132 39q83 0 163 -48v-71l-3 -1
q-84 60 -167 60q-49 0 -81 -20t-32 -53q0 -34 30 -52.5t111 -39.5q91 -23 133 -54.5t42 -93.5z" />
    <glyph glyph-name="uni0162" unicode="&#x162;" horiz-adv-x="704" 
d="M327 -195q-35 0 -66 9l-21 40l2 2q42 -15 79 -15q68 0 68 38q0 31 -54 31q-21 0 -58 -7l-3 4l55 93h-12v636h-284v64h638v-64h-284v-636h-13l-35 -55h10q92 0 92 -64q0 -34 -31 -55t-83 -21z" />
    <glyph glyph-name="uni0163" unicode="&#x163;" horiz-adv-x="434" 
d="M227 -195q-35 0 -66 9l-21 40l2 2q42 -15 79 -15q68 0 68 38q0 31 -54 31q-21 0 -58 -7l-3 4l51 86q-47 11 -75.5 48.5t-28.5 98.5v296h-86v58h86v117l65 25v-142h207v-58h-207v-293q0 -46 24.5 -70t64.5 -24q62 0 119 54l3 -1l-16 -73q-54 -40 -114 -40l-28 -44h10
q92 0 92 -64q0 -34 -31 -55t-83 -21z" />
    <glyph glyph-name="Tcaron" unicode="&#x164;" horiz-adv-x="704" 
d="M383 772h-62l-131 140v1h41l121 -90l121 90h41v-1zM671 636h-284v-636h-70v636h-284v64h638v-64z" />
    <glyph glyph-name="tcaron" unicode="&#x165;" horiz-adv-x="434" 
d="M264 564q26 57 26 100q0 47 -26 101h65q13 -36 13 -71q0 -62 -44 -130h-34zM381 29q-54 -40 -118 -40q-62 0 -102 39t-40 112v296h-86v58h86v117l65 25v-142h207v-58h-207v-293q0 -46 24.5 -70t64.5 -24q62 0 119 54l3 -1z" />
    <glyph glyph-name="Tbar" unicode="&#x166;" horiz-adv-x="704" 
d="M554 319h-167v-319h-69v319h-167v53h167v264h-285v64h638v-64h-284v-264h167v-53z" />
    <glyph glyph-name="tbar" unicode="&#x167;" horiz-adv-x="434" 
d="M381 29q-54 -40 -118 -40q-62 0 -102 39t-40 112v110h-86v47h86v139h-86v58h86v117l65 25v-142h207v-58h-207v-139h166v-47h-166v-107q0 -46 24.5 -70t64.5 -24q62 0 119 54l3 -1z" />
    <glyph glyph-name="Utilde" unicode="&#x168;" horiz-adv-x="784" 
d="M475 828q16 0 30 14.5t47 64.5l31 -21q-39 -67 -62 -90t-52 -23q-25 0 -83 37.5t-75 37.5q-16 0 -30 -14.5t-47 -64.5l-31 21q39 67 62 90t52 23q25 0 83 -37.5t75 -37.5zM96 295v405h70v-407q0 -113 62 -176.5t166 -63.5q103 0 164.5 63t61.5 179v405h68v-404
q0 -144 -79.5 -226t-216.5 -82t-216.5 82.5t-79.5 224.5z" />
    <glyph glyph-name="utilde" unicode="&#x169;" horiz-adv-x="603" 
d="M379 656q15 0 29 17t48 73l34 -20q-40 -75 -63 -101.5t-53 -26.5q-26 0 -83.5 42.5t-73.5 42.5q-15 0 -29.5 -17t-47.5 -72l-34 20q40 74 63 100.5t53 26.5q26 0 83.5 -42.5t73.5 -42.5zM446 0v102q-84 -113 -187 -113q-77 0 -126.5 51t-49.5 144v310h66v-305
q0 -67 34.5 -103.5t91.5 -36.5q44 0 83.5 24.5t87.5 79.5v341h66v-494h-66z" />
    <glyph glyph-name="Umacron" unicode="&#x16a;" horiz-adv-x="784" 
d="M219 850h348v-52h-348v52zM96 295v405h70v-407q0 -113 62 -176.5t166 -63.5q103 0 164.5 63t61.5 179v405h68v-404q0 -144 -79.5 -226t-216.5 -82t-216.5 82.5t-79.5 224.5z" />
    <glyph glyph-name="umacron" unicode="&#x16b;" horiz-adv-x="603" 
d="M134 675h328v-52h-328v52zM446 0v102q-84 -113 -187 -113q-77 0 -126.5 51t-49.5 144v310h66v-305q0 -67 34.5 -103.5t91.5 -36.5q44 0 83.5 24.5t87.5 79.5v341h66v-494h-66z" />
    <glyph glyph-name="Ubreve" unicode="&#x16c;" horiz-adv-x="784" 
d="M393 774q-59 0 -100 31.5t-75 87.5l28 20q37 -40 70 -61t77 -21t77 21t70 61l28 -20q-34 -56 -75 -87.5t-100 -31.5zM96 295v405h70v-407q0 -113 62 -176.5t166 -63.5q103 0 164.5 63t61.5 179v405h68v-404q0 -144 -79.5 -226t-216.5 -82t-216.5 82.5t-79.5 224.5z" />
    <glyph glyph-name="ubreve" unicode="&#x16d;" horiz-adv-x="603" 
d="M298 592q-56 0 -94 36t-68 102l32 18q31 -48 60.5 -72t69.5 -24t69.5 24t60.5 72l32 -18q-30 -66 -68 -102t-94 -36zM446 0v102q-84 -113 -187 -113q-77 0 -126.5 51t-49.5 144v310h66v-305q0 -67 34.5 -103.5t91.5 -36.5q44 0 83.5 24.5t87.5 79.5v341h66v-494h-66z" />
    <glyph glyph-name="Uring" unicode="&#x16e;" horiz-adv-x="784" 
d="M269 887q0 48 35.5 80.5t88.5 32.5t88.5 -32.5t35.5 -80.5t-35.5 -81t-88.5 -33t-88.5 33t-35.5 81zM304 887q0 -34 25 -57.5t64 -23.5q38 0 63 23.5t25 57.5q0 33 -25 56.5t-63 23.5t-63.5 -23t-25.5 -57zM96 295v405h70v-407q0 -113 62 -176.5t166 -63.5
q103 0 164.5 63t61.5 179v405h68v-404q0 -144 -79.5 -226t-216.5 -82t-216.5 82.5t-79.5 224.5z" />
    <glyph glyph-name="uring" unicode="&#x16f;" horiz-adv-x="603" 
d="M174 717q0 51 36 87.5t88 36.5t88 -36.5t36 -87.5t-36 -87t-88 -36t-88 36t-36 87zM210 717q0 -38 25.5 -64t62.5 -26t62.5 26t25.5 64t-25.5 64.5t-62.5 26.5t-62.5 -26.5t-25.5 -64.5zM446 0v102q-84 -113 -187 -113q-77 0 -126.5 51t-49.5 144v310h66v-305
q0 -67 34.5 -103.5t91.5 -36.5q44 0 83.5 24.5t87.5 79.5v341h66v-494h-66z" />
    <glyph glyph-name="Uhungarumlaut" unicode="&#x170;" horiz-adv-x="784" 
d="M455 773l90 141h91v-1l-145 -140h-36zM267 773l89 141h92v-1l-145 -140h-36zM96 295v405h70v-407q0 -113 62 -176.5t166 -63.5q103 0 164.5 63t61.5 179v405h68v-404q0 -144 -79.5 -226t-216.5 -82t-216.5 82.5t-79.5 224.5z" />
    <glyph glyph-name="uhungarumlaut" unicode="&#x171;" horiz-adv-x="603" 
d="M365 596l91 162h84v-1l-141 -161h-34zM177 596l91 162h84v-1l-141 -161h-34zM446 0v102q-84 -113 -187 -113q-77 0 -126.5 51t-49.5 144v310h66v-305q0 -67 34.5 -103.5t91.5 -36.5q44 0 83.5 24.5t87.5 79.5v341h66v-494h-66z" />
    <glyph glyph-name="Uogonek" unicode="&#x172;" horiz-adv-x="784" 
d="M398 -198q-41 0 -66.5 17.5t-25.5 51.5q0 30 42 85l25 32q-129 6 -203 88t-74 219v405h70v-407q0 -113 62 -176.5t166 -63.5q103 0 164.5 63t61.5 179v405h68v-404q0 -137 -72.5 -218t-198.5 -89l-28 -49q-22 -38 -22 -58q0 -39 71 -39h39l-10 -32q-32 -9 -69 -9z" />
    <glyph glyph-name="uogonek" unicode="&#x173;" horiz-adv-x="603" 
d="M535 -184q-32 -9 -69 -9q-41 0 -66.5 17.5t-25.5 51.5q0 30 42 85l30 39v102q-84 -113 -187 -113q-77 0 -126.5 51t-49.5 144v310h66v-305q0 -67 34.5 -103.5t91.5 -36.5q44 0 83.5 24.5t87.5 79.5v341h66v-494h-24l-31 -55q-22 -38 -22 -58q0 -39 71 -39h39z" />
    <glyph glyph-name="Wcircumflex" unicode="&#x174;" horiz-adv-x="1181" 
d="M713 773l-121 90l-121 -90h-41v1l131 140h62l131 -140v-1h-41zM288 -6l-246 706h76l208 -613l260 618h14l255 -618l212 613h74l-253 -706h-68l-230 564l-234 -564h-68z" />
    <glyph glyph-name="wcircumflex" unicode="&#x175;" horiz-adv-x="869" 
d="M559 596l-123 106l-122 -106h-35v1l126 161h62l126 -161v-1h-34zM218 -7l-187 501h70l148 -413l180 417h14l174 -418l154 414h68l-196 -501h-55l-154 371l-161 -371h-55z" />
    <glyph glyph-name="Ycircumflex" unicode="&#x176;" horiz-adv-x="660" 
d="M451 773l-121 90l-121 -90h-41v1l131 140h62l131 -140v-1h-41zM366 0h-70v317l-277 383h84l229 -320l228 320h81l-275 -381v-319z" />
    <glyph glyph-name="ycircumflex" unicode="&#x177;" horiz-adv-x="533" 
d="M388 596l-123 106l-122 -106h-35v1l126 161h62l126 -161v-1h-34zM114 -191q-40 0 -80 21l-13 67l2 2q43 -28 82 -28q37 1 64 24.5t49 76.5l23 52l-215 470h73l176 -397l162 397h73l-231 -543q-30 -72 -70 -106.5t-95 -35.5z" />
    <glyph glyph-name="Ydieresis" unicode="&#x178;" horiz-adv-x="660" 
d="M487 823q0 -20 -14 -34.5t-35 -14.5t-35 14.5t-14 34.5q0 21 14 35.5t35 14.5t35 -14.5t14 -35.5zM271 823q0 -20 -14 -34.5t-35 -14.5t-35 14.5t-14 34.5q0 21 14 35.5t35 14.5t35 -14.5t14 -35.5zM366 0h-70v317l-277 383h84l229 -320l228 320h81l-275 -381v-319z" />
    <glyph glyph-name="Zacute" unicode="&#x179;" horiz-adv-x="699" 
d="M331 773l90 141h97v-1l-150 -140h-37zM620 0h-570l-6 11l481 625h-447v64h563l6 -11l-481 -625h489z" />
    <glyph glyph-name="zacute" unicode="&#x17a;" horiz-adv-x="527" 
d="M249 596l91 162h89v-1l-147 -161h-33zM469 0h-437l-3 10l343 426h-310v58h420l4 -10l-344 -427h347z" />
    <glyph glyph-name="Zdotaccent" unicode="&#x17b;" horiz-adv-x="699" 
d="M404 823q0 -20 -14.5 -34.5t-35.5 -14.5t-35.5 14.5t-14.5 34.5t14.5 35t35.5 15t35.5 -14.5t14.5 -35.5zM620 0h-570l-6 11l481 625h-447v64h563l6 -11l-481 -625h489z" />
    <glyph glyph-name="zdotaccent" unicode="&#x17c;" horiz-adv-x="527" 
d="M220 648q0 20 14 34.5t35 14.5q20 0 34.5 -14.5t14.5 -34.5t-14 -34.5t-35 -14.5q-20 0 -34.5 14.5t-14.5 34.5zM469 0h-437l-3 10l343 426h-310v58h420l4 -10l-344 -427h347z" />
    <glyph glyph-name="Zcaron" unicode="&#x17d;" horiz-adv-x="699" 
d="M385 772h-62l-131 140v1h41l121 -90l121 90h41v-1zM620 0h-570l-6 11l481 625h-447v64h563l6 -11l-481 -625h489z" />
    <glyph glyph-name="zcaron" unicode="&#x17e;" horiz-adv-x="527" 
d="M300 596h-62l-126 161v1h34l123 -106l122 106h35v-1zM469 0h-437l-3 10l343 426h-310v58h420l4 -10l-344 -427h347z" />
    <glyph glyph-name="uni018F" unicode="&#x18f;" horiz-adv-x="774" 
d="M375 -14q-143 0 -231.5 100.5t-88.5 261.5v34h586q-11 119 -86 192t-188 73q-129 0 -264 -100l-3 1l11 80q125 84 259 84q153 0 249 -100.5t96 -263.5q0 -158 -98 -260t-242 -102zM377 51q104 0 180 75.5t85 192.5h-515q7 -120 74.5 -194t175.5 -74z" />
    <glyph glyph-name="Ohorn" unicode="&#x1a0;" horiz-adv-x="844" 
d="M421 -14q-152 0 -257 105t-105 255q0 152 106 257t262 105q26 0 75 -3t76 -3q78 0 113.5 19.5t35.5 65.5q0 27 -9 54h63q8 -20 8 -50q0 -131 -191 -135q84 -43 136 -123.5t52 -183.5q0 -152 -106.5 -257.5t-258.5 -105.5zM131 349q0 -125 85 -211.5t206 -86.5
q119 0 205.5 86.5t86.5 209.5q0 125 -86 211t-208 86q-119 0 -204 -86t-85 -209z" />
    <glyph glyph-name="ohorn" unicode="&#x1a1;" horiz-adv-x="614" 
d="M306 -14q-113 0 -185.5 76.5t-72.5 180.5q0 108 75 183t193 75q17 0 56.5 -1t53.5 -1q112 0 112 66q0 21 -10 48h59q11 -24 11 -51q0 -47 -39 -73.5t-105 -30.5q54 -35 83.5 -93t29.5 -119q0 -106 -73.5 -183t-187.5 -77zM308 443q-83 0 -137.5 -57.5t-54.5 -140.5
q0 -85 54.5 -142.5t136.5 -57.5q84 0 138.5 58.5t54.5 141.5q0 84 -54.5 141t-137.5 57z" />
    <glyph glyph-name="Uhorn" unicode="&#x1af;" horiz-adv-x="810" 
d="M392 -12q-137 0 -216.5 82.5t-79.5 224.5v405h70v-407q0 -113 62 -176.5t166 -63.5q103 0 164.5 63t61.5 179v405h21q121 0 121 87q0 31 -9 54h64q8 -24 8 -50q0 -58 -36 -92t-101 -44v-359q0 -144 -79.5 -226t-216.5 -82z" />
    <glyph glyph-name="uhorn" unicode="&#x1b0;" horiz-adv-x="625" 
d="M446 0v102q-84 -113 -187 -113q-77 0 -126.5 51t-49.5 144v310h66v-305q0 -67 34.5 -103.5t91.5 -36.5q44 0 83.5 24.5t87.5 79.5v341h23q106 0 106 66q0 21 -7 44h59q7 -18 7 -43q0 -47 -31.5 -75t-90.5 -35v-451h-66z" />
    <glyph glyph-name="uni01CD" unicode="&#x1cd;" horiz-adv-x="781" 
d="M423 772h-62l-131 140v1h41l121 -90l121 90h41v-1zM556 254l-165 372l-169 -372h334zM669 0l-85 191h-390l-87 -191h-73l326 705h67l318 -705h-76z" />
    <glyph glyph-name="uni01CE" unicode="&#x1ce;" horiz-adv-x="562" 
d="M318 596h-62l-126 161v1h34l123 -106l122 106h35v-1zM212 48q76 0 200 84v114q-88 -4 -148.5 -15.5t-90 -29.5t-41.5 -36t-12 -41q0 -35 26 -55.5t66 -20.5zM412 -7v94q-117 -96 -212 -96q-63 0 -104.5 35.5t-41.5 94.5q0 36 15.5 64t53.5 52.5t111 38.5t178 16v12
q0 68 -33 103.5t-93 35.5q-87 0 -181 -72l-2 1l14 76q84 56 178 56q86 0 134.5 -50.5t48.5 -145.5v-297z" />
    <glyph glyph-name="uni01CF" unicode="&#x1cf;" horiz-adv-x="291" 
d="M176 772h-62l-131 140v1h41l121 -90l121 90h41v-1zM110 0v700h70v-700h-70z" />
    <glyph glyph-name="uni01D0" unicode="&#x1d0;" horiz-adv-x="257" 
d="M160 596h-62l-126 161v1h34l123 -106l122 106h35v-1zM95 0v494h67v-494h-67z" />
    <glyph glyph-name="uni01D1" unicode="&#x1d1;" horiz-adv-x="845" 
d="M453 777h-62l-131 140v1h41l121 -90l121 90h41v-1zM59 349q0 153 105.5 259t258.5 106q152 0 257.5 -105.5t105.5 -257.5q0 -154 -106 -259.5t-259 -105.5q-152 0 -257 105.5t-105 257.5zM131 351q0 -126 85 -213t206 -87q119 0 205.5 87t86.5 211q0 126 -86 213t-208 87
q-119 0 -204 -86.5t-85 -211.5z" />
    <glyph glyph-name="uni01D2" unicode="&#x1d2;" horiz-adv-x="616" 
d="M339 599h-62l-126 161v1h34l123 -106l122 106h35v-1zM48 246q0 107 73.5 184.5t187.5 77.5q115 0 186.5 -77t71.5 -183q0 -107 -73.5 -184.5t-187.5 -77.5q-113 0 -185.5 77t-72.5 183zM308 448q-84 0 -138 -58t-54 -143q0 -86 54.5 -144t136.5 -58q84 0 138.5 59
t54.5 143q0 85 -54.5 143t-137.5 58z" />
    <glyph glyph-name="uni01D3" unicode="&#x1d3;" horiz-adv-x="784" 
d="M424 772h-62l-131 140v1h41l121 -90l121 90h41v-1zM96 295v405h70v-407q0 -113 62 -176.5t166 -63.5q103 0 164.5 63t61.5 179v405h68v-404q0 -144 -79.5 -226t-216.5 -82t-216.5 82.5t-79.5 224.5z" />
    <glyph glyph-name="uni01D4" unicode="&#x1d4;" horiz-adv-x="603" 
d="M329 596h-62l-126 161v1h34l123 -106l122 106h35v-1zM446 0v102q-84 -113 -187 -113q-77 0 -126.5 51t-49.5 144v310h66v-305q0 -67 34.5 -103.5t91.5 -36.5q44 0 83.5 24.5t87.5 79.5v341h66v-494h-66z" />
    <glyph glyph-name="uni01D5" unicode="&#x1d5;" horiz-adv-x="784" 
d="M238 985h310v-49h-310v49zM550 823q0 -20 -14 -34.5t-35 -14.5t-35 14.5t-14 34.5q0 21 14 35.5t35 14.5t35 -14.5t14 -35.5zM334 823q0 -20 -14 -34.5t-35 -14.5t-35 14.5t-14 34.5q0 21 14 35.5t35 14.5t35 -14.5t14 -35.5zM96 295v405h70v-407q0 -113 62 -176.5
t166 -63.5q103 0 164.5 63t61.5 179v405h68v-404q0 -144 -79.5 -226t-216.5 -82t-216.5 82.5t-79.5 224.5z" />
    <glyph glyph-name="uni01D6" unicode="&#x1d6;" horiz-adv-x="603" 
d="M143 762v50h310v-50h-310zM352 648q0 20 14 34.5t35 14.5q20 0 34.5 -14.5t14.5 -34.5t-14 -34.5t-35 -14.5q-20 0 -34.5 14.5t-14.5 34.5zM146 648q0 20 14 34.5t35 14.5q20 0 34.5 -14.5t14.5 -34.5t-14 -34.5t-35 -14.5q-20 0 -34.5 14.5t-14.5 34.5zM446 0v102
q-84 -113 -187 -113q-77 0 -126.5 51t-49.5 144v310h66v-305q0 -67 34.5 -103.5t91.5 -36.5q44 0 83.5 24.5t87.5 79.5v341h66v-494h-66z" />
    <glyph glyph-name="uni01D7" unicode="&#x1d7;" horiz-adv-x="784" 
d="M370 911l72 125h89v-1l-128 -124h-33zM550 823q0 -20 -14 -34.5t-35 -14.5t-35 14.5t-14 34.5q0 21 14 35.5t35 14.5t35 -14.5t14 -35.5zM334 823q0 -20 -14 -34.5t-35 -14.5t-35 14.5t-14 34.5q0 21 14 35.5t35 14.5t35 -14.5t14 -35.5zM96 295v405h70v-407
q0 -113 62 -176.5t166 -63.5q103 0 164.5 63t61.5 179v405h68v-404q0 -144 -79.5 -226t-216.5 -82t-216.5 82.5t-79.5 224.5z" />
    <glyph glyph-name="uni01D8" unicode="&#x1d8;" horiz-adv-x="603" 
d="M278 738l74 137h89v-1l-130 -136h-33zM352 648q0 20 14 34.5t35 14.5q20 0 34.5 -14.5t14.5 -34.5t-14 -34.5t-35 -14.5q-20 0 -34.5 14.5t-14.5 34.5zM146 648q0 20 14 34.5t35 14.5q20 0 34.5 -14.5t14.5 -34.5t-14 -34.5t-35 -14.5q-20 0 -34.5 14.5t-14.5 34.5z
M446 0v102q-84 -113 -187 -113q-77 0 -126.5 51t-49.5 144v310h66v-305q0 -67 34.5 -103.5t91.5 -36.5q44 0 83.5 24.5t87.5 79.5v341h66v-494h-66z" />
    <glyph glyph-name="uni01D9" unicode="&#x1d9;" horiz-adv-x="784" 
d="M417 909h-49l-127 126v1h38l113 -74l112 74h40v-1zM550 823q0 -20 -14 -34.5t-35 -14.5t-35 14.5t-14 34.5q0 21 14 35.5t35 14.5t35 -14.5t14 -35.5zM334 823q0 -20 -14 -34.5t-35 -14.5t-35 14.5t-14 34.5q0 21 14 35.5t35 14.5t35 -14.5t14 -35.5zM96 295v405h70v-407
q0 -113 62 -176.5t166 -63.5q103 0 164.5 63t61.5 179v405h68v-404q0 -144 -79.5 -226t-216.5 -82t-216.5 82.5t-79.5 224.5z" />
    <glyph glyph-name="uni01DA" unicode="&#x1da;" horiz-adv-x="603" 
d="M322 741h-48l-134 134v1h37l121 -82l120 82h38v-1zM352 648q0 20 14 34.5t35 14.5q20 0 34.5 -14.5t14.5 -34.5t-14 -34.5t-35 -14.5q-20 0 -34.5 14.5t-14.5 34.5zM146 648q0 20 14 34.5t35 14.5q20 0 34.5 -14.5t14.5 -34.5t-14 -34.5t-35 -14.5q-20 0 -34.5 14.5
t-14.5 34.5zM446 0v102q-84 -113 -187 -113q-77 0 -126.5 51t-49.5 144v310h66v-305q0 -67 34.5 -103.5t91.5 -36.5q44 0 83.5 24.5t87.5 79.5v341h66v-494h-66z" />
    <glyph glyph-name="uni01DB" unicode="&#x1db;" horiz-adv-x="784" 
d="M416 911h-33l-128 124v1h89zM236 823q0 21 14 35.5t35 14.5t35 -14.5t14 -35.5q0 -20 -14 -34.5t-35 -14.5t-35 14.5t-14 34.5zM452 823q0 21 14 35.5t35 14.5t35 -14.5t14 -35.5q0 -20 -14 -34.5t-35 -14.5t-35 14.5t-14 34.5zM96 295v405h70v-407q0 -113 62 -176.5
t166 -63.5q103 0 164.5 63t61.5 179v405h68v-404q0 -144 -79.5 -226t-216.5 -82t-216.5 82.5t-79.5 224.5z" />
    <glyph glyph-name="uni01DC" unicode="&#x1dc;" horiz-adv-x="603" 
d="M318 738h-33l-130 136v1h89zM352 648q0 20 14 34.5t35 14.5q20 0 34.5 -14.5t14.5 -34.5t-14 -34.5t-35 -14.5q-20 0 -34.5 14.5t-14.5 34.5zM146 648q0 20 14 34.5t35 14.5q20 0 34.5 -14.5t14.5 -34.5t-14 -34.5t-35 -14.5q-20 0 -34.5 14.5t-14.5 34.5zM446 0v102
q-84 -113 -187 -113q-77 0 -126.5 51t-49.5 144v310h66v-305q0 -67 34.5 -103.5t91.5 -36.5q44 0 83.5 24.5t87.5 79.5v341h66v-494h-66z" />
    <glyph glyph-name="Gcaron" unicode="&#x1e6;" horiz-adv-x="793" 
d="M452 777h-62l-131 140v1h41l121 -90l121 90h41v-1zM695 71q-130 -81 -275 -81q-157 0 -259 97.5t-102 259.5q0 159 108.5 261t272.5 102q134 0 241 -64v-79q-119 77 -243 77q-130 0 -218.5 -84t-88.5 -211q0 -134 84 -214t210 -80q111 0 201 53v183h-223v65h292v-285z
" />
    <glyph glyph-name="gcaron" unicode="&#x1e7;" horiz-adv-x="618" 
d="M341 596h-62l-126 161v1h34l123 -106l122 106h35v-1zM291 70q83 0 170 78v251q-75 46 -150 46q-82 0 -138.5 -56t-56.5 -138q0 -80 49.5 -130.5t125.5 -50.5zM277 -193q-98 0 -192 46l-16 75l2 2q107 -62 209 -62q79 0 130 47.5t51 133.5v51q-90 -88 -188 -88
q-97 0 -160.5 66.5t-63.5 168.5q0 112 76.5 183.5t184.5 71.5q78 0 159 -47l46 39h12v-445q0 -115 -68.5 -178.5t-181.5 -63.5z" />
    <glyph glyph-name="uni01EA" unicode="&#x1ea;" horiz-adv-x="845" 
d="M427 -198q-41 0 -66.5 17.5t-25.5 51.5q0 30 42 85l24 31q-146 8 -244 111.5t-98 250.5q0 153 105.5 259t258.5 106q152 0 257.5 -105.5t105.5 -257.5q0 -147 -98 -251t-243 -113l-27 -47q-22 -38 -22 -58q0 -39 71 -39h39l-10 -32q-32 -9 -69 -9zM131 351
q0 -126 85 -213t206 -87q119 0 205.5 87t86.5 211q0 126 -86 213t-208 87q-119 0 -204 -86.5t-85 -211.5z" />
    <glyph glyph-name="uni01EB" unicode="&#x1eb;" horiz-adv-x="616" 
d="M313 -196q-41 0 -66.5 17.5t-25.5 51.5q0 30 42 85l22 29q-105 7 -171 82.5t-66 176.5q0 107 73.5 184.5t187.5 77.5q115 0 186.5 -77t71.5 -183q0 -101 -66.5 -176.5t-170.5 -84.5l-26 -45q-22 -38 -22 -58q0 -39 71 -39h39l-10 -32q-32 -9 -69 -9zM308 448
q-84 0 -138 -58t-54 -143q0 -86 54.5 -144t136.5 -58q84 0 138.5 59t54.5 143q0 85 -54.5 143t-137.5 58z" />
    <glyph glyph-name="uni01F0" unicode="&#x1f0;" horiz-adv-x="257" 
d="M160 596h-62l-126 161v1h34l123 -106l122 106h35v-1zM163 494v-539q0 -70 -35.5 -108t-94.5 -38q-33 0 -57 11l-10 59q29 -12 58 -12q72 0 72 86v541h67z" />
    <glyph glyph-name="uni01F8" unicode="&#x1f8;" horiz-adv-x="825" 
d="M435 773h-37l-150 140v1h97zM694 -4l-522 603v-599h-67v700h66l481 -555v555h67v-704h-25z" />
    <glyph glyph-name="uni01F9" unicode="&#x1f9;" horiz-adv-x="603" 
d="M326 596h-33l-147 161v1h89zM328 445q-44 0 -83.5 -24t-87.5 -80v-341h-67v483l67 18v-108q84 112 187 112q77 0 126.5 -51.5t49.5 -143.5v-310h-66v304q0 68 -34.5 104.5t-91.5 36.5z" />
    <glyph glyph-name="Aringacute" unicode="&#x1fa;" horiz-adv-x="781" 
d="M367 931l90 141h97v-1l-150 -140h-37zM393 855q-38 0 -63.5 -25t-25.5 -61q0 -35 25.5 -60.5t63.5 -25.5t63.5 25t25.5 61q0 35 -25.5 60.5t-63.5 25.5zM556 254l-165 373l-169 -373h334zM669 0l-85 191h-390l-87 -191h-73l305 661q-32 14 -51 43.5t-19 64.5
q0 49 35.5 84t88.5 35t88.5 -35t35.5 -84q0 -35 -19.5 -64.5t-51.5 -43.5l299 -661h-76z" />
    <glyph glyph-name="aringacute" unicode="&#x1fb;" horiz-adv-x="562" 
d="M277 889l66 105h76v-1l-109 -104h-33zM163 717q0 51 36 87.5t88 36.5t88 -36.5t36 -87.5t-36 -87t-88 -36t-88 36t-36 87zM199 717q0 -38 25.5 -64t62.5 -26t62.5 26t25.5 64t-25.5 64.5t-62.5 26.5t-62.5 -26.5t-25.5 -64.5zM212 48q76 0 200 84v114
q-88 -4 -148.5 -15.5t-90 -29.5t-41.5 -36t-12 -41q0 -35 26 -55.5t66 -20.5zM412 -7v94q-117 -96 -212 -96q-63 0 -104.5 35.5t-41.5 94.5q0 36 15.5 64t53.5 52.5t111 38.5t178 16v12q0 68 -33 103.5t-93 35.5q-87 0 -181 -72l-2 1l14 76q84 56 178 56q86 0 134.5 -50.5
t48.5 -145.5v-297z" />
    <glyph glyph-name="AEacute" unicode="&#x1fc;" horiz-adv-x="968" 
d="M598 773l90 141h97v-1l-150 -140h-37zM504 254v382l-252 -382h252zM504 0v191h-293l-126 -191h-75l461 700h416l23 -64h-336v-248h285v-64h-285v-260h339l-23 -64h-386z" />
    <glyph glyph-name="aeacute" unicode="&#x1fd;" horiz-adv-x="910" 
d="M447 604l91 162h89v-1l-147 -161h-33zM637 449q-69 0 -115 -51t-51 -127h323q-4 79 -44.5 128.5t-112.5 49.5zM212 48q83 0 212 95q-17 48 -17 103q-86 -4 -145.5 -16t-89 -29.5t-41 -35.5t-11.5 -41q0 -35 26.5 -55.5t65.5 -20.5zM819 36q-79 -47 -164 -47
q-144 0 -210 110q-134 -108 -240 -108q-66 0 -108.5 35t-42.5 95q0 36 15.5 63.5t53 52t109 39t175.5 16.5v17q0 65 -30.5 99.5t-90.5 34.5q-87 0 -181 -72l-2 1l14 76q84 56 178 56q121 0 160 -96q70 100 186 100q104 0 162 -74t58 -180q0 -14 -2 -34h-386q8 -80 59 -125
t129 -45q87 0 180 61l2 -1z" />
    <glyph glyph-name="Oslashacute" unicode="&#x1fe;" horiz-adv-x="845" 
d="M399 778l90 141h97v-1l-150 -140h-37zM129 348q0 -124 81 -210l385 459q-76 54 -172 54q-122 0 -208 -87.5t-86 -215.5zM421 49q122 0 208.5 88t86.5 215q0 124 -81 210l-385 -459q76 -54 171 -54zM421 -14q-117 0 -213 69l-83 -98h-71l113 133q-108 106 -108 259
t105.5 259t258.5 106q118 0 214 -69l82 98h72l-113 -133q108 -105 108 -259t-106 -259.5t-259 -105.5z" />
    <glyph glyph-name="oslashacute" unicode="&#x1ff;" horiz-adv-x="616" 
d="M288 599l91 162h89v-1l-147 -161h-33zM114 244q0 -82 50 -138l249 315q-44 29 -102 29q-87 0 -142 -59t-55 -147zM305 43q86 0 141.5 59.5t55.5 147.5q0 82 -50 138l-249 -316q47 -29 102 -29zM306 -14q-78 0 -140 40l-58 -73h-68l85 106q-77 77 -77 187
q0 107 73.5 184.5t187.5 77.5q79 0 141 -40l58 73h68l-85 -106q76 -78 76 -187q0 -107 -73.5 -184.5t-187.5 -77.5z" />
    <glyph glyph-name="uni0218" unicode="&#x218;" horiz-adv-x="556" 
d="M73 529q0 82 58 132.5t148 50.5q100 0 183 -55v-79h-2q-91 69 -184 69q-59 0 -97 -31t-38 -81q0 -47 35.5 -77.5t127.5 -72.5q97 -46 141.5 -91.5t44.5 -115.5q0 -85 -62.5 -137.5t-155.5 -52.5q-116 0 -208 75l-19 97l2 1q110 -108 229 -108q60 0 103 33t43 87
q0 48 -38 80.5t-126 72.5q-94 43 -139.5 87.5t-45.5 115.5zM243 -263l-37 15v1q64 46 64 74q0 16 -12.5 28t-53.5 35v2l69 21q34 -18 49 -34.5t15 -38.5q0 -27 -24.5 -51.5t-69.5 -51.5z" />
    <glyph glyph-name="uni0219" unicode="&#x219;" horiz-adv-x="492" 
d="M442 132q0 -62 -54.5 -102.5t-135.5 -40.5q-108 0 -197 65l-13 81l2 2q102 -89 214 -89q52 0 86 23t34 57q0 36 -30.5 55t-112.5 40q-88 23 -130.5 53.5t-42.5 89.5q0 61 52 100t132 39q83 0 163 -48v-71l-3 -1q-84 60 -167 60q-49 0 -81 -20t-32 -53q0 -34 30 -52.5
t111 -39.5q91 -23 133 -54.5t42 -93.5zM216 -259l-37 15v1q64 46 64 74q0 16 -12.5 28t-53.5 35v2l69 21q34 -18 49 -34.5t15 -38.5q0 -27 -24.5 -51.5t-69.5 -51.5z" />
    <glyph glyph-name="uni021A" unicode="&#x21a;" horiz-adv-x="704" 
d="M671 636h-284v-636h-70v636h-284v64h638v-64zM329 -258l-37 15v1q64 46 64 74q0 16 -12.5 28t-53.5 35v2l69 21q34 -18 49 -34.5t15 -38.5q0 -27 -24.5 -51.5t-69.5 -51.5z" />
    <glyph glyph-name="uni021B" unicode="&#x21b;" horiz-adv-x="434" 
d="M381 29q-54 -40 -118 -40q-62 0 -102 39t-40 112v296h-86v58h86v117l65 25v-142h207v-58h-207v-293q0 -46 24.5 -70t64.5 -24q62 0 119 54l3 -1zM224 -258l-37 15v1q64 46 64 74q0 16 -12.5 28t-53.5 35v2l69 21q34 -18 49 -34.5t15 -38.5q0 -27 -24.5 -51.5t-69.5 -51.5
z" />
    <glyph glyph-name="uni0226" unicode="&#x226;" horiz-adv-x="781" 
d="M442 823q0 -20 -14.5 -34.5t-35.5 -14.5t-35.5 14.5t-14.5 34.5t14.5 35t35.5 15t35.5 -14.5t14.5 -35.5zM556 254l-165 372l-169 -372h334zM669 0l-85 191h-390l-87 -191h-73l326 705h67l318 -705h-76z" />
    <glyph glyph-name="uni0227" unicode="&#x227;" horiz-adv-x="562" 
d="M238 648q0 20 14 34.5t35 14.5q20 0 34.5 -14.5t14.5 -34.5t-14 -34.5t-35 -14.5q-20 0 -34.5 14.5t-14.5 34.5zM212 48q76 0 200 84v114q-88 -4 -148.5 -15.5t-90 -29.5t-41.5 -36t-12 -41q0 -35 26 -55.5t66 -20.5zM412 -7v94q-117 -96 -212 -96q-63 0 -104.5 35.5
t-41.5 94.5q0 36 15.5 64t53.5 52.5t111 38.5t178 16v12q0 68 -33 103.5t-93 35.5q-87 0 -181 -72l-2 1l14 76q84 56 178 56q86 0 134.5 -50.5t48.5 -145.5v-297z" />
    <glyph glyph-name="uni022E" unicode="&#x22e;" horiz-adv-x="845" 
d="M472 828q0 -20 -14.5 -34.5t-35.5 -14.5t-35.5 14.5t-14.5 34.5t14.5 35t35.5 15t35.5 -14.5t14.5 -35.5zM59 349q0 153 105.5 259t258.5 106q152 0 257.5 -105.5t105.5 -257.5q0 -154 -106 -259.5t-259 -105.5q-152 0 -257 105.5t-105 257.5zM131 351q0 -126 85 -213
t206 -87q119 0 205.5 87t86.5 211q0 126 -86 213t-208 87q-119 0 -204 -86.5t-85 -211.5z" />
    <glyph glyph-name="uni022F" unicode="&#x22f;" horiz-adv-x="616" 
d="M259 651q0 20 14 34.5t35 14.5q20 0 34.5 -14.5t14.5 -34.5t-14 -34.5t-35 -14.5q-20 0 -34.5 14.5t-14.5 34.5zM48 246q0 107 73.5 184.5t187.5 77.5q115 0 186.5 -77t71.5 -183q0 -107 -73.5 -184.5t-187.5 -77.5q-113 0 -185.5 77t-72.5 183zM308 448q-84 0 -138 -58
t-54 -143q0 -86 54.5 -144t136.5 -58q84 0 138.5 59t54.5 143q0 85 -54.5 143t-137.5 58z" />
    <glyph glyph-name="uni0232" unicode="&#x232;" horiz-adv-x="660" 
d="M156 850h348v-52h-348v52zM366 0h-70v317l-277 383h84l229 -320l228 320h81l-275 -381v-319z" />
    <glyph glyph-name="uni0233" unicode="&#x233;" horiz-adv-x="533" 
d="M101 675h328v-52h-328v52zM114 -191q-40 0 -80 21l-13 67l2 2q43 -28 82 -28q37 1 64 24.5t49 76.5l23 52l-215 470h73l176 -397l162 397h73l-231 -543q-30 -72 -70 -106.5t-95 -35.5z" />
    <glyph glyph-name="uni0237" unicode="&#x237;" horiz-adv-x="257" 
d="M163 494v-539q0 -70 -35.5 -108t-94.5 -38q-33 0 -57 11l-10 59q29 -12 58 -12q72 0 72 86v541h67z" />
    <glyph glyph-name="uni0259" unicode="&#x259;" horiz-adv-x="558" 
d="M272 -14q-106 0 -164.5 73.5t-58.5 180.5q0 14 2 34h390q-9 81 -60 125.5t-130 44.5q-88 0 -183 -61l-1 1l24 74q81 47 167 47q113 0 182 -70.5t69 -188.5q0 -107 -67 -183.5t-170 -76.5zM275 44q70 0 116.5 52t51.5 127h-327q4 -79 45.5 -129t113.5 -50z" />
    <glyph glyph-name="uni02B9" unicode="&#x2b9;" horiz-adv-x="231" 
d="M131 700h85l-143 -289l-29 11z" />
    <glyph glyph-name="uni02BA" unicode="&#x2ba;" horiz-adv-x="417" 
d="M317 700h84l-143 -289l-29 11zM131 700h85l-143 -289l-29 11z" />
    <glyph glyph-name="uni02BB" unicode="&#x2bb;" horiz-adv-x="201" 
d="M158 420h-72q-47 68 -47 116q0 28 18.5 61.5t34.5 51t54 58.5l23 -18q-68 -93 -68 -142q0 -27 11.5 -51.5t45.5 -75.5z" />
    <glyph glyph-name="uni02BC" unicode="&#x2bc;" horiz-adv-x="201" 
d="M42 700h73q46 -67 46 -116q0 -10 -1.5 -19.5t-6 -20.5t-8 -18.5t-12 -19.5t-12.5 -18t-15.5 -19.5t-15.5 -18t-18 -19.5t-17 -18l-24 18q68 91 68 143q0 26 -11.5 50.5t-45.5 75.5z" />
    <glyph glyph-name="uni02BE" unicode="&#x2be;" horiz-adv-x="203" 
d="M36 552v39q41 1 67.5 24t26.5 61t-26 61t-68 24v39q60 0 98.5 -34t38.5 -90q0 -55 -39 -89.5t-98 -34.5z" />
    <glyph glyph-name="uni02BF" unicode="&#x2bf;" horiz-adv-x="203" 
d="M167 800v-39q-41 -1 -67.5 -24t-26.5 -61t26 -61t68 -24v-39q-60 0 -98 34t-38 90q0 55 38.5 89.5t97.5 34.5z" />
    <glyph glyph-name="circumflex" unicode="&#x2c6;" horiz-adv-x="500" 
d="M373 596l-123 106l-122 -106h-35v1l126 161h62l126 -161v-1h-34z" />
    <glyph glyph-name="caron" unicode="&#x2c7;" horiz-adv-x="500" 
d="M281 596h-62l-126 161v1h34l123 -106l122 106h35v-1z" />
    <glyph glyph-name="uni02C8" unicode="&#x2c8;" horiz-adv-x="180" 
d="M70 554v244h40v-244h-40z" />
    <glyph glyph-name="uni02CC" unicode="&#x2cc;" horiz-adv-x="180" 
d="M70 -188v244h40v-244h-40z" />
    <glyph glyph-name="uni02CD" unicode="&#x2cd;" horiz-adv-x="500" 
d="M86 -128h328v-52h-328v52z" />
    <glyph glyph-name="breve" unicode="&#x2d8;" horiz-adv-x="500" 
d="M250 592q-56 0 -94 36t-68 102l32 18q31 -48 60.5 -72t69.5 -24t69.5 24t60.5 72l32 -18q-30 -66 -68 -102t-94 -36z" />
    <glyph glyph-name="dotaccent" unicode="&#x2d9;" horiz-adv-x="500" 
d="M201 648q0 20 14 34.5t35 14.5q20 0 34.5 -14.5t14.5 -34.5t-14 -34.5t-35 -14.5q-20 0 -34.5 14.5t-14.5 34.5z" />
    <glyph glyph-name="ring" unicode="&#x2da;" horiz-adv-x="500" 
d="M126 717q0 51 36 87.5t88 36.5t88 -36.5t36 -87.5t-36 -87t-88 -36t-88 36t-36 87zM162 717q0 -38 25.5 -64t62.5 -26t62.5 26t25.5 64t-25.5 64.5t-62.5 26.5t-62.5 -26.5t-25.5 -64.5z" />
    <glyph glyph-name="ogonek" unicode="&#x2db;" horiz-adv-x="500" 
d="M324 -184q-32 -9 -69 -9q-41 0 -66.5 17.5t-25.5 51.5q0 30 42 85l38 49h40l-37 -65q-22 -38 -22 -58q0 -39 71 -39h39z" />
    <glyph glyph-name="tilde" unicode="&#x2dc;" horiz-adv-x="500" 
d="M331 656q15 0 29 17t48 73l34 -20q-40 -75 -63 -101.5t-53 -26.5q-26 0 -83.5 42.5t-73.5 42.5q-15 0 -29.5 -17t-47.5 -72l-34 20q40 74 63 100.5t53 26.5q26 0 83.5 -42.5t73.5 -42.5z" />
    <glyph glyph-name="hungarumlaut" unicode="&#x2dd;" horiz-adv-x="500" 
d="M317 596l91 162h84v-1l-141 -161h-34zM129 596l91 162h84v-1l-141 -161h-34z" />
    <glyph glyph-name="uni0300" unicode="&#x300;" 
d="M20 596h-33l-147 161v1h89z" />
    <glyph glyph-name="uni0301" unicode="&#x301;" 
d="M-20 596l91 162h89v-1l-147 -161h-33z" />
    <glyph glyph-name="uni0302" unicode="&#x302;" 
d="M123 596l-123 106l-122 -106h-35v1l126 161h62l126 -161v-1h-34z" />
    <glyph glyph-name="uni0303" unicode="&#x303;" 
d="M81 656q15 0 29 17t48 73l34 -20q-40 -75 -63 -101.5t-53 -26.5q-26 0 -83.5 42.5t-73.5 42.5q-15 0 -29.5 -17t-47.5 -72l-34 20q40 74 63 100.5t53 26.5q26 0 83.5 -42.5t73.5 -42.5z" />
    <glyph glyph-name="uni0304" unicode="&#x304;" 
d="M-164 675h328v-52h-328v52z" />
    <glyph glyph-name="uni0306" unicode="&#x306;" 
d="M0 592q-56 0 -94 36t-68 102l32 18q31 -48 60.5 -72t69.5 -24t69.5 24t60.5 72l32 -18q-30 -66 -68 -102t-94 -36z" />
    <glyph glyph-name="uni0307" unicode="&#x307;" 
d="M-49 648q0 20 14 34.5t35 14.5q20 0 34.5 -14.5t14.5 -34.5t-14 -34.5t-35 -14.5q-20 0 -34.5 14.5t-14.5 34.5z" />
    <glyph glyph-name="uni0308" unicode="&#x308;" 
d="M54 648q0 20 14 34.5t35 14.5q20 0 34.5 -14.5t14.5 -34.5t-14 -34.5t-35 -14.5q-20 0 -34.5 14.5t-14.5 34.5zM-152 648q0 20 14 34.5t35 14.5q20 0 34.5 -14.5t14.5 -34.5t-14 -34.5t-35 -14.5q-20 0 -34.5 14.5t-14.5 34.5z" />
    <glyph glyph-name="uni0309" unicode="&#x309;" 
d="M3 591l-38 12v2q61 49 80 70t19 41q0 41 -53 41q-52 0 -114 -49h-1v57q55 43 120 43q45 0 73 -21.5t28 -59.5q0 -36 -26.5 -64.5t-87.5 -71.5z" />
    <glyph glyph-name="uni030A" unicode="&#x30a;" 
d="M-124 717q0 51 36 87.5t88 36.5t88 -36.5t36 -87.5t-36 -87t-88 -36t-88 36t-36 87zM-88 717q0 -38 25.5 -64t62.5 -26t62.5 26t25.5 64t-25.5 64.5t-62.5 26.5t-62.5 -26.5t-25.5 -64.5z" />
    <glyph glyph-name="uni030B" unicode="&#x30b;" 
d="M67 596l91 162h84v-1l-141 -161h-34zM-121 596l91 162h84v-1l-141 -161h-34z" />
    <glyph glyph-name="uni030C" unicode="&#x30c;" 
d="M31 596h-62l-126 161v1h34l123 -106l122 106h35v-1z" />
    <glyph glyph-name="uni0312" unicode="&#x312;" 
d="M23 778l37 -15v-2q-64 -47 -64 -78q0 -17 12.5 -29.5t53.5 -36.5v-3l-69 -21q-64 34 -64 76q0 50 94 109z" />
    <glyph glyph-name="uni0315" unicode="&#x315;" 
d="M0 550q26 57 26 100q0 47 -26 101h65q13 -36 13 -71q0 -62 -44 -130h-34z" />
    <glyph glyph-name="uni0323" unicode="&#x323;" 
d="M-49 -137q0 20 14 34.5t35 14.5q20 0 34.5 -14.5t14.5 -34.5t-14 -34.5t-35 -14.5q-20 0 -34.5 14.5t-14.5 34.5z" />
    <glyph glyph-name="uni0324" unicode="&#x324;" 
d="M54 -137q0 20 14 34.5t35 14.5q20 0 34.5 -14.5t14.5 -34.5t-14 -34.5t-35 -14.5q-20 0 -34.5 14.5t-14.5 34.5zM-152 -137q0 20 14 34.5t35 14.5q20 0 34.5 -14.5t14.5 -34.5t-14 -34.5t-35 -14.5q-20 0 -34.5 14.5t-14.5 34.5z" />
    <glyph glyph-name="uni0326" unicode="&#x326;" 
d="M-23 -258l-37 15v1q64 46 64 74q0 16 -12.5 28t-53.5 35v2l69 21q34 -18 49 -34.5t15 -38.5q0 -27 -24.5 -51.5t-69.5 -51.5z" />
    <glyph glyph-name="uni0327" unicode="&#x327;" 
d="M-20 -195q-34 0 -66 9l-21 40l2 2q42 -15 79 -15q68 0 68 38q0 31 -54 31q-21 0 -58 -7l-3 4l58 98h45l-38 -60h10q92 0 92 -64q0 -34 -31 -55t-83 -21z" />
    <glyph glyph-name="uni0328" unicode="&#x328;" 
d="M74 -184q-32 -9 -69 -9q-41 0 -66.5 17.5t-25.5 51.5q0 30 42 85l38 49h40l-37 -65q-22 -38 -22 -58q0 -39 71 -39h39z" />
    <glyph glyph-name="uni032D" unicode="&#x32d;" 
d="M123 -246l-123 106l-122 -106h-35v1l126 161h62l126 -161v-1h-34z" />
    <glyph glyph-name="uni032E" unicode="&#x32e;" 
d="M0 -244q-56 0 -94 36t-68 102l32 18q31 -48 60.5 -72t69.5 -24t69.5 24t60.5 72l32 -18q-30 -66 -68 -102t-94 -36z" />
    <glyph glyph-name="uni0331" unicode="&#x331;" 
d="M-164 -112h328v-52h-328v52z" />
    <glyph glyph-name="uni0E3F" unicode="&#xe3f;" horiz-adv-x="651" 
d="M171 641v-255h131v255h-131zM348 641h-2v-255q67 1 108 36.5t41 94.5q0 58 -39.5 91t-107.5 33zM171 59h131v269h-131v-269zM355 328h-9v-269h11q76 0 122 38t46 97q0 62 -48.5 98t-121.5 36zM355 0h-8v-163h-46v163h-196v700h196v123h46v-123h2q97 0 154.5 -47.5
t57.5 -130.5q0 -53 -30.5 -94.5t-83.5 -64.5q67 -19 106 -63.5t39 -105.5q0 -88 -65.5 -141t-171.5 -53z" />
    <glyph glyph-name="uni1E06" unicode="&#x1e06;" horiz-adv-x="607" 
d="M309 0h-204v700h200q97 0 154.5 -48t57.5 -132q0 -54 -29.5 -94.5t-81.5 -62.5q67 -18 105.5 -62t38.5 -107q0 -88 -66.5 -141t-174.5 -53zM173 638v-251h120q68 0 111 36t43 93q0 56 -39.5 89t-107.5 33h-127zM173 62h139q78 0 123 37t45 96q0 61 -47 96.5t-122 35.5
h-138v-265zM152 -112h328v-52h-328v52z" />
    <glyph glyph-name="uni1E07" unicode="&#x1e07;" horiz-adv-x="616" 
d="M304 -8q-75 0 -157 46l-44 -38h-13v730l67 25v-340q87 89 185 89q93 0 158.5 -69.5t65.5 -176.5q0 -118 -76.5 -192t-185.5 -74zM303 50q83 0 139.5 58.5t56.5 145.5q0 86 -51 138t-124 52q-81 0 -167 -76v-274q74 -44 146 -44zM144 -112h328v-52h-328v52z" />
    <glyph glyph-name="uni1E0C" unicode="&#x1e0c;" horiz-adv-x="782" 
d="M327 636h-152v-572h156q137 0 228 77t91 209q0 134 -90 210t-233 76zM105 0v700h224q178 0 285.5 -94t107.5 -254q0 -161 -111 -256.5t-282 -95.5h-224zM330 -137q0 20 14 34.5t35 14.5q20 0 34.5 -14.5t14.5 -34.5t-14 -34.5t-35 -14.5q-20 0 -34.5 14.5t-14.5 34.5z
" />
    <glyph glyph-name="uni1E0D" unicode="&#x1e0d;" horiz-adv-x="618" 
d="M294 50q82 0 168 77v257q-80 59 -156 59q-80 0 -134.5 -57.5t-54.5 -143.5t52.5 -139t124.5 -53zM462 0v79q-87 -89 -184 -89q-94 0 -161.5 69.5t-67.5 179.5q0 116 73 189.5t175 73.5q87 0 165 -63v291l66 25v-755h-66zM257 -137q0 20 14 34.5t35 14.5q20 0 34.5 -14.5
t14.5 -34.5t-14 -34.5t-35 -14.5q-20 0 -34.5 14.5t-14.5 34.5z" />
    <glyph glyph-name="uni1E0E" unicode="&#x1e0e;" horiz-adv-x="782" 
d="M327 636h-152v-572h156q137 0 228 77t91 209q0 134 -90 210t-233 76zM105 0v700h224q178 0 285.5 -94t107.5 -254q0 -161 -111 -256.5t-282 -95.5h-224zM215 -112h328v-52h-328v52z" />
    <glyph glyph-name="uni1E0F" unicode="&#x1e0f;" horiz-adv-x="618" 
d="M294 50q82 0 168 77v257q-80 59 -156 59q-80 0 -134.5 -57.5t-54.5 -143.5t52.5 -139t124.5 -53zM462 0v79q-87 -89 -184 -89q-94 0 -161.5 69.5t-67.5 179.5q0 116 73 189.5t175 73.5q87 0 165 -63v291l66 25v-755h-66zM142 -112h328v-52h-328v52z" />
    <glyph glyph-name="uni1E12" unicode="&#x1e12;" horiz-adv-x="782" 
d="M327 636h-152v-572h156q137 0 228 77t91 209q0 134 -90 210t-233 76zM105 0v700h224q178 0 285.5 -94t107.5 -254q0 -161 -111 -256.5t-282 -95.5h-224zM502 -246l-123 106l-122 -106h-35v1l126 161h62l126 -161v-1h-34z" />
    <glyph glyph-name="uni1E13" unicode="&#x1e13;" horiz-adv-x="618" 
d="M294 50q82 0 168 77v257q-80 59 -156 59q-80 0 -134.5 -57.5t-54.5 -143.5t52.5 -139t124.5 -53zM462 0v79q-87 -89 -184 -89q-94 0 -161.5 69.5t-67.5 179.5q0 116 73 189.5t175 73.5q87 0 165 -63v291l66 25v-755h-66zM429 -246l-123 106l-122 -106h-35v1l126 161h62
l126 -161v-1h-34z" />
    <glyph glyph-name="uni1E20" unicode="&#x1e20;" horiz-adv-x="793" 
d="M247 855h348v-52h-348v52zM695 71q-130 -81 -275 -81q-157 0 -259 97.5t-102 259.5q0 159 108.5 261t272.5 102q134 0 241 -64v-79q-119 77 -243 77q-130 0 -218.5 -84t-88.5 -211q0 -134 84 -214t210 -80q111 0 201 53v183h-223v65h292v-285z" />
    <glyph glyph-name="uni1E21" unicode="&#x1e21;" horiz-adv-x="618" 
d="M146 675h328v-52h-328v52zM291 70q83 0 170 78v251q-75 46 -150 46q-82 0 -138.5 -56t-56.5 -138q0 -80 49.5 -130.5t125.5 -50.5zM277 -193q-98 0 -192 46l-16 75l2 2q107 -62 209 -62q79 0 130 47.5t51 133.5v51q-90 -88 -188 -88q-97 0 -160.5 66.5t-63.5 168.5
q0 112 76.5 183.5t184.5 71.5q78 0 159 -47l46 39h12v-445q0 -115 -68.5 -178.5t-181.5 -63.5z" />
    <glyph glyph-name="uni1E24" unicode="&#x1e24;" horiz-adv-x="814" 
d="M639 0v326h-464v-326h-70v700h70v-309h464v309h70v-700h-70zM358 -134q0 20 14 34.5t35 14.5q20 0 34.5 -14.5t14.5 -34.5t-14 -34.5t-35 -14.5q-20 0 -34.5 14.5t-14.5 34.5z" />
    <glyph glyph-name="uni1E25" unicode="&#x1e25;" horiz-adv-x="603" 
d="M328 445q-44 0 -83.5 -24t-87.5 -80v-341h-67v730l67 25v-362q84 112 187 112q77 0 126.5 -51.5t49.5 -143.5v-310h-66v304q0 68 -34.5 104.5t-91.5 36.5zM256 -130q0 20 14 34.5t35 14.5q20 0 34.5 -14.5t14.5 -34.5t-14 -34.5t-35 -14.5q-20 0 -34.5 14.5t-14.5 34.5z
" />
    <glyph glyph-name="uni1E28" unicode="&#x1e28;" horiz-adv-x="814" 
d="M116 -195q-34 0 -66 9l-21 40l2 2q42 -15 79 -15q68 0 68 38q0 31 -54 31q-21 0 -58 -7l-3 4l55 93h-13v700h70v-309h464v309h70v-700h-70v326h-464v-326h-12l-35 -55h10q92 0 92 -64q0 -34 -31 -55t-83 -21z" />
    <glyph glyph-name="uni1E29" unicode="&#x1e29;" horiz-adv-x="603" 
d="M100 -195q-34 0 -66 9l-21 40l2 2q42 -15 79 -15q68 0 68 38q0 31 -54 31q-21 0 -58 -7l-3 4l55 93h-12v730l67 25v-362q84 112 187 112q77 0 126.5 -51.5t49.5 -143.5v-310h-66v304q0 68 -34.5 104.5t-91.5 36.5q-44 0 -83.5 -24t-87.5 -80v-341h-10l-35 -55h10
q92 0 92 -64q0 -34 -31 -55t-83 -21z" />
    <glyph glyph-name="uni1E2A" unicode="&#x1e2a;" horiz-adv-x="814" 
d="M639 0v326h-464v-326h-70v700h70v-309h464v309h70v-700h-70zM407 -244q-56 0 -94 36t-68 102l32 18q31 -48 60.5 -72t69.5 -24t69.5 24t60.5 72l32 -18q-30 -66 -68 -102t-94 -36z" />
    <glyph glyph-name="uni1E2B" unicode="&#x1e2b;" horiz-adv-x="603" 
d="M328 445q-44 0 -83.5 -24t-87.5 -80v-341h-67v730l67 25v-362q84 112 187 112q77 0 126.5 -51.5t49.5 -143.5v-310h-66v304q0 68 -34.5 104.5t-91.5 36.5zM305 -244q-56 0 -94 36t-68 102l32 18q31 -48 60.5 -72t69.5 -24t69.5 24t60.5 72l32 -18q-30 -66 -68 -102
t-94 -36z" />
    <glyph glyph-name="uni1E32" unicode="&#x1e32;" horiz-adv-x="680" 
d="M566 0l-356 328h-35v-328h-70v700h70v-311h36l352 311h92v-3l-388 -337l394 -357v-3h-95zM318 -137q0 20 14 34.5t35 14.5q20 0 34.5 -14.5t14.5 -34.5t-14 -34.5t-35 -14.5q-20 0 -34.5 14.5t-14.5 34.5z" />
    <glyph glyph-name="uni1E33" unicode="&#x1e33;" horiz-adv-x="527" 
d="M430 0l-241 225h-32v-225h-67v730l67 25v-478h34l228 217h85v-3l-258 -239l272 -249v-3h-88zM242 -137q0 20 14 34.5t35 14.5q20 0 34.5 -14.5t14.5 -34.5t-14 -34.5t-35 -14.5q-20 0 -34.5 14.5t-14.5 34.5z" />
    <glyph glyph-name="uni1E34" unicode="&#x1e34;" horiz-adv-x="680" 
d="M566 0l-356 328h-35v-328h-70v700h70v-311h36l352 311h92v-3l-388 -337l394 -357v-3h-95zM203 -112h328v-52h-328v52z" />
    <glyph glyph-name="uni1E35" unicode="&#x1e35;" horiz-adv-x="527" 
d="M430 0l-241 225h-32v-225h-67v730l67 25v-478h34l228 217h85v-3l-258 -239l272 -249v-3h-88zM127 -112h328v-52h-328v52z" />
    <glyph glyph-name="uni1E36" unicode="&#x1e36;" horiz-adv-x="527" 
d="M105 0v700h70v-636h318v-64h-388zM250 -137q0 20 14 34.5t35 14.5q20 0 34.5 -14.5t14.5 -34.5t-14 -34.5t-35 -14.5q-20 0 -34.5 14.5t-14.5 34.5z" />
    <glyph glyph-name="uni1E37" unicode="&#x1e37;" horiz-adv-x="257" 
d="M95 0v730l67 25v-755h-67zM80 -137q0 20 14 34.5t35 14.5q20 0 34.5 -14.5t14.5 -34.5t-14 -34.5t-35 -14.5q-20 0 -34.5 14.5t-14.5 34.5z" />
    <glyph glyph-name="uni1E38" unicode="&#x1e38;" horiz-adv-x="527" 
d="M9 850h268v-52h-268v52zM105 0v700h70v-636h318v-64h-388zM250 -137q0 20 14 34.5t35 14.5q20 0 34.5 -14.5t14.5 -34.5t-14 -34.5t-35 -14.5q-20 0 -34.5 14.5t-14.5 34.5z" />
    <glyph glyph-name="uni1E39" unicode="&#x1e39;" horiz-adv-x="257" 
d="M-5 901h268v-52h-268v52zM95 0v730l67 25v-755h-67zM80 -137q0 20 14 34.5t35 14.5q20 0 34.5 -14.5t14.5 -34.5t-14 -34.5t-35 -14.5q-20 0 -34.5 14.5t-14.5 34.5z" />
    <glyph glyph-name="uni1E3A" unicode="&#x1e3a;" horiz-adv-x="527" 
d="M105 0v700h70v-636h318v-64h-388zM135 -112h328v-52h-328v52z" />
    <glyph glyph-name="uni1E3B" unicode="&#x1e3b;" horiz-adv-x="257" 
d="M95 0v730l67 25v-755h-67zM-5 -112h268v-52h-268v52z" />
    <glyph glyph-name="uni1E3C" unicode="&#x1e3c;" horiz-adv-x="527" 
d="M105 0v700h70v-636h318v-64h-388zM422 -246l-123 106l-122 -106h-35v1l126 161h62l126 -161v-1h-34z" />
    <glyph glyph-name="uni1E3D" unicode="&#x1e3d;" horiz-adv-x="257" 
d="M95 0v730l67 25v-755h-67zM252 -246l-123 106l-122 -106h-35v1l126 161h62l126 -161v-1h-34z" />
    <glyph glyph-name="uni1E3E" unicode="&#x1e3e;" horiz-adv-x="1017" 
d="M486 773l90 141h97v-1l-150 -140h-37zM500 -11l-329 636v-625h-66v700h102l301 -588l300 588h104v-700h-69v627l-329 -638h-14z" />
    <glyph glyph-name="uni1E3F" unicode="&#x1e3f;" horiz-adv-x="930" 
d="M449 596l91 162h89v-1l-147 -161h-33zM315 445q-75 0 -158 -102v-343h-67v483l67 18v-104q80 108 176 108q55 0 97.5 -30t60.5 -86q86 116 187 116q74 0 121.5 -51.5t47.5 -143.5v-310h-66v304q0 68 -33 104.5t-87 36.5q-75 0 -161 -100q2 -22 2 -35v-310h-66v304
q0 68 -33 104.5t-88 36.5z" />
    <glyph glyph-name="uni1E40" unicode="&#x1e40;" horiz-adv-x="1017" 
d="M559 823q0 -20 -14.5 -34.5t-35.5 -14.5t-35.5 14.5t-14.5 34.5t14.5 35t35.5 15t35.5 -14.5t14.5 -35.5zM500 -11l-329 636v-625h-66v700h102l301 -588l300 588h104v-700h-69v627l-329 -638h-14z" />
    <glyph glyph-name="uni1E41" unicode="&#x1e41;" horiz-adv-x="930" 
d="M420 648q0 20 14 34.5t35 14.5q20 0 34.5 -14.5t14.5 -34.5t-14 -34.5t-35 -14.5q-20 0 -34.5 14.5t-14.5 34.5zM315 445q-75 0 -158 -102v-343h-67v483l67 18v-104q80 108 176 108q55 0 97.5 -30t60.5 -86q86 116 187 116q74 0 121.5 -51.5t47.5 -143.5v-310h-66v304
q0 68 -33 104.5t-87 36.5q-75 0 -161 -100q2 -22 2 -35v-310h-66v304q0 68 -33 104.5t-88 36.5z" />
    <glyph glyph-name="uni1E42" unicode="&#x1e42;" horiz-adv-x="1017" 
d="M500 -11l-329 636v-625h-66v700h102l301 -588l300 588h104v-700h-69v627l-329 -638h-14zM459 -137q0 20 14 34.5t35 14.5q20 0 34.5 -14.5t14.5 -34.5t-14 -34.5t-35 -14.5q-20 0 -34.5 14.5t-14.5 34.5z" />
    <glyph glyph-name="uni1E43" unicode="&#x1e43;" horiz-adv-x="930" 
d="M315 445q-75 0 -158 -102v-343h-67v483l67 18v-104q80 108 176 108q55 0 97.5 -30t60.5 -86q86 116 187 116q74 0 121.5 -51.5t47.5 -143.5v-310h-66v304q0 68 -33 104.5t-87 36.5q-75 0 -161 -100q2 -22 2 -35v-310h-66v304q0 68 -33 104.5t-88 36.5zM420 -137
q0 20 14 34.5t35 14.5q20 0 34.5 -14.5t14.5 -34.5t-14 -34.5t-35 -14.5q-20 0 -34.5 14.5t-14.5 34.5z" />
    <glyph glyph-name="uni1E44" unicode="&#x1e44;" horiz-adv-x="825" 
d="M462 823q0 -20 -14.5 -34.5t-35.5 -14.5t-35.5 14.5t-14.5 34.5t14.5 35t35.5 15t35.5 -14.5t14.5 -35.5zM694 -4l-522 603v-599h-67v700h66l481 -555v555h67v-704h-25z" />
    <glyph glyph-name="uni1E45" unicode="&#x1e45;" horiz-adv-x="603" 
d="M257 648q0 20 14 34.5t35 14.5q20 0 34.5 -14.5t14.5 -34.5t-14 -34.5t-35 -14.5q-20 0 -34.5 14.5t-14.5 34.5zM328 445q-44 0 -83.5 -24t-87.5 -80v-341h-67v483l67 18v-108q84 112 187 112q77 0 126.5 -51.5t49.5 -143.5v-310h-66v304q0 68 -34.5 104.5t-91.5 36.5z
" />
    <glyph glyph-name="uni1E46" unicode="&#x1e46;" horiz-adv-x="825" 
d="M694 -4l-522 603v-599h-67v700h66l481 -555v555h67v-704h-25zM369 -134q0 20 14 34.5t35 14.5q20 0 34.5 -14.5t14.5 -34.5t-14 -34.5t-35 -14.5q-20 0 -34.5 14.5t-14.5 34.5z" />
    <glyph glyph-name="uni1E47" unicode="&#x1e47;" horiz-adv-x="603" 
d="M328 445q-44 0 -83.5 -24t-87.5 -80v-341h-67v483l67 18v-108q84 112 187 112q77 0 126.5 -51.5t49.5 -143.5v-310h-66v304q0 68 -34.5 104.5t-91.5 36.5zM257 -130q0 20 14 34.5t35 14.5q20 0 34.5 -14.5t14.5 -34.5t-14 -34.5t-35 -14.5q-20 0 -34.5 14.5t-14.5 34.5z
" />
    <glyph glyph-name="uni1E48" unicode="&#x1e48;" horiz-adv-x="825" 
d="M694 -4l-522 603v-599h-67v700h66l481 -555v555h67v-704h-25zM254 -112h328v-52h-328v52z" />
    <glyph glyph-name="uni1E49" unicode="&#x1e49;" horiz-adv-x="603" 
d="M328 445q-44 0 -83.5 -24t-87.5 -80v-341h-67v483l67 18v-108q84 112 187 112q77 0 126.5 -51.5t49.5 -143.5v-310h-66v304q0 68 -34.5 104.5t-91.5 36.5zM142 -112h328v-52h-328v52z" />
    <glyph glyph-name="uni1E4A" unicode="&#x1e4a;" horiz-adv-x="825" 
d="M694 -4l-522 603v-599h-67v700h66l481 -555v555h67v-704h-25zM541 -246l-123 106l-122 -106h-35v1l126 161h62l126 -161v-1h-34z" />
    <glyph glyph-name="uni1E4B" unicode="&#x1e4b;" horiz-adv-x="603" 
d="M328 445q-44 0 -83.5 -24t-87.5 -80v-341h-67v483l67 18v-108q84 112 187 112q77 0 126.5 -51.5t49.5 -143.5v-310h-66v304q0 68 -34.5 104.5t-91.5 36.5zM429 -246l-123 106l-122 -106h-35v1l126 161h62l126 -161v-1h-34z" />
    <glyph glyph-name="uni1E58" unicode="&#x1e58;" horiz-adv-x="620" 
d="M351 823q0 -20 -14.5 -34.5t-35.5 -14.5t-35.5 14.5t-14.5 34.5t14.5 35t35.5 15t35.5 -14.5t14.5 -35.5zM174 637v-283h116q68 0 115.5 40.5t47.5 103.5q0 64 -44.5 101.5t-114.5 37.5h-120zM534 0l-260 291h-99v-291h-70v700h192q99 0 163 -53t64 -149
q0 -73 -48 -126.5t-124 -70.5l271 -301h-89z" />
    <glyph glyph-name="uni1E59" unicode="&#x1e59;" horiz-adv-x="402" 
d="M170 648q0 20 14 34.5t35 14.5q20 0 34.5 -14.5t14.5 -34.5t-14 -34.5t-35 -14.5q-20 0 -34.5 14.5t-14.5 34.5zM157 0h-67v483l67 18v-127q60 72 97.5 100t81.5 28q14 0 32 -5l5 -70q-13 5 -29 5q-46 0 -88.5 -25.5t-98.5 -81.5v-325z" />
    <glyph glyph-name="uni1E5A" unicode="&#x1e5a;" horiz-adv-x="620" 
d="M174 637v-283h116q68 0 115.5 40.5t47.5 103.5q0 64 -44.5 101.5t-114.5 37.5h-120zM534 0l-260 291h-99v-291h-70v700h192q99 0 163 -53t64 -149q0 -73 -48 -126.5t-124 -70.5l271 -301h-89zM298 -137q0 20 14 34.5t35 14.5q20 0 34.5 -14.5t14.5 -34.5t-14 -34.5
t-35 -14.5q-20 0 -34.5 14.5t-14.5 34.5z" />
    <glyph glyph-name="uni1E5B" unicode="&#x1e5b;" horiz-adv-x="402" 
d="M157 0h-67v483l67 18v-127q60 72 97.5 100t81.5 28q14 0 32 -5l5 -70q-13 5 -29 5q-46 0 -88.5 -25.5t-98.5 -81.5v-325zM75 -137q0 20 14 34.5t35 14.5q20 0 34.5 -14.5t14.5 -34.5t-14 -34.5t-35 -14.5q-20 0 -34.5 14.5t-14.5 34.5z" />
    <glyph glyph-name="uni1E5C" unicode="&#x1e5c;" horiz-adv-x="620" 
d="M127 850h348v-52h-348v52zM174 637v-283h116q68 0 115.5 40.5t47.5 103.5q0 64 -44.5 101.5t-114.5 37.5h-120zM534 0l-260 291h-99v-291h-70v700h192q99 0 163 -53t64 -149q0 -73 -48 -126.5t-124 -70.5l271 -301h-89zM298 -137q0 20 14 34.5t35 14.5q20 0 34.5 -14.5
t14.5 -34.5t-14 -34.5t-35 -14.5q-20 0 -34.5 14.5t-14.5 34.5z" />
    <glyph glyph-name="uni1E5D" unicode="&#x1e5d;" horiz-adv-x="402" 
d="M85 675h268v-52h-268v52zM157 0h-67v483l67 18v-127q60 72 97.5 100t81.5 28q14 0 32 -5l5 -70q-13 5 -29 5q-46 0 -88.5 -25.5t-98.5 -81.5v-325zM75 -137q0 20 14 34.5t35 14.5q20 0 34.5 -14.5t14.5 -34.5t-14 -34.5t-35 -14.5q-20 0 -34.5 14.5t-14.5 34.5z" />
    <glyph glyph-name="uni1E5E" unicode="&#x1e5e;" horiz-adv-x="620" 
d="M174 637v-283h116q68 0 115.5 40.5t47.5 103.5q0 64 -44.5 101.5t-114.5 37.5h-120zM534 0l-260 291h-99v-291h-70v700h192q99 0 163 -53t64 -149q0 -73 -48 -126.5t-124 -70.5l271 -301h-89zM183 -112h328v-52h-328v52z" />
    <glyph glyph-name="uni1E5F" unicode="&#x1e5f;" horiz-adv-x="402" 
d="M157 0h-67v483l67 18v-127q60 72 97.5 100t81.5 28q14 0 32 -5l5 -70q-13 5 -29 5q-46 0 -88.5 -25.5t-98.5 -81.5v-325zM-10 -112h268v-52h-268v52z" />
    <glyph glyph-name="uni1E62" unicode="&#x1e62;" horiz-adv-x="556" 
d="M73 529q0 82 58 132.5t148 50.5q100 0 183 -55v-79h-2q-91 69 -184 69q-59 0 -97 -31t-38 -81q0 -47 35.5 -77.5t127.5 -72.5q97 -46 141.5 -91.5t44.5 -115.5q0 -85 -62.5 -137.5t-155.5 -52.5q-116 0 -208 75l-19 97l2 1q110 -108 229 -108q60 0 103 33t43 87
q0 48 -38 80.5t-126 72.5q-94 43 -139.5 87.5t-45.5 115.5zM217 -142q0 20 14 34.5t35 14.5q20 0 34.5 -14.5t14.5 -34.5t-14 -34.5t-35 -14.5q-20 0 -34.5 14.5t-14.5 34.5z" />
    <glyph glyph-name="uni1E63" unicode="&#x1e63;" horiz-adv-x="492" 
d="M442 132q0 -62 -54.5 -102.5t-135.5 -40.5q-108 0 -197 65l-13 81l2 2q102 -89 214 -89q52 0 86 23t34 57q0 36 -30.5 55t-112.5 40q-88 23 -130.5 53.5t-42.5 89.5q0 61 52 100t132 39q83 0 163 -48v-71l-3 -1q-84 60 -167 60q-49 0 -81 -20t-32 -53q0 -34 30 -52.5
t111 -39.5q91 -23 133 -54.5t42 -93.5zM190 -138q0 20 14 34.5t35 14.5q20 0 34.5 -14.5t14.5 -34.5t-14 -34.5t-35 -14.5q-20 0 -34.5 14.5t-14.5 34.5z" />
    <glyph glyph-name="uni1E6C" unicode="&#x1e6c;" horiz-adv-x="704" 
d="M671 636h-284v-636h-70v636h-284v64h638v-64zM303 -137q0 20 14 34.5t35 14.5q20 0 34.5 -14.5t14.5 -34.5t-14 -34.5t-35 -14.5q-20 0 -34.5 14.5t-14.5 34.5z" />
    <glyph glyph-name="uni1E6D" unicode="&#x1e6d;" horiz-adv-x="434" 
d="M381 29q-54 -40 -118 -40q-62 0 -102 39t-40 112v296h-86v58h86v117l65 25v-142h207v-58h-207v-293q0 -46 24.5 -70t64.5 -24q62 0 119 54l3 -1zM198 -137q0 20 14 34.5t35 14.5q20 0 34.5 -14.5t14.5 -34.5t-14 -34.5t-35 -14.5q-20 0 -34.5 14.5t-14.5 34.5z" />
    <glyph glyph-name="uni1E6E" unicode="&#x1e6e;" horiz-adv-x="704" 
d="M671 636h-284v-636h-70v636h-284v64h638v-64zM188 -112h328v-52h-328v52z" />
    <glyph glyph-name="uni1E6F" unicode="&#x1e6f;" horiz-adv-x="434" 
d="M381 29q-54 -40 -118 -40q-62 0 -102 39t-40 112v296h-86v58h86v117l65 25v-142h207v-58h-207v-293q0 -46 24.5 -70t64.5 -24q62 0 119 54l3 -1zM113 -112h268v-52h-268v52z" />
    <glyph glyph-name="uni1E70" unicode="&#x1e70;" horiz-adv-x="704" 
d="M671 636h-284v-636h-70v636h-284v64h638v-64zM475 -246l-123 106l-122 -106h-35v1l126 161h62l126 -161v-1h-34z" />
    <glyph glyph-name="uni1E71" unicode="&#x1e71;" horiz-adv-x="434" 
d="M381 29q-54 -40 -118 -40q-62 0 -102 39t-40 112v296h-86v58h86v117l65 25v-142h207v-58h-207v-293q0 -46 24.5 -70t64.5 -24q62 0 119 54l3 -1zM370 -246l-123 106l-122 -106h-35v1l126 161h62l126 -161v-1h-34z" />
    <glyph glyph-name="uni1E7E" unicode="&#x1e7e;" horiz-adv-x="769" 
d="M373 -14l-337 714h78l270 -587l275 587h75l-344 -714h-17zM333 -142q0 20 14 34.5t35 14.5q20 0 34.5 -14.5t14.5 -34.5t-14 -34.5t-35 -14.5q-20 0 -34.5 14.5t-14.5 34.5z" />
    <glyph glyph-name="uni1E7F" unicode="&#x1e7f;" horiz-adv-x="567" 
d="M271 -12l-245 506h73l182 -392l189 392h72l-256 -506h-15zM231 -137q0 20 14 34.5t35 14.5q20 0 34.5 -14.5t14.5 -34.5t-14 -34.5t-35 -14.5q-20 0 -34.5 14.5t-14.5 34.5z" />
    <glyph glyph-name="Wgrave" unicode="&#x1e80;" horiz-adv-x="1181" 
d="M615 773h-37l-150 140v1h97zM288 -6l-246 706h76l208 -613l260 618h14l255 -618l212 613h74l-253 -706h-68l-230 564l-234 -564h-68z" />
    <glyph glyph-name="wgrave" unicode="&#x1e81;" horiz-adv-x="869" 
d="M456 596h-33l-147 161v1h89zM218 -7l-187 501h70l148 -413l180 417h14l174 -418l154 414h68l-196 -501h-55l-154 371l-161 -371h-55z" />
    <glyph glyph-name="Wacute" unicode="&#x1e82;" horiz-adv-x="1181" 
d="M569 773l90 141h97v-1l-150 -140h-37zM288 -6l-246 706h76l208 -613l260 618h14l255 -618l212 613h74l-253 -706h-68l-230 564l-234 -564h-68z" />
    <glyph glyph-name="wacute" unicode="&#x1e83;" horiz-adv-x="869" 
d="M416 596l91 162h89v-1l-147 -161h-33zM218 -7l-187 501h70l148 -413l180 417h14l174 -418l154 414h68l-196 -501h-55l-154 371l-161 -371h-55z" />
    <glyph glyph-name="Wdieresis" unicode="&#x1e84;" horiz-adv-x="1181" 
d="M749 823q0 -20 -14 -34.5t-35 -14.5t-35 14.5t-14 34.5q0 21 14 35.5t35 14.5t35 -14.5t14 -35.5zM533 823q0 -20 -14 -34.5t-35 -14.5t-35 14.5t-14 34.5q0 21 14 35.5t35 14.5t35 -14.5t14 -35.5zM288 -6l-246 706h76l208 -613l260 618h14l255 -618l212 613h74
l-253 -706h-68l-230 564l-234 -564h-68z" />
    <glyph glyph-name="wdieresis" unicode="&#x1e85;" horiz-adv-x="869" 
d="M490 648q0 20 14 34.5t35 14.5q20 0 34.5 -14.5t14.5 -34.5t-14 -34.5t-35 -14.5q-20 0 -34.5 14.5t-14.5 34.5zM284 648q0 20 14 34.5t35 14.5q20 0 34.5 -14.5t14.5 -34.5t-14 -34.5t-35 -14.5q-20 0 -34.5 14.5t-14.5 34.5zM218 -7l-187 501h70l148 -413l180 417h14
l174 -418l154 414h68l-196 -501h-55l-154 371l-161 -371h-55z" />
    <glyph glyph-name="uni1E8C" unicode="&#x1e8c;" horiz-adv-x="731" 
d="M522 823q0 -20 -14 -34.5t-35 -14.5t-35 14.5t-14 34.5q0 21 14 35.5t35 14.5t35 -14.5t14 -35.5zM306 823q0 -20 -14 -34.5t-35 -14.5t-35 14.5t-14 34.5q0 21 14 35.5t35 14.5t35 -14.5t14 -35.5zM606 0l-243 308l-241 -308h-82l281 355l-273 345h84l235 -296l234 296
h82l-275 -345l283 -355h-85z" />
    <glyph glyph-name="uni1E8D" unicode="&#x1e8d;" horiz-adv-x="550" 
d="M329 648q0 20 14 34.5t35 14.5q20 0 34.5 -14.5t14.5 -34.5t-14 -34.5t-35 -14.5q-20 0 -34.5 14.5t-14.5 34.5zM123 648q0 20 14 34.5t35 14.5q20 0 34.5 -14.5t14.5 -34.5t-14 -34.5t-35 -14.5q-20 0 -34.5 14.5t-14.5 34.5zM439 0l-164 209l-165 -209h-77l203 253
l-192 241h78l154 -196l154 196h76l-191 -239l202 -255h-78z" />
    <glyph glyph-name="uni1E8E" unicode="&#x1e8e;" horiz-adv-x="660" 
d="M380 823q0 -20 -14.5 -34.5t-35.5 -14.5t-35.5 14.5t-14.5 34.5t14.5 35t35.5 15t35.5 -14.5t14.5 -35.5zM366 0h-70v317l-277 383h84l229 -320l228 320h81l-275 -381v-319z" />
    <glyph glyph-name="uni1E8F" unicode="&#x1e8f;" horiz-adv-x="533" 
d="M216 648q0 20 14 34.5t35 14.5q20 0 34.5 -14.5t14.5 -34.5t-14 -34.5t-35 -14.5q-20 0 -34.5 14.5t-14.5 34.5zM114 -191q-40 0 -80 21l-13 67l2 2q43 -28 82 -28q37 1 64 24.5t49 76.5l23 52l-215 470h73l176 -397l162 397h73l-231 -543q-30 -72 -70 -106.5t-95 -35.5z
" />
    <glyph glyph-name="uni1E90" unicode="&#x1e90;" horiz-adv-x="699" 
d="M475 773l-121 90l-121 -90h-41v1l131 140h62l131 -140v-1h-41zM620 0h-570l-6 11l481 625h-447v64h563l6 -11l-481 -625h489z" />
    <glyph glyph-name="uni1E91" unicode="&#x1e91;" horiz-adv-x="527" 
d="M392 596l-123 106l-122 -106h-35v1l126 161h62l126 -161v-1h-34zM469 0h-437l-3 10l343 426h-310v58h420l4 -10l-344 -427h347z" />
    <glyph glyph-name="uni1E92" unicode="&#x1e92;" horiz-adv-x="699" 
d="M620 0h-570l-6 11l481 625h-447v64h563l6 -11l-481 -625h489zM301 -137q0 20 14 34.5t35 14.5q20 0 34.5 -14.5t14.5 -34.5t-14 -34.5t-35 -14.5q-20 0 -34.5 14.5t-14.5 34.5z" />
    <glyph glyph-name="uni1E93" unicode="&#x1e93;" horiz-adv-x="527" 
d="M469 0h-437l-3 10l343 426h-310v58h420l4 -10l-344 -427h347zM211 -137q0 20 14 34.5t35 14.5q20 0 34.5 -14.5t14.5 -34.5t-14 -34.5t-35 -14.5q-20 0 -34.5 14.5t-14.5 34.5z" />
    <glyph glyph-name="uni1E94" unicode="&#x1e94;" horiz-adv-x="699" 
d="M620 0h-570l-6 11l481 625h-447v64h563l6 -11l-481 -625h489zM186 -112h328v-52h-328v52z" />
    <glyph glyph-name="uni1E95" unicode="&#x1e95;" horiz-adv-x="527" 
d="M469 0h-437l-3 10l343 426h-310v58h420l4 -10l-344 -427h347zM96 -112h328v-52h-328v52z" />
    <glyph glyph-name="uni1E96" unicode="&#x1e96;" horiz-adv-x="603" 
d="M328 445q-44 0 -83.5 -24t-87.5 -80v-341h-67v730l67 25v-362q84 112 187 112q77 0 126.5 -51.5t49.5 -143.5v-310h-66v304q0 68 -34.5 104.5t-91.5 36.5zM141 -112h328v-52h-328v52z" />
    <glyph glyph-name="uni1E9E" unicode="&#x1e9e;" horiz-adv-x="692" 
d="M443 -12q-68 0 -132 30l-19 82l2 1q82 -48 150 -48q52 0 88 33.5t36 82.5q0 58 -50 94.5t-187 79.5l-3 12l185 247q-64 46 -154 46q-89 0 -141 -58.5t-52 -155.5v-434h-70v432q0 128 71 204.5t196 76.5q72 0 134.5 -26t101.5 -65v-11l-175 -233q115 -40 164.5 -84.5
t49.5 -124.5q0 -78 -55 -129.5t-140 -51.5z" />
    <glyph glyph-name="uni1EA0" unicode="&#x1ea0;" horiz-adv-x="781" 
d="M556 254l-165 372l-169 -372h334zM669 0l-85 191h-390l-87 -191h-73l326 705h67l318 -705h-76zM341 -137q0 20 14 34.5t35 14.5q20 0 34.5 -14.5t14.5 -34.5t-14 -34.5t-35 -14.5q-20 0 -34.5 14.5t-14.5 34.5z" />
    <glyph glyph-name="uni1EA1" unicode="&#x1ea1;" horiz-adv-x="562" 
d="M212 48q76 0 200 84v114q-88 -4 -148.5 -15.5t-90 -29.5t-41.5 -36t-12 -41q0 -35 26 -55.5t66 -20.5zM412 -7v94q-117 -96 -212 -96q-63 0 -104.5 35.5t-41.5 94.5q0 36 15.5 64t53.5 52.5t111 38.5t178 16v12q0 68 -33 103.5t-93 35.5q-87 0 -181 -72l-2 1l14 76
q84 56 178 56q86 0 134.5 -50.5t48.5 -145.5v-297zM231 -137q0 20 14 34.5t35 14.5q20 0 34.5 -14.5t14.5 -34.5t-14 -34.5t-35 -14.5q-20 0 -34.5 14.5t-14.5 34.5z" />
    <glyph glyph-name="uni1EA2" unicode="&#x1ea2;" horiz-adv-x="781" 
d="M396 772l-40 13v2q63 36 82 52.5t19 33.5q0 16 -16 25t-41 9q-55 0 -120 -37h-1v48q60 34 125 34q48 0 77.5 -18.5t29.5 -51.5q0 -30 -24.5 -52.5t-90.5 -57.5zM556 254l-165 372l-169 -372h334zM669 0l-85 191h-390l-87 -191h-73l326 705h67l318 -705h-76z" />
    <glyph glyph-name="uni1EA3" unicode="&#x1ea3;" horiz-adv-x="562" 
d="M290 591l-38 12v2q61 49 80 70t19 41q0 41 -53 41q-52 0 -114 -49h-1v57q55 43 120 43q45 0 73 -21.5t28 -59.5q0 -36 -26.5 -64.5t-87.5 -71.5zM212 48q76 0 200 84v114q-88 -4 -148.5 -15.5t-90 -29.5t-41.5 -36t-12 -41q0 -35 26 -55.5t66 -20.5zM412 -7v94
q-117 -96 -212 -96q-63 0 -104.5 35.5t-41.5 94.5q0 36 15.5 64t53.5 52.5t111 38.5t178 16v12q0 68 -33 103.5t-93 35.5q-87 0 -181 -72l-2 1l14 76q84 56 178 56q86 0 134.5 -50.5t48.5 -145.5v-297z" />
    <glyph glyph-name="uni1EA4" unicode="&#x1ea4;" horiz-adv-x="781" 
d="M509 882l73 105h92v-1l-129 -104h-36zM513 773l-121 86l-121 -86h-41v1l131 136h62l131 -136v-1h-41zM556 254l-165 372l-169 -372h334zM669 0l-85 191h-390l-87 -191h-73l326 705h67l318 -705h-76z" />
    <glyph glyph-name="uni1EA5" unicode="&#x1ea5;" horiz-adv-x="562" 
d="M444 721h-32l75 129h77zM415 596l-128 88l-127 -88h-35v1l131 140h62l131 -140v-1h-34zM212 48q76 0 200 84v114q-88 -4 -148.5 -15.5t-90 -29.5t-41.5 -36t-12 -41q0 -35 26 -55.5t66 -20.5zM412 -7v94q-117 -96 -212 -96q-63 0 -104.5 35.5t-41.5 94.5q0 36 15.5 64
t53.5 52.5t111 38.5t178 16v12q0 68 -33 103.5t-93 35.5q-87 0 -181 -72l-2 1l14 76q84 56 178 56q86 0 134.5 -50.5t48.5 -145.5v-297z" />
    <glyph glyph-name="uni1EA6" unicode="&#x1ea6;" horiz-adv-x="781" 
d="M637 882h-37l-128 104v1h91zM513 773l-121 86l-121 -86h-41v1l131 136h62l131 -136v-1h-41zM556 254l-165 372l-169 -372h334zM669 0l-85 191h-390l-87 -191h-73l326 705h67l318 -705h-76z" />
    <glyph glyph-name="uni1EA7" unicode="&#x1ea7;" horiz-adv-x="562" 
d="M512 721h-32l-120 129h78zM415 596l-128 88l-127 -88h-35v1l131 140h62l131 -140v-1h-34zM212 48q76 0 200 84v114q-88 -4 -148.5 -15.5t-90 -29.5t-41.5 -36t-12 -41q0 -35 26 -55.5t66 -20.5zM412 -7v94q-117 -96 -212 -96q-63 0 -104.5 35.5t-41.5 94.5q0 36 15.5 64
t53.5 52.5t111 38.5t178 16v12q0 68 -33 103.5t-93 35.5q-87 0 -181 -72l-2 1l14 76q84 56 178 56q86 0 134.5 -50.5t48.5 -145.5v-297z" />
    <glyph glyph-name="uni1EA8" unicode="&#x1ea8;" horiz-adv-x="781" 
d="M565 885l-34 10v1q48 33 61.5 45.5t13.5 23.5q0 21 -34 21q-43 0 -97 -31h-1v41q50 29 102 29q35 0 56.5 -14t21.5 -39q0 -22 -18.5 -39.5t-70.5 -47.5zM513 773l-121 86l-121 -86h-41v1l131 136h62l131 -136v-1h-41zM556 254l-165 372l-169 -372h334zM669 0l-85 191
h-390l-87 -191h-73l326 705h67l318 -705h-76z" />
    <glyph glyph-name="uni1EA9" unicode="&#x1ea9;" horiz-adv-x="562" 
d="M472 707l-35 12v1q51 36 65.5 51.5t14.5 29.5q0 28 -41 28q-48 0 -103 -37h-1v46q51 34 108 34q40 0 63.5 -17t23.5 -46q0 -26 -21 -46.5t-74 -55.5zM415 596l-128 88l-127 -88h-35v1l131 140h62l131 -140v-1h-34zM212 48q76 0 200 84v114q-88 -4 -148.5 -15.5t-90 -29.5
t-41.5 -36t-12 -41q0 -35 26 -55.5t66 -20.5zM412 -7v94q-117 -96 -212 -96q-63 0 -104.5 35.5t-41.5 94.5q0 36 15.5 64t53.5 52.5t111 38.5t178 16v12q0 68 -33 103.5t-93 35.5q-87 0 -181 -72l-2 1l14 76q84 56 178 56q86 0 134.5 -50.5t48.5 -145.5v-297z" />
    <glyph glyph-name="uni1EAA" unicode="&#x1eaa;" horiz-adv-x="781" 
d="M467 977q13 0 26 11.5t41 49.5l29 -18q-35 -55 -55 -74.5t-46 -19.5q-21 0 -76 28.5t-69 28.5q-13 0 -26 -11.5t-41 -49.5l-29 18q35 55 55 74.5t46 19.5q21 0 76 -28.5t69 -28.5zM513 773l-121 69l-121 -69h-41v1l128 113h68l128 -113v-1h-41zM556 254l-165 372
l-169 -372h334zM669 0l-85 191h-390l-87 -191h-73l326 705h67l318 -705h-76z" />
    <glyph glyph-name="uni1EAB" unicode="&#x1eab;" horiz-adv-x="562" 
d="M353 819q13 0 25.5 10.5t37.5 46.5l28 -18q-32 -54 -50.5 -73t-43.5 -19q-21 0 -68.5 26.5t-60.5 26.5t-25 -11t-38 -46l-28 17q32 54 50.5 73t43.5 19q21 0 68.5 -26t60.5 -26zM415 596l-128 75l-127 -75h-35v1l129 123h66l129 -123v-1h-34zM212 48q76 0 200 84v114
q-88 -4 -148.5 -15.5t-90 -29.5t-41.5 -36t-12 -41q0 -35 26 -55.5t66 -20.5zM412 -7v94q-117 -96 -212 -96q-63 0 -104.5 35.5t-41.5 94.5q0 36 15.5 64t53.5 52.5t111 38.5t178 16v12q0 68 -33 103.5t-93 35.5q-87 0 -181 -72l-2 1l14 76q84 56 178 56q86 0 134.5 -50.5
t48.5 -145.5v-297z" />
    <glyph glyph-name="uni1EAC" unicode="&#x1eac;" horiz-adv-x="781" 
d="M513 773l-121 90l-121 -90h-41v1l131 140h62l131 -140v-1h-41zM556 254l-165 372l-169 -372h334zM669 0l-85 191h-390l-87 -191h-73l326 705h67l318 -705h-76zM341 -137q0 20 14 34.5t35 14.5q20 0 34.5 -14.5t14.5 -34.5t-14 -34.5t-35 -14.5q-20 0 -34.5 14.5
t-14.5 34.5z" />
    <glyph glyph-name="uni1EAD" unicode="&#x1ead;" horiz-adv-x="562" 
d="M410 596l-123 106l-122 -106h-35v1l126 161h62l126 -161v-1h-34zM212 48q76 0 200 84v114q-88 -4 -148.5 -15.5t-90 -29.5t-41.5 -36t-12 -41q0 -35 26 -55.5t66 -20.5zM412 -7v94q-117 -96 -212 -96q-63 0 -104.5 35.5t-41.5 94.5q0 36 15.5 64t53.5 52.5t111 38.5
t178 16v12q0 68 -33 103.5t-93 35.5q-87 0 -181 -72l-2 1l14 76q84 56 178 56q86 0 134.5 -50.5t48.5 -145.5v-297zM231 -137q0 20 14 34.5t35 14.5q20 0 34.5 -14.5t14.5 -34.5t-14 -34.5t-35 -14.5q-20 0 -34.5 14.5t-14.5 34.5z" />
    <glyph glyph-name="uni1EAE" unicode="&#x1eae;" horiz-adv-x="781" 
d="M359 911l72 118h88v-1l-129 -117h-31zM392 774q-59 0 -100.5 28t-74.5 80l25 21q36 -36 70 -54t80 -18t80 18t70 54l25 -21q-33 -52 -74.5 -80t-100.5 -28zM556 254l-165 372l-169 -372h334zM669 0l-85 191h-390l-87 -191h-73l326 705h67l318 -705h-76z" />
    <glyph glyph-name="uni1EAF" unicode="&#x1eaf;" horiz-adv-x="562" 
d="M291 733h-31l74 129h88zM286 592q-99 0 -162 110l26 20q34 -39 64 -57t72 -18q41 0 72.5 19t64.5 58l26 -19q-61 -113 -163 -113zM212 48q76 0 200 84v114q-88 -4 -148.5 -15.5t-90 -29.5t-41.5 -36t-12 -41q0 -35 26 -55.5t66 -20.5zM412 -7v94q-117 -96 -212 -96
q-63 0 -104.5 35.5t-41.5 94.5q0 36 15.5 64t53.5 52.5t111 38.5t178 16v12q0 68 -33 103.5t-93 35.5q-87 0 -181 -72l-2 1l14 76q84 56 178 56q86 0 134.5 -50.5t48.5 -145.5v-297z" />
    <glyph glyph-name="uni1EB0" unicode="&#x1eb0;" horiz-adv-x="781" 
d="M425 911h-31l-129 117v1h88zM392 774q-59 0 -100.5 28t-74.5 80l25 21q36 -36 70 -54t80 -18t80 18t70 54l25 -21q-33 -52 -74.5 -80t-100.5 -28zM556 254l-165 372l-169 -372h334zM669 0l-85 191h-390l-87 -191h-73l326 705h67l318 -705h-76z" />
    <glyph glyph-name="uni1EB1" unicode="&#x1eb1;" horiz-adv-x="562" 
d="M314 733h-31l-131 129h88zM286 592q-99 0 -162 110l26 20q34 -39 64 -57t72 -18q41 0 72.5 19t64.5 58l26 -19q-61 -113 -163 -113zM212 48q76 0 200 84v114q-88 -4 -148.5 -15.5t-90 -29.5t-41.5 -36t-12 -41q0 -35 26 -55.5t66 -20.5zM412 -7v94q-117 -96 -212 -96
q-63 0 -104.5 35.5t-41.5 94.5q0 36 15.5 64t53.5 52.5t111 38.5t178 16v12q0 68 -33 103.5t-93 35.5q-87 0 -181 -72l-2 1l14 76q84 56 178 56q86 0 134.5 -50.5t48.5 -145.5v-297z" />
    <glyph glyph-name="uni1EB2" unicode="&#x1eb2;" horiz-adv-x="781" 
d="M395 906l-37 12v1q56 37 72 52t16 29q0 27 -42 27q-47 0 -109 -37h-1v45q57 34 115 34q40 0 65.5 -17t25.5 -44q0 -25 -23.5 -46t-81.5 -56zM392 774q-59 0 -100.5 28t-74.5 80l25 21q36 -36 70 -54t80 -18t80 18t70 54l25 -21q-33 -52 -74.5 -80t-100.5 -28zM556 254
l-165 372l-169 -372h334zM669 0l-85 191h-390l-87 -191h-73l326 705h67l318 -705h-76z" />
    <glyph glyph-name="uni1EB3" unicode="&#x1eb3;" horiz-adv-x="562" 
d="M291 736l-35 12v1q56 39 73 56t17 31t-12.5 23t-34.5 9q-50 0 -110 -42h-1v48q55 37 115 37q43 0 68.5 -17.5t25.5 -48.5q0 -27 -24 -49.5t-82 -59.5zM286 592q-99 0 -162 110l26 20q34 -39 64 -57t72 -18q41 0 72.5 19t64.5 58l26 -19q-61 -113 -163 -113zM212 48
q76 0 200 84v114q-88 -4 -148.5 -15.5t-90 -29.5t-41.5 -36t-12 -41q0 -35 26 -55.5t66 -20.5zM412 -7v94q-117 -96 -212 -96q-63 0 -104.5 35.5t-41.5 94.5q0 36 15.5 64t53.5 52.5t111 38.5t178 16v12q0 68 -33 103.5t-93 35.5q-87 0 -181 -72l-2 1l14 76q84 56 178 56
q86 0 134.5 -50.5t48.5 -145.5v-297z" />
    <glyph glyph-name="uni1EB4" unicode="&#x1eb4;" horiz-adv-x="781" 
d="M471 987q14 0 27 11.5t41 50.5l28 -19q-35 -56 -54.5 -75t-45.5 -19q-22 0 -77 29t-69 29q-13 0 -26 -11.5t-39 -48.5l-29 18q33 54 53 73.5t46 19.5q21 0 76 -29t69 -29zM392 774q-59 0 -100.5 28t-74.5 80l25 21q36 -36 70 -54t80 -18t80 18t70 54l25 -21
q-33 -52 -74.5 -80t-100.5 -28zM556 254l-165 372l-169 -372h334zM669 0l-85 191h-390l-87 -191h-73l326 705h67l318 -705h-76z" />
    <glyph glyph-name="uni1EB5" unicode="&#x1eb5;" horiz-adv-x="562" 
d="M355 816q14 0 27 10.5t39 45.5l29 -19q-35 -54 -54 -72t-43 -18q-23 0 -71.5 28t-62.5 28t-27 -10.5t-39 -45.5l-29 17q35 54 54 72t43 18q23 0 72 -27t62 -27zM286 592q-99 0 -162 110l26 20q34 -39 64 -57t72 -18q41 0 72.5 19t64.5 58l26 -19q-61 -113 -163 -113z
M212 48q76 0 200 84v114q-88 -4 -148.5 -15.5t-90 -29.5t-41.5 -36t-12 -41q0 -35 26 -55.5t66 -20.5zM412 -7v94q-117 -96 -212 -96q-63 0 -104.5 35.5t-41.5 94.5q0 36 15.5 64t53.5 52.5t111 38.5t178 16v12q0 68 -33 103.5t-93 35.5q-87 0 -181 -72l-2 1l14 76
q84 56 178 56q86 0 134.5 -50.5t48.5 -145.5v-297z" />
    <glyph glyph-name="uni1EB6" unicode="&#x1eb6;" horiz-adv-x="781" 
d="M392 774q-59 0 -100 31.5t-75 87.5l28 20q37 -40 70 -61t77 -21t77 21t70 61l28 -20q-34 -56 -75 -87.5t-100 -31.5zM556 254l-165 372l-169 -372h334zM669 0l-85 191h-390l-87 -191h-73l326 705h67l318 -705h-76zM341 -137q0 20 14 34.5t35 14.5q20 0 34.5 -14.5
t14.5 -34.5t-14 -34.5t-35 -14.5q-20 0 -34.5 14.5t-14.5 34.5z" />
    <glyph glyph-name="uni1EB7" unicode="&#x1eb7;" horiz-adv-x="562" 
d="M287 592q-56 0 -94 36t-68 102l32 18q31 -48 60.5 -72t69.5 -24t69.5 24t60.5 72l32 -18q-30 -66 -68 -102t-94 -36zM212 48q76 0 200 84v114q-88 -4 -148.5 -15.5t-90 -29.5t-41.5 -36t-12 -41q0 -35 26 -55.5t66 -20.5zM412 -7v94q-117 -96 -212 -96q-63 0 -104.5 35.5
t-41.5 94.5q0 36 15.5 64t53.5 52.5t111 38.5t178 16v12q0 68 -33 103.5t-93 35.5q-87 0 -181 -72l-2 1l14 76q84 56 178 56q86 0 134.5 -50.5t48.5 -145.5v-297zM231 -137q0 20 14 34.5t35 14.5q20 0 34.5 -14.5t14.5 -34.5t-14 -34.5t-35 -14.5q-20 0 -34.5 14.5
t-14.5 34.5z" />
    <glyph glyph-name="uni1EB8" unicode="&#x1eb8;" horiz-adv-x="570" 
d="M105 0v700h384l23 -64h-337v-248h286v-64h-286v-260h340l-23 -64h-387zM258 -137q0 20 14 34.5t35 14.5q20 0 34.5 -14.5t14.5 -34.5t-14 -34.5t-35 -14.5q-20 0 -34.5 14.5t-14.5 34.5z" />
    <glyph glyph-name="uni1EB9" unicode="&#x1eb9;" horiz-adv-x="558" 
d="M283 449q-70 0 -117 -51.5t-52 -126.5h328q-4 79 -45.5 128.5t-113.5 49.5zM467 36q-81 -47 -167 -47q-114 0 -183 70.5t-69 188.5q0 107 67.5 183.5t170.5 76.5q106 0 164.5 -74t58.5 -180q0 -14 -2 -34h-391q9 -81 60.5 -125.5t130.5 -44.5q89 0 182 61l2 -1zM243 -140
q0 20 14 34.5t35 14.5q20 0 34.5 -14.5t14.5 -34.5t-14 -34.5t-35 -14.5q-20 0 -34.5 14.5t-14.5 34.5z" />
    <glyph glyph-name="uni1EBA" unicode="&#x1eba;" horiz-adv-x="570" 
d="M311 772l-40 13v2q63 36 82 52.5t19 33.5q0 16 -16 25t-41 9q-55 0 -120 -37h-1v48q60 34 125 34q48 0 77.5 -18.5t29.5 -51.5q0 -30 -24.5 -52.5t-90.5 -57.5zM105 0v700h384l23 -64h-337v-248h286v-64h-286v-260h340l-23 -64h-387z" />
    <glyph glyph-name="uni1EBB" unicode="&#x1ebb;" horiz-adv-x="558" 
d="M291 594l-38 12v2q61 49 80 70t19 41q0 41 -53 41q-52 0 -114 -49h-1v57q55 43 120 43q45 0 73 -21.5t28 -59.5q0 -36 -26.5 -64.5t-87.5 -71.5zM283 449q-70 0 -117 -51.5t-52 -126.5h328q-4 79 -45.5 128.5t-113.5 49.5zM467 36q-81 -47 -167 -47q-114 0 -183 70.5
t-69 188.5q0 107 67.5 183.5t170.5 76.5q106 0 164.5 -74t58.5 -180q0 -14 -2 -34h-391q9 -81 60.5 -125.5t130.5 -44.5q89 0 182 61l2 -1z" />
    <glyph glyph-name="uni1EBC" unicode="&#x1ebc;" horiz-adv-x="570" 
d="M389 828q16 0 30 14.5t47 64.5l31 -21q-39 -67 -62 -90t-52 -23q-25 0 -83 37.5t-75 37.5q-16 0 -30 -14.5t-47 -64.5l-31 21q39 67 62 90t52 23q25 0 83 -37.5t75 -37.5zM105 0v700h384l23 -64h-337v-248h286v-64h-286v-260h340l-23 -64h-387z" />
    <glyph glyph-name="uni1EBD" unicode="&#x1ebd;" horiz-adv-x="558" 
d="M369 659q15 0 29 17t48 73l34 -20q-40 -75 -63 -101.5t-53 -26.5q-26 0 -83.5 42.5t-73.5 42.5q-15 0 -29.5 -17t-47.5 -72l-34 20q40 74 63 100.5t53 26.5q26 0 83.5 -42.5t73.5 -42.5zM283 449q-70 0 -117 -51.5t-52 -126.5h328q-4 79 -45.5 128.5t-113.5 49.5zM467 36
q-81 -47 -167 -47q-114 0 -183 70.5t-69 188.5q0 107 67.5 183.5t170.5 76.5q106 0 164.5 -74t58.5 -180q0 -14 -2 -34h-391q9 -81 60.5 -125.5t130.5 -44.5q89 0 182 61l2 -1z" />
    <glyph glyph-name="uni1EBE" unicode="&#x1ebe;" horiz-adv-x="570" 
d="M424 882l73 105h92v-1l-129 -104h-36zM428 773l-121 86l-121 -86h-41v1l131 136h62l131 -136v-1h-41zM105 0v700h384l23 -64h-337v-248h286v-64h-286v-260h340l-23 -64h-387z" />
    <glyph glyph-name="uni1EBF" unicode="&#x1ebf;" horiz-adv-x="558" 
d="M445 724h-32l75 129h77zM416 599l-128 88l-127 -88h-35v1l131 140h62l131 -140v-1h-34zM283 449q-70 0 -117 -51.5t-52 -126.5h328q-4 79 -45.5 128.5t-113.5 49.5zM467 36q-81 -47 -167 -47q-114 0 -183 70.5t-69 188.5q0 107 67.5 183.5t170.5 76.5q106 0 164.5 -74
t58.5 -180q0 -14 -2 -34h-391q9 -81 60.5 -125.5t130.5 -44.5q89 0 182 61l2 -1z" />
    <glyph glyph-name="uni1EC0" unicode="&#x1ec0;" horiz-adv-x="570" 
d="M552 882h-37l-128 104v1h91zM428 773l-121 86l-121 -86h-41v1l131 136h62l131 -136v-1h-41zM105 0v700h384l23 -64h-337v-248h286v-64h-286v-260h340l-23 -64h-387z" />
    <glyph glyph-name="uni1EC1" unicode="&#x1ec1;" horiz-adv-x="558" 
d="M513 724h-32l-120 129h78zM416 599l-128 88l-127 -88h-35v1l131 140h62l131 -140v-1h-34zM283 449q-70 0 -117 -51.5t-52 -126.5h328q-4 79 -45.5 128.5t-113.5 49.5zM467 36q-81 -47 -167 -47q-114 0 -183 70.5t-69 188.5q0 107 67.5 183.5t170.5 76.5q106 0 164.5 -74
t58.5 -180q0 -14 -2 -34h-391q9 -81 60.5 -125.5t130.5 -44.5q89 0 182 61l2 -1z" />
    <glyph glyph-name="uni1EC2" unicode="&#x1ec2;" horiz-adv-x="570" 
d="M480 885l-34 10v1q48 33 61.5 45.5t13.5 23.5q0 21 -34 21q-43 0 -97 -31h-1v41q50 29 102 29q35 0 56.5 -14t21.5 -39q0 -22 -18.5 -39.5t-70.5 -47.5zM428 773l-121 86l-121 -86h-41v1l131 136h62l131 -136v-1h-41zM105 0v700h384l23 -64h-337v-248h286v-64h-286v-260
h340l-23 -64h-387z" />
    <glyph glyph-name="uni1EC3" unicode="&#x1ec3;" horiz-adv-x="558" 
d="M473 710l-35 12v1q51 36 65.5 51.5t14.5 29.5q0 28 -41 28q-48 0 -103 -37h-1v46q51 34 108 34q40 0 63.5 -17t23.5 -46q0 -26 -21 -46.5t-74 -55.5zM416 599l-128 88l-127 -88h-35v1l131 140h62l131 -140v-1h-34zM283 449q-70 0 -117 -51.5t-52 -126.5h328
q-4 79 -45.5 128.5t-113.5 49.5zM467 36q-81 -47 -167 -47q-114 0 -183 70.5t-69 188.5q0 107 67.5 183.5t170.5 76.5q106 0 164.5 -74t58.5 -180q0 -14 -2 -34h-391q9 -81 60.5 -125.5t130.5 -44.5q89 0 182 61l2 -1z" />
    <glyph glyph-name="uni1EC4" unicode="&#x1ec4;" horiz-adv-x="570" 
d="M382 977q13 0 26 11.5t41 49.5l29 -18q-35 -55 -55 -74.5t-46 -19.5q-21 0 -76 28.5t-69 28.5q-13 0 -26 -11.5t-41 -49.5l-29 18q35 55 55 74.5t46 19.5q21 0 76 -28.5t69 -28.5zM428 773l-121 69l-121 -69h-41v1l128 113h68l128 -113v-1h-41zM105 0v700h384l23 -64
h-337v-248h286v-64h-286v-260h340l-23 -64h-387z" />
    <glyph glyph-name="uni1EC5" unicode="&#x1ec5;" horiz-adv-x="558" 
d="M354 822q13 0 25.5 10.5t37.5 46.5l28 -18q-32 -54 -50.5 -73t-43.5 -19q-21 0 -68.5 26.5t-60.5 26.5t-25 -11t-38 -46l-28 17q32 54 50.5 73t43.5 19q21 0 68.5 -26t60.5 -26zM416 599l-128 75l-127 -75h-35v1l129 123h66l129 -123v-1h-34zM283 449q-70 0 -117 -51.5
t-52 -126.5h328q-4 79 -45.5 128.5t-113.5 49.5zM467 36q-81 -47 -167 -47q-114 0 -183 70.5t-69 188.5q0 107 67.5 183.5t170.5 76.5q106 0 164.5 -74t58.5 -180q0 -14 -2 -34h-391q9 -81 60.5 -125.5t130.5 -44.5q89 0 182 61l2 -1z" />
    <glyph glyph-name="uni1EC6" unicode="&#x1ec6;" horiz-adv-x="570" 
d="M428 773l-121 90l-121 -90h-41v1l131 140h62l131 -140v-1h-41zM105 0v700h384l23 -64h-337v-248h286v-64h-286v-260h340l-23 -64h-387zM258 -137q0 20 14 34.5t35 14.5q20 0 34.5 -14.5t14.5 -34.5t-14 -34.5t-35 -14.5q-20 0 -34.5 14.5t-14.5 34.5z" />
    <glyph glyph-name="uni1EC7" unicode="&#x1ec7;" horiz-adv-x="558" 
d="M411 599l-123 106l-122 -106h-35v1l126 161h62l126 -161v-1h-34zM283 449q-70 0 -117 -51.5t-52 -126.5h328q-4 79 -45.5 128.5t-113.5 49.5zM467 36q-81 -47 -167 -47q-114 0 -183 70.5t-69 188.5q0 107 67.5 183.5t170.5 76.5q106 0 164.5 -74t58.5 -180q0 -14 -2 -34
h-391q9 -81 60.5 -125.5t130.5 -44.5q89 0 182 61l2 -1zM243 -140q0 20 14 34.5t35 14.5q20 0 34.5 -14.5t14.5 -34.5t-14 -34.5t-35 -14.5q-20 0 -34.5 14.5t-14.5 34.5z" />
    <glyph glyph-name="uni1EC8" unicode="&#x1ec8;" horiz-adv-x="291" 
d="M149 772l-40 13v2q63 36 82 52.5t19 33.5q0 16 -16 25t-41 9q-55 0 -120 -37h-1v48q60 34 125 34q48 0 77.5 -18.5t29.5 -51.5q0 -30 -24.5 -52.5t-90.5 -57.5zM110 0v700h70v-700h-70z" />
    <glyph glyph-name="uni1EC9" unicode="&#x1ec9;" horiz-adv-x="257" 
d="M132 591l-38 12v2q61 49 80 70t19 41q0 41 -53 41q-52 0 -114 -49h-1v57q55 43 120 43q45 0 73 -21.5t28 -59.5q0 -36 -26.5 -64.5t-87.5 -71.5zM95 0v494h67v-494h-67z" />
    <glyph glyph-name="uni1ECA" unicode="&#x1eca;" horiz-adv-x="291" 
d="M110 0v700h70v-700h-70zM96 -137q0 20 14 34.5t35 14.5q20 0 34.5 -14.5t14.5 -34.5t-14 -34.5t-35 -14.5q-20 0 -34.5 14.5t-14.5 34.5z" />
    <glyph glyph-name="uni1ECB" unicode="&#x1ecb;" horiz-adv-x="257" 
d="M177 670q0 -20 -14 -34.5t-35 -14.5q-20 0 -34 14.5t-14 34.5t14 34.5t35 14.5q20 0 34 -14.5t14 -34.5zM95 0v494h67v-494h-67zM80 -137q0 20 14 34.5t35 14.5q20 0 34.5 -14.5t14.5 -34.5t-14 -34.5t-35 -14.5q-20 0 -34.5 14.5t-14.5 34.5z" />
    <glyph glyph-name="uni1ECC" unicode="&#x1ecc;" horiz-adv-x="845" 
d="M59 349q0 153 105.5 259t258.5 106q152 0 257.5 -105.5t105.5 -257.5q0 -154 -106 -259.5t-259 -105.5q-152 0 -257 105.5t-105 257.5zM131 351q0 -126 85 -213t206 -87q119 0 205.5 87t86.5 211q0 126 -86 213t-208 87q-119 0 -204 -86.5t-85 -211.5zM373 -142
q0 20 14 34.5t35 14.5q20 0 34.5 -14.5t14.5 -34.5t-14 -34.5t-35 -14.5q-20 0 -34.5 14.5t-14.5 34.5z" />
    <glyph glyph-name="uni1ECD" unicode="&#x1ecd;" horiz-adv-x="616" 
d="M48 246q0 107 73.5 184.5t187.5 77.5q115 0 186.5 -77t71.5 -183q0 -107 -73.5 -184.5t-187.5 -77.5q-113 0 -185.5 77t-72.5 183zM308 448q-84 0 -138 -58t-54 -143q0 -86 54.5 -144t136.5 -58q84 0 138.5 59t54.5 143q0 85 -54.5 143t-137.5 58zM259 -140q0 20 14 34.5
t35 14.5q20 0 34.5 -14.5t14.5 -34.5t-14 -34.5t-35 -14.5q-20 0 -34.5 14.5t-14.5 34.5z" />
    <glyph glyph-name="uni1ECE" unicode="&#x1ece;" horiz-adv-x="845" 
d="M426 777l-40 13v2q63 36 82 52.5t19 33.5q0 16 -16 25t-41 9q-55 0 -120 -37h-1v48q60 34 125 34q48 0 77.5 -18.5t29.5 -51.5q0 -30 -24.5 -52.5t-90.5 -57.5zM59 349q0 153 105.5 259t258.5 106q152 0 257.5 -105.5t105.5 -257.5q0 -154 -106 -259.5t-259 -105.5
q-152 0 -257 105.5t-105 257.5zM131 351q0 -126 85 -213t206 -87q119 0 205.5 87t86.5 211q0 126 -86 213t-208 87q-119 0 -204 -86.5t-85 -211.5z" />
    <glyph glyph-name="uni1ECF" unicode="&#x1ecf;" horiz-adv-x="616" 
d="M311 594l-38 12v2q61 49 80 70t19 41q0 41 -53 41q-52 0 -114 -49h-1v57q55 43 120 43q45 0 73 -21.5t28 -59.5q0 -36 -26.5 -64.5t-87.5 -71.5zM48 246q0 107 73.5 184.5t187.5 77.5q115 0 186.5 -77t71.5 -183q0 -107 -73.5 -184.5t-187.5 -77.5q-113 0 -185.5 77
t-72.5 183zM308 448q-84 0 -138 -58t-54 -143q0 -86 54.5 -144t136.5 -58q84 0 138.5 59t54.5 143q0 85 -54.5 143t-137.5 58z" />
    <glyph glyph-name="uni1ED0" unicode="&#x1ed0;" horiz-adv-x="845" 
d="M539 887l73 105h92v-1l-129 -104h-36zM543 778l-121 86l-121 -86h-41v1l131 136h62l131 -136v-1h-41zM59 349q0 153 105.5 259t258.5 106q152 0 257.5 -105.5t105.5 -257.5q0 -154 -106 -259.5t-259 -105.5q-152 0 -257 105.5t-105 257.5zM131 351q0 -126 85 -213
t206 -87q119 0 205.5 87t86.5 211q0 126 -86 213t-208 87q-119 0 -204 -86.5t-85 -211.5z" />
    <glyph glyph-name="uni1ED1" unicode="&#x1ed1;" horiz-adv-x="616" 
d="M465 724h-32l75 129h77zM436 599l-128 88l-127 -88h-35v1l131 140h62l131 -140v-1h-34zM48 246q0 107 73.5 184.5t187.5 77.5q115 0 186.5 -77t71.5 -183q0 -107 -73.5 -184.5t-187.5 -77.5q-113 0 -185.5 77t-72.5 183zM308 448q-84 0 -138 -58t-54 -143
q0 -86 54.5 -144t136.5 -58q84 0 138.5 59t54.5 143q0 85 -54.5 143t-137.5 58z" />
    <glyph glyph-name="uni1ED2" unicode="&#x1ed2;" horiz-adv-x="845" 
d="M667 887h-37l-128 104v1h91zM543 778l-121 86l-121 -86h-41v1l131 136h62l131 -136v-1h-41zM59 349q0 153 105.5 259t258.5 106q152 0 257.5 -105.5t105.5 -257.5q0 -154 -106 -259.5t-259 -105.5q-152 0 -257 105.5t-105 257.5zM131 351q0 -126 85 -213t206 -87
q119 0 205.5 87t86.5 211q0 126 -86 213t-208 87q-119 0 -204 -86.5t-85 -211.5z" />
    <glyph glyph-name="uni1ED3" unicode="&#x1ed3;" horiz-adv-x="616" 
d="M533 724h-32l-120 129h78zM436 599l-128 88l-127 -88h-35v1l131 140h62l131 -140v-1h-34zM48 246q0 107 73.5 184.5t187.5 77.5q115 0 186.5 -77t71.5 -183q0 -107 -73.5 -184.5t-187.5 -77.5q-113 0 -185.5 77t-72.5 183zM308 448q-84 0 -138 -58t-54 -143
q0 -86 54.5 -144t136.5 -58q84 0 138.5 59t54.5 143q0 85 -54.5 143t-137.5 58z" />
    <glyph glyph-name="uni1ED4" unicode="&#x1ed4;" horiz-adv-x="845" 
d="M595 890l-34 10v1q48 33 61.5 45.5t13.5 23.5q0 21 -34 21q-43 0 -97 -31h-1v41q50 29 102 29q35 0 56.5 -14t21.5 -39q0 -22 -18.5 -39.5t-70.5 -47.5zM543 778l-121 86l-121 -86h-41v1l131 136h62l131 -136v-1h-41zM59 349q0 153 105.5 259t258.5 106
q152 0 257.5 -105.5t105.5 -257.5q0 -154 -106 -259.5t-259 -105.5q-152 0 -257 105.5t-105 257.5zM131 351q0 -126 85 -213t206 -87q119 0 205.5 87t86.5 211q0 126 -86 213t-208 87q-119 0 -204 -86.5t-85 -211.5z" />
    <glyph glyph-name="uni1ED5" unicode="&#x1ed5;" horiz-adv-x="616" 
d="M493 710l-35 12v1q51 36 65.5 51.5t14.5 29.5q0 28 -41 28q-48 0 -103 -37h-1v46q51 34 108 34q40 0 63.5 -17t23.5 -46q0 -26 -21 -46.5t-74 -55.5zM436 599l-128 88l-127 -88h-35v1l131 140h62l131 -140v-1h-34zM48 246q0 107 73.5 184.5t187.5 77.5q115 0 186.5 -77
t71.5 -183q0 -107 -73.5 -184.5t-187.5 -77.5q-113 0 -185.5 77t-72.5 183zM308 448q-84 0 -138 -58t-54 -143q0 -86 54.5 -144t136.5 -58q84 0 138.5 59t54.5 143q0 85 -54.5 143t-137.5 58z" />
    <glyph glyph-name="uni1ED6" unicode="&#x1ed6;" horiz-adv-x="845" 
d="M497 982q13 0 26 11.5t41 49.5l29 -18q-35 -55 -55 -74.5t-46 -19.5q-21 0 -76 28.5t-69 28.5q-13 0 -26 -11.5t-41 -49.5l-29 18q35 55 55 74.5t46 19.5q21 0 76 -28.5t69 -28.5zM543 778l-121 69l-121 -69h-41v1l128 113h68l128 -113v-1h-41zM59 349q0 153 105.5 259
t258.5 106q152 0 257.5 -105.5t105.5 -257.5q0 -154 -106 -259.5t-259 -105.5q-152 0 -257 105.5t-105 257.5zM131 351q0 -126 85 -213t206 -87q119 0 205.5 87t86.5 211q0 126 -86 213t-208 87q-119 0 -204 -86.5t-85 -211.5z" />
    <glyph glyph-name="uni1ED7" unicode="&#x1ed7;" horiz-adv-x="616" 
d="M374 822q13 0 25.5 10.5t37.5 46.5l28 -18q-32 -54 -50.5 -73t-43.5 -19q-21 0 -68.5 26.5t-60.5 26.5t-25 -11t-38 -46l-28 17q32 54 50.5 73t43.5 19q21 0 68.5 -26t60.5 -26zM436 599l-128 75l-127 -75h-35v1l129 123h66l129 -123v-1h-34zM48 246q0 107 73.5 184.5
t187.5 77.5q115 0 186.5 -77t71.5 -183q0 -107 -73.5 -184.5t-187.5 -77.5q-113 0 -185.5 77t-72.5 183zM308 448q-84 0 -138 -58t-54 -143q0 -86 54.5 -144t136.5 -58q84 0 138.5 59t54.5 143q0 85 -54.5 143t-137.5 58z" />
    <glyph glyph-name="uni1ED8" unicode="&#x1ed8;" horiz-adv-x="845" 
d="M543 778l-121 90l-121 -90h-41v1l131 140h62l131 -140v-1h-41zM59 349q0 153 105.5 259t258.5 106q152 0 257.5 -105.5t105.5 -257.5q0 -154 -106 -259.5t-259 -105.5q-152 0 -257 105.5t-105 257.5zM131 351q0 -126 85 -213t206 -87q119 0 205.5 87t86.5 211
q0 126 -86 213t-208 87q-119 0 -204 -86.5t-85 -211.5zM373 -142q0 20 14 34.5t35 14.5q20 0 34.5 -14.5t14.5 -34.5t-14 -34.5t-35 -14.5q-20 0 -34.5 14.5t-14.5 34.5z" />
    <glyph glyph-name="uni1ED9" unicode="&#x1ed9;" horiz-adv-x="616" 
d="M431 599l-123 106l-122 -106h-35v1l126 161h62l126 -161v-1h-34zM48 246q0 107 73.5 184.5t187.5 77.5q115 0 186.5 -77t71.5 -183q0 -107 -73.5 -184.5t-187.5 -77.5q-113 0 -185.5 77t-72.5 183zM308 448q-84 0 -138 -58t-54 -143q0 -86 54.5 -144t136.5 -58
q84 0 138.5 59t54.5 143q0 85 -54.5 143t-137.5 58zM259 -140q0 20 14 34.5t35 14.5q20 0 34.5 -14.5t14.5 -34.5t-14 -34.5t-35 -14.5q-20 0 -34.5 14.5t-14.5 34.5z" />
    <glyph glyph-name="uni1EDA" unicode="&#x1eda;" horiz-adv-x="844" 
d="M399 776l90 141h97v-1l-150 -140h-37zM421 -14q-152 0 -257 105t-105 255q0 152 106 257t262 105q26 0 75 -3t76 -3q78 0 113.5 19.5t35.5 65.5q0 27 -9 54h63q8 -20 8 -50q0 -131 -191 -135q84 -43 136 -123.5t52 -183.5q0 -152 -106.5 -257.5t-258.5 -105.5zM131 349
q0 -125 85 -211.5t206 -86.5q119 0 205.5 86.5t86.5 209.5q0 125 -86 211t-208 86q-119 0 -204 -86t-85 -209z" />
    <glyph glyph-name="uni1EDB" unicode="&#x1edb;" horiz-adv-x="614" 
d="M288 599l91 162h89v-1l-147 -161h-33zM306 -14q-113 0 -185.5 76.5t-72.5 180.5q0 108 75 183t193 75q17 0 56.5 -1t53.5 -1q112 0 112 66q0 21 -10 48h59q11 -24 11 -51q0 -47 -39 -73.5t-105 -30.5q54 -35 83.5 -93t29.5 -119q0 -106 -73.5 -183t-187.5 -77zM308 443
q-83 0 -137.5 -57.5t-54.5 -140.5q0 -85 54.5 -142.5t136.5 -57.5q84 0 138.5 58.5t54.5 141.5q0 84 -54.5 141t-137.5 57z" />
    <glyph glyph-name="uni1EDC" unicode="&#x1edc;" horiz-adv-x="844" 
d="M445 776h-37l-150 140v1h97zM421 -14q-152 0 -257 105t-105 255q0 152 106 257t262 105q26 0 75 -3t76 -3q78 0 113.5 19.5t35.5 65.5q0 27 -9 54h63q8 -20 8 -50q0 -131 -191 -135q84 -43 136 -123.5t52 -183.5q0 -152 -106.5 -257.5t-258.5 -105.5zM131 349
q0 -125 85 -211.5t206 -86.5q119 0 205.5 86.5t86.5 209.5q0 125 -86 211t-208 86q-119 0 -204 -86t-85 -209z" />
    <glyph glyph-name="uni1EDD" unicode="&#x1edd;" horiz-adv-x="614" 
d="M328 599h-33l-147 161v1h89zM306 -14q-113 0 -185.5 76.5t-72.5 180.5q0 108 75 183t193 75q17 0 56.5 -1t53.5 -1q112 0 112 66q0 21 -10 48h59q11 -24 11 -51q0 -47 -39 -73.5t-105 -30.5q54 -35 83.5 -93t29.5 -119q0 -106 -73.5 -183t-187.5 -77zM308 443
q-83 0 -137.5 -57.5t-54.5 -140.5q0 -85 54.5 -142.5t136.5 -57.5q84 0 138.5 58.5t54.5 141.5q0 84 -54.5 141t-137.5 57z" />
    <glyph glyph-name="uni1EDE" unicode="&#x1ede;" horiz-adv-x="844" 
d="M426 775l-40 13v2q63 36 82 52.5t19 33.5q0 16 -16 25t-41 9q-55 0 -120 -37h-1v48q60 34 125 34q48 0 77.5 -18.5t29.5 -51.5q0 -30 -24.5 -52.5t-90.5 -57.5zM421 -14q-152 0 -257 105t-105 255q0 152 106 257t262 105q26 0 75 -3t76 -3q78 0 113.5 19.5t35.5 65.5
q0 27 -9 54h63q8 -20 8 -50q0 -131 -191 -135q84 -43 136 -123.5t52 -183.5q0 -152 -106.5 -257.5t-258.5 -105.5zM131 349q0 -125 85 -211.5t206 -86.5q119 0 205.5 86.5t86.5 209.5q0 125 -86 211t-208 86q-119 0 -204 -86t-85 -209z" />
    <glyph glyph-name="uni1EDF" unicode="&#x1edf;" horiz-adv-x="614" 
d="M311 594l-38 12v2q61 49 80 70t19 41q0 41 -53 41q-52 0 -114 -49h-1v57q55 43 120 43q45 0 73 -21.5t28 -59.5q0 -36 -26.5 -64.5t-87.5 -71.5zM306 -14q-113 0 -185.5 76.5t-72.5 180.5q0 108 75 183t193 75q17 0 56.5 -1t53.5 -1q112 0 112 66q0 21 -10 48h59
q11 -24 11 -51q0 -47 -39 -73.5t-105 -30.5q54 -35 83.5 -93t29.5 -119q0 -106 -73.5 -183t-187.5 -77zM308 443q-83 0 -137.5 -57.5t-54.5 -140.5q0 -85 54.5 -142.5t136.5 -57.5q84 0 138.5 58.5t54.5 141.5q0 84 -54.5 141t-137.5 57z" />
    <glyph glyph-name="uni1EE0" unicode="&#x1ee0;" horiz-adv-x="844" 
d="M504 831q16 0 30 14.5t47 64.5l31 -21q-39 -67 -62 -90t-52 -23q-25 0 -83 37.5t-75 37.5q-16 0 -30 -14.5t-47 -64.5l-31 21q39 67 62 90t52 23q25 0 83 -37.5t75 -37.5zM421 -14q-152 0 -257 105t-105 255q0 152 106 257t262 105q26 0 75 -3t76 -3q78 0 113.5 19.5
t35.5 65.5q0 27 -9 54h63q8 -20 8 -50q0 -131 -191 -135q84 -43 136 -123.5t52 -183.5q0 -152 -106.5 -257.5t-258.5 -105.5zM131 349q0 -125 85 -211.5t206 -86.5q119 0 205.5 86.5t86.5 209.5q0 125 -86 211t-208 86q-119 0 -204 -86t-85 -209z" />
    <glyph glyph-name="uni1EE1" unicode="&#x1ee1;" horiz-adv-x="614" 
d="M383 659q15 0 29.5 17.5t46.5 71.5l35 -20q-41 -75 -64 -101t-53 -26q-25 0 -82.5 42.5t-74.5 42.5q-15 0 -29.5 -17t-47.5 -72l-34 20q41 75 63.5 101t52.5 26q25 0 83 -42.5t75 -42.5zM306 -14q-113 0 -185.5 76.5t-72.5 180.5q0 108 75 183t193 75q17 0 56.5 -1
t53.5 -1q112 0 112 66q0 21 -10 48h59q11 -24 11 -51q0 -47 -39 -73.5t-105 -30.5q54 -35 83.5 -93t29.5 -119q0 -106 -73.5 -183t-187.5 -77zM308 443q-83 0 -137.5 -57.5t-54.5 -140.5q0 -85 54.5 -142.5t136.5 -57.5q84 0 138.5 58.5t54.5 141.5q0 84 -54.5 141
t-137.5 57z" />
    <glyph glyph-name="uni1EE2" unicode="&#x1ee2;" horiz-adv-x="844" 
d="M421 -14q-152 0 -257 105t-105 255q0 152 106 257t262 105q26 0 75 -3t76 -3q78 0 113.5 19.5t35.5 65.5q0 27 -9 54h63q8 -20 8 -50q0 -131 -191 -135q84 -43 136 -123.5t52 -183.5q0 -152 -106.5 -257.5t-258.5 -105.5zM131 349q0 -125 85 -211.5t206 -86.5
q119 0 205.5 86.5t86.5 209.5q0 125 -86 211t-208 86q-119 0 -204 -86t-85 -209zM373 -140q0 20 14 34.5t35 14.5q20 0 34.5 -14.5t14.5 -34.5t-14 -34.5t-35 -14.5q-20 0 -34.5 14.5t-14.5 34.5z" />
    <glyph glyph-name="uni1EE3" unicode="&#x1ee3;" horiz-adv-x="614" 
d="M306 -14q-113 0 -185.5 76.5t-72.5 180.5q0 108 75 183t193 75q17 0 56.5 -1t53.5 -1q112 0 112 66q0 21 -10 48h59q11 -24 11 -51q0 -47 -39 -73.5t-105 -30.5q54 -35 83.5 -93t29.5 -119q0 -106 -73.5 -183t-187.5 -77zM308 443q-83 0 -137.5 -57.5t-54.5 -140.5
q0 -85 54.5 -142.5t136.5 -57.5q84 0 138.5 58.5t54.5 141.5q0 84 -54.5 141t-137.5 57zM259 -140q0 20 14 34.5t35 14.5q20 0 34.5 -14.5t14.5 -34.5t-14 -34.5t-35 -14.5q-20 0 -34.5 14.5t-14.5 34.5z" />
    <glyph glyph-name="uni1EE4" unicode="&#x1ee4;" horiz-adv-x="784" 
d="M96 295v405h70v-407q0 -113 62 -176.5t166 -63.5q103 0 164.5 63t61.5 179v405h68v-404q0 -144 -79.5 -226t-216.5 -82t-216.5 82.5t-79.5 224.5zM344 -142q0 20 14 34.5t35 14.5q20 0 34.5 -14.5t14.5 -34.5t-14 -34.5t-35 -14.5q-20 0 -34.5 14.5t-14.5 34.5z" />
    <glyph glyph-name="uni1EE5" unicode="&#x1ee5;" horiz-adv-x="603" 
d="M446 0v102q-84 -113 -187 -113q-77 0 -126.5 51t-49.5 144v310h66v-305q0 -67 34.5 -103.5t91.5 -36.5q44 0 83.5 24.5t87.5 79.5v341h66v-494h-66zM249 -137q0 20 14 34.5t35 14.5q20 0 34.5 -14.5t14.5 -34.5t-14 -34.5t-35 -14.5q-20 0 -34.5 14.5t-14.5 34.5z" />
    <glyph glyph-name="uni1EE6" unicode="&#x1ee6;" horiz-adv-x="784" 
d="M397 772l-40 13v2q63 36 82 52.5t19 33.5q0 16 -16 25t-41 9q-55 0 -120 -37h-1v48q60 34 125 34q48 0 77.5 -18.5t29.5 -51.5q0 -30 -24.5 -52.5t-90.5 -57.5zM96 295v405h70v-407q0 -113 62 -176.5t166 -63.5q103 0 164.5 63t61.5 179v405h68v-404q0 -144 -79.5 -226
t-216.5 -82t-216.5 82.5t-79.5 224.5z" />
    <glyph glyph-name="uni1EE7" unicode="&#x1ee7;" horiz-adv-x="603" 
d="M301 591l-38 12v2q61 49 80 70t19 41q0 41 -53 41q-52 0 -114 -49h-1v57q55 43 120 43q45 0 73 -21.5t28 -59.5q0 -36 -26.5 -64.5t-87.5 -71.5zM446 0v102q-84 -113 -187 -113q-77 0 -126.5 51t-49.5 144v310h66v-305q0 -67 34.5 -103.5t91.5 -36.5q44 0 83.5 24.5
t87.5 79.5v341h66v-494h-66z" />
    <glyph glyph-name="uni1EE8" unicode="&#x1ee8;" horiz-adv-x="810" 
d="M370 773l90 141h97v-1l-150 -140h-37zM392 -12q-137 0 -216.5 82.5t-79.5 224.5v405h70v-407q0 -113 62 -176.5t166 -63.5q103 0 164.5 63t61.5 179v405h21q121 0 121 87q0 31 -9 54h64q8 -24 8 -50q0 -58 -36 -92t-101 -44v-359q0 -144 -79.5 -226t-216.5 -82z" />
    <glyph glyph-name="uni1EE9" unicode="&#x1ee9;" horiz-adv-x="625" 
d="M278 596l91 162h89v-1l-147 -161h-33zM446 0v102q-84 -113 -187 -113q-77 0 -126.5 51t-49.5 144v310h66v-305q0 -67 34.5 -103.5t91.5 -36.5q44 0 83.5 24.5t87.5 79.5v341h23q106 0 106 66q0 21 -7 44h59q7 -18 7 -43q0 -47 -31.5 -75t-90.5 -35v-451h-66z" />
    <glyph glyph-name="uni1EEA" unicode="&#x1eea;" horiz-adv-x="810" 
d="M416 773h-37l-150 140v1h97zM392 -12q-137 0 -216.5 82.5t-79.5 224.5v405h70v-407q0 -113 62 -176.5t166 -63.5q103 0 164.5 63t61.5 179v405h21q121 0 121 87q0 31 -9 54h64q8 -24 8 -50q0 -58 -36 -92t-101 -44v-359q0 -144 -79.5 -226t-216.5 -82z" />
    <glyph glyph-name="uni1EEB" unicode="&#x1eeb;" horiz-adv-x="625" 
d="M318 596h-33l-147 161v1h89zM446 0v102q-84 -113 -187 -113q-77 0 -126.5 51t-49.5 144v310h66v-305q0 -67 34.5 -103.5t91.5 -36.5q44 0 83.5 24.5t87.5 79.5v341h23q106 0 106 66q0 21 -7 44h59q7 -18 7 -43q0 -47 -31.5 -75t-90.5 -35v-451h-66z" />
    <glyph glyph-name="uni1EEC" unicode="&#x1eec;" horiz-adv-x="810" 
d="M397 772l-40 13v2q63 36 82 52.5t19 33.5q0 16 -16 25t-41 9q-55 0 -120 -37h-1v48q60 34 125 34q48 0 77.5 -18.5t29.5 -51.5q0 -30 -24.5 -52.5t-90.5 -57.5zM392 -12q-137 0 -216.5 82.5t-79.5 224.5v405h70v-407q0 -113 62 -176.5t166 -63.5q103 0 164.5 63t61.5 179
v405h21q121 0 121 87q0 31 -9 54h64q8 -24 8 -50q0 -58 -36 -92t-101 -44v-359q0 -144 -79.5 -226t-216.5 -82z" />
    <glyph glyph-name="uni1EED" unicode="&#x1eed;" horiz-adv-x="625" 
d="M301 591l-38 12v2q61 49 80 70t19 41q0 41 -53 41q-52 0 -114 -49h-1v57q55 43 120 43q45 0 73 -21.5t28 -59.5q0 -36 -26.5 -64.5t-87.5 -71.5zM446 0v102q-84 -113 -187 -113q-77 0 -126.5 51t-49.5 144v310h66v-305q0 -67 34.5 -103.5t91.5 -36.5q44 0 83.5 24.5
t87.5 79.5v341h23q106 0 106 66q0 21 -7 44h59q7 -18 7 -43q0 -47 -31.5 -75t-90.5 -35v-451h-66z" />
    <glyph glyph-name="uni1EEE" unicode="&#x1eee;" horiz-adv-x="810" 
d="M475 828q16 0 30 14.5t47 64.5l31 -21q-39 -67 -62 -90t-52 -23q-25 0 -83 37.5t-75 37.5q-16 0 -30 -14.5t-47 -64.5l-31 21q39 67 62 90t52 23q25 0 83 -37.5t75 -37.5zM392 -12q-137 0 -216.5 82.5t-79.5 224.5v405h70v-407q0 -113 62 -176.5t166 -63.5
q103 0 164.5 63t61.5 179v405h21q121 0 121 87q0 31 -9 54h64q8 -24 8 -50q0 -58 -36 -92t-101 -44v-359q0 -144 -79.5 -226t-216.5 -82z" />
    <glyph glyph-name="uni1EEF" unicode="&#x1eef;" horiz-adv-x="625" 
d="M379 656q15 0 29 17t48 73l34 -20q-40 -75 -63 -101.5t-53 -26.5q-26 0 -83.5 42.5t-73.5 42.5q-15 0 -29.5 -17t-47.5 -72l-34 20q40 74 63 100.5t53 26.5q26 0 83.5 -42.5t73.5 -42.5zM446 0v102q-84 -113 -187 -113q-77 0 -126.5 51t-49.5 144v310h66v-305
q0 -67 34.5 -103.5t91.5 -36.5q44 0 83.5 24.5t87.5 79.5v341h23q106 0 106 66q0 21 -7 44h59q7 -18 7 -43q0 -47 -31.5 -75t-90.5 -35v-451h-66z" />
    <glyph glyph-name="uni1EF0" unicode="&#x1ef0;" horiz-adv-x="810" 
d="M392 -12q-137 0 -216.5 82.5t-79.5 224.5v405h70v-407q0 -113 62 -176.5t166 -63.5q103 0 164.5 63t61.5 179v405h21q121 0 121 87q0 31 -9 54h64q8 -24 8 -50q0 -58 -36 -92t-101 -44v-359q0 -144 -79.5 -226t-216.5 -82zM344 -142q0 20 14 34.5t35 14.5
q20 0 34.5 -14.5t14.5 -34.5t-14 -34.5t-35 -14.5q-20 0 -34.5 14.5t-14.5 34.5z" />
    <glyph glyph-name="uni1EF1" unicode="&#x1ef1;" horiz-adv-x="625" 
d="M446 0v102q-84 -113 -187 -113q-77 0 -126.5 51t-49.5 144v310h66v-305q0 -67 34.5 -103.5t91.5 -36.5q44 0 83.5 24.5t87.5 79.5v341h23q106 0 106 66q0 21 -7 44h59q7 -18 7 -43q0 -47 -31.5 -75t-90.5 -35v-451h-66zM249 -137q0 20 14 34.5t35 14.5q20 0 34.5 -14.5
t14.5 -34.5t-14 -34.5t-35 -14.5q-20 0 -34.5 14.5t-14.5 34.5z" />
    <glyph glyph-name="Ygrave" unicode="&#x1ef2;" horiz-adv-x="660" 
d="M353 773h-37l-150 140v1h97zM366 0h-70v317l-277 383h84l229 -320l228 320h81l-275 -381v-319z" />
    <glyph glyph-name="ygrave" unicode="&#x1ef3;" horiz-adv-x="533" 
d="M285 596h-33l-147 161v1h89zM114 -191q-40 0 -80 21l-13 67l2 2q43 -28 82 -28q37 1 64 24.5t49 76.5l23 52l-215 470h73l176 -397l162 397h73l-231 -543q-30 -72 -70 -106.5t-95 -35.5z" />
    <glyph glyph-name="uni1EF4" unicode="&#x1ef4;" horiz-adv-x="660" 
d="M366 0h-70v317l-277 383h84l229 -320l228 320h81l-275 -381v-319zM281 -137q0 20 14 34.5t35 14.5q20 0 34.5 -14.5t14.5 -34.5t-14 -34.5t-35 -14.5q-20 0 -34.5 14.5t-14.5 34.5z" />
    <glyph glyph-name="uni1EF5" unicode="&#x1ef5;" horiz-adv-x="533" 
d="M377 -137q0 20 14 34.5t35 14.5q20 0 34.5 -14.5t14.5 -34.5t-14 -34.5t-35 -14.5q-20 0 -34.5 14.5t-14.5 34.5zM114 -191q-40 0 -80 21l-13 67l2 2q43 -28 82 -28q37 1 64 24.5t49 76.5l23 52l-215 470h73l176 -397l162 397h73l-231 -543q-30 -72 -70 -106.5t-95 -35.5
z" />
    <glyph glyph-name="uni1EF6" unicode="&#x1ef6;" horiz-adv-x="660" 
d="M334 772l-40 13v2q63 36 82 52.5t19 33.5q0 16 -16 25t-41 9q-55 0 -120 -37h-1v48q60 34 125 34q48 0 77.5 -18.5t29.5 -51.5q0 -30 -24.5 -52.5t-90.5 -57.5zM366 0h-70v317l-277 383h84l229 -320l228 320h81l-275 -381v-319z" />
    <glyph glyph-name="uni1EF7" unicode="&#x1ef7;" horiz-adv-x="533" 
d="M268 591l-38 12v2q61 49 80 70t19 41q0 41 -53 41q-52 0 -114 -49h-1v57q55 43 120 43q45 0 73 -21.5t28 -59.5q0 -36 -26.5 -64.5t-87.5 -71.5zM114 -191q-40 0 -80 21l-13 67l2 2q43 -28 82 -28q37 1 64 24.5t49 76.5l23 52l-215 470h73l176 -397l162 397h73l-231 -543
q-30 -72 -70 -106.5t-95 -35.5z" />
    <glyph glyph-name="uni1EF8" unicode="&#x1ef8;" horiz-adv-x="660" 
d="M412 828q16 0 30 14.5t47 64.5l31 -21q-39 -67 -62 -90t-52 -23q-25 0 -83 37.5t-75 37.5q-16 0 -30 -14.5t-47 -64.5l-31 21q39 67 62 90t52 23q25 0 83 -37.5t75 -37.5zM366 0h-70v317l-277 383h84l229 -320l228 320h81l-275 -381v-319z" />
    <glyph glyph-name="uni1EF9" unicode="&#x1ef9;" horiz-adv-x="533" 
d="M346 656q15 0 29 17t48 73l34 -20q-40 -75 -63 -101.5t-53 -26.5q-26 0 -83.5 42.5t-73.5 42.5q-15 0 -29.5 -17t-47.5 -72l-34 20q40 74 63 100.5t53 26.5q26 0 83.5 -42.5t73.5 -42.5zM114 -191q-40 0 -80 21l-13 67l2 2q43 -28 82 -28q37 1 64 24.5t49 76.5l23 52
l-215 470h73l176 -397l162 397h73l-231 -543q-30 -72 -70 -106.5t-95 -35.5z" />
    <glyph glyph-name="uni2002" unicode="&#x2002;" horiz-adv-x="500" 
 />
    <glyph glyph-name="uni2003" unicode="&#x2003;" horiz-adv-x="1000" 
 />
    <glyph glyph-name="uni2004" unicode="&#x2004;" horiz-adv-x="333" 
 />
    <glyph glyph-name="uni2005" unicode="&#x2005;" horiz-adv-x="250" 
 />
    <glyph glyph-name="uni2007" unicode="&#x2007;" horiz-adv-x="600" 
 />
    <glyph glyph-name="uni2009" unicode="&#x2009;" horiz-adv-x="125" 
 />
    <glyph glyph-name="uni200A" unicode="&#x200a;" horiz-adv-x="42" 
 />
    <glyph glyph-name="uni2011" unicode="&#x2011;" horiz-adv-x="371" 
d="M60 303h250v-63h-250v63z" />
    <glyph glyph-name="figuredash" unicode="&#x2012;" horiz-adv-x="600" 
d="M78 382h444v-64h-444v64z" />
    <glyph glyph-name="endash" unicode="&#x2013;" horiz-adv-x="545" 
d="M60 302h424v-61h-424v61z" />
    <glyph glyph-name="emdash" unicode="&#x2014;" horiz-adv-x="925" 
d="M60 302h804v-61h-804v61z" />
    <glyph glyph-name="uni2015" unicode="&#x2015;" horiz-adv-x="925" 
d="M60 302h804v-61h-804v61z" />
    <glyph glyph-name="quoteleft" unicode="&#x2018;" horiz-adv-x="201" 
d="M158 420h-72q-47 68 -47 116q0 28 18.5 61.5t34.5 51t54 58.5l23 -18q-68 -93 -68 -142q0 -27 11.5 -51.5t45.5 -75.5z" />
    <glyph glyph-name="quoteright" unicode="&#x2019;" horiz-adv-x="201" 
d="M42 700h73q46 -67 46 -116q0 -10 -1.5 -19.5t-6 -20.5t-8 -18.5t-12 -19.5t-12.5 -18t-15.5 -19.5t-15.5 -18t-18 -19.5t-17 -18l-24 18q68 91 68 143q0 26 -11.5 50.5t-45.5 75.5z" />
    <glyph glyph-name="quotesinglbase" unicode="&#x201a;" horiz-adv-x="188" 
d="M31 111h73q46 -67 46 -116q0 -10 -1.5 -19.5t-6 -20.5t-8 -18.5t-12 -19.5t-12.5 -18t-15.5 -19.5t-15.5 -18t-18 -19.5t-17 -18l-24 18q68 91 68 143q0 26 -11.5 50.5t-45.5 75.5z" />
    <glyph glyph-name="quotedblleft" unicode="&#x201c;" horiz-adv-x="381" 
d="M339 420h-73q-46 69 -46 116q0 28 18.5 61.5t34.5 51t54 58.5l23 -18q-68 -91 -68 -142q0 -27 11.5 -51.5t45.5 -75.5zM158 420h-72q-47 68 -47 116q0 28 18.5 61.5t34.5 51t54 58.5l23 -18q-68 -93 -68 -142q0 -27 11.5 -51.5t45.5 -75.5z" />
    <glyph glyph-name="quotedblright" unicode="&#x201d;" horiz-adv-x="381" 
d="M42 700h73q46 -67 46 -116q0 -10 -1.5 -19.5t-6 -20.5t-8 -18.5t-12 -19.5t-12.5 -18t-15.5 -19.5t-15.5 -18t-18 -19.5t-17 -18l-24 18q68 91 68 143q0 26 -11.5 50.5t-45.5 75.5zM223 700h73q46 -67 46 -116q0 -26 -16 -56.5t-31 -48t-49 -54.5q-2 -3 -3.5 -4
t-3.5 -3.5t-4 -4.5l-23 18q68 91 68 143q0 26 -11.5 50.5t-45.5 75.5z" />
    <glyph glyph-name="quotedblbase" unicode="&#x201e;" horiz-adv-x="369" 
d="M31 111h73q46 -67 46 -116q0 -10 -1.5 -19.5t-6 -20.5t-8 -18.5t-12 -19.5t-12.5 -18t-15.5 -19.5t-15.5 -18t-18 -19.5t-17 -18l-24 18q68 91 68 143q0 26 -11.5 50.5t-45.5 75.5zM212 111h73q46 -67 46 -116q0 -26 -16 -56.5t-31 -48t-49 -54.5q-7 -8 -11 -12l-23 18
q68 91 68 143q0 26 -11.5 50.5t-45.5 75.5z" />
    <glyph glyph-name="uni201F" unicode="&#x201f;" horiz-adv-x="381" 
d="M339 700q-34 -51 -45.5 -75.5t-11.5 -50.5q0 -52 68 -143l-23 -18q-67 72 -85 101q-22 37 -22 70q0 47 46 116h73zM158 700q-34 -51 -45.5 -75.5t-11.5 -50.5q0 -50 68 -143l-23 -18q-67 72 -85 101q-22 37 -22 70q0 48 47 116h72z" />
    <glyph glyph-name="dagger" unicode="&#x2020;" horiz-adv-x="532" 
d="M228 704h76l-31 -170h-14zM474 535v-76l-170 29v14zM228 488l-170 -29v76l170 -33v-14zM229 288l30 170h14l30 -170l-29 -298h-16z" />
    <glyph glyph-name="daggerdbl" unicode="&#x2021;" horiz-adv-x="532" 
d="M228 704h76l-31 -170h-14zM474 535v-76l-170 29v14zM228 488l-170 -29v76l170 -33v-14zM229 350l30 108h14l30 -108l-30 -108h-14zM228 196l-170 -30v76l170 -32v-14zM474 242v-76l-170 30v14zM304 -4h-76l31 170h14z" />
    <glyph glyph-name="bullet" unicode="&#x2022;" horiz-adv-x="445" 
d="M107 355q0 47 34 81.5t82 34.5t81.5 -34.5t33.5 -81.5q0 -48 -33.5 -82.5t-81.5 -34.5t-82 34.5t-34 82.5z" />
    <glyph glyph-name="ellipsis" unicode="&#x2026;" horiz-adv-x="542" 
d="M401 44q0 21 15 36t36 15q22 0 36.5 -15t14.5 -36t-14.5 -36t-36.5 -15q-21 0 -36 15t-15 36zM220 44q0 21 14.5 36t36.5 15t36.5 -15t14.5 -36t-14.5 -36t-36.5 -15t-36.5 15t-14.5 36zM38 44q0 21 15 36t36 15q22 0 36.5 -15t14.5 -36t-14.5 -36t-36.5 -15
q-21 0 -36 15t-15 36z" />
    <glyph glyph-name="uni202F" unicode="&#x202f;" horiz-adv-x="125" 
 />
    <glyph glyph-name="guilsinglleft" unicode="&#x2039;" horiz-adv-x="385" 
d="M317 486l-184 -238l184 -240l-26 -15l-237 248v12l237 248z" />
    <glyph glyph-name="guilsinglright" unicode="&#x203a;" horiz-adv-x="385" 
d="M68 8l184 238l-184 240l26 15l237 -248v-12l-237 -248z" />
    <glyph glyph-name="fraction" unicode="&#x2044;" horiz-adv-x="102" 
d="M-215 -2l249 363l225 341h58l-249 -363l-225 -341h-58z" />
    <glyph glyph-name="uni20A6" unicode="&#x20a6;" horiz-adv-x="891" 
d="M343 450l-130 196v-196h130zM678 296v110h-234l73 -110h161zM445 296l-73 110h-159v-110h232zM678 53v199h-132zM641 0l-166 250h-262v-250h-64v250h-110v46h110v110h-110v46h110v248h100l164 -248h265v248h64v-248h110v-46h-110v-110h110v-46h-110v-250h-101z" />
    <glyph glyph-name="uni20A9" unicode="&#x20a9;" horiz-adv-x="1134" 
d="M625 447l-58 198l-58 -198h116zM869 300l27 104h-199l30 -104h142zM408 300l30 104h-197l26 -104h141zM667 299l-30 104h-141l-30 -104h201zM803 41l55 215h-118zM333 42l62 214h-117zM285 -6l-70 260h-154v45h141l-28 105h-124v45h112l-68 251h71l64 -251h223l74 255h84
l74 -255h224l64 251h68l-68 -251h112v-45h-124l-28 -105h141v-45h-154l-70 -260h-93l-75 260h-228l-76 -260h-92z" />
    <glyph glyph-name="dong" unicode="&#x20ab;" horiz-adv-x="608" 
d="M279 50q74 0 144 61v242q-64 46 -134 46q-73 0 -122 -48.5t-49 -128.5q0 -78 47.5 -125t113.5 -47zM424 -1v66q-72 -74 -160 -74q-86 0 -148.5 63.5t-62.5 163.5q0 108 67 173t155 65q82 0 148 -50v155h-191v45h191v94h64v-94h84v-45h-84v-562h-63zM59 -157v46h444v-46
h-444z" />
    <glyph glyph-name="Euro" unicode="&#x20ac;" horiz-adv-x="669" 
d="M598 32q-79 -44 -173 -44q-110 0 -184 69.5t-96 192.5h-113v46h107q-2 34 -2 53q0 29 3 58h-108v46h115q23 119 98 189t183 70q93 0 179 -47v-73h-2q-52 31 -90 44.5t-83 13.5q-82 0 -139 -52.5t-77 -144.5h300v-46h-308q-3 -27 -3 -56t3 -55h308v-46h-301
q20 -96 77 -148t136 -52q87 0 178 56h2z" />
    <glyph glyph-name="uni20B1" unicode="&#x20b1;" horiz-adv-x="660" 
d="M206 641v-142h289q-6 66 -53 104t-121 38h-115zM318 317q73 0 121 38t56 102h-289v-140h112zM315 258h-109v-258h-64v455h-110v46h110v199h182q100 0 165.5 -52.5t71.5 -146.5h84v-46h-85q-10 -90 -77.5 -143.5t-167.5 -53.5z" />
    <glyph glyph-name="uni20B9" unicode="&#x20b9;" horiz-adv-x="606" 
d="M522 2v-2h-98l-361 272l3 12h54q107 0 171.5 40.5t73.5 114.5h-298v46h298q-9 72 -71 112.5t-164 40.5h-66v62h482v-46h-237q113 -53 125 -169h108v-46h-108q-8 -83 -68 -135.5t-157 -67.5z" />
    <glyph glyph-name="uni20BA" unicode="&#x20ba;" horiz-adv-x="597" 
d="M269 -5q-65 0 -127 19v222l-110 -51v60l110 49v122l-110 -51v60l110 49v226h67v-196l226 103v-59l-226 -102v-122l226 103v-59l-226 -102v-204q33 -7 66 -7q181 0 273 189h2l20 -74q-41 -80 -119 -127.5t-182 -47.5z" />
    <glyph glyph-name="uni20BD" unicode="&#x20bd;" horiz-adv-x="597" 
d="M209 640v-286h107q78 0 124 38t46 107q0 66 -44 103.5t-118 37.5h-115zM501 152h-291v-152h-68v152h-110v46h110v108h-110v46h110v348h185q102 0 165 -50.5t63 -142.5q0 -95 -67 -148t-174 -53h-104v-108h291v-46z" />
    <glyph glyph-name="uni2117" unicode="&#x2117;" horiz-adv-x="890" 
d="M42 349q0 166 118.5 281.5t285.5 115.5q168 0 285 -115t117 -280q0 -166 -118.5 -281.5t-285.5 -115.5q-168 0 -285 115t-117 280zM72 350q0 -154 109 -261t264 -107q156 0 264.5 107t108.5 261t-108.5 261t-264.5 107q-155 0 -264 -107t-109 -261zM380 537v-188h86
q49 0 80.5 26t31.5 70q0 41 -30 66.5t-82 25.5h-86zM463 305h-83v-180h-52v456h140q72 0 116.5 -35.5t44.5 -100.5q0 -64 -47 -102t-119 -38z" />
    <glyph glyph-name="uni2120" unicode="&#x2120;" horiz-adv-x="964" 
d="M55 601q0 47 36 76t94 29q65 0 115 -32v-54q-58 41 -118 41q-34 0 -55 -15.5t-21 -40.5q0 -29 33 -49.5t72 -32.5t72 -40.5t33 -70.5q0 -49 -38.5 -80t-97.5 -31q-69 0 -126 41l-9 58q72 -54 139 -54q36 0 59.5 18t23.5 44q0 24 -22 41t-53 28.5t-62 25t-53 38.5t-22 60z
M646 301l-181 343v-337h-49v393h75l160 -310l161 310h74v-393h-50v337l-180 -343h-10z" />
    <glyph glyph-name="trademark" unicode="&#x2122;" horiz-adv-x="1011" 
d="M387 654h-156v-348h-50v348h-156v46h362v-46zM693 301l-180 343v-337h-49v393h74l161 -310l161 310h74v-393h-50v337l-181 -343h-10z" />
    <glyph glyph-name="onethird" unicode="&#x2153;" horiz-adv-x="806" 
d="M199 287h-54v336l-116 -73v58l161 99l9 -2v-418zM106 -2l249 363l225 341h58l-249 -363l-225 -341h-58zM625 -6q-66 0 -123 34l-9 58l2 1q66 -47 128 -47q37 0 62 18.5t25 49.5q0 68 -146 89v24q76 21 107 42.5t31 51.5q0 25 -20 41t-53 16q-55 0 -120 -49h-2v56
q60 40 127 40q56 0 89.5 -28t33.5 -72q0 -69 -94 -104q51 -14 77 -42.5t26 -65.5q0 -50 -41.5 -81.5t-99.5 -31.5z" />
    <glyph glyph-name="twothirds" unicode="&#x2154;" horiz-adv-x="889" 
d="M40 287l-5 18l150 172q34 39 48 63t14 49q0 30 -19.5 49t-52.5 19q-64 0 -125 -84h-2l-8 58q57 75 139 75q54 0 88.5 -30.5t34.5 -80.5q0 -35 -16.5 -65t-55.5 -74l-109 -121h207l-24 -48h-264zM189 -2l249 363l225 341h58l-249 -363l-225 -341h-58zM707 -6
q-66 0 -123 34l-9 58l2 1q66 -47 128 -47q37 0 62 18.5t25 49.5q0 68 -146 89v24q76 21 107 42.5t31 51.5q0 25 -20 41t-53 16q-55 0 -120 -49h-2v56q60 40 127 40q56 0 89.5 -28t33.5 -72q0 -69 -94 -104q51 -14 77 -42.5t26 -65.5q0 -50 -41.5 -81.5t-99.5 -31.5z" />
    <glyph glyph-name="oneeighth" unicode="&#x215b;" horiz-adv-x="822" 
d="M199 287h-54v336l-116 -73v58l161 99l9 -2v-418zM106 -2l249 363l225 341h58l-249 -363l-225 -341h-58zM630 -7q-66 0 -109 32.5t-43 82.5q0 71 80 102q-68 31 -68 97q0 48 39.5 80.5t100.5 32.5t100.5 -32.5t39.5 -80.5q0 -66 -67 -97q36 -14 57.5 -40.5t21.5 -61.5
q0 -50 -43 -82.5t-109 -32.5zM543 304q0 -32 25 -53t62 -21t62.5 21t25.5 53q0 31 -24.5 51.5t-63.5 20.5t-63 -20.5t-24 -51.5zM532 112q0 -35 27.5 -55.5t71.5 -20.5q43 0 70.5 20.5t27.5 55.5q0 33 -29 54.5t-70 21.5t-69.5 -21.5t-28.5 -54.5z" />
    <glyph glyph-name="threeeighths" unicode="&#x215c;" horiz-adv-x="875" 
d="M159 -2l249 363l225 341h58l-249 -363l-225 -341h-58zM683 -7q-66 0 -109 32.5t-43 82.5q0 71 80 102q-68 31 -68 97q0 48 39.5 80.5t100.5 32.5t100.5 -32.5t39.5 -80.5q0 -66 -67 -97q36 -14 57.5 -40.5t21.5 -61.5q0 -50 -43 -82.5t-109 -32.5zM596 304q0 -32 25 -53
t62 -21t62.5 21t25.5 53q0 31 -24.5 51.5t-63.5 20.5t-63 -20.5t-24 -51.5zM166 281q-66 0 -123 34l-9 58l2 1q66 -47 128 -47q37 0 62 18.5t25 49.5q0 68 -146 89v24q76 21 107 42.5t31 51.5q0 25 -20 41t-53 16q-55 0 -120 -49h-2v56q60 40 127 40q56 0 89.5 -28t33.5 -72
q0 -69 -94 -104q51 -14 77 -42.5t26 -65.5q0 -50 -41.5 -81.5t-99.5 -31.5zM585 112q0 -35 27.5 -55.5t71.5 -20.5q43 0 70.5 20.5t27.5 55.5q0 33 -29 54.5t-70 21.5t-69.5 -21.5t-28.5 -54.5z" />
    <glyph glyph-name="fiveeighths" unicode="&#x215d;" horiz-adv-x="886" 
d="M170 -2l249 363l225 341h58l-249 -363l-225 -341h-58zM694 -7q-66 0 -109 32.5t-43 82.5q0 71 80 102q-68 31 -68 97q0 48 39.5 80.5t100.5 32.5t100.5 -32.5t39.5 -80.5q0 -66 -67 -97q36 -14 57.5 -40.5t21.5 -61.5q0 -50 -43 -82.5t-109 -32.5zM607 304q0 -32 25 -53
t62 -21t62.5 21t25.5 53q0 31 -24.5 51.5t-63.5 20.5t-63 -20.5t-24 -51.5zM165 280q-63 0 -115 27l-7 54l2 1q61 -35 118 -35q47 0 77.5 25t30.5 64t-28 60.5t-75 21.5q-51 0 -104 -22l-8 3l15 221h235v-48h-189l-10 -119q33 10 72 10q65 0 105.5 -33.5t40.5 -92.5
q0 -61 -45 -99t-115 -38zM596 112q0 -35 27.5 -55.5t71.5 -20.5q43 0 70.5 20.5t27.5 55.5q0 33 -29 54.5t-70 21.5t-69.5 -21.5t-28.5 -54.5z" />
    <glyph glyph-name="seveneighths" unicode="&#x215e;" horiz-adv-x="818" 
d="M102 -2l249 363l225 341h58l-249 -363l-225 -341h-58zM132 287h-59l180 365h-216l-10 48h297l4 -7zM625 -7q-66 0 -109 32.5t-43 82.5q0 71 80 102q-68 31 -68 97q0 48 39.5 80.5t100.5 32.5t100.5 -32.5t39.5 -80.5q0 -66 -67 -97q36 -14 57.5 -40.5t21.5 -61.5
q0 -50 -43 -82.5t-109 -32.5zM538 304q0 -32 25 -53t62 -21t62.5 21t25.5 53q0 31 -24.5 51.5t-63.5 20.5t-63 -20.5t-24 -51.5zM527 112q0 -35 27.5 -55.5t71.5 -20.5q43 0 70.5 20.5t27.5 55.5q0 33 -29 54.5t-70 21.5t-69.5 -21.5t-28.5 -54.5z" />
    <glyph glyph-name="minus" unicode="&#x2212;" horiz-adv-x="600" 
d="M550 322h-500v59h500v-59z" />
    <glyph glyph-name="approxequal" unicode="&#x2248;" horiz-adv-x="600" 
d="M190 553q31 0 114.5 -51.5t104.5 -51.5q22 0 41 20.5t52 82.5l41 -21q-42 -86 -71 -117.5t-65 -31.5q-31 0 -114.5 51.5t-104.5 51.5q-22 0 -41 -20.5t-52 -82.5l-41 21q42 86 71 117.5t65 31.5zM193 320q31 0 114.5 -52t104.5 -52q22 0 41 20.5t52 82.5l41 -20
q-41 -86 -70 -117.5t-66 -31.5q-31 0 -114.5 51.5t-104.5 51.5q-22 0 -41 -20.5t-52 -82.5l-41 21q42 86 71 117.5t65 31.5z" />
    <glyph glyph-name="notequal" unicode="&#x2260;" horiz-adv-x="600" 
d="M540 222h-277l-66 -140l-40 18l57 122h-154v59h182l67 141h-249v59h277l66 141l40 -19l-58 -122h155v-59h-182l-67 -141h249v-59z" />
    <glyph glyph-name="uni237F" unicode="&#x237f;" horiz-adv-x="530" 
d="M294 -89h-59v325q-40 8 -65.5 40t-25.5 74q0 41 25.5 73t65.5 40v317h59v-316q40 -8 66 -40.5t26 -73.5q0 -42 -26.5 -74t-65.5 -40v-325z" />
    <glyph glyph-name="uniA788" unicode="&#xa788;" horiz-adv-x="500" 
d="M373 -257l-123 106l-122 -106h-35v1l126 161h62l126 -161v-1h-34z" />
    <glyph glyph-name="G.alt" horiz-adv-x="800" 
d="M747 338q0 -160 -93 -256t-246 -96q-147 0 -248 100.5t-101 258.5t104.5 262.5t260.5 104.5q159 0 278 -110l-15 -78h-2q-120 122 -263 122q-124 0 -207.5 -86.5t-83.5 -213.5q0 -131 81.5 -213t197.5 -82q110 0 181 65t83 175h-260v65h333v-18z" />
    <glyph glyph-name="Q.alt" horiz-adv-x="850" 
d="M420 53q100 0 179 63l-139 119l46 52l141 -124q67 81 67 190q0 124 -86.5 210t-207.5 86q-119 0 -204 -86.5t-85 -210.5q0 -126 84.5 -212.5t204.5 -86.5zM738 -6l-88 77q-103 -83 -231 -83q-151 0 -255.5 105t-104.5 257q0 153 105.5 258.5t258.5 105.5
q152 0 257.5 -104t105.5 -255q0 -134 -87 -236l85 -72z" />
    <glyph glyph-name="a.alt" horiz-adv-x="617" 
d="M286 51q85 0 173 85v270q-70 37 -141 37q-86 0 -143.5 -58.5t-57.5 -146.5q0 -87 49 -137t120 -50zM479 0l-16 89q-89 -99 -191 -99q-92 0 -157.5 67.5t-65.5 176.5q0 118 78.5 193t189.5 75q74 0 154 -40l42 32h12v-352l20 -142h-66z" />
    <glyph glyph-name="a.sc" horiz-adv-x="662" 
d="M460 202l-129 285l-130 -285h259zM550 0l-65 144h-310l-66 -144h-70l261 555h67l256 -555h-73z" />
    <glyph glyph-name="b.sc" horiz-adv-x="547" 
d="M295 0h-200v552h195q80 0 128 -38t48 -105q0 -84 -89 -123q54 -15 84.5 -49t30.5 -84q0 -70 -54.5 -111.5t-142.5 -41.5zM160 493v-183h119q53 0 87 25t34 68q0 42 -31 66t-83 24h-126zM160 59h137q58 0 93 27.5t35 70.5q0 44 -36 69.5t-93 25.5h-136v-193z" />
    <glyph glyph-name="c.sc" horiz-adv-x="603" 
d="M335 -11q-116 0 -198 80t-82 206q0 122 84 204.5t203 82.5q115 0 193 -72v-80h-2q-89 91 -192 91q-88 0 -153 -65.5t-65 -158.5q0 -100 65.5 -163t152.5 -63q107 0 200 91l2 -1l-9 -77q-87 -75 -199 -75z" />
    <glyph glyph-name="d.sc" horiz-adv-x="650" 
d="M281 492h-120v-432h123q104 0 173.5 58t69.5 157q0 102 -69 159.5t-177 57.5zM95 0v552h187q141 0 227 -74.5t86 -200.5t-88.5 -201.5t-224.5 -75.5h-187z" />
    <glyph glyph-name="e.sc" horiz-adv-x="507" 
d="M95 0v552h343l18 -60h-295v-183h250v-58h-250v-191h298l-19 -60h-345z" />
    <glyph glyph-name="f.sc" horiz-adv-x="480" 
d="M401 239h-240v-239h-66v552h355l-19 -60h-270v-194h240v-59z" />
    <glyph glyph-name="g.sc" horiz-adv-x="646" 
d="M564 56q-106 -64 -220 -64q-126 0 -207.5 77t-81.5 205q0 126 87 207t218 81q101 0 193 -47v-72q-97 57 -194 57q-101 0 -168.5 -63.5t-67.5 -160.5q0 -103 64.5 -163t163.5 -60q80 0 149 38v135h-170v58h234v-228z" />
    <glyph glyph-name="g.scalt" horiz-adv-x="657" 
d="M606 266q0 -129 -74 -203.5t-195 -74.5q-118 0 -200 80.5t-82 205.5q0 124 84 206.5t207 82.5q125 0 223 -84l-18 -67h-2q-94 89 -203 89q-94 0 -158.5 -64.5t-64.5 -161.5q0 -99 63.5 -162.5t152.5 -63.5q83 0 136 47.5t63 129.5h-199v58h267v-18z" />
    <glyph glyph-name="h.sc" horiz-adv-x="675" 
d="M513 0v250h-352v-250h-66v552h66v-241h352v241h66v-552h-66z" />
    <glyph glyph-name="i.sc" horiz-adv-x="267" 
d="M100 0v552h66v-552h-66z" />
    <glyph glyph-name="j.sc" horiz-adv-x="397" 
d="M237 158v394h67v-403q0 -72 -42.5 -114.5t-110.5 -42.5q-61 0 -107 32l-15 75h2q59 -47 110 -47q43 0 69.5 28.5t26.5 77.5z" />
    <glyph glyph-name="k.sc" horiz-adv-x="580" 
d="M470 0l-267 254h-42v-254h-66v552h66v-242h41l265 242h87v-2l-298 -266l302 -282v-2h-88z" />
    <glyph glyph-name="l.sc" horiz-adv-x="476" 
d="M95 0v552h66v-491h276v-61h-342z" />
    <glyph glyph-name="m.sc" horiz-adv-x="856" 
d="M420 -9l-260 491v-482h-64v552h99l233 -447l233 447h99v-552h-66v482l-260 -491h-14z" />
    <glyph glyph-name="n.sc" horiz-adv-x="687" 
d="M562 -3l-402 460v-457h-65v552h68l363 -419v419h65v-555h-29z" />
    <glyph glyph-name="o.sc" horiz-adv-x="692" 
d="M637 276q0 -121 -85 -205.5t-206 -84.5q-122 0 -206.5 84.5t-84.5 204.5q0 121 85.5 206t206.5 85t205.5 -85t84.5 -205zM569 275q0 96 -65 162.5t-158 66.5t-158 -65.5t-65 -161.5q0 -97 65.5 -163t158.5 -66q92 0 157 66t65 161z" />
    <glyph glyph-name="p.sc" horiz-adv-x="522" 
d="M161 492v-226h112q60 0 98.5 30.5t38.5 84.5q0 51 -36.5 81t-95.5 30h-117zM273 207h-112v-207h-66v552h185q87 0 141.5 -44.5t54.5 -124.5q0 -82 -57 -129t-146 -47z" />
    <glyph glyph-name="q.sc" horiz-adv-x="692" 
d="M535 -123q-62 0 -109.5 25.5t-93.5 86.5q-117 5 -197 88t-80 199q0 120 85.5 205t206.5 85t205.5 -84.5t84.5 -204.5q0 -102 -63 -179.5t-159 -100.5q51 -64 131 -64q37 0 71 11l1 -1l-20 -58q-28 -8 -63 -8zM569 275q0 96 -65 162.5t-158 66.5t-158 -65.5t-65 -161.5
q0 -97 65.5 -163t158.5 -66q92 0 157 66t65 161z" />
    <glyph glyph-name="q.scalt" horiz-adv-x="697" 
d="M342 48q73 0 132 44l-111 99l41 43l112 -101q53 64 53 143q0 96 -65 162t-158 66t-158 -65.5t-65 -161.5t65 -162.5t154 -66.5zM586 -9l-65 59q-77 -61 -181 -61q-118 0 -201.5 84.5t-83.5 203.5t85.5 204t206.5 85t205.5 -84t84.5 -202q0 -106 -73 -190l64 -56z" />
    <glyph glyph-name="r.sc" horiz-adv-x="559" 
d="M161 492v-213h118q52 0 88.5 30.5t36.5 77.5q0 48 -33.5 76.5t-87.5 28.5h-122zM464 0l-198 221h-105v-221h-66v552h189q85 0 136 -42.5t51 -120.5q0 -59 -36.5 -101t-96.5 -57l209 -231h-83z" />
    <glyph glyph-name="s.sc" horiz-adv-x="497" 
d="M137 418q0 -37 30 -60t107 -51q86 -31 125 -67t39 -98q0 -67 -54.5 -109.5t-135.5 -42.5q-100 0 -185 64l-14 80l2 1q98 -86 199 -86q53 0 88 25t35 65q0 38 -30.5 61.5t-109.5 52.5q-85 31 -123.5 65t-38.5 97q0 64 51.5 105t128.5 41q87 0 164 -47v-74l-1 1
q-84 61 -166 61q-47 0 -79 -23t-32 -61z" />
    <glyph glyph-name="t.sc" horiz-adv-x="597" 
d="M558 490h-226v-490h-67v490h-226v62h519v-62z" />
    <glyph glyph-name="u.sc" horiz-adv-x="653" 
d="M87 234v318h67v-319q0 -87 47 -135.5t127 -48.5q79 0 126 48.5t47 137.5v317h64v-318q0 -114 -64 -179t-175 -65q-110 0 -174.5 65.5t-64.5 178.5z" />
    <glyph glyph-name="v.sc" horiz-adv-x="641" 
d="M301 -8l-263 560h74l209 -460l213 460h70l-268 -560h-35z" />
    <glyph glyph-name="w.sc" horiz-adv-x="977" 
d="M244 -4l-198 556h72l160 -470l205 475h15l202 -477l164 472h69l-202 -556h-62l-180 425l-184 -425h-61z" />
    <glyph glyph-name="x.sc" horiz-adv-x="614" 
d="M492 0l-186 236l-187 -236h-76l223 280l-217 272h79l180 -228l180 228h77l-218 -271l225 -281h-80z" />
    <glyph glyph-name="y.sc" horiz-adv-x="585" 
d="M326 0h-66v247l-233 305h80l187 -250l187 250h77l-232 -305v-247z" />
    <glyph glyph-name="z.sc" horiz-adv-x="589" 
d="M518 0h-466l-4 11l368 482h-340v59h451l5 -11l-370 -483h377z" />
    <glyph glyph-name="quoteleftreversed" horiz-adv-x="201" 
d="M158 700q-34 -51 -45.5 -75.5t-11.5 -50.5q0 -50 68 -143l-23 -18q-67 72 -85 101q-22 37 -22 70q0 48 47 116h72z" />
    <glyph glyph-name="guillemotleft.cap" horiz-adv-x="627" 
d="M559 595l-174 -238l174 -240l-26 -15l-228 248v12l228 248zM307 595l-174 -238l174 -240l-26 -15l-227 248v12l227 248z" />
    <glyph glyph-name="guillemotright.cap" horiz-adv-x="627" 
d="M68 117l174 238l-174 240l26 15l227 -248v-12l-227 -248zM320 117l173 238l-173 240l26 15l227 -248v-12l-227 -248z" />
    <glyph glyph-name="guilsinglleft.cap" horiz-adv-x="385" 
d="M317 595l-184 -238l184 -240l-26 -15l-237 248v12l237 248z" />
    <glyph glyph-name="guilsinglright.cap" horiz-adv-x="385" 
d="M68 117l184 238l-184 240l26 15l237 -248v-12l-237 -248z" />
    <glyph glyph-name="parenleft.cap" horiz-adv-x="398" 
d="M144 348q0 -128 58.5 -229.5t165.5 -190.5l-21 -25q-129 94 -198 198.5t-69 246.5t69 246.5t198 198.5l21 -25q-107 -89 -165.5 -190.5t-58.5 -229.5z" />
    <glyph glyph-name="parenright.cap" horiz-adv-x="398" 
d="M254 348q0 236 -225 420l21 25q62 -45 108 -89.5t83.5 -98.5t56.5 -118.5t19 -138.5t-19 -138.5t-56.5 -118.5t-83.5 -98.5t-108 -89.5l-21 25q225 184 225 420z" />
    <glyph glyph-name="bracketleft.cap" horiz-adv-x="403" 
d="M113 -87v870h238l13 -44h-188v-782h188l-13 -44h-238z" />
    <glyph glyph-name="bracketright.cap" horiz-adv-x="403" 
d="M290 783v-870h-238l-13 44h188v782h-188l13 44h238z" />
    <glyph glyph-name="braceleft.cap" horiz-adv-x="492" 
d="M440 -87h-100q-84 0 -132.5 38.5t-48.5 105.5q0 38 30 101.5t30 88.5q0 35 -25 53t-77 25l-67 8v30l67 8q52 7 77 25t25 53q0 25 -30 88.5t-30 101.5q0 67 48.5 105.5t132.5 38.5h100l13 -44h-102q-60 0 -92 -24.5t-32 -70.5q0 -30 28.5 -94t28.5 -97q0 -76 -96 -105
q96 -29 96 -105q0 -33 -28.5 -97.5t-28.5 -93.5q0 -46 32.5 -70.5t91.5 -24.5h102z" />
    <glyph glyph-name="braceright.cap" horiz-adv-x="492" 
d="M152 -87h-100l-13 44h102q60 0 92 24.5t32 70.5q0 29 -28.5 93.5t-28.5 97.5q0 76 96 105q-96 29 -96 105q0 33 28.5 97t28.5 94q0 46 -32.5 70.5t-91.5 24.5h-102l13 44h100q84 0 132.5 -38.5t48.5 -105.5q0 -38 -30 -101.5t-30 -88.5q0 -35 25 -53t77 -25l67 -8v-30
l-67 -8q-52 -7 -77 -25t-25 -53q0 -25 30 -88.5t30 -101.5q0 -67 -48.5 -105.5t-132.5 -38.5z" />
    <glyph glyph-name="slash.cap" horiz-adv-x="440" 
d="M10 -90l354 870h59l-355 -870h-58z" />
    <glyph glyph-name="bar.cap" horiz-adv-x="359" 
d="M209 -90h-59v870h59v-870z" />
    <glyph glyph-name="backslash.cap" horiz-adv-x="440" 
d="M430 -90h-58l-355 870h59z" />
    <glyph glyph-name="hyphen.cap" horiz-adv-x="393" 
d="M65 389h263v-62h-263v62z" />
    <glyph glyph-name="endash.cap" horiz-adv-x="549" 
d="M62 389h424v-61h-424v61z" />
    <glyph glyph-name="emdash.cap" horiz-adv-x="929" 
d="M62 389h804v-61h-804v61z" />
    <glyph glyph-name="periodcentered.cap" horiz-adv-x="227" 
d="M56 355q0 24 17 41t41 17t40.5 -17t16.5 -41t-16.5 -41t-40.5 -17q-25 0 -41.5 17t-16.5 41z" />
    <glyph glyph-name="colon.fig" horiz-adv-x="233" 
d="M63 496q0 22 15.5 37.5t37.5 15.5t38 -15.5t16 -37.5t-16 -37.5t-38 -15.5t-37.5 15.5t-15.5 37.5zM63 207q0 21 15.5 37t37.5 16t38 -16t16 -37q0 -23 -16 -38.5t-38 -15.5t-37.5 16t-15.5 38z" />
    <glyph glyph-name="paragraph.alt" horiz-adv-x="534" 
d="M389 700h50v-700h-50v700zM303 0h-49v146h-7q-84 0 -140.5 56.5t-56.5 152.5t56 152t142 56h6v137h49v-700z" />
    <glyph glyph-name="zero.osf" horiz-adv-x="624" 
d="M51 256q0 114 74.5 193t187.5 79q114 0 187 -78.5t73 -191.5q0 -115 -74.5 -193.5t-187.5 -78.5q-114 0 -187 78.5t-73 191.5zM311 468q-81 0 -137.5 -61t-56.5 -149q0 -89 56 -150.5t140 -61.5q81 0 137.5 61t56.5 149q0 89 -56 150.5t-140 61.5z" />
    <glyph glyph-name="one.osf" horiz-adv-x="402" 
d="M283 0h-66v423l-178 -123v69l228 156l16 -4v-521z" />
    <glyph glyph-name="two.osf" horiz-adv-x="528" 
d="M465 0h-417l-4 14l242 214q54 48 77.5 81t23.5 65q0 42 -30 67t-78 25q-104 0 -206 -132h-1l-18 67q101 125 229 125q75 0 122.5 -41t47.5 -108q0 -47 -27.5 -87t-96.5 -101l-151 -130h316z" />
    <glyph glyph-name="three.osf" horiz-adv-x="533" 
d="M226 -193q-91 0 -167 26l-13 70q87 -36 182 -36q75 0 128 38t53 97q0 66 -64.5 98.5t-187.5 28.5l-8 33q126 44 184 91t58 101q0 48 -35 79t-93 31q-95 0 -198 -100h-2v77q97 83 206 83q86 0 137 -46.5t51 -118.5q0 -113 -164 -188q86 -10 134 -55t48 -113
q0 -87 -73.5 -141.5t-175.5 -54.5z" />
    <glyph glyph-name="four.osf" horiz-adv-x="624" 
d="M400 56v375l-271 -375h271zM589 0h-127v-188h-63v188h-366l-3 16l362 505h70v-465h127v-56z" />
    <glyph glyph-name="five.osf" horiz-adv-x="570" 
d="M200 -193q-60 0 -123 18l-12 69q72 -25 138 -25q104 0 170.5 49t66.5 124q0 66 -45.5 102t-116.5 36q-80 0 -171 -37l-12 8v363h380v-63h-316v-231q64 22 132 22q91 0 155 -51.5t64 -144.5q0 -110 -88 -174.5t-222 -64.5z" />
    <glyph glyph-name="six.osf" horiz-adv-x="613" 
d="M307 -14q-115 0 -181.5 67t-66.5 180q0 77 33.5 148t116.5 186l129 178h80l-148 -203q-49 -68 -72 -105q69 24 135 24q95 0 161 -64t66 -166q0 -101 -69 -173t-184 -72zM309 46q81 0 132 54t51 128q0 81 -54 128t-137 47q-62 0 -135 -22q-38 -76 -38 -147q0 -86 49 -137
t132 -51z" />
    <glyph glyph-name="seven.osf" horiz-adv-x="556" 
d="M183 -188h-74l314 640h-372l-15 62h473l6 -12z" />
    <glyph glyph-name="eight.osf" horiz-adv-x="612" 
d="M305 -12q-102 0 -170.5 57.5t-68.5 142.5q0 63 37.5 112.5t98.5 75.5q-53 25 -85 72t-32 105q0 81 63.5 140t158.5 59t157.5 -59t62.5 -140q0 -57 -32 -104t-85 -73q61 -24 98.5 -73t37.5 -113q0 -85 -69.5 -143.5t-171.5 -58.5zM152 550q0 -60 46 -103.5t109 -43.5
q62 0 107 43.5t45 102.5t-44 101t-110 42t-109.5 -42t-43.5 -100zM133 197q0 -66 51.5 -107.5t122.5 -41.5t121.5 41.5t50.5 107.5q0 62 -53.5 105.5t-120.5 43.5t-119.5 -43t-52.5 -106z" />
    <glyph glyph-name="nine.osf" horiz-adv-x="599" 
d="M275 -188h-80l135 181q38 50 62 86q-58 -17 -110 -17q-95 0 -162 60t-67 166q0 100 68.5 170t177.5 70t174.5 -66.5t65.5 -175.5q0 -71 -33 -140t-115 -179zM310 120q56 0 116 15q45 80 45 150q0 83 -48 132.5t-126 49.5q-76 0 -126 -52t-50 -124q0 -85 54.5 -128
t134.5 -43z" />
    <glyph glyph-name="plus.osf" horiz-adv-x="600" 
d="M550 231h-219v-222h-62v222h-219v59h219v220h62v-220h219v-59z" />
    <glyph glyph-name="divide.osf" horiz-adv-x="600" 
d="M247 463q0 22 15.5 38t37.5 16t37.5 -16t15.5 -38t-15.5 -37.5t-37.5 -15.5t-37.5 15.5t-15.5 37.5zM550 231h-500v59h500v-59zM247 56q0 22 15.5 37.5t37.5 15.5t37.5 -15.5t15.5 -37.5t-15.5 -37.5t-37.5 -15.5t-37.5 15.5t-15.5 37.5z" />
    <glyph glyph-name="minus.osf" horiz-adv-x="600" 
d="M550 231h-500v59h500v-59z" />
    <glyph glyph-name="equal.osf" horiz-adv-x="600" 
d="M540 331h-480v59h480v-59zM540 131h-480v59h480v-59z" />
    <glyph glyph-name="notequal.osf" horiz-adv-x="600" 
d="M540 131h-277l-66 -140l-40 18l57 122h-154v59h182l67 141h-249v59h277l66 141l40 -19l-58 -122h155v-59h-182l-67 -141h249v-59z" />
    <glyph glyph-name="asciitilde.osf" horiz-adv-x="600" 
d="M192 345q31 0 114.5 -51.5t103.5 -51.5q23 0 42 20.5t52 82.5l41 -21q-43 -87 -71.5 -118t-65.5 -31q-31 0 -114.5 52t-103.5 52q-23 0 -41.5 -20.5t-52.5 -82.5l-41 20q42 87 71 118t66 31z" />
    <glyph glyph-name="approxequal.osf" horiz-adv-x="600" 
d="M190 462q31 0 114.5 -51.5t104.5 -51.5q22 0 41 20.5t52 82.5l41 -21q-42 -86 -71 -117.5t-65 -31.5q-31 0 -114.5 51.5t-104.5 51.5q-22 0 -41 -20.5t-52 -82.5l-41 21q42 86 71 117.5t65 31.5zM193 229q31 0 114.5 -52t104.5 -52q22 0 41 20.5t52 82.5l41 -20
q-41 -86 -70 -117.5t-66 -31.5q-31 0 -114.5 51.5t-104.5 51.5q-22 0 -41 -20.5t-52 -82.5l-41 21q42 86 71 117.5t65 31.5z" />
    <glyph glyph-name="multiply.osf" horiz-adv-x="600" 
d="M478 39l-178 182l-179 -182l-43 44l181 178l-181 178l44 45l178 -181l178 180l43 -44l-180 -177l181 -178z" />
    <glyph glyph-name="less.osf" horiz-adv-x="600" 
d="M526 7l-462 242v23l462 241v-65l-362 -187l362 -187v-67z" />
    <glyph glyph-name="greater.osf" horiz-adv-x="600" 
d="M74 7v66l362 187l-362 187v66l462 -241v-23z" />
    <glyph glyph-name="numbersign.osf" horiz-adv-x="656" 
d="M392 180l46 154h-175l-45 -154h174zM338 -2l37 123h-175l-36 -123h-47l37 123h-119v59h136l46 154h-139v59h156l37 123h46l-36 -123h174l37 123h46l-36 -123h118v-59h-136l-45 -154h139v-59h-157l-36 -123h-47z" />
    <glyph glyph-name="cent.osf" horiz-adv-x="535" 
d="M118 257q0 -71 37.5 -121t98.5 -64l37 376q-76 -5 -124.5 -60t-48.5 -131zM467 60q-79 -52 -172 -52l-11 -106h-48l11 110q-86 15 -139.5 81t-53.5 163q0 101 68.5 173t172.5 77l10 107h48l-10 -109q68 -9 128 -52v-77h-2q-68 60 -133 70l-36 -378q93 1 178 67l1 -1z" />
    <glyph glyph-name="zero.tab" horiz-adv-x="600" 
d="M299 -14q-119 0 -183 97.5t-64 265.5q0 169 65 267t184 98t183 -97.5t64 -265.5q0 -169 -65 -267t-184 -98zM120 351q0 -140 47.5 -222t133.5 -82q84 0 131.5 81t47.5 221t-48 222t-133 82t-132 -81t-47 -221z" />
    <glyph glyph-name="one.tab" horiz-adv-x="600" 
d="M531 0h-430v58h189v548l-189 -120v74l239 151l18 -4v-649h173v-58z" />
    <glyph glyph-name="two.tab" horiz-adv-x="600" 
d="M532 0h-490l-3 16l295 307q62 64 89 107t27 87q0 57 -39 94t-103 37q-128 0 -233 -165h-2l-21 68q101 159 259 159q92 0 148.5 -52t56.5 -136q0 -60 -31 -112.5t-102 -125.5l-216 -222h382z" />
    <glyph glyph-name="three.tab" horiz-adv-x="600" 
d="M293 -11q-117 0 -221 65l-13 82l2 1q115 -85 231 -85q73 0 123.5 35.5t50.5 93.5q0 65 -65.5 103t-220.5 53v33q146 31 208 71t62 99q0 49 -40 79t-102 30q-118 0 -228 -107l-2 1v76q101 93 231 93q96 0 152.5 -46t56.5 -119q0 -130 -187 -186q205 -38 205 -185
q0 -83 -70 -135t-173 -52z" />
    <glyph glyph-name="four.tab" horiz-adv-x="600" 
d="M105 225h287v407zM577 170h-122v-170h-64v170h-363l-9 29l354 506h82v-479h122v-56z" />
    <glyph glyph-name="five.tab" horiz-adv-x="600" 
d="M279 -12q-111 0 -200 48l-12 73l2 1q106 -60 210 -60q83 0 137.5 46.5t54.5 117.5q0 70 -50.5 110.5t-133.5 40.5q-92 0 -183 -42l-13 7l25 370h390v-63h-329l-17 -235q70 25 138 25q107 0 175 -57t68 -153q0 -98 -72.5 -163.5t-189.5 -65.5z" />
    <glyph glyph-name="six.tab" horiz-adv-x="600" 
d="M300 -14q-112 0 -178.5 67.5t-66.5 177.5q0 76 34.5 150t112.5 176l109 143h81l-130 -169q-54 -69 -85 -125q83 34 156 34q91 0 154.5 -61t63.5 -159q0 -97 -69.5 -165.5t-181.5 -68.5zM302 46q79 0 130.5 50.5t51.5 120.5q0 77 -51 121t-127 44q-75 0 -156 -31
q-27 -60 -27 -118q0 -83 49.5 -135t129.5 -52z" />
    <glyph glyph-name="seven.tab" horiz-adv-x="600" 
d="M214 0h-74l332 638h-409l-16 62h513l4 -14z" />
    <glyph glyph-name="eight.tab" horiz-adv-x="600" 
d="M299 -12q-103 0 -174 55t-71 138q0 60 37 106t97 69q-53 24 -84 67.5t-31 98.5q0 79 65.5 134.5t162.5 55.5t161 -55t64 -135q0 -54 -31 -97.5t-84 -67.5q60 -23 97 -69.5t37 -106.5q0 -82 -71.5 -137.5t-174.5 -55.5zM141 519q0 -56 46.5 -95.5t113.5 -39.5
q65 0 111.5 39t46.5 95q0 57 -46 95.5t-114 38.5t-113 -38.5t-45 -94.5zM122 189q0 -62 52 -101.5t127 -39.5q74 0 125.5 39.5t51.5 101.5q0 59 -54 98t-125 39t-124 -39t-53 -98z" />
    <glyph glyph-name="nine.tab" horiz-adv-x="600" 
d="M288 0h-81l131 169q52 68 82 120q-81 -33 -154 -33q-90 0 -154 62t-64 160t70 167t181 69q112 0 179 -67.5t67 -177.5q0 -76 -34.5 -150t-113.5 -176zM294 314q77 0 154 30q28 65 28 123q0 83 -49.5 135t-128.5 52q-80 0 -131 -51t-51 -122q0 -78 51 -122.5t127 -44.5z
" />
    <glyph glyph-name="twodotleader" horiz-adv-x="600" 
d="M396 47q0 22 16 38t38 16t38 -16t16 -38q0 -23 -16 -38.5t-38 -15.5t-38 15.5t-16 38.5zM96 47q0 22 16 38t38 16t38 -16t16 -38q0 -23 -16 -38.5t-38 -15.5t-38 15.5t-16 38.5z" />
    <glyph glyph-name="quotedbl.tab" horiz-adv-x="600" 
d="M431 700h84l-152 -289l-29 11zM205 700h85l-152 -289l-29 11z" />
    <glyph glyph-name="quotesingle.tab" horiz-adv-x="300" 
d="M166 700h84l-152 -289l-29 11z" />
    <glyph glyph-name="period.tab" horiz-adv-x="300" 
d="M93 50q0 24 16.5 41t40.5 17t40.5 -17t16.5 -41q0 -23 -16.5 -40t-40.5 -17t-40.5 17t-16.5 40z" />
    <glyph glyph-name="comma.tab" horiz-adv-x="300" 
d="M53 -161l-25 21q47 56 67.5 105.5t27.5 129.5h76q-8 -91 -40.5 -143.5t-105.5 -112.5z" />
    <glyph glyph-name="colon.tab" horiz-adv-x="300" 
d="M94 444q0 23 16.5 40t39.5 17q24 0 40 -16.5t16 -40.5q0 -23 -16 -39.5t-40 -16.5q-23 0 -39.5 16.5t-16.5 39.5zM94 49q0 23 16.5 40t39.5 17q24 0 40 -16.5t16 -40.5q0 -23 -16 -39.5t-40 -16.5q-23 0 -39.5 16.5t-16.5 39.5z" />
    <glyph glyph-name="colon.figtab" horiz-adv-x="300" 
d="M97 496q0 22 15.5 37.5t37.5 15.5t37.5 -15.5t15.5 -37.5t-15.5 -37.5t-37.5 -15.5t-37.5 15.5t-15.5 37.5zM97 207q0 21 15.5 37t37.5 16t37.5 -16t15.5 -37q0 -23 -15.5 -38.5t-37.5 -15.5t-37.5 16t-15.5 38z" />
    <glyph glyph-name="periodcentered.tab" horiz-adv-x="300" 
d="M93 354q0 24 16.5 41t40.5 17t40.5 -17t16.5 -41q0 -23 -16.5 -40t-40.5 -17t-40.5 17t-16.5 40z" />
    <glyph glyph-name="slash.tab" horiz-adv-x="600" 
d="M18 -87l494 870h67l-494 -870h-67z" />
    </font>
</defs>
</svg>
